<svg width="256" height="256" viewBox="0 0 256 256" fill="none" xmlns="http://www.w3.org/2000/svg">
<path d="M214.571 62.944C213.704 61.7943 212.779 60.6906 211.797 59.6373C212.784 57.0074 213.534 54.2943 214.037 51.5307C215.523 41.4208 214.233 31.0971 210.304 21.664C210.304 21.664 198.357 17.9307 170.944 36.384C159.306 33.1706 147.284 31.5557 135.211 31.584C123.102 31.5628 111.047 33.1774 99.3707 36.384C71.9573 17.7173 60.0107 21.664 60.0107 21.664C56.1288 30.9972 54.839 41.2053 56.2773 51.2107C56.7835 54.0892 57.5694 56.9115 58.624 59.6373C57.664 60.704 56.704 61.8773 55.8507 62.944C47.891 72.9282 43.6658 85.3775 43.904 98.144C43.8787 101.172 44.0211 104.199 44.3307 107.211C47.744 154.464 79.2107 165.451 109.184 168.864C104.942 172.809 102.065 178.002 100.971 183.691C99.9792 187.485 99.5127 191.397 99.584 195.317V209.291C87.648 210.357 75.4027 208.619 71.6053 197.973C67.5291 187.784 60.7688 178.89 52.0427 172.235C51.4049 171.889 50.7982 171.49 50.2293 171.04C49.4631 169.026 48.1055 167.291 46.335 166.063C44.5645 164.836 42.4639 164.172 40.3093 164.16H40.256C37.4362 164.16 34.7312 165.276 32.7323 167.265C30.7334 169.254 29.6034 171.954 29.5893 174.773C29.5573 183.435 38.2293 189.035 41.7813 190.933C45.9312 195.115 49.2695 200.03 51.6267 205.429C55.5093 216.341 66.8693 232.928 99.264 230.773L99.2853 231.819L99.328 234.677C99.328 237.506 100.452 240.219 102.452 242.22C104.453 244.22 107.166 245.344 109.995 245.344H160.277C163.106 245.344 165.819 244.22 167.82 242.22C169.82 240.219 170.944 237.506 170.944 234.677C170.944 234.677 171.029 200.971 171.029 195.317C171.1 191.397 170.634 187.485 169.643 183.691L169.621 183.627L169.664 183.691C169.568 183.317 169.429 183.019 169.323 182.656C168.134 177.371 165.384 172.566 161.429 168.864L161.557 169.088L161.344 168.875C191.317 165.461 222.571 154.261 225.984 107.221C226.294 104.209 226.436 101.182 226.411 98.1547C226.6 85.4135 222.422 72.9914 214.571 62.9547V62.944Z" fill="#999999"/>
</svg>
