<svg width="28" height="28" viewBox="0 0 28 28" fill="none" xmlns="http://www.w3.org/2000/svg">
<path d="M15.1667 3.5C9.36841 3.5 4.66675 8.20167 4.66675 14H1.16675L5.70508 18.5383L5.78675 18.7017L10.5001 14H7.00008C7.00008 9.485 10.6517 5.83333 15.1667 5.83333C19.6817 5.83333 23.3334 9.485 23.3334 14C23.3334 18.515 19.6817 22.1667 15.1667 22.1667C12.9151 22.1667 10.8734 21.245 9.40341 19.7633L7.74675 21.42C9.64841 23.3217 12.2617 24.5 15.1667 24.5C20.9651 24.5 25.6667 19.7983 25.6667 14C25.6667 8.20167 20.9651 3.5 15.1667 3.5ZM14.0001 9.33333V15.1667L18.9934 18.13L19.8334 16.7183L15.7501 14.2917V9.33333H14.0001Z" fill="white"/>
</svg>
