<svg width="256" height="256" viewBox="0 0 256 256" fill="none" xmlns="http://www.w3.org/2000/svg">
<path d="M202.667 21.3333H158.08C153.6 8.96 141.867 0 128 0C114.133 0 102.4 8.96 97.92 21.3333H53.3333C41.6 21.3333 32 30.9333 32 42.6667V213.333C32 225.067 41.6 234.667 53.3333 234.667H202.667C214.4 234.667 224 225.067 224 213.333V42.6667C224 30.9333 214.4 21.3333 202.667 21.3333ZM128 21.3333C133.867 21.3333 138.667 26.1333 138.667 32C138.667 37.8667 133.867 42.6667 128 42.6667C122.133 42.6667 117.333 37.8667 117.333 32C117.333 26.1333 122.133 21.3333 128 21.3333ZM192 213.333H64C58.1333 213.333 53.3333 208.533 53.3333 202.667V53.3333C53.3333 47.4667 58.1333 42.6667 64 42.6667H74.6667V53.3333C74.6667 65.0667 84.2667 74.6667 96 74.6667H160C171.733 74.6667 181.333 65.0667 181.333 53.3333V42.6667H192C197.867 42.6667 202.667 47.4667 202.667 53.3333V202.667C202.667 208.533 197.867 213.333 192 213.333Z" fill="#999999"/>
</svg>
