<svg width="25" height="28" viewBox="0 0 25 28" fill="none" xmlns="http://www.w3.org/2000/svg">
<path d="M11.9386 0.0274944C11.8948 0.0439224 9.2224 1.74703 6.00786 3.81156C1.73641 6.54967 0.137355 7.60658 0.0771171 7.7161C0.0114025 7.84753 0.000450051 8.80039 0.000450051 14.1726C0.000450051 21.1438 -0.026931 20.6454 0.345452 20.8864C0.444023 20.9466 3.08356 22.5731 6.21595 24.5007C11.5388 27.77 11.9276 28 12.1576 28C12.3876 28 12.7874 27.7645 18.0993 24.5007C21.2317 22.5785 23.8713 20.9576 23.9698 20.8919C24.3422 20.64 24.3148 21.1493 24.3148 14.1616C24.3094 9.31516 24.2929 7.82015 24.2437 7.72705C24.2053 7.66134 24.1177 7.56277 24.041 7.50253C23.9644 7.44777 21.3194 5.74466 18.1651 3.71846C12.3548 -0.0108395 12.2234 -0.0875072 11.9386 0.0274944ZM14.266 3.07775C15.3831 3.79513 16.2922 4.39751 16.2922 4.42489C16.2922 4.49061 12.2617 7.07538 12.1576 7.07538C12.0536 7.07538 8.0231 4.49061 8.0231 4.42489C8.0231 4.35918 12.1193 1.74155 12.185 1.76345C12.2179 1.77441 13.1543 2.36584 14.266 3.07775ZM8.47763 6.64276C9.5674 7.33277 10.4545 7.91324 10.4545 7.92967C10.46 7.9461 9.55645 8.53206 8.4612 9.23301L6.46238 10.509L4.46356 9.23301C3.36832 8.53206 2.46475 7.9461 2.47022 7.92967C2.47022 7.89134 6.42953 5.36133 6.46786 5.37228C6.48429 5.37776 7.39334 5.94728 8.47763 6.64276ZM19.7805 6.59348C20.8429 7.27253 21.741 7.85848 21.7794 7.89134C21.8341 7.94062 21.396 8.24729 19.8517 9.23849L17.8529 10.5144L15.8541 9.23849C14.5124 8.37872 13.8772 7.94062 13.9155 7.90229C13.9538 7.86396 17.7434 5.40514 17.8365 5.36133C17.842 5.35585 18.7127 5.91442 19.7805 6.59348ZM3.6257 10.5364C4.74285 11.2483 5.66286 11.8616 5.67381 11.8945C5.68476 11.9273 5.69024 12.8966 5.68476 14.0521L5.66833 16.144L3.6038 14.8735L1.53379 13.5976V11.4235C1.53379 10.2242 1.55022 9.24396 1.57212 9.24396C1.58855 9.24396 2.51403 9.82444 3.6257 10.5364ZM11.391 11.4235V13.603L9.32644 14.8735L7.25643 16.144L7.24001 14.0247C7.22905 12.3764 7.24548 11.889 7.29477 11.8397C7.39334 11.7466 11.2979 9.24944 11.3526 9.24396C11.3745 9.24396 11.391 10.2242 11.391 11.4235ZM15.0162 10.5418C16.1334 11.2537 17.0534 11.8671 17.0643 11.8945C17.0753 11.9273 17.0808 12.8966 17.0753 14.0521L17.0589 16.144L14.9943 14.8735L12.9243 13.6085V11.4235C12.9243 10.2242 12.9407 9.24396 12.9572 9.24396C12.9736 9.24396 13.9046 9.82992 15.0162 10.5418ZM22.7815 11.4235V13.6085L20.7444 14.8571C19.6217 15.5416 18.6853 16.1166 18.6579 16.1276C18.636 16.1385 18.6251 15.1857 18.6305 14.0028L18.647 11.8506L20.6732 10.5473C21.7903 9.8354 22.7158 9.24944 22.7432 9.24396C22.7651 9.24396 22.7815 10.2242 22.7815 11.4235ZM14.2496 16.2316C15.3886 16.9435 16.3141 17.5459 16.3086 17.5733C16.2977 17.5952 15.3612 18.1976 14.2222 18.904L12.1576 20.1909L10.0493 18.8712L7.94096 17.5514L10.0329 16.248C11.1884 15.5307 12.1412 14.9392 12.1522 14.9392C12.1686 14.9392 13.1105 15.5197 14.2496 16.2316ZM3.70785 16.7519L5.69571 17.9621V20.1526V22.3376L5.48762 22.2116C5.37262 22.1405 4.43618 21.5654 3.40666 20.9357L1.53379 19.7857V17.628C1.53379 15.6457 1.53927 15.4759 1.62689 15.5088C1.67617 15.5307 2.6126 16.0892 3.70785 16.7519ZM22.7815 17.639V19.7912L20.8265 20.9904C19.7477 21.6476 18.8112 22.2226 18.7401 22.2664L18.6196 22.3431L18.6305 20.1909L18.647 18.0333L20.6732 16.7628C21.7903 16.0619 22.7158 15.4868 22.7432 15.4868C22.7651 15.4868 22.7815 16.4561 22.7815 17.639ZM8.5762 19.7364C9.26621 20.1745 9.86311 20.5633 9.89597 20.6016C9.96169 20.6564 9.42502 21.0123 7.43715 22.2116L7.22905 22.3376V20.64C7.22905 19.7035 7.25096 18.9369 7.27286 18.9369C7.30024 18.9369 7.8862 19.2983 8.5762 19.7364ZM17.0862 20.64V22.3376L16.8781 22.2116C15.1586 21.1821 14.3591 20.6564 14.4193 20.6016C14.5179 20.5031 16.9931 18.9369 17.0424 18.9369C17.0643 18.9369 17.0862 19.7035 17.0862 20.64ZM11.391 23.7286C11.391 24.8567 11.3691 25.7821 11.3472 25.7821C11.2979 25.7821 8.11072 23.8326 8.03406 23.7614C7.99025 23.7176 11.2431 21.675 11.3472 21.675C11.3691 21.675 11.391 22.6005 11.391 23.7286ZM14.7096 22.7209C15.5967 23.2686 16.3086 23.734 16.2812 23.7614C16.2046 23.8326 13.0174 25.7821 12.9681 25.7821C12.9462 25.7821 12.9243 24.8567 12.9243 23.7231C12.9243 21.8885 12.9353 21.6695 13.0065 21.6969C13.0557 21.7133 13.8224 22.1733 14.7096 22.7209Z" fill="#AAAAAA"/>
</svg>
