<svg width="256" height="256" viewBox="0 0 256 256" fill="none" xmlns="http://www.w3.org/2000/svg">
<path d="M204.16 137.984C204.544 134.784 204.8 131.456 204.8 128C204.8 124.544 204.544 121.216 204.032 118.016L225.664 101.12C227.584 99.5839 228.096 96.7679 226.944 94.5919L206.464 59.1359C205.184 56.8319 202.496 56.0639 200.192 56.8319L174.72 67.0719C169.344 62.9759 163.712 59.6479 157.44 57.0879L153.6 29.9519C153.216 27.3919 151.04 25.5999 148.48 25.5999H107.52C104.96 25.5999 102.912 27.3919 102.528 29.9519L98.6879 57.0879C92.4159 59.6479 86.6559 63.1039 81.4079 67.0719L55.9359 56.8319C53.6319 55.9359 50.9439 56.8319 49.6639 59.1359L29.1839 94.5919C27.9039 96.8959 28.4159 99.5839 30.4639 101.12L52.0959 118.016C51.5839 121.216 51.1999 124.672 51.1999 128C51.1999 131.328 51.4559 134.784 51.9679 137.984L30.3359 154.88C28.4159 156.416 27.9039 159.232 29.0559 161.408L49.5359 196.864C50.8159 199.168 53.5039 199.936 55.8079 199.168L81.2799 188.928C86.6559 193.024 92.2879 196.352 98.5599 198.912L102.4 226.048C102.912 228.608 104.96 230.4 107.52 230.4H148.48C151.04 230.4 153.216 228.608 153.472 226.048L157.312 198.912C163.584 196.352 169.344 192.896 174.592 188.928L200.064 199.168C202.368 200.064 205.056 199.168 206.336 196.864L226.816 161.408C228.096 159.104 227.584 156.416 225.536 154.88L204.16 137.984V137.984ZM128 166.4C106.88 166.4 89.5999 149.12 89.5999 128C89.5999 106.88 106.88 89.5999 128 89.5999C149.12 89.5999 166.4 106.88 166.4 128C166.4 149.12 149.12 166.4 128 166.4Z" fill="#999999"/>
</svg>
