<svg width="128" height="128" viewBox="0 0 128 128" fill="none" xmlns="http://www.w3.org/2000/svg">
    <path fill-rule="evenodd" clip-rule="evenodd" d="M48 90.6667L64 74.9867C61.92 74.7733 60.3733 74.6667 58.6667 74.6667C44.4267 74.6667 16 81.8133 16 96V106.667H64L48 90.6667ZM58.6667 64C70.4533 64 80 54.4533 80 42.6667C80 30.88 70.4533 21.3333 58.6667 21.3333C46.88 21.3333 37.3333 30.88 37.3333 42.6667C37.3333 54.4533 46.88 64 58.6667 64Z" fill="#999999"/>
    <path fill-rule="evenodd" clip-rule="evenodd" d="M82.5067 109.333L64 90.6667L71.4667 83.1467L82.5067 94.24L109.867 66.6667L117.333 74.1867L82.5067 109.333Z" fill="#999999"/>
</svg>
