<svg width="423" height="144" viewBox="0 0 423 144" fill="none" xmlns="http://www.w3.org/2000/svg">
<g clip-path="url(#clip0)">
<path d="M65.7243 28.8462L54.4973 24.0853L56.4119 15.4207L60.4123 16.1121L59.1005 22.0398L67.4923 25.5978L65.7243 28.8462Z" fill="#F9B117"/>
<path d="M65.7243 28.8462L54.4973 24.0853L56.4119 15.4207L60.4123 16.1121L59.1005 22.0398L67.4923 25.5978L65.7243 28.8462Z" stroke="#141414" stroke-width="2" stroke-miterlimit="10"/>
<path d="M58.4161 17.5886C61.2194 17.5886 63.4919 15.5796 63.4919 13.1014C63.4919 10.6232 61.2194 8.61426 58.4161 8.61426C55.6128 8.61426 53.3403 10.6232 53.3403 13.1014C53.3403 15.5796 55.6128 17.5886 58.4161 17.5886Z" fill="#0E394F"/>
<path d="M58.4161 17.5886C61.2194 17.5886 63.4919 15.5796 63.4919 13.1014C63.4919 10.6232 61.2194 8.61426 58.4161 8.61426C55.6128 8.61426 53.3403 10.6232 53.3403 13.1014C53.3403 15.5796 55.6128 17.5886 58.4161 17.5886Z" stroke="#141414" stroke-width="2" stroke-miterlimit="10"/>
<path d="M52.2893 37.8852C52.9805 35.167 54.4702 32.658 56.6082 30.6111C58.7461 28.5642 61.4568 27.0519 64.4668 26.2265C67.4768 25.4011 70.6797 25.2919 73.7527 25.9099C76.8257 26.5278 79.66 27.8511 81.97 29.7464L91.3475 37.4531L123.546 63.7711L81.6604 75.2951L39.7832 86.8191L49.4703 48.9051L52.2893 37.8852Z" fill="#FACA3F"/>
<path d="M92.6268 38.3821L51.157 49.7621L51.7925 47.2772C56.1427 46.5784 60.3342 45.2549 64.2008 43.359C71.1227 40.0917 76.7446 35.0262 80.308 28.8459C81.482 29.4566 82.5751 30.1814 83.567 31.0067L92.6268 38.3821Z" fill="#F99F00"/>
<path d="M293.678 129.386H310.836C313.406 129.392 315.952 128.949 318.329 128.084C320.706 127.219 322.866 125.948 324.686 124.344V124.344C328.353 121.103 333.327 119.282 338.512 119.282C343.698 119.282 348.671 121.103 352.338 124.344L356.005 127.585C357.825 129.189 359.986 130.46 362.362 131.325C364.739 132.19 367.285 132.633 369.855 132.627H396.383" stroke="#141414" stroke-width="2" stroke-miterlimit="10"/>
<path d="M416.067 125.943C412.107 119.238 405.019 114.21 395.87 114.21C390.757 114.217 385.783 115.683 381.689 118.39C377.594 121.097 374.598 124.901 373.147 129.235C372.922 129.931 372.883 130.663 373.033 131.374C373.184 132.086 373.519 132.756 374.013 133.333C374.507 133.91 375.146 134.378 375.879 134.699C376.612 135.02 377.42 135.186 378.239 135.184H407.333L416.833 134.464" fill="#2C6E9B"/>
<path opacity="0.3" d="M380.569 129.235C380.342 129.93 380.302 130.662 380.451 131.374C380.601 132.085 380.935 132.756 381.428 133.333C381.922 133.91 382.56 134.378 383.293 134.699C384.027 135.021 384.834 135.187 385.653 135.184H378.206C377.388 135.186 376.58 135.02 375.846 134.699C375.113 134.378 374.474 133.91 373.98 133.333C373.486 132.756 373.151 132.086 373.001 131.374C372.85 130.663 372.889 129.931 373.114 129.235C374.567 124.896 377.568 121.089 381.669 118.381C385.77 115.674 390.751 114.211 395.869 114.21C397.119 114.209 398.367 114.296 399.601 114.47C395.176 115.093 391.041 116.81 387.673 119.423C384.306 122.036 381.843 125.437 380.569 129.235Z" fill="#0E3964"/>
<path d="M416.898 132.21C416.932 128.522 415.666 124.916 413.276 121.893C410.886 118.87 407.49 116.58 403.561 115.341C400.539 114.428 397.34 114.063 394.155 114.268C390.971 114.473 387.865 115.244 385.026 116.536C382.186 117.827 379.67 119.611 377.629 121.782C375.588 123.953 374.063 126.466 373.147 129.17C372.912 129.868 372.865 130.605 373.009 131.321C373.153 132.038 373.484 132.715 373.976 133.299C374.468 133.883 375.108 134.357 375.843 134.685C376.579 135.012 377.391 135.183 378.214 135.184H413.549C413.991 135.184 414.428 135.107 414.836 134.958C415.243 134.808 415.614 134.589 415.926 134.312C416.237 134.036 416.484 133.708 416.653 133.347C416.821 132.986 416.907 132.6 416.906 132.21H416.898Z" stroke="#141414" stroke-width="2" stroke-miterlimit="10"/>
<path d="M56.6767 103.065L70.3491 99.3162L78.3998 122.266C78.9631 123.871 78.7818 125.609 77.8958 127.096C77.0099 128.583 75.4918 129.699 73.6757 130.197C71.8595 130.695 69.894 130.534 68.2115 129.751C66.529 128.968 65.2673 127.626 64.7041 126.02L56.6533 103.071L56.6767 103.065Z" fill="#FBD766"/>
<path d="M106.486 88.791L120.182 85.0362L128.232 107.985C128.796 109.591 128.614 111.329 127.728 112.816C126.842 114.303 125.324 115.419 123.508 115.917C121.692 116.415 119.726 116.254 118.044 115.471C116.361 114.688 115.1 113.346 114.537 111.74L106.486 88.791Z" fill="#FBD766"/>
<path d="M56.6767 103.065L70.3491 99.3162L78.3998 122.266C78.9631 123.871 78.7818 125.609 77.8958 127.096C77.0099 128.583 75.4918 129.699 73.6757 130.197C71.8595 130.695 69.894 130.534 68.2115 129.751C66.529 128.968 65.2673 127.626 64.7041 126.02L56.6533 103.071L56.6767 103.065Z" stroke="#141414" stroke-width="2" stroke-miterlimit="10"/>
<path d="M106.486 88.791L120.182 85.0362L128.232 107.985C128.796 109.591 128.614 111.329 127.728 112.816C126.842 114.303 125.324 115.419 123.508 115.917C121.692 116.415 119.726 116.254 118.044 115.471C116.361 114.688 115.1 113.346 114.537 111.74L106.486 88.791V88.791Z" stroke="#141414" stroke-width="2" stroke-miterlimit="10"/>
<path opacity="0.7" d="M61.7974 108.664L64.4941 116.357" stroke="white" stroke-width="2.8" stroke-linecap="round" stroke-linejoin="round"/>
<path d="M60.8436 92.9696L110.211 79.435L120.105 107.64C120.676 109.266 120.878 110.976 120.701 112.671C120.524 114.366 119.971 116.014 119.074 117.521C118.177 119.027 116.953 120.363 115.472 121.451C113.99 122.539 112.281 123.359 110.442 123.863L89.0424 129.73C85.3275 130.749 81.3071 130.421 77.8656 128.819C74.4241 127.217 71.8435 124.472 70.6914 121.188L60.7969 92.9824L60.8436 92.9696Z" fill="#FACA3F"/>
<path d="M114.543 91.8297L65.1758 105.364L67.0533 110.716L116.42 97.1818L114.543 91.8297Z" fill="#F7B000"/>
<path d="M60.8436 92.9696L110.211 79.435L120.105 107.64C120.676 109.266 120.878 110.976 120.701 112.671C120.524 114.366 119.971 116.014 119.074 117.521C118.177 119.027 116.953 120.363 115.472 121.451C113.99 122.539 112.281 123.359 110.442 123.863L89.0424 129.73C85.3275 130.749 81.3071 130.421 77.8656 128.819C74.4241 127.217 71.8435 124.472 70.6914 121.188L60.7969 92.9824L60.8436 92.9696Z" stroke="#141414" stroke-width="2" stroke-miterlimit="10"/>
<path d="M52.2895 37.8852C52.9808 35.167 54.4704 32.658 56.6084 30.6111C58.7463 28.5642 61.457 27.0519 64.467 26.2265C67.477 25.4011 70.6799 25.2919 73.7529 25.9099C76.8259 26.5278 79.6602 27.8511 81.9702 29.7464L91.3477 37.4531L122.731 63.7711L81.6606 75.2951L40.5981 86.8191L49.4706 48.9051L52.2895 37.8852Z" stroke="#141414" stroke-width="2" stroke-miterlimit="10"/>
<path d="M102.581 34.0254L39.1489 51.5491C33.5074 53.1077 30.3632 58.4141 32.1262 63.4013L45.5497 101.375C47.3127 106.363 53.3151 109.142 58.9566 107.584L122.388 90.0599C128.03 88.5014 131.174 83.195 129.411 78.2077L115.987 40.2337C114.224 35.2464 108.222 32.4669 102.581 34.0254Z" fill="#F9B117"/>
<path opacity="0.5" d="M127.416 75.2878L128.426 78.1688C129.262 80.5509 128.993 83.1288 127.679 85.3357C126.365 87.5426 124.114 89.198 121.419 89.9378L58.3104 107.224C55.6148 107.963 52.6976 107.725 50.1999 106.564C47.7022 105.402 45.8281 103.412 44.9895 101.03L43.9792 98.1486C44.8161 100.53 46.6886 102.521 49.185 103.682C51.6814 104.844 54.5974 105.081 57.2919 104.343L120.409 87.0568C121.747 86.6954 122.99 86.1035 124.068 85.315C125.145 84.5266 126.035 83.5573 126.687 82.4631C127.338 81.3689 127.738 80.1715 127.863 78.9399C127.988 77.7084 127.836 76.4672 127.416 75.2878Z" fill="#E59303"/>
<path d="M102.762 39.2502L42.3649 55.9356C38.9783 56.8712 37.0908 60.0567 38.1492 63.0505L50.7221 98.6183C51.7804 101.612 55.3837 103.281 58.7703 102.345L119.167 85.6598C122.554 84.7242 124.441 81.5388 123.383 78.5449L110.81 42.9771C109.752 39.9832 106.148 38.3147 102.762 39.2502Z" fill="#0E394F"/>
<path d="M120.653 73.4656L122.438 78.5073C122.686 79.2158 122.774 79.9605 122.697 80.6991C122.619 81.4376 122.378 82.1554 121.987 82.8115C121.596 83.4677 121.062 84.0493 120.417 84.5231C119.772 84.9969 119.027 85.3537 118.225 85.573L58.1391 102.045C56.5196 102.489 54.7671 102.346 53.2668 101.647C51.7665 100.949 50.6413 99.7529 50.1384 98.3215L48.3623 93.2797C48.8651 94.7093 49.9895 95.9038 51.4882 96.6007C52.987 97.2976 54.7374 97.4399 56.3548 96.9962L116.449 80.5168C118.064 80.0738 119.414 79.0824 120.202 77.7603C120.99 76.4381 121.153 74.8935 120.653 73.4656Z" fill="#062538"/>
<path d="M71.7552 67.4111C71.346 66.2447 69.9447 65.5924 68.6253 65.9542C67.3059 66.3159 66.568 67.5547 66.9772 68.7211L70.0397 77.4509C70.4489 78.6173 71.8501 79.2696 73.1695 78.9079C74.4889 78.5462 75.2268 77.3074 74.8176 76.141L71.7552 67.4111Z" fill="#4CF58C"/>
<path d="M89.595 62.521C89.1858 61.3546 87.7845 60.7023 86.4651 61.064C85.1458 61.4258 84.4079 62.6645 84.8171 63.8309L87.8795 72.5608C88.2887 73.7272 89.69 74.3795 91.0094 74.0177C92.3288 73.656 93.0667 72.4172 92.6575 71.2508L89.595 62.521Z" fill="#4CF58C"/>
<path d="M53.0228 61.2099C54.1316 60.9057 54.7515 59.8646 54.4074 58.8844C54.0633 57.9042 52.8856 57.3562 51.7769 57.6604L43.7544 59.8612C42.6456 60.1653 42.0257 61.2065 42.3698 62.1867C42.7139 63.1669 43.8916 63.7149 45.0003 63.4107L53.0228 61.2099Z" fill="#185472"/>
<path d="M57.8702 59.788C58.9771 59.788 59.8744 58.9948 59.8744 58.0162C59.8744 57.0377 58.9771 56.2444 57.8702 56.2444C56.7633 56.2444 55.866 57.0377 55.866 58.0162C55.866 58.9948 56.7633 59.788 57.8702 59.788Z" fill="#185472"/>
<path d="M58.8996 47.2194L46.0599 50.7396C45.282 50.9528 44.8464 51.6817 45.087 52.3674C45.3275 53.0532 46.1532 53.4363 46.9311 53.223L59.7708 49.7028C60.5487 49.4896 60.9843 48.7607 60.7437 48.0749C60.5031 47.3892 59.6775 47.0061 58.8996 47.2194Z" fill="#FFCB6E"/>
<path d="M62.9787 48.7467C63.8246 48.7467 64.5104 48.1405 64.5104 47.3927C64.5104 46.6448 63.8246 46.0386 62.9787 46.0386C62.1328 46.0386 61.447 46.6448 61.447 47.3927C61.447 48.1405 62.1328 48.7467 62.9787 48.7467Z" fill="#FFCB6E"/>
<path d="M70.4437 33.0036L63.3312 34.9536C62.8413 35.0879 62.5673 35.5479 62.7192 35.981C62.8712 36.4141 63.3915 36.6564 63.8814 36.522L70.9939 34.5721C71.4838 34.4378 71.7578 33.9777 71.6059 33.5446C71.4539 33.1115 70.9336 32.8693 70.4437 33.0036Z" fill="#F7B40D"/>
<path d="M69.5599 30.4894L62.4474 32.4394C61.9575 32.5737 61.6835 33.0337 61.8354 33.4669C61.9874 33.9 62.5077 34.1422 62.9976 34.0079L70.1101 32.0579C70.6 31.9236 70.874 31.4636 70.7221 31.0305C70.5702 30.5973 70.0498 30.3551 69.5599 30.4894Z" fill="#F7B40D"/>
<path d="M99.9926 111.373L89.1216 114.353C88.3695 114.559 87.9483 115.264 88.1809 115.927C88.4135 116.59 89.2117 116.96 89.9638 116.754L100.835 113.773C101.587 113.567 102.008 112.863 101.775 112.2C101.543 111.537 100.745 111.166 99.9926 111.373Z" fill="#F7B40D"/>
<path d="M99.6019 107.716L88.6754 110.735C87.9194 110.944 87.4976 111.653 87.7332 112.32C87.9687 112.986 88.7725 113.357 89.5284 113.148L100.455 110.129C101.211 109.921 101.633 109.211 101.397 108.545C101.162 107.878 100.358 107.507 99.6019 107.716Z" fill="#F7B40D"/>
<path d="M102.581 34.0254L39.1489 51.5491C33.5074 53.1077 30.3632 58.4141 32.1262 63.4013L45.5497 101.375C47.3127 106.363 53.3151 109.142 58.9566 107.584L122.388 90.0599C128.03 88.5014 131.174 83.195 129.411 78.2077L115.987 40.2337C114.224 35.2464 108.222 32.4669 102.581 34.0254Z" stroke="#141414" stroke-width="2.01157" stroke-miterlimit="10"/>
<path opacity="0.2" d="M333.225 136.437C333.225 140.615 236.5 144 152.355 144C68.2093 144 0 140.615 0 136.437C0 132.26 68.2093 128.875 152.355 128.875C236.5 128.875 333.225 132.26 333.225 136.437Z" fill="#0E394F"/>
<path opacity="0.2" d="M423 136.437C423 138.13 407.52 139.506 394.053 139.506C380.585 139.506 369.668 138.13 369.668 136.437C369.668 134.745 380.585 133.369 394.053 133.369C407.52 133.369 423 134.745 423 136.437Z" fill="#0E394F"/>
<path d="M303.699 0.720215H136.345C135.163 0.721615 134.019 1.09137 133.114 1.7645C132.21 2.43763 131.603 3.37105 131.4 4.4007L111.977 117.207C111.853 117.843 111.889 118.496 112.08 119.119C112.272 119.743 112.615 120.322 113.086 120.815C113.557 121.309 114.144 121.706 114.807 121.979C115.469 122.251 116.191 122.392 116.922 122.392H290.671C291.832 122.385 292.954 122.023 293.845 121.366C294.737 120.709 295.343 119.799 295.56 118.791L315.659 13.5191C315.99 11.9623 315.93 10.3602 315.482 8.82631C315.035 7.29243 314.211 5.86429 313.07 4.64305C311.929 3.42182 310.498 2.43738 308.879 1.75947C307.259 1.08156 305.491 0.726762 303.699 0.720215Z" fill="#0E3964"/>
<path d="M303.699 0.720215H136.345C135.163 0.721615 134.019 1.09137 133.114 1.7645C132.21 2.43763 131.603 3.37105 131.4 4.4007L111.977 117.207C111.853 117.843 111.889 118.496 112.08 119.119C112.272 119.743 112.615 120.322 113.086 120.815C113.557 121.309 114.144 121.706 114.807 121.979C115.469 122.251 116.191 122.392 116.922 122.392H290.671C291.832 122.385 292.954 122.023 293.845 121.366C294.737 120.709 295.343 119.799 295.56 118.791L315.659 13.5191C315.99 11.9623 315.93 10.3602 315.482 8.82631C315.035 7.29243 314.211 5.86429 313.07 4.64306C311.929 3.42182 310.498 2.43738 308.879 1.75947C307.259 1.08156 305.491 0.726762 303.699 0.720215V0.720215Z" stroke="#141414" stroke-width="2" stroke-miterlimit="10"/>
<path d="M303.895 0.720216H129.347C127.535 0.719339 125.782 1.28501 124.396 2.31712C123.011 3.34924 122.084 4.78126 121.778 6.35979L101.719 122.392H285.971L308.213 5.32263C308.333 4.76148 308.311 4.18387 308.149 3.63098C307.988 3.07809 307.69 2.56353 307.278 2.12398C306.865 1.68444 306.348 1.33074 305.763 1.08809C305.179 0.845447 304.541 0.719837 303.895 0.720216Z" fill="#2C6E9B"/>
<path d="M303.895 0.720216H129.347C127.535 0.719339 125.782 1.28501 124.396 2.31712C123.011 3.34924 122.084 4.78126 121.778 6.35979L101.719 122.392H285.971L308.213 5.32263C308.333 4.76148 308.311 4.18387 308.149 3.63098C307.988 3.07809 307.69 2.56353 307.278 2.12398C306.865 1.68444 306.348 1.33074 305.763 1.08809C305.179 0.845447 304.541 0.719837 303.895 0.720216V0.720216Z" stroke="#141414" stroke-width="2" stroke-miterlimit="10"/>
<path d="M299.12 9.36328H130.56L112.775 113.749H279.607L299.12 9.36328Z" fill="#0E394F"/>
<path d="M299.601 9.52173L298.68 13.8432H130.194L131.033 9.52173H299.601Z" fill="#062538"/>
<path d="M135.367 9.36328L117.574 113.749H112.685L130.479 9.36328H135.367Z" fill="#062538"/>
<path d="M154.53 20.9377H145.47L144.313 23.97H154.082L154.53 20.9377Z" fill="#4CF58C"/>
<path d="M167.566 20.9377H157.691L156.534 23.97H166.303L167.566 20.9377Z" fill="#4CF58C"/>
<path d="M178.972 20.9377H169.912L169.57 23.97H177.709L178.972 20.9377Z" fill="#4CF58C"/>
<path d="M186.712 20.9377H183.355L182.198 23.97H186.264L186.712 20.9377Z" fill="#4CF58C"/>
<path d="M142.716 20.9377H139.36L138.203 23.97L141.934 24.0708L142.716 20.9377Z" fill="#4CF58C"/>
<path d="M152.901 27.4199H143.841L142.684 30.4522H152.452L152.901 27.4199Z" fill="#4CF58C"/>
<path d="M165.122 27.4199H156.062L154.905 30.4522H164.673L165.122 27.4199Z" fill="#4CF58C"/>
<path d="M177.342 27.4199H168.283L167.94 30.4522H176.894L177.342 27.4199Z" fill="#4CF58C"/>
<path d="M184.268 27.4199H180.911L179.754 30.4522H183.82L184.268 27.4199Z" fill="#4CF58C"/>
<path d="M141.087 27.4199H137.73L136.573 30.4522H140.508L141.087 27.4199Z" fill="#4CF58C"/>
<path d="M22.4621 121.672H208.449V136.797H28.7518C27.2875 136.798 25.8373 136.544 24.4841 136.049C23.1309 135.555 21.9013 134.829 20.8655 133.914C19.8296 132.999 19.0079 131.913 18.4473 130.717C17.8867 129.521 17.5981 128.239 17.5981 126.944V125.972C17.6046 124.833 18.1191 123.743 19.0299 122.938C19.9406 122.133 21.1741 121.678 22.4621 121.672Z" fill="#19517F"/>
<path opacity="0.3" d="M208.449 131.035V136.797H28.7437C25.7884 136.795 22.9548 135.757 20.865 133.909C18.7753 132.062 17.6004 129.557 17.5982 126.944V125.972C17.5946 125.323 17.762 124.682 18.087 124.099C18.7977 126.107 20.2143 127.863 22.1308 129.11C24.0473 130.357 26.3638 131.032 28.7437 131.035H208.449Z" fill="#0E3964"/>
<path opacity="0.3" d="M288.301 117.351V121.672H101.866L102.542 117.351H288.301Z" fill="#0E3964"/>
<path d="M74.0183 121.672H140.011C140.011 123.773 139.067 125.789 137.387 127.274C135.706 128.76 133.426 129.595 131.049 129.595H82.9803C81.8034 129.595 80.638 129.39 79.5507 128.992C78.4634 128.594 77.4754 128.01 76.6432 127.274C75.811 126.539 75.1509 125.665 74.7005 124.704C74.2501 123.743 74.0183 122.713 74.0183 121.672Z" fill="#0E3964"/>
<path d="M74.0183 121.672H140.011C140.011 123.773 139.067 125.789 137.387 127.274C135.706 128.76 133.426 129.595 131.049 129.595H82.9803C81.8034 129.595 80.638 129.39 79.5507 128.992C78.4634 128.594 77.4754 128.01 76.6432 127.274C75.811 126.539 75.1509 125.665 74.7005 124.704C74.2501 123.743 74.0183 122.713 74.0183 121.672Z" stroke="#141414" stroke-width="2" stroke-miterlimit="10"/>
<path d="M299.047 9.36328L279.534 113.749H112.734L296.758 9.36328H299.047Z" fill="#062538"/>
<path d="M305.671 49.0027L307.171 40.4911C307.292 39.7993 306.757 39.1512 305.974 39.0435C305.192 38.9358 304.459 39.4093 304.337 40.101L302.838 48.6127C302.716 49.3045 303.251 49.9526 304.034 50.0603C304.816 50.168 305.55 49.6945 305.671 49.0027Z" fill="#062C4C"/>
<path d="M308.491 32.9783L309.99 24.4667C310.112 23.7749 309.577 23.1268 308.794 23.0191C308.012 22.9114 307.279 23.3849 307.157 24.0766L305.658 32.5883C305.536 33.28 306.071 33.9282 306.854 34.0359C307.636 34.1436 308.37 33.6701 308.491 32.9783Z" fill="#062C4C"/>
<path d="M108.824 124.366H99.0794C98.2875 124.366 97.6455 124.934 97.6455 125.634C97.6455 126.334 98.2875 126.901 99.0794 126.901H108.824C109.616 126.901 110.258 126.334 110.258 125.634C110.258 124.934 109.616 124.366 108.824 124.366Z" fill="#141414"/>
<path d="M50.8309 121.715H31.0249C29.8279 121.715 28.8577 122.573 28.8577 123.631C28.8577 124.689 29.8279 125.547 31.0249 125.547H50.8309C52.0279 125.547 52.9981 124.689 52.9981 123.631C52.9981 122.573 52.0279 121.715 50.8309 121.715Z" fill="#2C6E9B"/>
<path d="M57.0229 125.547C58.2198 125.547 59.1901 124.689 59.1901 123.631C59.1901 122.573 58.2198 121.715 57.0229 121.715C55.826 121.715 54.8557 122.573 54.8557 123.631C54.8557 124.689 55.826 125.547 57.0229 125.547Z" fill="#2C6E9B"/>
<path d="M113.8 64.8025L110.742 82.102C110.558 83.1474 111.367 84.1273 112.549 84.2906C113.732 84.454 114.84 83.7389 115.025 82.6935L118.082 65.394C118.267 64.3486 117.458 63.3687 116.276 63.2054C115.093 63.042 113.985 63.7571 113.8 64.8025Z" fill="#4D9AC4"/>
<path d="M116.889 61.6032C118.086 61.6032 119.057 60.7455 119.057 59.6874C119.057 58.6293 118.086 57.7715 116.889 57.7715C115.692 57.7715 114.722 58.6293 114.722 59.6874C114.722 60.7455 115.692 61.6032 116.889 61.6032Z" fill="#4D9AC4"/>
<path d="M154.302 2.87378H134.496C133.299 2.87378 132.329 3.73154 132.329 4.78965C132.329 5.84776 133.299 6.70552 134.496 6.70552H154.302C155.499 6.70552 156.469 5.84776 156.469 4.78965C156.469 3.73154 155.499 2.87378 154.302 2.87378Z" fill="#4D9AC4"/>
<path d="M160.494 6.70552C161.691 6.70552 162.661 5.84776 162.661 4.78965C162.661 3.73154 161.691 2.87378 160.494 2.87378C159.297 2.87378 158.327 3.73154 158.327 4.78965C158.327 5.84776 159.297 6.70552 160.494 6.70552Z" fill="#4D9AC4"/>
<path d="M200.301 7.15208C201.651 7.15208 202.746 6.18467 202.746 4.99132C202.746 3.79797 201.651 2.83057 200.301 2.83057C198.952 2.83057 197.857 3.79797 197.857 4.99132C197.857 6.18467 198.952 7.15208 200.301 7.15208Z" fill="#F95D5D"/>
<path d="M77.0491 118.071H58.3103V121.672H77.0491V118.071Z" fill="#033156"/>
<path d="M48.7618 118.071H30.0229V121.672H48.7618V118.071Z" fill="#033156"/>
<path d="M105.328 118.071H86.5896V121.672H105.328V118.071Z" fill="#033156"/>
<path d="M133.616 118.071H114.877V121.672H133.616V118.071Z" fill="#033156"/>
<path d="M161.895 118.071H143.156V121.672H161.895V118.071Z" fill="#033156"/>
<path d="M190.183 118.071H171.444V121.672H190.183V118.071Z" fill="#033156"/>
<path d="M218.462 118.071H199.723V121.672H218.462V118.071Z" fill="#033156"/>
<path d="M275.257 118.071H256.518V121.672H275.257V118.071Z" fill="#033156"/>
<path d="M246.855 118.179H228.116V121.78H246.855V118.179Z" fill="#033156"/>
<path d="M77.0491 118.071H58.3103V121.672H77.0491V118.071Z" stroke="#141414" stroke-width="2" stroke-miterlimit="10"/>
<path d="M48.7618 118.071H30.0229V121.672H48.7618V118.071Z" stroke="#141414" stroke-width="2" stroke-miterlimit="10"/>
<path d="M105.328 118.071H86.5896V121.672H105.328V118.071Z" stroke="#141414" stroke-width="2" stroke-miterlimit="10"/>
<path d="M133.616 118.071H114.877V121.672H133.616V118.071Z" stroke="#141414" stroke-width="2" stroke-miterlimit="10"/>
<path d="M161.895 118.071H143.156V121.672H161.895V118.071Z" stroke="#141414" stroke-width="2" stroke-miterlimit="10"/>
<path d="M190.183 118.071H171.444V121.672H190.183V118.071Z" stroke="#141414" stroke-width="2" stroke-miterlimit="10"/>
<path d="M218.462 118.071H199.723V121.672H218.462V118.071Z" stroke="#141414" stroke-width="2" stroke-miterlimit="10"/>
<path d="M275.257 118.071H256.518V121.672H275.257V118.071Z" stroke="#141414" stroke-width="2" stroke-miterlimit="10"/>
<path d="M246.855 118.179H228.116V121.78H246.855V118.179Z" stroke="#141414" stroke-width="2" stroke-miterlimit="10"/>
<path d="M299.039 9.36328H130.479L112.694 113.749H279.526L299.039 9.36328Z" stroke="#141414" stroke-width="2" stroke-miterlimit="10"/>
<path d="M275.941 21.2977H205.874C204.209 21.2954 202.599 21.8222 201.336 22.7821C200.074 23.742 199.244 25.071 198.998 26.5268L192.195 66.4287C192.046 67.3033 192.112 68.196 192.39 69.0458C192.667 69.8956 193.148 70.6825 193.801 71.3527C194.454 72.0229 195.263 72.5605 196.172 72.9289C197.082 73.2973 198.071 73.4877 199.071 73.4872H268.511C270.16 73.4896 271.756 72.9737 273.014 72.0316C274.272 71.0896 275.11 69.7827 275.379 68.3446L282.842 28.4426C283.007 27.5598 282.952 26.6557 282.68 25.7937C282.409 24.9317 281.928 24.1325 281.27 23.452C280.613 22.7715 279.796 22.2261 278.875 21.854C277.955 21.4819 276.953 21.2921 275.941 21.2977Z" fill="white"/>
<path d="M282.712 28.45L275.257 68.3447C274.987 69.781 274.149 71.086 272.893 72.0277C271.637 72.9693 270.044 73.4866 268.397 73.4873H198.965C197.377 73.487 195.837 73.0069 194.599 72.1266C193.362 71.2464 192.502 70.0187 192.162 68.6472L275.64 21.2979H275.86C276.868 21.2995 277.864 21.495 278.779 21.8706C279.693 22.2463 280.504 22.7932 281.156 23.4735C281.808 24.1538 282.284 24.9512 282.553 25.8105C282.822 26.6697 282.876 27.5704 282.712 28.45Z" fill="#F4F3F2"/>
<path d="M22.4621 121.672H208.449V136.797H28.7518C27.2875 136.798 25.8373 136.544 24.4841 136.049C23.1309 135.555 21.9013 134.829 20.8655 133.914C19.8296 132.999 19.0079 131.913 18.4473 130.717C17.8867 129.521 17.5981 128.239 17.5981 126.944V125.972C17.6046 124.833 18.1191 123.743 19.0299 122.938C19.9406 122.133 21.1741 121.678 22.4621 121.672Z" stroke="#141414" stroke-width="2" stroke-miterlimit="10"/>
<path d="M294.403 121.672H199.894C195.17 121.672 191.339 125.058 191.339 129.235C191.339 133.411 195.17 136.797 199.894 136.797H294.403C299.128 136.797 302.958 133.411 302.958 129.235C302.958 125.058 299.128 121.672 294.403 121.672Z" fill="#0E3964"/>
<path d="M291.747 127.967H282.003C281.211 127.967 280.569 128.535 280.569 129.235C280.569 129.935 281.211 130.502 282.003 130.502H291.747C292.539 130.502 293.181 129.935 293.181 129.235C293.181 128.535 292.539 127.967 291.747 127.967Z" fill="#141414"/>
<path d="M273.399 127.967H263.655C262.863 127.967 262.221 128.535 262.221 129.235C262.221 129.935 262.863 130.502 263.655 130.502H273.399C274.191 130.502 274.833 129.935 274.833 129.235C274.833 128.535 274.191 127.967 273.399 127.967Z" fill="#141414"/>
<path d="M294.403 121.672H199.894C195.17 121.672 191.339 125.058 191.339 129.235C191.339 133.411 195.17 136.797 199.894 136.797H294.403C299.128 136.797 302.958 133.411 302.958 129.235C302.958 125.058 299.128 121.672 294.403 121.672Z" stroke="#141414" stroke-width="2" stroke-miterlimit="10"/>
<path d="M53.2751 42.6316L53.984 39.4409" stroke="white" stroke-linecap="round" stroke-linejoin="round"/>
<path d="M54.2121 38.6919C54.5001 38.6919 54.7335 38.4856 54.7335 38.231C54.7335 37.9764 54.5001 37.77 54.2121 37.77C53.9241 37.77 53.6907 37.9764 53.6907 38.231C53.6907 38.4856 53.9241 38.6919 54.2121 38.6919Z" fill="white"/>
<path d="M87.991 43.2511L102.053 39.3906C103.664 38.9645 105.4 39.1164 106.885 39.8133C108.37 40.5102 109.485 41.6961 109.989 43.1143L113.411 52.8809" stroke="#141414" stroke-width="2" stroke-linecap="round" stroke-linejoin="round"/>
<path d="M72.8533 47.3926L82.1656 44.8357" stroke="#141414" stroke-width="2" stroke-linecap="round" stroke-linejoin="round"/>
<path d="M107.015 88.6413L58.1311 102.045C56.5115 102.489 54.7591 102.346 53.2588 101.648C51.7585 100.949 50.6333 99.7529 50.1304 98.3215L37.7221 62.9427C37.2203 61.511 37.3821 59.9618 38.172 58.6355C38.9618 57.3092 40.315 56.3144 41.9342 55.8699L67.916 48.7466" stroke="#141414" stroke-width="2" stroke-linecap="round" stroke-linejoin="round"/>
<path d="M216.221 55.0273H207.162L206.005 58.0668H215.773L216.221 55.0273Z" fill="#FBD766"/>
<path d="M229.257 55.0273H219.383L218.234 58.0668H227.994L229.257 55.0273Z" fill="#FBD766"/>
<path d="M240.663 55.0273H231.603L231.269 58.0668H239.4L240.663 55.0273Z" fill="#FBD766"/>
<path d="M248.403 55.0273H245.046L243.898 58.0668H247.955L248.403 55.0273Z" fill="#FBD766"/>
<path d="M204.408 55.0273H201.051L199.894 58.0668L203.626 58.1604L204.408 55.0273Z" fill="#FBD766"/>
<path d="M214.592 61.5095H205.532L204.375 64.549H214.144L214.592 61.5095Z" fill="#FBD766"/>
<path d="M226.813 61.5095H217.753L216.604 64.549H226.365L226.813 61.5095Z" fill="#FBD766"/>
<path d="M239.034 61.5095H229.974L229.64 64.549H238.586L239.034 61.5095Z" fill="#FBD766"/>
<path d="M245.959 61.5095H242.602L241.453 64.549H245.511L245.959 61.5095Z" fill="#FBD766"/>
<path d="M202.778 61.5095H199.422L198.265 64.549H202.2L202.778 61.5095Z" fill="#FBD766"/>
<path d="M275.941 21.2977H205.874C204.209 21.2954 202.599 21.8222 201.336 22.7821C200.074 23.742 199.244 25.071 198.998 26.5268L192.195 66.4287C192.046 67.3033 192.112 68.196 192.39 69.0458C192.667 69.8956 193.148 70.6825 193.801 71.3527C194.454 72.0229 195.263 72.5605 196.172 72.9289C197.082 73.2973 198.071 73.4877 199.071 73.4872H268.511C270.16 73.4896 271.756 72.9737 273.014 72.0316C274.272 71.0895 275.11 69.7827 275.379 68.3446L282.842 28.4426C283.007 27.5598 282.952 26.6557 282.68 25.7937C282.409 24.9317 281.928 24.1325 281.27 23.452C280.613 22.7715 279.796 22.2261 278.875 21.854C277.955 21.4819 276.953 21.2921 275.941 21.2977V21.2977Z" stroke="#141414" stroke-width="1.3" stroke-miterlimit="10"/>
</g>
<defs>
<clipPath id="clip0">
<rect width="423" height="144" fill="white"/>
</clipPath>
</defs>
</svg>
