<svg width="282" height="171" viewBox="0 0 282 171" fill="none" xmlns="http://www.w3.org/2000/svg">
<path d="M157.783 170.991C226.386 170.991 282 167.849 282 163.973C282 160.097 226.386 156.955 157.783 156.955C89.1792 156.955 33.5652 160.097 33.5652 163.973C33.5652 167.849 89.1792 170.991 157.783 170.991Z" fill="#3E3127"/>
<path d="M244.019 151.924H73.0982C72.0249 151.919 70.9971 151.472 70.2397 150.681C69.4823 149.889 69.0571 148.818 69.0571 147.701V34.4874C69.0571 32.1539 70.8731 27.6023 73.1153 27.6023H244.019C246.252 27.6023 248.068 32.1539 248.068 34.4874V147.701C248.068 148.819 247.642 149.892 246.883 150.684C246.124 151.476 245.094 151.922 244.019 151.924Z" fill="#637582"/>
<path d="M248.094 30.3174V34.4253C248.094 32.0919 248.836 30.202 246.602 30.202H71.3846C69.1509 30.1665 69.0571 32.0919 69.0571 34.4253V30.3174C69.0571 29.1988 69.4835 28.1259 70.2427 27.3341C71.0019 26.5424 72.032 26.0964 73.1068 26.094H244.019C244.553 26.0917 245.083 26.1992 245.577 26.4104C246.071 26.6216 246.521 26.9323 246.899 27.3247C247.278 27.7171 247.578 28.1835 247.783 28.697C247.988 29.2106 248.094 29.7612 248.094 30.3174Z" fill="#9FB1BC"/>
<path d="M76.3379 149.058V36.04H240.77V148.952" fill="#CAEEFC"/>
<path d="M240.924 144.489H76.4915V148.615H240.924V144.489Z" fill="#78ABBA"/>
<path d="M240.924 37.1226H76.4915V41.2483H240.924V37.1226Z" fill="white"/>
<path d="M249.799 149.795H246.389V31.0539C246.389 30.4068 246.142 29.7862 245.702 29.3286C245.262 28.871 244.666 28.614 244.044 28.614H73.0983C72.4786 28.6186 71.8858 28.8775 71.4484 29.3343C71.0111 29.7911 70.7645 30.4091 70.7623 31.0539V149.058H67.3521V31.0539C67.3543 29.4647 67.9625 27.9414 69.0431 26.8186C70.1237 25.6957 71.5883 25.065 73.1153 25.065H244.019C244.776 25.0626 245.527 25.2158 246.227 25.5156C246.928 25.8154 247.565 26.256 248.102 26.8123C248.639 27.3685 249.065 28.0294 249.356 28.7573C249.647 29.4851 249.798 30.2655 249.799 31.0539V149.795Z" fill="#3E3127"/>
<path d="M266.347 149.795H50.7698C47.2761 149.795 44.4438 152.742 44.4438 156.378C44.4438 160.014 47.2761 162.962 50.7698 162.962H266.347C269.841 162.962 272.673 160.014 272.673 156.378C272.673 152.742 269.841 149.795 266.347 149.795Z" fill="#637582"/>
<path d="M272.673 157.248C272.674 158.112 272.511 158.969 272.194 159.768C271.876 160.568 271.41 161.294 270.823 161.905C270.235 162.517 269.537 163.002 268.769 163.332C268.001 163.663 267.178 163.832 266.347 163.831H50.7696C49.0918 163.831 47.4828 163.137 46.2965 161.903C45.1101 160.668 44.4436 158.994 44.4436 157.248C44.4403 156.091 44.7346 154.954 45.2962 153.956C45.849 154.958 46.6463 155.79 47.6075 156.368C48.5686 156.946 49.6595 157.249 50.7696 157.248H266.347C267.178 157.248 268.001 157.079 268.769 156.748C269.537 156.418 270.235 155.933 270.823 155.322C271.212 154.915 271.548 154.455 271.82 153.956C272.382 154.954 272.676 156.091 272.673 157.248Z" fill="#455760"/>
<path d="M266.347 165.313H50.7696C48.6396 165.313 46.5969 164.432 45.0908 162.865C43.5847 161.297 42.7385 159.172 42.7385 156.955C42.7385 154.738 43.5847 152.612 45.0908 151.045C46.5969 149.477 48.6396 148.597 50.7696 148.597H266.347C268.477 148.597 270.52 149.477 272.026 151.045C273.532 152.612 274.378 154.738 274.378 156.955C274.378 159.172 273.532 161.297 272.026 162.865C270.52 164.432 268.477 165.313 266.347 165.313ZM50.7696 152.146C49.5441 152.146 48.3687 152.653 47.5022 153.554C46.6356 154.456 46.1488 155.679 46.1488 156.955C46.1488 158.23 46.6356 159.453 47.5022 160.355C48.3687 161.257 49.5441 161.764 50.7696 161.764H266.347C267.572 161.764 268.748 161.257 269.614 160.355C270.481 159.453 270.968 158.23 270.968 156.955C270.968 155.679 270.481 154.456 269.614 153.554C268.748 152.653 267.572 152.146 266.347 152.146H50.7696Z" fill="#3E3127"/>
<path d="M141.661 107.411C133.723 108.298 125.735 108.981 117.866 109.922L77.5825 114.739V108.147L113.543 103.808C122.623 102.726 131.856 101.99 141.004 100.863C141.055 103.06 141.274 105.25 141.661 107.411Z" fill="#78ABBA"/>
<path d="M215.825 115.059C212.677 123.328 207.034 130.308 199.744 134.95C192.455 139.592 183.913 141.643 175.406 140.795C166.899 139.948 158.887 136.246 152.577 130.249C146.266 124.252 141.998 116.284 140.416 107.544C140.032 105.395 139.812 103.217 139.76 101.031C139.76 100.668 139.76 100.304 139.76 99.9401C139.76 98.8044 139.802 97.6687 139.887 96.5597C139.887 96.5597 139.887 96.4798 139.887 96.4443C140.317 101.904 141.805 107.216 144.261 112.06C147.486 118.416 152.256 123.781 158.094 127.62C163.932 131.46 170.635 133.64 177.536 133.943C184.436 134.247 191.292 132.663 197.421 129.349C203.55 126.036 208.737 121.109 212.466 115.059L218.877 105.512L215.825 115.059Z" fill="#78ABBA"/>
<path d="M77.6168 149.67H75.0591V35.3125H242.058V149.555H239.5V37.9743H77.6168V149.67Z" fill="#3E3127"/>
<path d="M61.3841 36.9718C58.5797 35.2888 56.3442 32.7442 54.9844 29.6868C53.6245 26.6295 53.2068 23.2092 53.7886 19.895C54.3705 16.5809 55.9233 13.5352 58.2341 11.1758C60.5449 8.81635 63.5005 7.2587 66.6955 6.71648C67.0195 6.66325 67.335 6.61888 67.6589 6.59226C69.6553 6.3906 71.67 6.63018 73.5712 7.2953C75.4724 7.96042 77.2171 9.03609 78.691 10.4518C80.2667 11.9342 81.5262 13.744 82.3882 15.7643C83.2502 17.7847 83.6956 19.9707 83.6955 22.1813V22.8556H81.9904V22.1813C81.9953 20.221 81.6057 18.2814 80.8465 16.4873C80.0874 14.6933 78.9756 13.0846 77.5827 11.7649C76.2829 10.5166 74.7446 9.56787 73.0683 8.98076C71.392 8.39366 69.6155 8.18141 67.855 8.3579C67.5737 8.3579 67.2838 8.42 67.0025 8.47324C64.1533 8.95218 61.5163 10.337 59.4535 12.4376C57.3906 14.5382 56.0029 17.2516 55.4808 20.2056C54.9587 23.1596 55.3277 26.2094 56.5373 28.9364C57.7469 31.6634 59.7378 33.9341 62.2367 35.4368L61.3841 36.9718Z" fill="#3E3127"/>
<path d="M88.6658 12.0489C87.5209 12.0489 86.4017 11.6956 85.4497 11.0336C84.4977 10.3716 83.7558 9.43071 83.3176 8.32989C82.8795 7.22907 82.7648 6.01776 82.9882 4.84913C83.2116 3.6805 83.7629 2.60705 84.5725 1.76452C85.3821 0.921987 86.4135 0.348215 87.5365 0.115761C88.6594 -0.116694 89.8233 0.00261026 90.8811 0.458586C91.9389 0.914561 92.843 1.68673 93.4791 2.67744C94.1152 3.66816 94.4547 4.83292 94.4547 6.02444C94.4524 7.6215 93.8418 9.15248 92.7567 10.2818C91.6715 11.4111 90.2004 12.0465 88.6658 12.0489ZM88.6658 1.77451C87.8581 1.77451 87.0686 2.02376 86.397 2.49075C85.7254 2.95774 85.202 3.62149 84.8929 4.39806C84.5838 5.17463 84.503 6.02916 84.6605 6.85356C84.8181 7.67797 85.207 8.43523 85.7782 9.0296C86.3493 9.62396 87.0769 10.0287 87.8691 10.1927C88.6613 10.3567 89.4824 10.2725 90.2286 9.95087C90.9748 9.6292 91.6126 9.08448 92.0613 8.38558C92.5101 7.68668 92.7496 6.865 92.7496 6.02444C92.7473 4.89801 92.3163 3.81838 91.551 3.02187C90.7856 2.22536 89.7482 1.77685 88.6658 1.77451Z" fill="#3E3127"/>
<path d="M243.746 18.9252C243.52 18.9252 243.303 18.8317 243.143 18.6653C242.983 18.4989 242.893 18.2733 242.893 18.0379V4.92436C242.893 4.68905 242.983 4.46337 243.143 4.29698C243.303 4.13059 243.52 4.03711 243.746 4.03711C243.972 4.03711 244.189 4.13059 244.349 4.29698C244.509 4.46337 244.598 4.68905 244.598 4.92436V18.0379C244.598 18.2733 244.509 18.4989 244.349 18.6653C244.189 18.8317 243.972 18.9252 243.746 18.9252Z" fill="#3E3127"/>
<path d="M269.638 38.3204H257.353C257.126 38.3204 256.91 38.2269 256.75 38.0605C256.59 37.8941 256.5 37.6685 256.5 37.4332C256.5 37.1978 256.59 36.9722 256.75 36.8058C256.91 36.6394 257.126 36.5459 257.353 36.5459H269.638C269.864 36.5459 270.081 36.6394 270.241 36.8058C270.401 36.9722 270.49 37.1978 270.49 37.4332C270.49 37.6685 270.401 37.8941 270.241 38.0605C270.081 38.2269 269.864 38.3204 269.638 38.3204Z" fill="#3E3127"/>
<path d="M265.367 13.6194C265.248 13.6203 265.131 13.5955 265.022 13.5466C264.914 13.4977 264.816 13.4258 264.736 13.3355C264.659 13.2496 264.6 13.1487 264.561 13.0386C264.522 12.9286 264.504 12.8116 264.509 12.6945C264.514 12.5773 264.541 12.4623 264.588 12.3561C264.636 12.2499 264.704 12.1545 264.787 12.0756L269.527 7.51515C269.607 7.42633 269.704 7.35555 269.811 7.30721C269.918 7.25887 270.034 7.23399 270.151 7.23413C270.267 7.23427 270.383 7.25942 270.49 7.30802C270.597 7.35661 270.694 7.42762 270.773 7.51663C270.853 7.60564 270.914 7.71074 270.953 7.82541C270.992 7.94008 271.008 8.06188 271 8.18322C270.992 8.30456 270.96 8.42287 270.906 8.53078C270.852 8.6387 270.777 8.73392 270.687 8.81054L265.946 13.3799C265.789 13.5331 265.582 13.6187 265.367 13.6194Z" fill="#3E3127"/>
<path d="M254.258 24.3195C254.141 24.3191 254.025 24.2937 253.918 24.2448C253.811 24.196 253.715 24.1247 253.635 24.0355C253.558 23.9502 253.498 23.8497 253.458 23.74C253.419 23.6303 253.4 23.5135 253.404 23.3963C253.408 23.2792 253.435 23.164 253.482 23.0575C253.528 22.951 253.595 22.8552 253.678 22.7757L260.371 16.3253C260.453 16.2456 260.55 16.1836 260.656 16.1431C260.762 16.1025 260.874 16.0842 260.987 16.0892C261.099 16.0941 261.21 16.1222 261.312 16.1719C261.414 16.2216 261.505 16.2918 261.581 16.3786C261.733 16.5517 261.814 16.7806 261.804 17.0151C261.794 17.2495 261.696 17.4705 261.53 17.6296L254.838 24.0799C254.68 24.2331 254.473 24.3187 254.258 24.3195Z" fill="#3E3127"/>
<path d="M250.021 20.0697C249.865 20.0713 249.711 20.0283 249.577 19.9455C249.481 19.8846 249.398 19.8045 249.332 19.7099C249.266 19.6153 249.218 19.508 249.192 19.3942C249.166 19.2804 249.161 19.1624 249.179 19.0468C249.197 18.9313 249.237 18.8206 249.296 18.7211L252.195 13.7702C252.253 13.6703 252.33 13.5834 252.421 13.5146C252.512 13.4457 252.615 13.3963 252.724 13.3691C252.834 13.3418 252.947 13.3374 253.058 13.356C253.169 13.3746 253.276 13.4159 253.371 13.4774C253.563 13.6004 253.7 13.7972 253.753 14.0249C253.805 14.2526 253.769 14.4927 253.653 14.693L250.745 19.6527C250.669 19.7806 250.562 19.886 250.435 19.9589C250.308 20.0319 250.166 20.07 250.021 20.0697Z" fill="#3E3127"/>
<path d="M260.95 31.1336H257.353C257.126 31.1336 256.91 31.0402 256.75 30.8738C256.59 30.7074 256.5 30.4817 256.5 30.2464C256.5 30.0111 256.59 29.7854 256.75 29.619C256.91 29.4526 257.126 29.3591 257.353 29.3591H260.95C261.176 29.3591 261.393 29.4526 261.553 29.619C261.713 29.7854 261.803 30.0111 261.803 30.2464C261.803 30.4817 261.713 30.7074 261.553 30.8738C261.393 31.0402 261.176 31.1336 260.95 31.1336Z" fill="#3E3127"/>
<path d="M139.742 99.9932C129.989 101.244 120.134 102.007 110.397 103.17L43.523 111.155C34.5967 112.22 25.3976 114.819 16.4117 112.814C7.42573 110.809 1.70508 102.034 1.70508 92.6911V93.4098C1.70508 84.0493 7.46836 75.2833 16.4117 73.2869C25.355 71.2906 34.5967 73.8814 43.523 74.9461L110.397 82.9314C120.1 84.0937 130.006 84.8478 139.751 86.1077" fill="#ECEBEB"/>
<path d="M138.063 88.4324V91.8217C128.301 90.5707 118.412 89.8077 108.709 88.6454L41.8349 80.6601C32.9087 79.5954 23.7096 76.9958 14.7236 78.9655C6.4368 80.8464 0.852556 88.5034 0.119358 97.0654C0.0495875 96.5032 0.00974075 95.9375 0 95.3707C0.136409 86.1433 5.86559 77.5725 14.6981 75.6028C23.684 73.5976 32.8831 76.1972 41.8094 77.2619L108.684 85.2472C118.412 86.4184 128.301 87.1725 138.063 88.4324Z" fill="white"/>
<path d="M141.661 95.9385V100.375C131.899 101.635 122.052 102.398 112.307 103.551L45.4412 111.536C36.5149 112.681 27.2817 115.236 18.3214 113.231C9.50593 111.261 3.76823 102.691 3.62329 93.472C3.64122 91.9941 3.80694 90.5222 4.11777 89.0801C5.695 96.5153 10.9382 102.815 18.3214 104.456C27.3158 106.461 36.5149 108.174 45.4412 107.118L112.307 99.1326C122.009 97.9615 131.899 97.1984 141.661 95.9385Z" fill="#C4C4C4"/>
<path d="M215.825 106.213C212.507 115.018 206.372 122.362 198.456 127.006C190.54 131.65 181.326 133.31 172.37 131.706C163.414 130.102 155.264 125.331 149.295 118.2C143.327 111.068 139.905 102.012 139.607 92.5594C139.309 83.107 142.154 73.837 147.661 66.3138C153.168 58.7906 161 53.4748 169.836 51.2634C178.671 49.0519 187.97 50.0803 196.161 54.175C204.353 58.2696 210.937 65.1798 214.802 73.7395H183.257V106.213H215.825Z" fill="#ECEBEB"/>
<path d="M215.484 75.6648H212.926C208.432 68.3933 201.843 62.7877 194.102 59.6499C186.36 56.5122 177.864 56.0033 169.828 58.1959C161.792 60.3886 154.628 65.1705 149.362 71.8573C144.096 78.5441 140.998 86.7931 140.51 95.4239C140.51 94.6254 140.442 93.8268 140.442 93.0194C140.456 83.7063 143.517 74.676 149.122 67.4158C154.727 60.1556 162.541 55.0987 171.277 53.0779C180.012 51.0572 189.149 52.1932 197.181 56.2988C205.214 60.4044 211.663 67.2348 215.467 75.6648H215.484Z" fill="white"/>
<path d="M215.825 107.278C212.443 116.147 206.197 123.513 198.161 128.108C190.125 132.704 180.802 134.24 171.794 132.455C162.787 130.669 154.66 125.672 148.81 118.325C142.96 110.977 139.754 101.737 139.742 92.1943C139.741 90.7121 139.821 89.2309 139.981 87.7581C140.497 92.8695 141.944 97.8318 144.244 102.38C147.381 108.549 151.974 113.785 157.592 117.596C163.21 121.407 169.668 123.668 176.357 124.165C183.046 124.662 189.747 123.379 195.828 120.437C201.91 117.495 207.172 112.991 211.118 107.349L215.825 107.278Z" fill="#C4C4C4"/>
<path d="M175.831 76.5786H156.794V82.8692H175.831V76.5786Z" fill="white"/>
<path d="M175.831 87.5984H156.794V93.889H175.831V87.5984Z" fill="white"/>
<path d="M175.831 98.6179H156.794V104.909H175.831V98.6179Z" fill="white"/>
<path d="M23.5732 116.505C21.0475 116.525 18.5269 116.266 16.0536 115.733C6.96538 113.71 0.30692 104.882 0 94.5986V93.8711C0.30692 83.5879 6.96538 74.7597 16.0536 72.7545C23.1384 71.1752 30.2657 72.3198 37.1544 73.42C39.3199 73.766 41.5536 74.1298 43.7191 74.3871L110.594 82.3723C114.959 82.8958 119.452 83.3483 123.8 83.7831C129.103 84.3154 134.585 84.8655 139.998 85.5576L139.58 89.1066C134.252 88.4145 128.787 87.8733 123.51 87.3321C119.145 86.8973 114.635 86.4448 110.236 85.9213L43.361 77.9361C41.1358 77.6699 38.868 77.3061 36.6684 76.9601C30.0867 75.9043 23.2748 74.8041 16.8039 76.2503C9.13088 77.9094 3.56368 85.46 3.41022 94.2349C3.56368 103.01 9.13088 110.56 16.7698 112.264C23.2407 113.71 30.0526 112.61 36.6429 111.554C38.8339 111.199 41.1017 110.835 43.3269 110.569C65.6184 107.913 87.9099 105.252 110.201 102.584C114.601 102.06 119.102 101.608 123.459 101.173C128.744 100.641 134.209 100.1 139.538 99.3987L139.956 102.948C134.576 103.64 129.094 104.19 123.757 104.722C119.418 105.157 114.933 105.609 110.568 106.133L43.6935 114.118C41.5365 114.375 39.2943 114.73 37.1373 115.076C32.6576 115.912 28.123 116.39 23.5732 116.505Z" fill="#3E3127"/>
<path d="M179.122 135.324C171.76 135.324 164.532 133.264 158.197 129.362C151.861 125.459 146.649 119.856 143.106 113.139C139.564 106.422 137.821 98.8381 138.06 91.18C138.299 83.5219 140.511 76.0713 144.464 69.6076C148.418 63.1438 153.967 57.9044 160.533 54.4375C167.099 50.9706 174.439 49.4036 181.786 49.9002C189.133 50.3969 196.217 52.9392 202.297 57.261C208.376 61.5827 213.228 67.5253 216.345 74.467L217.487 76.9868H184.928V105.911H218.323L217.402 108.333C214.403 116.341 209.136 123.21 202.299 128.03C195.463 132.85 187.38 135.394 179.122 135.324ZM179.122 53.3682C172.388 53.3868 165.782 55.2836 159.991 58.8611C154.2 62.4386 149.437 67.566 146.196 73.7096C142.956 79.8532 141.357 86.7884 141.566 93.7933C141.775 100.798 143.785 107.617 147.385 113.539C150.986 119.462 156.046 124.271 162.039 127.468C168.032 130.664 174.739 132.131 181.461 131.714C188.183 131.298 194.676 129.014 200.262 125.1C205.848 121.186 210.324 115.785 213.224 109.46H181.518V73.4378H212.014C208.728 67.363 203.952 62.3045 198.173 58.7785C192.395 55.2526 185.821 53.3856 179.122 53.3682Z" fill="#3E3127"/>
<path d="M176.684 84.8833H155.941V76.8093H176.684V84.8833ZM157.646 83.1088H174.979V78.5838H157.646V83.1088Z" fill="#3E3127"/>
<path d="M176.684 95.8941H155.941V87.8379H176.684V95.8941ZM157.646 94.1196H174.979V89.6124H157.646V94.1196Z" fill="#3E3127"/>
<path d="M176.684 106.914H155.941V98.8486H176.684V106.914ZM157.646 105.139H174.979V100.623H157.646V105.139Z" fill="#3E3127"/>
<path d="M40.3941 109.54C41.8538 109.54 43.0371 108.309 43.0371 106.79C43.0371 105.27 41.8538 104.039 40.3941 104.039C38.9345 104.039 37.7512 105.27 37.7512 106.79C37.7512 108.309 38.9345 109.54 40.3941 109.54Z" fill="#C4C4C4"/>
<path d="M172.267 127.933C174.306 127.933 175.959 126.213 175.959 124.091C175.959 121.969 174.306 120.249 172.267 120.249C170.229 120.249 168.576 121.969 168.576 124.091C168.576 126.213 170.229 127.933 172.267 127.933Z" fill="#C4C4C4"/>
<path d="M230.292 146.547C232.331 146.547 233.984 144.827 233.984 142.706C233.984 140.584 232.331 138.864 230.292 138.864C228.254 138.864 226.601 140.584 226.601 142.706C226.601 144.827 228.254 146.547 230.292 146.547Z" fill="#78ABBA"/>
<path d="M89.7913 41.1152C89.7913 42.1341 89.4024 43.1113 88.7101 43.8318C88.0178 44.5523 87.0788 44.957 86.0998 44.957C85.1207 44.957 84.1817 44.5523 83.4894 43.8318C82.7971 43.1113 82.4082 42.1341 82.4082 41.1152C82.4082 39.0391 84.0622 39.0391 86.1083 39.0391C88.1544 39.0391 89.7913 39.0391 89.7913 41.1152Z" fill="white"/>
<path d="M91.0871 47.9294C92.1042 47.9294 92.9286 47.0713 92.9286 46.0129C92.9286 44.9545 92.1042 44.0964 91.0871 44.0964C90.0701 44.0964 89.2456 44.9545 89.2456 46.0129C89.2456 47.0713 90.0701 47.9294 91.0871 47.9294Z" fill="#D2EEF9"/>
<path d="M82.2972 46.9001C82.8058 46.9001 83.218 46.4711 83.218 45.9419C83.218 45.4127 82.8058 44.9836 82.2972 44.9836C81.7887 44.9836 81.3765 45.4127 81.3765 45.9419C81.3765 46.4711 81.7887 46.9001 82.2972 46.9001Z" fill="#D2EEF9"/>
<path d="M43.557 104.35C44.122 104.35 44.5801 103.873 44.5801 103.285C44.5801 102.697 44.122 102.22 43.557 102.22C42.992 102.22 42.5339 102.697 42.5339 103.285C42.5339 103.873 42.992 104.35 43.557 104.35Z" fill="#C4C4C4"/>
<path d="M176.931 120.427C177.496 120.427 177.954 119.95 177.954 119.362C177.954 118.774 177.496 118.297 176.931 118.297C176.366 118.297 175.908 118.774 175.908 119.362C175.908 119.95 176.366 120.427 176.931 120.427Z" fill="#C4C4C4"/>
<path d="M232.969 137.098C233.535 137.098 233.993 136.621 233.993 136.033C233.993 135.445 233.535 134.969 232.969 134.969C232.404 134.969 231.946 135.445 231.946 136.033C231.946 136.621 232.404 137.098 232.969 137.098Z" fill="#78ABBA"/>
<path d="M167.988 120.382C168.911 120.382 169.659 119.604 169.659 118.643C169.659 117.683 168.911 116.904 167.988 116.904C167.065 116.904 166.317 117.683 166.317 118.643C166.317 119.604 167.065 120.382 167.988 120.382Z" fill="#C4C4C4"/>
<path d="M222.628 139.511C224.05 139.511 225.203 138.312 225.203 136.832C225.203 135.352 224.05 134.152 222.628 134.152C221.206 134.152 220.053 135.352 220.053 136.832C220.053 138.312 221.206 139.511 222.628 139.511Z" fill="#78ABBA"/>
<path d="M53.7111 85.9925H53.6258L44.4779 84.8746C44.3659 84.8612 44.2576 84.825 44.1591 84.768C44.0606 84.711 43.9738 84.6344 43.9038 84.5426C43.8337 84.4507 43.7817 84.3454 43.7508 84.2326C43.7198 84.1198 43.7105 84.0018 43.7234 83.8853C43.7363 83.7688 43.7711 83.6561 43.8258 83.5535C43.8805 83.451 43.9542 83.3607 44.0424 83.2878C44.1307 83.2149 44.2319 83.1608 44.3403 83.1286C44.4486 83.0964 44.562 83.0867 44.674 83.1001L53.8219 84.2092C53.9339 84.2156 54.0435 84.2449 54.1446 84.2954C54.2457 84.3459 54.3362 84.4166 54.411 84.5035C54.4859 84.5905 54.5435 84.6919 54.5806 84.802C54.6178 84.9121 54.6337 85.0287 54.6276 85.1452C54.6214 85.2617 54.5933 85.3758 54.5448 85.481C54.4962 85.5862 54.4283 85.6804 54.3447 85.7583C54.2612 85.8362 54.1638 85.8961 54.058 85.9348C53.9522 85.9735 53.8401 85.9901 53.7281 85.9837L53.7111 85.9925Z" fill="#3E3127"/>
<path d="M55.4162 89.0002H55.331L49.8661 88.3348C49.7541 88.3214 49.6458 88.2852 49.5473 88.2282C49.4488 88.1712 49.362 88.0946 49.292 88.0028C49.2219 87.9109 49.1699 87.8056 49.139 87.6928C49.108 87.58 49.0987 87.462 49.1116 87.3455C49.1245 87.229 49.1593 87.1163 49.214 87.0137C49.2687 86.9112 49.3423 86.8209 49.4306 86.748C49.5189 86.6751 49.6201 86.621 49.7285 86.5888C49.8368 86.5566 49.9502 86.5469 50.0622 86.5603L55.5271 87.2257C55.7532 87.2387 55.9651 87.3446 56.1162 87.5201C56.2673 87.6957 56.3452 87.9265 56.3327 88.1618C56.3203 88.3971 56.2185 88.6176 56.0499 88.7749C55.8812 88.9321 55.6594 89.0132 55.4333 89.0002H55.4162Z" fill="#3E3127"/>
<path d="M251.606 156.334C251.551 156.335 251.495 156.324 251.444 156.303C251.392 156.282 251.345 156.25 251.305 156.21C251.266 156.169 251.234 156.121 251.213 156.067C251.191 156.014 251.18 155.957 251.18 155.899C251.179 155.84 251.189 155.781 251.21 155.726C251.231 155.672 251.262 155.622 251.302 155.579C251.342 155.537 251.389 155.504 251.441 155.481C251.493 155.458 251.55 155.446 251.606 155.446H260.814C260.869 155.445 260.925 155.456 260.976 155.477C261.028 155.498 261.075 155.53 261.115 155.571C261.155 155.611 261.186 155.659 261.208 155.713C261.229 155.766 261.24 155.823 261.24 155.881C261.24 155.998 261.197 156.111 261.119 156.195C261.041 156.279 260.935 156.329 260.822 156.334H251.606Z" fill="#3E3127"/>
<path d="M257.353 158.215C257.297 158.216 257.242 158.205 257.19 158.184C257.139 158.163 257.091 158.131 257.052 158.09C257.012 158.05 256.981 158.002 256.959 157.948C256.937 157.895 256.926 157.838 256.926 157.78C256.926 157.661 256.971 157.548 257.051 157.463C257.13 157.378 257.239 157.33 257.353 157.327H262.852C262.965 157.327 263.073 157.374 263.153 157.457C263.233 157.541 263.278 157.653 263.278 157.771C263.279 157.829 263.269 157.886 263.249 157.94C263.228 157.994 263.197 158.043 263.159 158.084C263.12 158.125 263.073 158.158 263.022 158.181C262.971 158.203 262.916 158.215 262.86 158.215H257.353Z" fill="#3E3127"/>
<path d="M52.6964 156.334C52.6408 156.335 52.5856 156.325 52.5339 156.303C52.4822 156.282 52.4352 156.25 52.3955 156.21C52.3558 156.169 52.3242 156.121 52.3027 156.067C52.2812 156.014 52.2701 155.957 52.2701 155.899C52.269 155.84 52.2792 155.781 52.3001 155.727C52.321 155.672 52.3522 155.622 52.3919 155.58C52.4316 155.537 52.479 155.504 52.5313 155.481C52.5835 155.458 52.6397 155.447 52.6964 155.447H61.904C62.0149 155.449 62.1209 155.495 62.2001 155.576C62.2794 155.657 62.3259 155.766 62.3303 155.881C62.3282 155.999 62.2829 156.112 62.2036 156.196C62.1243 156.28 62.0171 156.329 61.904 156.334H52.6879H52.6964Z" fill="#3E3127"/>
<path d="M58.4426 158.215C58.331 158.215 58.2239 158.169 58.1442 158.088C58.0645 158.007 58.0186 157.896 58.0164 157.78C58.0163 157.661 58.061 157.548 58.1407 157.463C58.2204 157.378 58.3288 157.33 58.4426 157.327H63.9416C64.0547 157.327 64.1631 157.374 64.243 157.457C64.323 157.541 64.3679 157.653 64.3679 157.771C64.3679 157.889 64.323 158.002 64.243 158.085C64.1631 158.168 64.0547 158.215 63.9416 158.215H58.4341H58.4426Z" fill="#3E3127"/>
<path d="M217.896 58.5585C217.681 58.5577 217.474 58.4721 217.317 58.3189C217.152 58.1586 217.055 57.937 217.047 57.7026C217.039 57.4682 217.121 57.24 217.274 57.0679L226.882 46.2523C226.955 46.1579 227.046 46.08 227.15 46.0236C227.253 45.9672 227.366 45.9334 227.482 45.9244C227.599 45.9153 227.715 45.9311 227.826 45.9709C227.936 46.0107 228.037 46.0736 228.123 46.1556C228.209 46.2377 228.277 46.3372 228.325 46.4481C228.372 46.5589 228.397 46.6787 228.399 46.8C228.4 46.9213 228.377 47.0416 228.332 47.1534C228.287 47.2653 228.22 47.3662 228.136 47.4501L218.527 58.2746C218.447 58.3649 218.349 58.4368 218.241 58.4856C218.132 58.5345 218.015 58.5593 217.896 58.5585Z" fill="#3E3127"/>
<path d="M227.633 53.7941C227.466 53.7953 227.303 53.7457 227.163 53.6516C227.024 53.5575 226.914 53.423 226.846 53.2645C226.779 53.106 226.758 52.9306 226.786 52.7598C226.814 52.5891 226.888 52.4304 227.002 52.3035L232.748 45.8354C232.823 45.748 232.914 45.6769 233.015 45.626C233.117 45.5752 233.227 45.5456 233.339 45.539C233.451 45.5324 233.564 45.5489 233.67 45.5876C233.777 45.6263 233.875 45.6864 233.959 45.7645C234.043 45.8425 234.111 45.937 234.16 46.0426C234.209 46.1482 234.237 46.2627 234.243 46.3797C234.25 46.4967 234.234 46.6138 234.197 46.7244C234.159 46.8351 234.102 46.937 234.027 47.0243L228.28 53.4924C228.2 53.5882 228.1 53.6647 227.988 53.7168C227.876 53.7688 227.755 53.7952 227.633 53.7941Z" fill="#3E3127"/>
<path d="M262.656 140.993C261.511 140.993 260.391 140.64 259.439 139.978C258.487 139.316 257.745 138.375 257.307 137.274C256.869 136.173 256.755 134.962 256.978 133.793C257.201 132.625 257.753 131.551 258.562 130.709C259.372 129.866 260.403 129.293 261.526 129.06C262.649 128.828 263.813 128.947 264.871 129.403C265.929 129.859 266.833 130.631 267.469 131.622C268.105 132.612 268.444 133.777 268.444 134.969C268.442 136.566 267.832 138.097 266.746 139.226C265.661 140.355 264.19 140.991 262.656 140.993ZM262.656 130.719C261.848 130.719 261.058 130.968 260.387 131.435C259.715 131.902 259.192 132.566 258.883 133.342C258.574 134.119 258.493 134.974 258.65 135.798C258.808 136.622 259.197 137.38 259.768 137.974C260.339 138.568 261.067 138.973 261.859 139.137C262.651 139.301 263.472 139.217 264.218 138.895C264.965 138.574 265.602 138.029 266.051 137.33C266.5 136.631 266.739 135.809 266.739 134.969C266.737 133.842 266.306 132.763 265.541 131.966C264.775 131.17 263.738 130.721 262.656 130.719Z" fill="#3E3127"/>
<path d="M177.852 157.265H139.572C137.201 157.266 134.874 156.599 132.837 155.335C130.8 154.072 129.13 152.259 128.003 150.088C127.95 149.985 127.916 149.873 127.905 149.757C127.894 149.641 127.904 149.524 127.936 149.412C127.968 149.3 128.021 149.196 128.092 149.106C128.163 149.016 128.25 148.941 128.348 148.885C128.447 148.83 128.555 148.795 128.666 148.783C128.777 148.772 128.89 148.783 128.997 148.816C129.105 148.849 129.204 148.904 129.291 148.978C129.378 149.051 129.45 149.142 129.503 149.245C130.489 151.127 131.945 152.698 133.717 153.791C135.489 154.885 137.512 155.459 139.572 155.455H177.852C179.912 155.459 181.935 154.885 183.707 153.791C185.479 152.698 186.935 151.127 187.92 149.245C187.974 149.142 188.046 149.051 188.133 148.978C188.219 148.904 188.319 148.849 188.427 148.816C188.534 148.783 188.646 148.772 188.758 148.783C188.869 148.795 188.977 148.83 189.076 148.885C189.174 148.941 189.261 149.016 189.332 149.106C189.403 149.196 189.456 149.3 189.488 149.412C189.52 149.524 189.53 149.641 189.519 149.757C189.507 149.873 189.474 149.985 189.421 150.088C188.294 152.259 186.623 154.072 184.587 155.335C182.55 156.599 180.223 157.266 177.852 157.265Z" fill="#3E3127"/>
<path d="M188.671 61.3001C188.611 61.3088 188.551 61.3088 188.492 61.3001C183.342 60.1137 178.009 60.0834 172.847 61.2114C172.627 61.2616 172.396 61.2188 172.206 61.0924C172.016 60.966 171.882 60.7663 171.833 60.537C171.809 60.4228 171.807 60.3049 171.827 60.1899C171.847 60.075 171.889 59.9653 171.95 59.8672C172.011 59.7691 172.09 59.6845 172.183 59.6182C172.275 59.552 172.379 59.5054 172.489 59.4812C177.886 58.2912 183.465 58.3215 188.85 59.5699C189.07 59.619 189.262 59.7565 189.385 59.9527C189.508 60.1488 189.552 60.3875 189.506 60.6169C189.462 60.8124 189.355 60.9864 189.203 61.1105C189.051 61.2346 188.864 61.3014 188.671 61.3001Z" fill="white"/>
<path d="M161.687 66.0293C161.557 66.0289 161.429 65.9976 161.312 65.9376C161.195 65.8776 161.093 65.7906 161.014 65.6832C160.875 65.4983 160.813 65.2638 160.84 65.0311C160.867 64.7983 160.982 64.5862 161.159 64.4411C162.995 63.0869 164.992 61.9864 167.101 61.1672C167.311 61.0801 167.546 61.0835 167.754 61.1767C167.962 61.2699 168.126 61.4452 168.209 61.664C168.293 61.8829 168.29 62.1273 168.2 62.3436C168.111 62.5599 167.942 62.7304 167.732 62.8174C165.779 63.5768 163.928 64.5936 162.224 65.8429C162.071 65.9669 161.881 66.0326 161.687 66.0293Z" fill="white"/>
<path d="M83.3289 59.7386C82.9897 59.7386 82.6644 59.5984 82.4246 59.3488C82.1848 59.0992 82.05 58.7607 82.05 58.4077V52.7825C82.05 52.4296 82.1848 52.0911 82.4246 51.8415C82.6644 51.5919 82.9897 51.4517 83.3289 51.4517C83.6681 51.4517 83.9933 51.5919 84.2332 51.8415C84.473 52.0911 84.6077 52.4296 84.6077 52.7825V58.4077C84.6077 58.7607 84.473 59.0992 84.2332 59.3488C83.9933 59.5984 83.6681 59.7386 83.3289 59.7386Z" fill="white"/>
<path d="M83.3289 75.2478C82.9897 75.2478 82.6644 75.1076 82.4246 74.858C82.1848 74.6084 82.05 74.2699 82.05 73.9169V65.1065C82.05 64.7535 82.1848 64.415 82.4246 64.1654C82.6644 63.9159 82.9897 63.7756 83.3289 63.7756C83.6681 63.7756 83.9933 63.9159 84.2332 64.1654C84.473 64.415 84.6077 64.7535 84.6077 65.1065V73.9169C84.6077 74.2699 84.473 74.6084 84.2332 74.858C83.9933 75.1076 83.6681 75.2478 83.3289 75.2478Z" fill="white"/>
<path d="M79.3729 83.9873V84.3954C79.3684 85.0226 79.5857 85.6296 79.9835 86.1008C80.3813 86.572 80.9316 86.8745 81.5298 86.9507L101.642 89.5592C101.988 89.6032 102.339 89.5701 102.672 89.4623C103.005 89.3544 103.313 89.1741 103.574 88.9334C103.835 88.6927 104.044 88.397 104.187 88.0659C104.33 87.7348 104.404 87.3759 104.404 87.0128V85.9659" fill="white"/>
</svg>
