<svg width="406" height="306" viewBox="0 0 406 306" fill="none" xmlns="http://www.w3.org/2000/svg">
<path d="M249.69 105.64C249.69 105.64 256.277 92.3841 274.517 92.445C292.756 92.5059 329.033 106.31 345.283 127.422C360.173 146.707 349.17 210.358 292.239 239.244C287.51 241.626 282.246 242.748 276.957 242.503C271.668 242.257 266.531 240.653 262.043 237.844L238.606 223.228L249.69 105.64Z" fill="#FFD200"/>
<path d="M256.511 233.804L205.233 232.698C187.358 232.301 170.025 238.85 156.878 250.968L150.9 256.53L141.593 249.263L144.221 244.188C151.318 230.388 162.085 218.815 175.338 210.743C188.591 202.672 203.814 198.415 219.331 198.442L256.511 233.804Z" fill="#68E1FD"/>
<path opacity="0.08" d="M256.511 233.804L205.233 232.698C187.358 232.301 170.025 238.85 156.878 250.968L150.9 256.53L141.593 249.263L144.221 244.188C151.318 230.388 162.085 218.815 175.338 210.743C188.591 202.672 203.814 198.415 219.331 198.442L256.511 233.804Z" fill="black"/>
<path d="M261.596 109.822C261.596 109.822 234.424 95.0843 206.248 112.867C178.072 130.65 147.175 142.008 121.8 113.639L114.979 124.743C114.979 124.743 159.883 183.968 224.041 142.302L261.596 109.822Z" fill="#68E1FD"/>
<path opacity="0.46" d="M261.596 109.822C261.596 109.822 234.424 95.0843 206.248 112.867C178.072 130.65 147.175 142.008 121.8 113.639L114.979 124.743C114.979 124.743 159.883 183.968 224.041 142.302L261.596 109.822Z" fill="white"/>
<path d="M297.009 122.327C309.947 122.327 320.436 111.838 320.436 98.9003C320.436 85.9624 309.947 75.4741 297.009 75.4741C284.071 75.4741 273.583 85.9624 273.583 98.9003C273.583 111.838 284.071 122.327 297.009 122.327Z" fill="#E6E6E6"/>
<path d="M274.649 105.874L309.585 118.673L303.688 127.757L272.233 114.491L274.649 105.874Z" fill="#24285B"/>
<path d="M272.233 114.491C272.233 114.491 234.759 93.8557 221.544 116.257C208.329 138.658 218.854 204.075 218.854 204.075L269.34 224.263C269.34 224.263 339.203 190.768 340.238 155.243C341.273 119.718 304.601 126.864 272.233 114.491Z" fill="#68E1FD"/>
<path d="M289.854 212.824C289.854 212.824 262.946 176.284 215.667 175.492L214.906 183.704C214.906 183.704 253.537 197.599 269.34 224.304L289.854 212.824Z" fill="#FFD200"/>
<path d="M269.34 224.263C269.34 224.263 241.266 179.898 207.06 181.501C172.855 183.105 190.028 247.324 190.028 247.324L207.953 245.507C207.953 245.507 203.741 227.694 207.75 217.158C208.312 215.724 209.259 214.472 210.487 213.541C211.715 212.609 213.176 212.035 214.709 211.881C216.242 211.727 217.788 211.998 219.177 212.666C220.565 213.334 221.743 214.372 222.579 215.666C230.283 227.339 249.223 249.649 269.34 224.263Z" fill="#68E1FD"/>
<path opacity="0.08" d="M310.59 135.217C310.59 135.217 292.685 144.88 295.842 164.936C298.999 184.993 286.869 185.48 272.862 178.984C258.855 172.488 242.037 162.358 242.037 162.358C242.037 162.358 232.323 178.192 243.986 181.461C255.648 184.729 237.896 191.54 237.896 191.54C237.896 191.54 260.825 206.765 269.361 224.263C269.361 224.263 295.121 210.327 299.983 205.557C304.845 200.786 325.937 187.114 325.937 187.114L310.59 135.217Z" fill="black"/>
<path d="M184.649 237.834L206.299 234.606L210.947 253.8C211.408 255.684 211.117 257.674 210.135 259.347C209.154 261.02 207.559 262.245 205.69 262.762L188.354 267.604C187.895 267.73 187.407 267.701 186.966 267.521C186.526 267.342 186.157 267.022 185.916 266.612C185.675 266.201 185.577 265.723 185.636 265.251C185.695 264.779 185.908 264.339 186.242 264L188.13 262.102C189.545 260.672 190.503 258.854 190.882 256.879C191.262 254.904 191.046 252.861 190.262 251.008L184.649 237.834Z" fill="#24285B"/>
<path d="M148.19 232.434L164.958 246.969L151.925 262.62C151.131 263.932 149.858 264.884 148.376 265.276C146.893 265.668 145.317 265.469 143.978 264.721L127.332 255.414C126.819 255.13 126.409 254.691 126.161 254.159C125.913 253.628 125.841 253.031 125.954 252.456C126.066 251.88 126.359 251.355 126.789 250.957C127.219 250.558 127.764 250.306 128.347 250.237L139.106 249.039L148.19 232.434Z" fill="#24285B"/>
<path d="M123.292 135.288L133.584 145.266L145.886 129.33L127.677 115.963C125.538 114.388 123.649 112.499 122.074 110.36C118.471 105.488 110.99 96.5965 105.184 97.8754C100.363 98.8904 103.835 103.417 107.306 106.767C108.272 107.7 108.828 108.979 108.853 110.322C108.878 111.666 108.369 112.964 107.438 113.933C104.768 116.663 104.291 120.419 110.178 124.57C114.819 127.8 119.203 131.383 123.292 135.288Z" fill="#24285B"/>
<path d="M305.089 152.513C301.333 135.623 320.923 123.849 334.311 134.821C340.092 139.454 344.161 145.884 345.871 153.091C351.545 176.639 357.219 200.187 326.932 208.653C296.644 217.118 255.526 174.467 255.526 174.467L266.174 165.18C266.174 165.18 293.335 191.458 311.849 184.658C324.171 180.09 308.661 168.53 305.089 152.513Z" fill="#68E1FD"/>
<path opacity="0.46" d="M305.089 152.513C301.333 135.623 320.923 123.849 334.311 134.821C340.092 139.454 344.161 145.884 345.871 153.091C351.545 176.639 357.219 200.187 326.931 208.653C296.644 217.118 256.419 174.031 256.419 174.031L266.174 165.19C266.174 165.19 293.335 191.469 311.849 184.668C324.171 180.09 308.661 168.53 305.089 152.513Z" fill="white"/>
<path d="M255.526 174.427L278.394 196.848L289.63 180.019L267.006 162.957C267.006 162.957 255.79 149.336 247.031 155.385C238.271 161.435 240.606 171.615 255.526 174.427Z" fill="#24285B"/>
<path opacity="0.59" d="M290.513 98.5149C295.261 98.5149 299.11 94.6659 299.11 89.9179C299.11 85.1698 295.261 81.3208 290.513 81.3208C285.765 81.3208 281.916 85.1698 281.916 89.9179C281.916 94.6659 285.765 98.5149 290.513 98.5149Z" fill="white"/>
<path d="M242.24 136.171C247.879 136.171 252.451 131.6 252.451 125.96C252.451 120.321 247.879 115.75 242.24 115.75C236.601 115.75 232.029 120.321 232.029 125.96C232.029 131.6 236.601 136.171 242.24 136.171Z" fill="#24285B"/>
<path opacity="0.29" d="M242.24 131.117C245.088 131.117 247.396 128.808 247.396 125.96C247.396 123.113 245.088 120.804 242.24 120.804C239.392 120.804 237.084 123.113 237.084 125.96C237.084 128.808 239.392 131.117 242.24 131.117Z" fill="white"/>
<path opacity="0.08" d="M99.8164 35.0295C100.477 33.0633 98.9095 30.7635 96.3162 29.8928C93.7229 29.022 91.0854 29.9101 90.4252 31.8763C89.765 33.8426 91.3321 36.1424 93.9254 37.0131C96.5187 37.8838 99.1562 36.9958 99.8164 35.0295Z" fill="black"/>
<path opacity="0.13" d="M162.075 52.4845C163.863 52.4845 165.313 51.0349 165.313 49.2466C165.313 47.4584 163.863 46.0088 162.075 46.0088C160.287 46.0088 158.837 47.4584 158.837 49.2466C158.837 51.0349 160.287 52.4845 162.075 52.4845Z" fill="#A5A5A5"/>
<path opacity="0.13" d="M71.1921 128.569C72.9803 128.569 74.4299 127.119 74.4299 125.331C74.4299 123.543 72.9803 122.093 71.1921 122.093C69.4039 122.093 67.9542 123.543 67.9542 125.331C67.9542 127.119 69.4039 128.569 71.1921 128.569Z" fill="#A5A5A5"/>
<path opacity="0.13" d="M185.918 106.381C187.706 106.381 189.155 104.931 189.155 103.143C189.155 101.355 187.706 99.9053 185.918 99.9053C184.129 99.9053 182.68 101.355 182.68 103.143C182.68 104.931 184.129 106.381 185.918 106.381Z" fill="#A5A5A5"/>
<path opacity="0.13" d="M163.77 179.421C165.558 179.421 167.008 177.971 167.008 176.183C167.008 174.394 165.558 172.945 163.77 172.945C161.982 172.945 160.532 174.394 160.532 176.183C160.532 177.971 161.982 179.421 163.77 179.421Z" fill="#A5A5A5"/>
<path opacity="0.13" d="M255.019 71.4347C256.807 71.4347 258.257 69.985 258.257 68.1968C258.257 66.4086 256.807 64.959 255.019 64.959C253.231 64.959 251.781 66.4086 251.781 68.1968C251.781 69.985 253.231 71.4347 255.019 71.4347Z" fill="#A5A5A5"/>
<path opacity="0.13" d="M355.859 124.265C357.647 124.265 359.097 122.816 359.097 121.027C359.097 119.239 357.647 117.79 355.859 117.79C354.071 117.79 352.621 119.239 352.621 121.027C352.621 122.816 354.071 124.265 355.859 124.265Z" fill="#A5A5A5"/>
<path opacity="0.13" d="M337.975 228.678C339.763 228.678 341.213 227.229 341.213 225.44C341.213 223.652 339.763 222.203 337.975 222.203C336.186 222.203 334.737 223.652 334.737 225.44C334.737 227.229 336.186 228.678 337.975 228.678Z" fill="#A5A5A5"/>
<path opacity="0.13" d="M239.033 258.601C240.821 258.601 242.27 257.151 242.27 255.363C242.27 253.575 240.821 252.125 239.033 252.125C237.244 252.125 235.795 253.575 235.795 255.363C235.795 257.151 237.244 258.601 239.033 258.601Z" fill="#A5A5A5"/>
</svg>
