<svg xmlns="http://www.w3.org/2000/svg" viewBox="0 0 330.77 192.73"><defs><style>.cls-1{fill:#3e3127;}.cls-2{fill:#637582;}.cls-3{fill:#9fb1bc;}.cls-4{fill:#caeefc;}.cls-5{fill:#78abba;}.cls-6{fill:#fff;}.cls-7{fill:#455760;}.cls-8{fill:#ecebeb;}.cls-9{fill:#c4c4c4;}.cls-10{fill:#d2eef9;}</style></defs><title>Asset 52</title><g id="Layer_2" data-name="Layer 2"><g id="Layer_1-2" data-name="Layer 1"><ellipse class="cls-1" cx="185.07" cy="184.81" rx="145.7" ry="7.91"/><path class="cls-2" d="M286.22,171.23H85.74A4.76,4.76,0,0,1,81,166.47V38.87c0-2.63,2.13-7.76,4.76-7.76H286.22c2.62,0,4.75,5.13,4.75,7.76v127.6A4.76,4.76,0,0,1,286.22,171.23Z"/><path class="cls-3" d="M291,34.17V38.8c0-2.63.87-4.76-1.75-4.76H83.73C81.11,34,81,36.17,81,38.8V34.17a4.76,4.76,0,0,1,4.75-4.76H286.22A4.76,4.76,0,0,1,291,34.17Z"/><polyline class="cls-4" points="89.54 168 89.54 40.62 282.41 40.62 282.41 167.88"/><rect class="cls-5" x="89.72" y="162.85" width="192.87" height="4.65"/><rect class="cls-6" x="89.72" y="41.84" width="192.87" height="4.65"/><path class="cls-1" d="M293,168.83h-4V35a2.75,2.75,0,0,0-2.75-2.75H85.74A2.76,2.76,0,0,0,83,35V168H79V35a6.76,6.76,0,0,1,6.76-6.75H286.22A6.76,6.76,0,0,1,293,35Z"/><rect class="cls-2" x="52.13" y="168.83" width="267.7" height="14.84" rx="7.42"/><path class="cls-7" d="M319.83,177.23a7.41,7.41,0,0,1-7.42,7.42H59.55a7.42,7.42,0,0,1-7.42-7.42,7.3,7.3,0,0,1,1-3.71,7.39,7.39,0,0,0,6.42,3.71H312.41a7.42,7.42,0,0,0,5.25-2.17,7.28,7.28,0,0,0,1.17-1.54A7.3,7.3,0,0,1,319.83,177.23Z"/><path class="cls-1" d="M312.41,186.32H59.55a9.42,9.42,0,1,1,0-18.84H312.41a9.42,9.42,0,0,1,0,18.84ZM59.55,171.48a5.42,5.42,0,1,0,0,10.84H312.41a5.42,5.42,0,0,0,0-10.84Z"/><path class="cls-5" d="M166.16,121.06c-9.31,1-18.68,1.77-27.91,2.83L91,129.32v-7.43L133.18,117c10.65-1.22,21.48-2.05,32.21-3.32A46.45,46.45,0,0,0,166.16,121.06Z"/><path class="cls-5" d="M253.15,129.68a46.25,46.25,0,0,1-88.45-8.47,46.45,46.45,0,0,1-.77-7.34c0-.41,0-.82,0-1.23,0-1.28.05-2.56.15-3.81,0,0,0-.09,0-.13a45.71,45.71,0,0,0,5.13,17.6,46.35,46.35,0,0,0,80,3.38l7.52-10.76Z"/><polygon class="cls-1" points="91.04 168.69 88.04 168.69 88.04 39.8 283.92 39.8 283.92 168.56 280.92 168.56 280.92 42.8 91.04 42.8 91.04 168.69"/><path class="cls-1" d="M72,41.67a18.4,18.4,0,0,1,6.23-34.1c.38-.06.75-.11,1.13-.14a16.7,16.7,0,0,1,12.94,4.35A17.82,17.82,0,0,1,98.17,25v.76h-2V25A15.82,15.82,0,0,0,91,13.26,14.74,14.74,0,0,0,79.59,9.42c-.33,0-.67.07-1,.13A16.4,16.4,0,0,0,73,39.94Z"/><path class="cls-1" d="M104,13.58a6.79,6.79,0,1,1,6.79-6.79A6.8,6.8,0,0,1,104,13.58ZM104,2a4.79,4.79,0,1,0,4.79,4.79A4.8,4.8,0,0,0,104,2Z"/><path class="cls-1" d="M285.9,21.33a1,1,0,0,1-1-1V5.55a1,1,0,0,1,2,0V20.33A1,1,0,0,1,285.9,21.33Z"/><path class="cls-1" d="M316.27,43.19H301.86a1,1,0,0,1,0-2h14.41a1,1,0,0,1,0,2Z"/><path class="cls-1" d="M311.26,15.35a1,1,0,0,1-.74-.32,1,1,0,0,1,.06-1.42l5.56-5.14a1,1,0,1,1,1.36,1.46l-5.56,5.15A1,1,0,0,1,311.26,15.35Z"/><path class="cls-1" d="M298.23,27.41a1,1,0,0,1-.73-.32,1,1,0,0,1,.05-1.42l7.85-7.27a1,1,0,0,1,1.42.06,1,1,0,0,1-.06,1.41l-7.85,7.27A1,1,0,0,1,298.23,27.41Z"/><path class="cls-1" d="M293.26,22.62a1,1,0,0,1-.52-.14,1,1,0,0,1-.33-1.38l3.4-5.58a1,1,0,0,1,1.38-.33,1,1,0,0,1,.33,1.37l-3.41,5.59A1,1,0,0,1,293.26,22.62Z"/><path class="cls-1" d="M306.08,35.09h-4.22a1,1,0,0,1,0-2h4.22a1,1,0,0,1,0,2Z"/><path class="cls-8" d="M163.91,112.7c-11.44,1.41-23,2.27-34.42,3.58l-78.44,9c-10.47,1.2-21.26,4.13-31.8,1.87S2,115,2,104.47v.81C2,94.73,8.76,84.85,19.25,82.6s21.33.67,31.8,1.87l78.44,9c11.38,1.31,23,2.16,34.43,3.58"/><path class="cls-6" d="M161.94,99.67v3.82c-11.45-1.41-23.05-2.27-34.43-3.58l-78.44-9C38.6,89.71,27.81,86.78,17.27,89,7.55,91.12,1,99.75.14,109.4A17.33,17.33,0,0,1,0,107.49c.16-10.4,6.88-20.06,17.24-22.28,10.54-2.26,21.33.67,31.8,1.87l78.44,9C138.89,97.4,150.49,98.25,161.94,99.67Z"/><path class="cls-9" d="M166.16,108.13v5c-11.45,1.42-23,2.28-34.43,3.58l-78.43,9C42.83,127,32,129.88,21.49,127.62,11.15,125.4,4.42,115.74,4.25,105.35a24,24,0,0,1,.58-4.95c1.85,8.38,8,15.48,16.66,17.33,10.55,2.26,21.34,4.19,31.81,3l78.43-9C143.11,110.41,154.71,109.55,166.16,108.13Z"/><path class="cls-8" d="M253.15,119.71a46.31,46.31,0,1,1-1.2-36.6h-37v36.6Z"/><path class="cls-6" d="M252.75,85.28h-3a46.18,46.18,0,0,0-84.94,22.27c0-.9-.08-1.8-.08-2.71a46.19,46.19,0,0,1,88-19.56Z"/><path class="cls-9" d="M253.15,120.91a46.25,46.25,0,0,1-89.24-17,44.16,44.16,0,0,1,.28-5,45.62,45.62,0,0,0,5,16.48,46.35,46.35,0,0,0,78.44,5.6Z"/><rect class="cls-6" x="183.91" y="86.31" width="22.33" height="7.09"/><rect class="cls-6" x="183.91" y="98.73" width="22.33" height="7.09"/><rect class="cls-6" x="183.91" y="111.15" width="22.33" height="7.09"/><path class="cls-1" d="M27.65,131.31a41.88,41.88,0,0,1-8.82-.87C8.17,128.16.36,118.21,0,106.62H0v-.82C.36,94.21,8.17,84.26,18.83,82c8.31-1.78,16.67-.49,24.75.75,2.54.39,5.16.8,7.7,1.09l78.44,9c5.12.59,10.39,1.1,15.49,1.59,6.22.6,12.65,1.22,19,2l-.49,4c-6.25-.78-12.66-1.39-18.85-2-5.12-.49-10.41-1-15.57-1.59l-78.44-9c-2.61-.3-5.27-.71-7.85-1.1-7.72-1.19-15.71-2.43-23.3-.8C10.71,87.81,4.18,96.32,4,106.21c.18,9.89,6.71,18.4,15.67,20.32,7.59,1.63,15.58.39,23.31-.8,2.57-.4,5.23-.81,7.84-1.11q39.22-4.49,78.44-9c5.16-.59,10.44-1.1,15.55-1.59,6.2-.6,12.61-1.21,18.86-2l.49,4c-6.31.78-12.74,1.4-19,2-5.09.49-10.35,1-15.47,1.59l-78.44,9c-2.53.29-5.16.69-7.69,1.08A104.51,104.51,0,0,1,27.65,131.31Z"/><path class="cls-1" d="M210.1,152.52a48.19,48.19,0,1,1,43.66-68.59l1.34,2.84H216.91v32.6h39.17L255,122.1A47.77,47.77,0,0,1,210.1,152.52Zm0-92.37a44.19,44.19,0,1,0,40,63.22H212.91V82.77h35.77A44.4,44.4,0,0,0,210.1,60.15Z"/><path class="cls-1" d="M207.24,95.67H182.91v-9.1h24.33Zm-22.33-2h20.33v-5.1H184.91Z"/><path class="cls-1" d="M207.24,108.08H182.91V99h24.33Zm-22.33-2h20.33V101H184.91Z"/><path class="cls-1" d="M207.24,120.5H182.91v-9.09h24.33Zm-22.33-2h20.33v-5.09H184.91Z"/><circle class="cls-9" cx="47.38" cy="120.36" r="3.1"/><circle class="cls-9" cx="202.06" cy="139.86" r="4.33"/><circle class="cls-5" cx="270.12" cy="160.84" r="4.33"/><path class="cls-6" d="M105.32,46.34a4.33,4.33,0,0,1-8.66,0C96.66,44,98.6,44,101,44S105.32,44,105.32,46.34Z"/><circle class="cls-10" cx="106.84" cy="51.86" r="2.16"/><circle class="cls-10" cx="96.53" cy="51.78" r="1.08"/><circle class="cls-9" cx="51.09" cy="116.41" r="1.2"/><circle class="cls-9" cx="207.53" cy="134.53" r="1.2"/><circle class="cls-5" cx="273.26" cy="153.32" r="1.2"/><circle class="cls-9" cx="197.04" cy="133.72" r="1.96"/><circle class="cls-5" cx="261.13" cy="154.22" r="3.02"/><path class="cls-1" d="M63,96.92H62.9L52.17,95.66a1,1,0,1,1,.23-2l10.73,1.25a1,1,0,0,1-.11,2Z"/><path class="cls-1" d="M65,100.31H64.9l-6.41-.75a1,1,0,1,1,.23-2l6.41.75a1,1,0,0,1-.11,2Z"/><path class="cls-1" d="M295.12,176.2a.49.49,0,0,1-.5-.49.5.5,0,0,1,.5-.51l10.8,0h0a.49.49,0,0,1,.5.49.51.51,0,0,1-.49.51l-10.81,0Z"/><path class="cls-1" d="M301.86,178.32a.49.49,0,0,1-.5-.49.51.51,0,0,1,.5-.51l6.45,0h0a.5.5,0,0,1,.5.5.49.49,0,0,1-.49.5l-6.46,0Z"/><path class="cls-1" d="M61.81,176.2a.49.49,0,0,1-.5-.49.5.5,0,0,1,.5-.51l10.8,0h0a.51.51,0,0,1,.5.49.52.52,0,0,1-.5.51l-10.81,0Z"/><path class="cls-1" d="M68.55,178.32a.5.5,0,0,1-.5-.49.51.51,0,0,1,.5-.51l6.45,0h0a.5.5,0,0,1,0,1l-6.46,0Z"/><path class="cls-1" d="M255.58,66a1,1,0,0,1-.68-.27,1,1,0,0,1-.05-1.41l11.27-12.19a1,1,0,1,1,1.47,1.35l-11.27,12.2A1,1,0,0,1,255.58,66Z"/><path class="cls-1" d="M267,60.63a1,1,0,0,1-.74-1.68L273,51.66A1,1,0,0,1,274.5,53l-6.74,7.29A1,1,0,0,1,267,60.63Z"/><path class="cls-1" d="M308.08,158.91a6.79,6.79,0,1,1,6.79-6.79A6.8,6.8,0,0,1,308.08,158.91Zm0-11.58a4.79,4.79,0,1,0,4.79,4.79A4.8,4.8,0,0,0,308.08,147.33Z"/><path class="cls-1" d="M208.61,177.25h-44.9a15.42,15.42,0,0,1-13.57-8.09,1,1,0,1,1,1.76-.95,13.42,13.42,0,0,0,11.81,7h44.9a13.42,13.42,0,0,0,11.81-7,1,1,0,1,1,1.76.95A15.42,15.42,0,0,1,208.61,177.25Z"/><path class="cls-6" d="M221.3,69.09a.75.75,0,0,1-.21,0,43.52,43.52,0,0,0-18.35-.1,1,1,0,0,1-1.19-.76,1,1,0,0,1,.77-1.19,45.18,45.18,0,0,1,19.19.1,1,1,0,0,1,.77,1.18A1,1,0,0,1,221.3,69.09Z"/><path class="cls-6" d="M189.65,74.42a1,1,0,0,1-.79-.39,1,1,0,0,1,.17-1.4A30.52,30.52,0,0,1,196,68.94a1,1,0,1,1,.74,1.86,28.6,28.6,0,0,0-6.46,3.41A1,1,0,0,1,189.65,74.42Z"/><path class="cls-6" d="M97.74,67.33a1.5,1.5,0,0,1-1.5-1.5V59.49a1.5,1.5,0,1,1,3,0v6.34A1.5,1.5,0,0,1,97.74,67.33Z"/><path class="cls-6" d="M97.74,84.81a1.5,1.5,0,0,1-1.5-1.5V73.38a1.5,1.5,0,0,1,3,0v9.93A1.5,1.5,0,0,1,97.74,84.81Z"/><path class="cls-6" d="M93.1,94.66v.46A2.88,2.88,0,0,0,95.63,98l23.59,2.94a2.89,2.89,0,0,0,3.24-2.87V96.89"/></g></g></svg>