<svg width="326" height="348" viewBox="0 0 326 348" fill="none" xmlns="http://www.w3.org/2000/svg">
<path d="M271.868 69.3135C327.281 127.556 327.281 222.317 271.868 280.558C216.455 338.799 126.296 338.799 70.8848 280.558C66.6964 276.157 62.5711 271.116 58.264 265.126C56.8804 263.201 56.6129 260.646 57.5594 258.457C58.5133 256.28 60.5249 254.817 62.8024 254.646C94.1374 252.415 123.545 238.399 145.621 215.197C191.19 167.3 196.142 90.4821 157.123 36.5141C155.729 34.5998 155.464 32.0416 156.409 29.8548C157.356 27.6504 159.366 26.1872 161.652 26.0247C202.736 23.1046 242.915 38.8811 271.868 69.3135Z" fill="#2476FF"/>
<path opacity="0.25" d="M271.868 69.3135C267.345 64.5589 262.521 60.2092 257.488 56.1846C305.455 114.805 303.053 203.555 250.202 259.106C211.572 299.707 152.861 322.481 104.001 306.472C123.036 318.305 148.666 322.334 156.977 323.461C198.006 327.814 240.502 313.525 271.868 280.558C327.281 222.315 327.281 127.556 271.868 69.3135Z" fill="#020403"/>
</svg>
