<svg width="406" height="306" viewBox="0 0 406 306" fill="none" xmlns="http://www.w3.org/2000/svg">
<path d="M207.496 296.592L361.776 205.414C366.689 202.654 370.911 198.127 366.111 195.163L211.272 105.924C208.948 104.483 205.426 103.539 203.061 104.909L41.1075 198.908C36.1949 201.76 35.3118 209.728 40.2244 212.58L187.156 296.46C190.242 298.249 193.742 299.202 197.309 299.225C200.876 299.248 204.387 298.34 207.496 296.592Z" fill="#D740A7"/>
<path d="M100.911 208.054L193.56 260.143L298.39 199.406L207.598 146.9L100.911 208.054Z" fill="#FCBF17"/>
<path style="mix-blend-mode:multiply" opacity="0.5" d="M180.416 263.919C173.616 268.751 163.77 272.628 156.838 277.266L184.882 293.902L209.242 277.368L180.416 263.919Z" fill="url(#paint0_linear)"/>
<path style="mix-blend-mode:multiply" opacity="0.5" d="M263.9 222.02L257.231 218.183C249.609 222.629 242.088 227.247 234.445 231.663L243.336 236.362C250.258 231.754 257.059 226.892 263.9 222.02Z" fill="url(#paint1_linear)"/>
<path style="mix-blend-mode:multiply" opacity="0.5" d="M274.903 229.125L269.381 226.263C261.758 230.708 254.237 235.327 246.594 239.742L253.943 243.619C260.855 239.011 268.092 233.987 274.903 229.125Z" fill="url(#paint2_linear)"/>
<path style="mix-blend-mode:multiply" opacity="0.5" d="M120.541 226.252L113.873 222.416C106.25 226.861 98.729 231.48 91.0861 235.895L99.9775 240.594C106.92 235.946 113.68 231.094 120.541 226.252Z" fill="url(#paint3_linear)"/>
<path style="mix-blend-mode:multiply" opacity="0.5" d="M73.6788 216.102L69.7914 213.9C65.3355 216.498 60.9406 219.198 56.4746 221.776L61.6714 224.517C65.7314 221.766 69.7 218.975 73.6788 216.102Z" fill="url(#paint4_linear)"/>
<path style="mix-blend-mode:multiply" opacity="0.5" d="M174.357 190.139L167.688 186.302C160.066 190.748 152.544 195.366 144.901 199.781L153.793 204.481C160.735 199.832 167.536 194.98 174.357 190.139Z" fill="url(#paint5_linear)"/>
<path style="mix-blend-mode:multiply" opacity="0.5" d="M219.798 187.754L213.515 184.13C206.329 188.322 199.234 192.676 192.028 196.838L200.412 201.273C206.958 196.899 213.373 192.321 219.798 187.754Z" fill="url(#paint6_linear)"/>
<path d="M210.054 121.718C209.415 122.591 209.384 126.427 210.054 126.843C210.724 127.26 211.485 126.509 211.485 126.509C211.485 126.509 211.902 128.863 212.582 128.863C213.262 128.863 217.707 126.681 217.454 124.742C217.2 122.804 214.855 118.876 214.855 118.876" fill="#FFBB8F"/>
<path d="M157.092 49.9674C157.092 49.9674 156.909 45.1258 156.3 44.9939C155.691 44.8619 155.356 46.6077 155.285 46.4047C155.214 46.2017 154.209 41.4414 153.255 41.3297C152.301 41.2181 153.255 45.6333 153.255 45.6333C153.255 45.6333 149.763 46.3032 149.56 47.6633C149.357 49.0234 153.854 52.5658 153.854 52.5658" fill="#FFBB8F"/>
<path d="M173.149 178.375C173.149 178.375 172.936 182.364 170.784 183.866C168.632 185.368 165.831 185.805 164.694 188.068C164.368 188.763 164.245 189.536 164.34 190.298C164.435 191.06 164.745 191.779 165.232 192.372C167.981 192.734 170.774 192.204 173.2 190.86C177.503 188.596 179.554 187.307 181.056 186.982C182.558 186.658 181.137 177.766 181.137 177.766L173.149 178.375Z" fill="#341A0C"/>
<path d="M178.823 79.3822C178.823 79.3822 174.824 76.9868 172.966 74.3072C171.109 71.6276 157.102 50.0081 157.102 50.0081C157.102 50.0081 153.529 50.0081 152.524 51.5813C151.519 53.1546 164.521 82.5591 168.49 85.5635C172.459 88.5679 168.49 121.302 170.52 124.306C172.55 127.31 187.917 130.325 191.926 123.606L194.971 105.153C194.971 105.153 208.41 119.454 209.415 122.591C209.415 122.591 213.556 122.449 214.845 118.876C216.134 115.303 195.408 86.8526 191.835 83.4219C188.262 79.9912 178.823 79.3822 178.823 79.3822Z" fill="#124577"/>
<path d="M175.311 72.815C175.311 72.815 170.398 70.6937 171.718 67.5167C173.037 64.3398 177.666 61.8327 183.898 64.6037C190.13 67.3746 189.186 70.4196 188.262 73.5966C187.339 76.7735 185.796 79.4328 184.821 79.4125C183.847 79.3922 181.096 76.1036 181.096 76.1036" fill="#341A0C"/>
<path d="M175.686 69.8511C174.925 69.5872 174.895 82.6807 179.523 82.2849C184.151 81.889 184.598 76.9967 184.598 76.9967C184.598 76.9967 187.775 75.1494 186.719 73.8198C185.664 72.4901 183.542 73.8198 183.542 73.8198L182.7 69.8511C182.7 69.8511 180.67 71.5766 175.686 69.8511Z" fill="#FFBB8F"/>
<path d="M170.52 124.306C170.52 124.306 162.014 144.778 163.324 150.889C164.633 156.999 172.723 181.42 172.723 181.42C172.723 181.42 181.381 180.324 181.086 177.705C180.792 175.086 175.737 151.792 176.569 148.991C177.666 145.296 180.69 134.923 181.086 137.105C181.482 139.287 184.953 150.371 187.816 153.863C190.678 157.354 212.176 174.213 212.176 174.213C212.176 174.213 218.509 169.626 217.849 167.667C217.19 165.708 201.985 155.142 199.356 148.94C197.448 144.403 191.937 123.616 191.937 123.616" fill="#F168FC"/>
<path d="M212.237 174.244C212.845 176.044 213.35 177.877 213.749 179.735C214.074 181.674 212.734 185.338 211.719 186.089C210.704 186.84 210.856 188.352 212.257 189.317C213.657 190.281 217.86 189.743 219.362 188.241C220.864 186.739 219.687 183.907 220.874 181.44C222.062 178.974 225.188 174.264 217.758 168.814" fill="#341A0C"/>
<path d="M251.355 80.1637C251.355 80.1637 254.552 73.6474 254.044 73.0587C253.537 72.47 251.71 75.0887 251.71 75.0887C251.71 75.0887 251.71 68.41 251.141 68.2983C250.573 68.1867 250.289 72.4598 250.289 72.4598C250.289 72.4598 249.69 67.4863 248.675 67.4863C247.66 67.4863 248.675 72.2264 248.675 72.2264C248.675 72.2264 246.96 69.2626 246.391 69.4859C245.823 69.7092 247.244 73.4545 247.244 73.4545C247.244 73.4545 245.65 72.1147 245.417 72.4395C245.183 72.7643 247.071 77.4333 248.269 78.5295C249.057 79.2833 249.74 80.1403 250.299 81.0772" fill="#FFE5D0"/>
<path d="M264.194 119.261C264.194 119.261 258.561 103.519 256.521 97.6215C254.481 91.7244 253.334 78.9049 253.334 78.9049C253.334 78.9049 247.244 78.5598 247.041 79.991C246.838 81.4221 247.65 118.48 260.073 129.482" fill="#F46D0A"/>
<path d="M253.628 171.879C252.514 177.288 251.754 182.763 251.355 188.271C251.111 194.788 258.338 213.646 258.338 213.646L263.413 210.977C263.413 210.977 258.338 193.468 259.353 190.301C260.368 187.134 265.311 174.467 264.194 171.859C263.078 169.25 253.628 171.879 253.628 171.879Z" fill="#FFE5D0"/>
<path d="M266.6 172.874C265.485 178.282 264.726 183.758 264.326 189.266C264.083 195.782 271.167 212.926 271.167 212.926L276.385 211.992C276.385 211.992 271.31 194.483 272.325 191.316C273.34 188.149 278.283 175.482 277.166 172.874C276.05 170.265 266.6 172.874 266.6 172.874Z" fill="#FFE5D0"/>
<path d="M269.3 112.4C270.031 113.181 276.121 113.141 278.557 116.673C280.993 120.205 290.107 131.167 290.239 136.466C290.371 141.764 276.801 150.006 276.029 148.788C275.258 147.57 274.263 144.606 275.217 143.662C276.171 142.718 281.459 137.623 281.459 137.623L275.613 129.98C275.613 129.98 271.107 140.201 274.497 147.56C277.887 154.918 280.962 163.901 277.115 180.862C276.039 185.612 252.288 180.588 251.466 172.589C250.644 164.591 257.303 152.097 257.16 146.676C256.978 140.501 256.068 134.369 254.45 128.406C252.552 120.946 259.738 112.461 259.738 112.461L269.3 112.4Z" fill="#F46D0A"/>
<path d="M257.749 212.54C257.749 212.54 257.566 216.448 255.516 218.315C253.466 220.183 247.508 221.665 248.249 224.091C248.99 226.517 252.156 226.324 254.582 225.207C257.008 224.091 260.672 219.797 260.672 219.797C261.126 221.06 261.41 222.378 261.515 223.715L263.91 222.974L263.291 210.439C263.291 210.439 262.215 212.885 257.749 212.54Z" fill="#483D27"/>
<path d="M271.167 212.885C271.167 212.885 270.995 217.483 270.802 220.061C270.609 222.639 267.006 229.358 268.295 230.647C269.584 231.937 272.294 231.805 273.979 230.647C275.664 229.49 276.598 222.253 277.288 220.964C277.978 219.675 276.384 211.951 276.384 211.951L271.167 212.885Z" fill="#483D27"/>
<path d="M274.821 144.88C275.319 145.621 272.294 142.068 271.675 142.515C271.056 142.962 273.005 144.982 273.005 144.982C273.005 144.982 268.315 151.072 270.437 152.361C272.558 153.65 276.202 148.767 276.202 148.767" fill="#FFE5D0"/>
<path d="M262.215 112.309C262.215 112.309 258.155 120.063 259.261 120.936C260.368 121.809 267.107 123.463 267.99 122.519C268.874 121.576 269.3 112.369 269.3 112.369" fill="#FFE5D0"/>
<path d="M259.962 102.818C259.962 102.818 257.191 110.806 259.261 112.045C261.332 113.283 266.509 112.045 266.509 112.045" fill="#40424E"/>
<path d="M259.332 101.134C259.332 101.134 258.348 112.4 263.9 113.415C269.452 114.43 270.619 102.758 269.472 101.123C268.325 99.4893 260.804 98.5149 259.332 101.134Z" fill="#FFE5D0"/>
<path d="M266.509 109.568C266.151 111.008 266.358 112.529 267.087 113.821C269.397 114.384 271.822 114.242 274.05 113.415C277.034 106.168 274.05 95.1449 266.722 94.2822C259.393 93.4194 258.317 97.8651 257.901 100.484C257.485 103.103 259.272 102.869 259.931 102.828C266.163 102.412 267.808 105.437 266.509 109.568Z" fill="#40424E"/>
<path d="M197.062 156.451L196.321 160.521L190.231 161.465L190.028 154.482" fill="#FBE8DA"/>
<path d="M228.477 148.29C228.477 148.29 225.431 143.459 226.02 143.094C226.609 142.728 228.477 144.738 228.477 144.738C228.477 144.738 229.025 138.354 229.847 138.09C230.669 137.826 230.395 143.743 230.395 143.743C230.395 143.743 231.674 138.445 232.587 138.09C233.501 137.734 232.587 143.165 232.587 143.165C232.587 143.165 233.866 139.43 234.688 139.43C235.51 139.43 233.288 144.626 233.288 144.626C233.288 144.626 234.871 143.144 235.419 143.155C235.967 143.165 231.684 149.549 231.684 149.549" fill="#FBE8DA"/>
<path d="M154.432 151.609C154.432 151.609 157.66 146.342 156.543 145.925C155.427 145.509 153.762 147.702 153.762 147.702C153.762 147.702 153.488 140.505 152.514 140.373C151.539 140.241 151.682 146.626 151.682 146.626C151.682 146.626 150.667 140.779 149.733 140.373C148.799 139.967 149.733 146.626 149.733 146.626C149.733 146.626 146.536 142.038 145.845 142.738C145.155 143.439 147.987 148.94 147.987 148.94C147.987 148.94 146.18 146.91 145.734 147.651C145.287 148.392 150.149 154.756 150.149 154.756L155.579 151.447" fill="#FBE8DA"/>
<path d="M208.166 265.269C208.166 265.269 210.196 272.831 209.932 275.561C209.669 278.292 207.354 279.043 204.908 278.403C202.462 277.764 201.092 274.648 197.255 274.029C193.418 273.41 188.293 268.588 190.587 265.127C192.88 261.666 206.045 266.68 206.045 266.68" fill="#2D464B"/>
<path d="M206.776 194.544C206.492 194.97 209.12 206.957 206.776 215.554C204.431 224.152 200.006 230.84 200.087 233.967C200.168 237.093 208.207 265.269 208.207 265.269C208.207 265.269 202.178 270.009 199.072 266.101C195.966 262.194 188.384 243.203 188.171 238.615C187.958 234.027 192.85 200.289 192.85 200.289" fill="#D9E021"/>
<path d="M191.571 254.033C191.571 254.033 196.068 258.824 197.742 260.996C199.417 263.168 199.64 265.259 197.438 266.487C195.235 267.715 192.089 266.406 188.881 268.619C185.674 270.831 178.64 270.882 177.909 266.802C177.178 262.722 190.221 257.23 190.221 257.23" fill="#2D464B"/>
<path d="M183.4 240.97C184.852 245.527 194.342 254.835 194.728 258.012C192.85 260.702 188.912 262.62 186.039 261.493C179.797 255.058 168.135 242.208 168.602 236.585C169.231 228.871 180.284 205.12 180.284 205.12C180.284 205.12 198.016 198.655 196.342 210.469C194.667 222.284 181.939 236.382 183.4 240.97Z" fill="#D9E021"/>
<path d="M184.243 146.027C184.243 146.027 185.329 159.293 187.927 158.664C190.526 158.034 195.032 155.69 194.271 153.112C193.51 150.533 184.243 146.027 184.243 146.027Z" fill="#FBE8DA"/>
<path d="M186.993 148.047C186.993 148.047 181.655 147.925 182.142 145.134C182.629 142.342 185.664 141.977 185.664 141.977C185.664 141.977 185.664 138.09 187.602 137.724C189.541 137.359 192.211 139.754 192.211 139.754C193.399 138.663 194.875 137.934 196.463 137.653C198.889 137.328 200.473 141.094 200.473 141.094C200.473 141.094 203.518 142.19 203.873 145.103C204.228 148.016 200.828 148.016 200.828 148.016C200.828 148.016 203.376 148.504 202.858 150.564C202.577 151.793 201.855 152.877 200.828 153.609C200.504 154.592 199.891 155.454 199.069 156.083C198.246 156.711 197.253 157.077 196.22 157.131C192.332 157.618 190.13 156.4 190.028 154.462C189.927 152.523 189.419 149.387 187.998 151.67L186.993 148.047Z" fill="#563F2F"/>
<path d="M227.238 147.702C227.238 147.702 221.615 164.246 216.307 162.998C210.998 161.749 201.944 158.369 199.448 158.501C196.951 158.633 181.492 160.633 179.229 163.069C176.965 165.505 164.004 168.306 160.888 166.439C157.772 164.571 155.579 151.518 155.579 151.518C155.579 151.518 149.022 151.914 148.088 153.477C147.155 155.04 152.768 170.488 157.924 175.959C163.08 181.43 179.239 174.082 179.239 174.082L177.625 210.449C177.625 210.449 200.808 215.524 207.679 203.344L207.598 172.366C207.598 172.366 217.586 173.148 221.96 170.803C226.335 168.458 234.292 150.199 233.196 148.95C232.1 147.702 227.238 147.702 227.238 147.702Z" fill="#E84C1C"/>
<path d="M194.494 31.8496C194.494 31.8496 196.017 42.1925 186.801 43.177C186.801 43.177 193.906 44.9228 194.494 50.8707C194.494 50.8707 196.088 43.8977 201.904 43.177C201.904 43.177 195.022 44.4559 194.494 31.8496Z" fill="#F4BA14"/>
<path d="M222.671 57.9656C222.671 57.9656 224.193 68.3084 214.977 69.293C214.977 69.293 222.082 71.0388 222.671 76.9867C222.671 76.9867 224.264 70.0136 230.08 69.293C230.08 69.3031 223.199 70.5719 222.671 57.9656Z" fill="#F4BA14"/>
<path d="M111.873 60.3406C111.873 60.3406 113.396 70.6834 104.18 71.668C104.18 71.668 111.285 73.4138 111.873 79.3617C111.873 79.3617 113.467 72.3886 119.283 71.668C119.283 71.668 112.401 72.9367 111.873 60.3406Z" fill="#F4BA14"/>
<path d="M134.822 41.3501C134.822 41.3501 136.345 51.6929 127.129 52.6775C127.129 52.6775 134.234 54.4233 134.822 60.3712C134.822 60.3712 136.416 53.3981 142.232 52.6775C142.232 52.6978 135.35 53.9665 134.822 41.3501Z" fill="#F4BA14"/>
<path d="M144.8 121.535C144.8 121.535 144.333 115.679 144.8 115.283C145.267 114.887 146.13 116.298 146.201 117.15C146.201 117.15 147.002 115.354 147.662 115.557C148.322 115.76 151.387 117.587 151.326 119.018C151.265 120.449 147.53 124.611 147.53 124.611" fill="#EEA7B7"/>
<path d="M87.5742 109.609C87.5742 109.609 90.6192 107.081 90.3045 106.219C89.9899 105.356 88.2745 107.406 88.2745 107.406C88.2745 107.406 89.0053 104.168 88.1426 103.833C87.2798 103.498 84.0826 103.072 83.7375 103.691C83.3924 104.31 84.2856 109.609 84.2856 109.609" fill="#EEA7B7"/>
<path d="M117.192 188.058C117.192 188.058 115.03 200.289 114.644 204.866C114.259 209.444 114.137 221.502 114.137 221.502C113.662 222.347 112.908 223 112.004 223.349C111.1 223.697 110.102 223.719 109.184 223.411C108.223 217.244 107.798 211.005 107.915 204.765C108.3 196.259 107.854 184.191 107.854 184.191L117.192 188.058Z" fill="#EEA7B7"/>
<path d="M106.139 185.176C106.139 185.176 103.977 192.037 101.693 193.296C99.4091 194.554 78.0738 200.532 71.7301 207.648C71.7301 207.648 67.2844 206.724 67.5381 203.882C67.5381 203.882 72.6131 199.264 78.2058 195.204C83.7984 191.144 94.7604 189.621 95.3085 188.728C95.8566 187.835 96.7397 176.162 96.7397 176.162" fill="#EEA7B7"/>
<path d="M100.089 140.272C100.089 140.272 86.8941 154.36 95.613 187.246C95.613 187.246 106.707 191.306 117.202 188.058C117.202 188.058 126.418 158.989 116.065 143.967" fill="#5311A6"/>
<path d="M108.94 115.191C108.94 114.826 108.097 112.816 109.559 111.994C111.021 111.172 117.06 111.131 117.06 112.481C117.06 113.831 116.045 115.435 117.06 116.044C118.075 116.653 122.348 116.409 123.942 117.891C125.535 119.373 135.381 133.39 138.081 132.284C140.78 131.178 144.353 120.358 144.353 120.358L148.779 123.555C148.779 123.555 147.916 137.45 141.4 140.404C134.883 143.358 119.628 129.949 119.628 129.949C119.628 129.949 115.568 140.039 116.045 143.967C116.522 147.895 99.6222 145.611 100.079 140.282C100.576 134.517 98.9727 125.402 98.9727 125.402C98.9727 125.402 84.8337 131.431 80.3981 126.752C75.9626 122.073 83.839 108.431 83.839 108.431L88.0208 109.538C88.0208 109.538 84.8235 119.87 86.549 120.601C88.2745 121.332 97.2268 114.572 102.282 114.329C107.336 114.085 108.94 115.191 108.94 115.191Z" fill="#F168FC"/>
<path d="M114.157 220.447C114.157 220.447 115.172 224.223 117.202 223.614C119.232 223.005 121.323 221.523 122.094 222.294C122.866 223.065 123.505 224.091 122.48 225.248C121.455 226.405 115.801 229.551 115.801 229.551L112.269 226.334C112.269 226.334 112.076 231.409 111.691 231.47C111.305 231.531 108.991 231.531 108.798 230.455C108.605 229.379 108.798 220.995 108.798 220.995L114.157 220.447Z" fill="#4501A4"/>
<path d="M71.73 207.658C71.73 207.658 69.9031 208.866 70.8064 210.469C71.7098 212.073 74.3995 213.88 74.2168 214.712C74.0341 215.544 73.1206 217.219 71.9026 216.742C70.6846 216.265 68.6241 215.26 68.1775 214.367C67.7309 213.474 67.6599 208.277 67.1625 208.003C66.6652 207.729 63.4375 211.535 62.9199 211.22C62.4022 210.906 60.5448 209.099 60.8899 208.652C61.235 208.206 67.5787 203.872 67.5787 203.872L70.035 201.72L73.8108 205.78L71.73 207.658Z" fill="#4501A4"/>
<path d="M119.77 106.036C119.77 106.036 122.724 103.519 122.064 100.788C121.488 98.9142 120.23 97.3241 118.539 96.3319C116.848 95.3397 114.846 95.0176 112.929 95.4293C107.681 96.3022 103.642 101.337 103.855 109.091C104.068 116.846 116.035 113.608 116.035 113.608" fill="#5311A6"/>
<path d="M120.206 100.788C120.206 100.788 121.079 113.141 118.349 113.902C115.619 114.663 113.761 111.283 113.761 111.283L113.213 108.99C113.213 108.99 110.483 106.472 112.452 105.711C112.983 105.49 113.577 105.471 114.121 105.658C114.665 105.845 115.122 106.225 115.405 106.726C115.405 106.726 116.278 104.209 117.699 104.869C119.12 105.528 120.206 100.788 120.206 100.788Z" fill="#EEA7B7"/>
<path d="M329.54 136.242V187.744C329.54 188.147 329.7 188.535 329.986 188.82C330.271 189.106 330.659 189.266 331.063 189.266C331.466 189.266 331.854 189.106 332.139 188.82C332.425 188.535 332.585 188.147 332.585 187.744V136.242C332.585 135.839 332.425 135.451 332.139 135.166C331.854 134.88 331.466 134.72 331.063 134.72C330.659 134.72 330.271 134.88 329.986 135.166C329.7 135.451 329.54 135.839 329.54 136.242Z" fill="#341A0C"/>
<path d="M328.86 175.726L306.154 198.431C305.885 198.72 305.739 199.102 305.746 199.496C305.753 199.891 305.913 200.267 306.192 200.546C306.471 200.825 306.847 200.985 307.241 200.991C307.636 200.998 308.018 200.852 308.306 200.583L331.012 177.878C331.281 177.589 331.427 177.207 331.42 176.813C331.413 176.418 331.253 176.042 330.974 175.763C330.696 175.484 330.319 175.324 329.925 175.317C329.53 175.31 329.149 175.457 328.86 175.726Z" fill="#341A0C"/>
<path d="M347.851 202.42L331.976 174.508C331.777 174.157 331.446 173.899 331.057 173.791C330.668 173.684 330.252 173.735 329.9 173.934C329.549 174.134 329.291 174.464 329.184 174.854C329.076 175.243 329.128 175.659 329.327 176.01L345.201 203.923C345.401 204.274 345.731 204.532 346.121 204.639C346.51 204.747 346.926 204.695 347.277 204.496C347.628 204.297 347.886 203.966 347.994 203.577C348.101 203.188 348.05 202.772 347.851 202.42Z" fill="#341A0C"/>
<path d="M308.438 89.3391L333.732 104.351L360.995 88.3444L334.717 73.6472L308.438 89.3391Z" fill="#F168FC"/>
<path d="M360.995 88.3445V146.342L334.717 161.465L333.732 104.351L360.995 88.3445Z" fill="#F168FC"/>
<path opacity="0.11" d="M308.438 89.3391L333.732 104.351L360.995 88.3444L334.717 73.6472L308.438 89.3391Z" fill="#606060"/>
<path opacity="0.52" d="M360.995 88.3445V146.342L334.717 161.465L333.732 104.351L360.995 88.3445Z" fill="#606060"/>
<path d="M308.438 89.3391V147.062L334.717 161.465L333.732 104.351L308.438 89.3391Z" fill="#F168FC"/>
<path d="M324.085 121.038C327.107 119.549 327.519 114.204 325.004 109.1C322.489 103.996 318.001 101.066 314.978 102.555C311.956 104.044 311.545 109.389 314.06 114.493C316.575 119.597 321.063 122.527 324.085 121.038Z" fill="#D740A7"/>
<path d="M322.562 118.172C324.638 117.149 324.966 113.568 323.294 110.173C321.621 106.779 318.582 104.857 316.505 105.88C314.429 106.904 314.101 110.485 315.773 113.879C317.446 117.273 320.485 119.195 322.562 118.172Z" fill="#6210BC"/>
<path d="M327.161 149.741C331.38 147.662 331.954 140.201 328.443 133.076C324.933 125.95 318.667 121.859 314.448 123.938C310.229 126.017 309.655 133.478 313.165 140.603C316.676 147.729 322.942 151.82 327.161 149.741Z" fill="#D740A7"/>
<path d="M324.613 141.742C327.222 140.456 327.898 136.491 326.122 132.886C324.345 129.28 320.789 127.4 318.18 128.686C315.57 129.972 314.894 133.937 316.671 137.542C318.447 141.147 322.003 143.028 324.613 141.742Z" fill="#6210BC"/>
<path style="mix-blend-mode:multiply" opacity="0.5" d="M331.458 187.002C324.658 191.834 301.526 201.212 294.604 205.81L322.648 222.446L346.572 204.389L331.458 187.002Z" fill="url(#paint7_linear)"/>
<defs>
<linearGradient id="paint0_linear" x1="178.721" y1="281.306" x2="196.656" y2="264.812" gradientUnits="userSpaceOnUse">
<stop stop-color="white" stop-opacity="0"/>
<stop offset="1"/>
</linearGradient>
<linearGradient id="paint1_linear" x1="7294.88" y1="4382.73" x2="7451.75" y2="4104.76" gradientUnits="userSpaceOnUse">
<stop stop-color="white" stop-opacity="0"/>
<stop offset="1"/>
</linearGradient>
<linearGradient id="paint2_linear" x1="7356.24" y1="4331.94" x2="7504.98" y2="4066.33" gradientUnits="userSpaceOnUse">
<stop stop-color="white" stop-opacity="0"/>
<stop offset="1"/>
</linearGradient>
<linearGradient id="paint3_linear" x1="2992.14" y1="4462.04" x2="3149" y2="4184.07" gradientUnits="userSpaceOnUse">
<stop stop-color="white" stop-opacity="0"/>
<stop offset="1"/>
</linearGradient>
<linearGradient id="paint4_linear" x1="1101.63" y1="2535.07" x2="1155.19" y2="2440.15" gradientUnits="userSpaceOnUse">
<stop stop-color="white" stop-opacity="0"/>
<stop offset="1"/>
</linearGradient>
<linearGradient id="paint5_linear" x1="4607.38" y1="3779.13" x2="4764.24" y2="3501.16" gradientUnits="userSpaceOnUse">
<stop stop-color="white" stop-opacity="0"/>
<stop offset="1"/>
</linearGradient>
<linearGradient id="paint6_linear" x1="5674.74" y1="3521.43" x2="5814.27" y2="3274.16" gradientUnits="userSpaceOnUse">
<stop stop-color="white" stop-opacity="0"/>
<stop offset="1"/>
</linearGradient>
<linearGradient id="paint7_linear" x1="16491.5" y1="7459.36" x2="17113.5" y2="6620.14" gradientUnits="userSpaceOnUse">
<stop stop-color="white" stop-opacity="0"/>
<stop offset="1"/>
</linearGradient>
</defs>
</svg>
