<svg xmlns="http://www.w3.org/2000/svg" viewBox="0 0 400 300" width="406" height="306" class="illustration styles_illustrationTablet__1DWOa"><g id="_502_progress_outline" data-name="#502_progress_outline"><path d="M102.23,93.12H298.64a0,0,0,0,1,0,0V212.87a5.26,5.26,0,0,1-5.26,5.26H107.49a5.26,5.26,0,0,1-5.26-5.26V93.12A0,0,0,0,1,102.23,93.12Z" fill="#fff"></path><path d="M293.39,219.13H107.49a6.27,6.27,0,0,1-6.26-6.26V93.12a1,1,0,0,1,1-1H298.65a1,1,0,0,1,1,1V212.87A6.27,6.27,0,0,1,293.39,219.13Zm-190.16-125V212.87a4.26,4.26,0,0,0,4.26,4.26h185.9a4.27,4.27,0,0,0,4.26-4.26V94.12Z" fill="#093f68"></path><path d="M107.49,81.87h185.9a5.26,5.26,0,0,1,5.26,5.26v6a0,0,0,0,1,0,0H102.23a0,0,0,0,1,0,0v-6A5.26,5.26,0,0,1,107.49,81.87Z" fill="#333"></path><path d="M298.65,94.12H102.23a1,1,0,0,1-1-1v-6a6.27,6.27,0,0,1,6.26-6.26h185.9a6.27,6.27,0,0,1,6.26,6.26v6A1,1,0,0,1,298.65,94.12Zm-195.42-2H297.65v-5a4.27,4.27,0,0,0-4.26-4.26H107.49a4.26,4.26,0,0,0-4.26,4.26Z" fill="#093f68"></path><rect x="119.64" y="195.96" width="161.6" height="9.34" rx="4.67" fill="#fff"></rect><path d="M276.57,206.3H124.31a5.67,5.67,0,0,1,0-11.34H276.57a5.67,5.67,0,1,1,0,11.34ZM124.31,197a3.67,3.67,0,0,0,0,7.34H276.57a3.67,3.67,0,1,0,0-7.34Z" fill="#093f68"></path><path d="M251.75,196H124.31a4.67,4.67,0,0,0-4.67,4.67h0a4.67,4.67,0,0,0,4.67,4.67H251.75Z" fill="#333"></path><path d="M251.75,206.3H124.31a5.67,5.67,0,0,1,0-11.34H251.75a1,1,0,0,1,1,1v9.34A1,1,0,0,1,251.75,206.3ZM124.31,197a3.67,3.67,0,0,0,0,7.34H250.75V197Z" fill="#093f68"></path><g id="ahcQ9Z"><path d="M229.89,140.88a3.44,3.44,0,0,0-2.67-3.22c-1.29-.28-2.59-.49-3.9-.69a.87.87,0,0,1-.77-.64c-.39-1-.82-2.06-1.27-3.08a.66.66,0,0,1,.07-.78c.78-1.08,1.58-2.15,2.31-3.27a3.41,3.41,0,0,0-.3-4.17c-1.19-1.31-2.47-2.54-3.72-3.8a3.65,3.65,0,0,0-5-.45q-1.47,1-2.91,2.07a.66.66,0,0,1-.78.08c-1.1-.49-2.21-1-3.34-1.37a.69.69,0,0,1-.5-.61c-.19-1.19-.39-2.38-.59-3.57a3.62,3.62,0,0,0-3.45-3.09c-1.84-.05-3.68,0-5.51,0a3.49,3.49,0,0,0-3.34,2.72c-.29,1.34-.49,2.69-.72,4a.71.71,0,0,1-.5.61c-1.08.42-2.14.88-3.2,1.35a.62.62,0,0,1-.73-.06c-1.06-.79-2.12-1.57-3.22-2.3a3.44,3.44,0,0,0-4.22.27c-1.4,1.28-2.76,2.62-4,4a3.52,3.52,0,0,0-.23,4.69c.71,1,1.46,2,2.17,3.08a.7.7,0,0,1,.05.55c-.44,1.15-.9,2.3-1.39,3.44a.69.69,0,0,1-.43.35c-1.19.22-2.38.42-3.57.61A3.61,3.61,0,0,0,171,141c-.06,1.91-.05,3.83,0,5.75a3.45,3.45,0,0,0,2.65,3.19c1.36.31,2.75.52,4.13.75a.65.65,0,0,1,.57.47c.43,1.1.9,2.17,1.38,3.25a.59.59,0,0,1-.07.69c-.72,1-1.45,2-2.14,3a3.62,3.62,0,0,0,.42,4.84c1.15,1.17,2.31,2.34,3.48,3.48a3.62,3.62,0,0,0,5,.38c1-.7,2-1.41,3-2.13a.57.57,0,0,1,.66-.05c1,.44,2,.87,3.07,1.26a.78.78,0,0,1,.57.72c.18,1.18.38,2.35.58,3.52a3.57,3.57,0,0,0,3.3,3.09c1.93.07,3.86.06,5.79,0a3.46,3.46,0,0,0,3.21-2.7c.28-1.3.48-2.62.7-3.94a.75.75,0,0,1,.54-.68c1.09-.42,2.15-.86,3.21-1.33a.62.62,0,0,1,.7.07c1,.72,2,1.42,3,2.14a3.86,3.86,0,0,0,2.41.73,3.12,3.12,0,0,0,2.14-.88c1.26-1.19,2.48-2.43,3.71-3.65a3.66,3.66,0,0,0,.45-5.07q-1-1.47-2.07-2.91a.62.62,0,0,1-.07-.7c.47-1.07.92-2.15,1.35-3.25a.68.68,0,0,1,.62-.49c1.19-.18,2.38-.38,3.57-.58a3.6,3.6,0,0,0,3.12-3.42C229.94,144.65,229.94,142.76,229.89,140.88Zm-29.47,15.57a12.72,12.72,0,1,1,12.74-12.69A12.73,12.73,0,0,1,200.42,156.45Z" fill="#f56132" stroke="#093f68" stroke-linecap="round" stroke-linejoin="round" stroke-width="2"></path></g><path d="M200.44,182.81a1,1,0,0,1,0-2,37.1,37.1,0,0,0,37.06-37.06,1,1,0,0,1,2,0A39.1,39.1,0,0,1,200.44,182.81Z" fill="#093f68"></path><path d="M162.37,144.75a1,1,0,0,1-1-1,39.11,39.11,0,0,1,39.07-39.07,1,1,0,0,1,0,2,37.11,37.11,0,0,0-37.07,37.07A1,1,0,0,1,162.37,144.75Z" fill="#093f68"></path><path d="M196,111.67a1,1,0,0,1-.78-.37,1,1,0,0,1,.15-1.41l5-4-5.22-2.69a1,1,0,0,1-.43-1.34,1,1,0,0,1,1.35-.44l6.58,3.39a1,1,0,0,1,.53.79,1,1,0,0,1-.36.88l-6.18,5A1.07,1.07,0,0,1,196,111.67Z" fill="#093f68"></path><path d="M206,186.79a.9.9,0,0,1-.42-.1l-7.21-3.34a1,1,0,0,1-.57-.76,1,1,0,0,1,.33-.9l6.43-5.63a1,1,0,0,1,1.32,1.5l-5.27,4.62,5.81,2.7a1,1,0,0,1-.42,1.91Z" fill="#093f68"></path><path d="M89.79,139.65h59.69a0,0,0,0,1,0,0v35.61a4.09,4.09,0,0,1-4.09,4.09H93.88a4.09,4.09,0,0,1-4.09-4.09V139.65A0,0,0,0,1,89.79,139.65Z" fill="#fff"></path><path d="M145.39,180.34H93.88a5.1,5.1,0,0,1-5.09-5.09v-35.6a1,1,0,0,1,1-1h59.69a1,1,0,0,1,1,1v35.6A5.09,5.09,0,0,1,145.39,180.34Zm-54.6-39.69v34.6a3.09,3.09,0,0,0,3.09,3.09h51.51a3.09,3.09,0,0,0,3.09-3.09v-34.6Z" fill="#093f68"></path><path d="M93.88,134h51.51a4.09,4.09,0,0,1,4.09,4.09v1.54a0,0,0,0,1,0,0H89.79a0,0,0,0,1,0,0v-1.54A4.09,4.09,0,0,1,93.88,134Z" fill="#ffbc0e"></path><path d="M149.48,140.65H89.79a1,1,0,0,1-1-1v-1.54A5.1,5.1,0,0,1,93.88,133h51.51a5.09,5.09,0,0,1,5.09,5.09v1.54A1,1,0,0,1,149.48,140.65Zm-58.69-2h57.69v-.54a3.09,3.09,0,0,0-3.09-3.09H93.88a3.09,3.09,0,0,0-3.09,3.09Z" fill="#093f68"></path><path d="M96.94,167.16a1,1,0,0,1-.63-1.78l13-10.53a1,1,0,0,1,1.28,0l12,10L139.13,152a1,1,0,0,1,1.22,1.58L123.11,167a1,1,0,0,1-1.25,0l-11.94-10-12.35,10A1,1,0,0,1,96.94,167.16Z" fill="#dfeaef"></path><path d="M141.65,158.57h-.17a1,1,0,0,1-.82-1.15l1.12-6.53h-6.51a1,1,0,1,1,0-2H143a1,1,0,0,1,1,1.17l-1.32,7.69A1,1,0,0,1,141.65,158.57Z" fill="#dfeaef"></path><path d="M260.65,112.13h49.55a0,0,0,0,1,0,0V153.5a2.83,2.83,0,0,1-2.83,2.83H263.48a2.83,2.83,0,0,1-2.83-2.83V112.13A0,0,0,0,1,260.65,112.13Z" fill="#fff"></path><path d="M307.38,157.33h-43.9a3.84,3.84,0,0,1-3.83-3.83V112.13a1,1,0,0,1,1-1h49.56a1,1,0,0,1,1,1V153.5A3.84,3.84,0,0,1,307.38,157.33Zm-45.73-44.2V153.5a1.83,1.83,0,0,0,1.83,1.83h43.9a1.83,1.83,0,0,0,1.83-1.83V113.13Z" fill="#093f68"></path><path d="M263.48,105.71h43.89a2.83,2.83,0,0,1,2.83,2.83v3.59a0,0,0,0,1,0,0H260.65a0,0,0,0,1,0,0v-3.59A2.83,2.83,0,0,1,263.48,105.71Z" fill="#70cc40"></path><path d="M310.21,113.13H260.65a1,1,0,0,1-1-1v-3.59a3.84,3.84,0,0,1,3.83-3.83h43.9a3.84,3.84,0,0,1,3.83,3.83v3.59A1,1,0,0,1,310.21,113.13Zm-48.56-2h47.56v-2.59a1.83,1.83,0,0,0-1.83-1.83h-43.9a1.83,1.83,0,0,0-1.83,1.83Z" fill="#093f68"></path><path d="M286.43,150.06a15.85,15.85,0,0,1-15.83-15.83,1,1,0,0,1,2,0,13.83,13.83,0,1,0,2.95-8.54,1,1,0,1,1-1.57-1.23,15.83,15.83,0,1,1,12.45,25.6Z" fill="#dfeaef"></path><path d="M279.3,127.6h-.12l-5.45-.66a1,1,0,0,1-.88-1v-5.07a1,1,0,0,1,2,0v4.18l4.57.55a1,1,0,0,1-.12,2Z" fill="#dfeaef"></path><path d="M293.19,140.93a1,1,0,0,1-.65-.24L285.79,135a1,1,0,0,1-.36-.77v-9.52a1,1,0,1,1,2,0v9.06l6.4,5.4a1,1,0,0,1-.64,1.76Z" fill="#dfeaef"></path><path d="M149.48,104.9H118.34a1,1,0,0,1,0-2h31.14a1,1,0,0,1,0,2Z" fill="#dfeaef"></path><path d="M137.46,115.26H118.34a1,1,0,0,1,0-2h19.12a1,1,0,0,1,0,2Z" fill="#dfeaef"></path><path d="M149.48,115.26H143a1,1,0,0,1,0-2h6.52a1,1,0,0,1,0,2Z" fill="#dfeaef"></path><path d="M127.9,127.6h-9.56a1,1,0,0,1,0-2h9.56a1,1,0,0,1,0,2Z" fill="#dfeaef"></path><path d="M281.24,170.22H242.63a1,1,0,0,1,0-2h38.61a1,1,0,0,1,0,2Z" fill="#dfeaef"></path><path d="M281.24,180.34H263.6a1,1,0,0,1,0-2h17.64a1,1,0,0,1,0,2Z" fill="#dfeaef"></path><path d="M251.75,180.34h-9.12a1,1,0,0,1,0-2h9.12a1,1,0,0,1,0,2Z" fill="#dfeaef"></path></g></svg>