<svg width="361" height="289" viewBox="0 0 361 289" fill="none" xmlns="http://www.w3.org/2000/svg">
<g clip-path="url(#clip0)">
<path opacity="0.27" d="M262.884 140.552C270.24 151.417 301.87 156.758 290.222 211.466C283.459 243.239 255.815 240.823 251.332 244.822C244.126 251.248 241.579 264.757 233.134 269.321C223.526 274.489 172.782 302.081 138.973 285.673C136.279 284.378 133.712 282.792 131.314 280.943C115.618 268.837 147.66 247.663 97.292 226.005C87.8671 221.947 64.0204 178.318 82.1823 152.341C92.3152 137.869 83.2796 137.335 92.2092 96.1669C97.1774 73.3222 126.664 57.243 147.499 61.8205C149.668 62.2991 151.76 62.716 153.776 63.0711C201.433 71.5989 211.583 49.9963 242.311 69.3708C279.534 92.836 253.335 126.458 262.884 140.552Z" fill="#68E1FD"/>
<path opacity="0.27" d="M231.928 182.412C234.625 195.229 262.167 213.299 230.193 257.401C211.623 283.016 186.677 269.24 180.961 270.939C171.736 273.645 164.157 284.699 154.491 285.231C151.786 285.382 146.222 285.701 139.002 285.66C136.309 284.364 133.741 282.778 131.344 280.929C115.648 268.823 147.69 247.65 97.3214 225.992C87.8966 221.934 64.0498 178.304 82.2117 152.328C92.3152 137.869 83.2796 137.335 92.2092 96.1668C97.1774 73.322 126.664 57.2429 147.499 61.8203C149.668 62.2989 151.76 62.7158 153.776 63.0709L154.273 63.4223C199.515 96.1984 217.924 78.4726 240.118 110.009C265.895 146.667 228.422 165.776 231.928 182.412Z" fill="#68E1FD"/>
<path opacity="0.25" d="M137.648 69.2399C137.648 69.2399 168.897 86.8441 158.365 118.92L168.102 119.941C168.102 119.941 174.578 102.064 167.883 90.0896C161.187 78.115 156.551 72.3568 137.648 69.2399Z" fill="url(#paint0_linear)"/>
<path opacity="0.27" d="M108.717 125.672C117.589 143.855 119.135 148.394 119.135 148.394C119.135 148.394 94.3296 178.757 104.892 201.794C115.454 224.831 130.514 232.315 130.514 232.315C130.514 232.315 140.519 226.707 140.599 220.242C140.679 213.776 126.537 193.538 126.537 193.538L135.016 183.435C135.016 183.435 143.528 205.995 159.71 218.929C175.892 231.863 187.76 242.525 188.161 251.017C188.561 259.51 192.074 269.691 192.074 269.691L206.719 276.208C206.719 276.208 213.05 278.073 215.073 268.569C217.096 259.064 199.352 228.808 199.791 226.672C200.231 224.535 198.909 207.332 198.909 207.332C198.909 207.332 204.642 200.011 211.568 201.977C218.494 203.943 234.525 222.332 237.094 223.082C239.662 223.832 250.396 235.302 250.396 235.302L264.449 231.183L263.661 222.342L241.122 204.812L229.475 183.545L219.646 176.336L191.543 171.922L182.622 155.933C182.622 155.933 209.069 160.87 215.215 158.6C221.36 156.331 238.633 145.471 238.633 145.471L243.853 133.533L229.318 137.41L200.53 143.304L166.345 136.278L134.74 107.449L130.582 96.8245C130.582 96.8245 99.8459 107.489 108.717 125.672Z" fill="#68E1FD"/>
<path d="M195.394 254.96C195.394 254.96 192.284 265.671 196.87 268.178C201.455 270.684 218.043 272.638 220.685 269.583C223.327 266.529 220.748 261.556 217.107 259.12C213.466 256.683 209.479 254.238 209.479 254.238L195.394 254.96Z" fill="#68E1FD"/>
<path d="M250.751 216.98C250.751 216.98 253.819 224.014 258.022 226.23C262.225 228.447 278.765 211.387 277.985 208.21C277.206 205.033 272.518 203.237 267.217 205.576C264.245 206.966 260.997 207.677 257.68 207.664C257.68 207.664 247.66 211.671 250.751 216.98Z" fill="#68E1FD"/>
<path opacity="0.49" d="M169.518 87.763C172.319 93.8716 173.361 100.62 172.513 107.156C171.666 113.691 168.966 119.72 164.756 124.479C160.546 129.239 155.014 132.516 148.86 133.895C142.706 135.274 136.206 134.694 130.183 132.228C124.16 129.763 118.884 125.522 115.021 120.042C111.159 114.562 108.884 108.089 108.484 101.443C108.085 94.7958 109.578 88.2734 112.776 82.7C115.974 77.1267 120.732 72.7527 126.45 70.1313C130.245 68.3843 134.37 67.4546 138.591 67.3956C142.811 67.3365 147.043 68.1492 151.044 69.7871C155.045 71.425 158.736 73.8559 161.906 76.9406C165.076 80.0252 167.663 83.703 169.518 87.763Z" fill="#68E1FD"/>
<path d="M168.084 119.949C164.558 125.768 159.312 130.191 153.087 132.591C146.862 134.991 139.973 135.248 133.394 133.325C133.394 133.325 138.604 126.03 149.962 121.257C159.323 117.354 167.305 118.249 168.084 119.949Z" fill="#68E1FD"/>
<path d="M231.99 136.177C231.74 137.966 231.122 139.66 230.179 141.143C229.236 142.627 227.989 143.866 226.522 144.778C223.695 146.523 220.712 147.993 217.607 149.17C202.584 154.984 181.967 145.097 181.967 145.097C181.967 145.097 191.423 164.664 197.642 167.343C203.861 170.022 215.954 165.391 225.433 166.24C235.599 167.155 248.359 186.884 255.068 198.22C260.45 207.346 261.236 211.083 257.281 215.487C254.616 218.46 251.002 219.333 246.704 212.414C228.492 183.081 208.758 195.801 203.221 195.574C202.183 195.532 201.561 195.84 201.254 196.43C200.542 197.801 201.579 200.684 203.155 204.121C204.497 207.048 206.229 210.375 207.607 213.506C211.278 221.87 214.144 241.976 210.205 252.587C208.939 256.047 206.927 257.785 204.834 258.539C202.863 259.18 200.727 259.207 198.682 258.617C197.872 258.402 197.131 257.943 196.553 257.297C195.974 256.651 195.586 255.849 195.438 254.993C194.246 248.212 189.228 229.321 169.257 216.319C144.541 200.229 132.827 166.065 132.827 166.065C132.827 166.065 127.625 174.933 125.273 180.597C122.922 186.26 132.738 196.69 133.4 200.622C134.925 209.764 125.07 213.041 125.07 213.041C123.92 213.522 122.669 213.726 121.408 213.636C120.146 213.547 118.906 213.167 117.775 212.524C113.818 210.392 109.064 204.627 105.708 190.169C99.5601 163.669 127.15 138.694 132.563 134.095C133.148 133.598 133.473 133.342 133.473 133.342L168.151 119.941C168.151 119.941 200.566 128.891 210.105 128.516C214.315 128.301 218.31 126.797 221.597 124.192C222.653 123.365 223.996 123.013 225.345 123.21C226.693 123.406 227.942 124.136 228.832 125.247L229.128 125.614C230.305 127.088 231.171 128.798 231.666 130.623C232.16 132.447 232.271 134.343 231.99 136.177Z" fill="#68E1FD"/>
<path opacity="0.25" d="M231.99 136.177C231.74 137.966 231.122 139.66 230.179 141.143C229.236 142.627 227.989 143.866 226.522 144.778C223.695 146.523 220.712 147.993 217.607 149.17C202.584 154.984 181.967 145.097 181.967 145.097C181.967 145.097 191.423 164.664 197.642 167.343C203.861 170.022 215.954 165.391 225.433 166.24C235.599 167.155 248.359 186.884 255.068 198.22C260.45 207.346 261.236 211.083 257.281 215.487C254.616 218.46 251.002 219.333 246.704 212.414C228.492 183.081 208.758 195.801 203.221 195.574C202.183 195.532 201.561 195.84 201.254 196.43C200.542 197.801 201.579 200.684 203.155 204.121C204.497 207.048 206.229 210.375 207.607 213.506C211.278 221.87 214.144 241.976 210.205 252.587C208.939 256.047 206.927 257.785 204.834 258.539C202.863 259.18 200.727 259.207 198.682 258.617C197.872 258.402 197.131 257.943 196.553 257.297C195.974 256.651 195.586 255.849 195.438 254.993C194.246 248.212 189.228 229.321 169.257 216.319C144.541 200.229 132.827 166.065 132.827 166.065C132.827 166.065 127.625 174.933 125.273 180.597C122.922 186.26 132.738 196.69 133.4 200.622C134.925 209.764 125.07 213.041 125.07 213.041C123.92 213.522 122.669 213.726 121.408 213.636C120.146 213.547 118.906 213.167 117.775 212.524C113.818 210.392 109.064 204.627 105.708 190.169C99.5601 163.669 127.15 138.694 132.563 134.095C133.148 133.598 133.473 133.342 133.473 133.342L168.151 119.941C168.151 119.941 200.566 128.891 210.105 128.516C214.315 128.301 218.31 126.797 221.597 124.192C222.653 123.365 223.996 123.013 225.345 123.21C226.693 123.406 227.942 124.136 228.832 125.247L229.128 125.614C230.305 127.088 231.171 128.798 231.666 130.623C232.16 132.447 232.271 134.343 231.99 136.177Z" fill="url(#paint1_linear)"/>
<path opacity="0.25" d="M136.556 138.464C136.556 138.464 113.218 161.611 114.517 175.298C115.816 188.985 118.836 197.655 118.836 197.655L117.757 212.532C113.8 210.4 109.046 204.635 105.69 190.177C99.5424 163.677 127.132 138.702 132.545 134.103L136.556 138.464Z" fill="white"/>
<path opacity="0.25" d="M168.084 119.949C164.558 125.768 159.312 130.191 153.087 132.591C146.862 134.991 139.973 135.248 133.394 133.325C133.394 133.325 138.604 126.03 149.962 121.257C159.323 117.354 167.305 118.249 168.084 119.949Z" fill="url(#paint2_linear)"/>
<path d="M117.757 212.532C117.757 212.532 112.344 200.959 120.808 196.218C129.271 191.477 133.382 200.63 133.382 200.63C133.382 200.63 132.893 211.351 125.053 213.049C120.093 214.127 117.757 212.532 117.757 212.532Z" fill="url(#paint3_linear)"/>
<path opacity="0.25" d="M204.799 258.555C202.873 259.184 200.788 259.223 198.784 258.669C197.942 258.459 197.168 257.991 196.562 257.327C195.956 256.663 195.547 255.834 195.388 254.948C194.182 248.119 189.134 229.303 169.222 216.335C144.506 200.245 132.792 166.082 132.792 166.082C132.792 166.082 139.656 155.957 143.619 159.312C147.581 162.667 142.951 168.165 155.7 184.417C168.449 200.67 178.757 209.236 189.685 217.846C200.612 226.455 209.679 254.116 204.799 258.555Z" fill="url(#paint4_linear)"/>
<path opacity="0.25" d="M153.834 151.269C153.834 151.269 167.633 142.71 172.19 142.137C176.747 141.564 187.315 164.613 192.281 169.489C192.281 169.489 194.007 169.832 191.596 171.913C189.184 173.993 176.907 184.97 173.547 184.561C170.186 184.151 163.623 177.113 159.594 172.478C155.565 167.843 148.138 158.268 148.78 155.704C149.423 153.14 153.834 151.269 153.834 151.269Z" fill="url(#paint5_linear)"/>
<path opacity="0.25" d="M225.941 123.373C225.941 123.373 223.273 124.162 224.096 128.165C224.918 132.168 227.984 136.879 229.295 137.42C230.605 137.962 230.79 138.35 231.993 136.183C233.195 134.017 233.181 128.356 233.181 128.356C233.181 128.356 230.075 120.586 225.941 123.373Z" fill="url(#paint6_linear)"/>
<path d="M225.941 123.373C227.322 125.84 228.303 132.071 230.463 133.236C232.623 134.401 245.548 126.517 244.462 114.881C243.376 103.245 238.755 106.414 237.626 107.092C236.497 107.77 231.309 116.639 231.309 116.639C231.309 116.639 233.726 111.478 231.356 110.942C228.986 110.406 224.557 120.899 225.941 123.373Z" fill="#68E1FD"/>
<path opacity="0.25" d="M225.941 123.373C227.322 125.84 228.303 132.071 230.463 133.236C232.623 134.401 245.548 126.517 244.462 114.881C243.376 103.245 238.755 106.414 237.626 107.092C236.497 107.77 231.309 116.639 231.309 116.639C231.309 116.639 233.726 111.478 231.356 110.942C228.986 110.406 224.557 120.899 225.941 123.373Z" fill="url(#paint7_linear)"/>
<path d="M120.695 209.143C120.695 209.143 119.214 200.346 126.123 199.959C133.032 199.571 138.444 205.294 138.55 205.603C138.656 205.913 139.55 209.51 136.097 208.914C132.644 208.319 132.402 209.207 132.609 209.485C132.815 209.764 137.37 214.272 140.673 213.779C143.975 213.285 143.411 218.99 140.587 220.247C137.763 221.504 130.597 222.093 129.467 221.308C128.337 220.524 120.798 215.494 120.695 209.143Z" fill="#68E1FD"/>
<path opacity="0.25" d="M120.695 209.143C120.695 209.143 119.214 200.346 126.123 199.959C133.032 199.571 138.444 205.294 138.55 205.603C138.656 205.913 139.55 209.51 136.097 208.914C132.644 208.319 132.402 209.207 132.609 209.485C132.815 209.764 137.37 214.272 140.673 213.779C143.975 213.285 143.411 218.99 140.587 220.247C137.763 221.504 130.597 222.093 129.467 221.308C128.337 220.524 120.798 215.494 120.695 209.143Z" fill="url(#paint8_linear)"/>
<path opacity="0.25" d="M257.248 215.509C254.584 218.483 250.97 219.355 246.671 212.437C228.46 183.104 208.725 195.823 203.189 195.597C202.15 195.555 201.528 195.863 201.222 196.453C201.222 196.453 200.306 191.144 204.655 188.282C209.003 185.42 224.472 179.196 229.492 183.537C234.513 187.877 250.315 200.962 257.248 215.509Z" fill="url(#paint9_linear)"/>
<path opacity="0.25" d="M231.99 136.177C231.74 137.966 231.122 139.66 230.179 141.143C229.236 142.627 227.989 143.866 226.522 144.778C223.695 146.523 220.712 147.993 217.607 149.17C202.584 154.984 181.967 145.097 181.967 145.097C179.848 140.972 180.524 137.798 180.524 137.798C180.524 137.798 198.547 143.847 210.507 143.216C222.466 142.585 229.399 129.268 231.99 136.177Z" fill="url(#paint10_linear)"/>
<path d="M140.231 119.876C140.231 119.876 148.318 127.686 143.627 131.947C138.936 136.208 153.547 133.492 157.325 130.724C161.104 127.956 160.762 127.335 160.762 127.335C159.923 127.105 159.171 126.585 158.633 125.861C158.094 125.136 157.802 124.253 157.805 123.359C157.588 120.038 140.231 119.876 140.231 119.876Z" fill="url(#paint11_linear)"/>
<path d="M151.346 92.4155C151.346 92.4155 162.378 111.657 161.253 116.743C160.127 121.83 157.303 126.788 147.373 123.914C137.443 121.04 127.412 105.834 131.075 100.263C134.737 94.691 141.634 85.6785 151.346 92.4155Z" fill="url(#paint12_linear)"/>
<path d="M138.339 88.1641C138.339 88.1641 132.425 91.6377 130.559 96.8352C128.692 102.033 128.789 102.43 128.789 102.43C128.789 102.43 125.351 103.359 126.859 106.477C128.366 109.594 127.146 109.917 129.464 113.311C131.783 116.704 141.989 121.767 141.989 121.767L135.55 115.045L137.28 115.242C137.28 115.242 132.608 109.919 134.74 107.448C136.873 104.978 139.251 99.9032 140.128 99.3416C141.004 98.7799 149.102 94.5795 150.718 95.4609C152.145 96.3785 153.485 97.4443 154.714 98.641C154.714 98.641 155.107 93.4487 152.566 90.7212C150.025 87.9938 147.865 87.5443 147.865 87.5443L149.279 85.0451C149.279 85.0451 139.172 85.9998 138.339 88.1641Z" fill="#001316"/>
<path d="M137.309 115.229C137.309 115.229 132.51 114.184 133.692 116.887C134.874 119.59 138.114 120.436 140.261 119.863C142.408 119.29 137.309 115.229 137.309 115.229Z" fill="url(#paint13_linear)"/>
<path d="M131.634 133.172C131.634 133.172 129.883 134.858 130.986 136.425C132.089 137.991 146.932 142.436 158.972 134.425C171.012 126.414 170.743 120.649 170.743 120.649C170.743 120.649 170.274 118.335 168.058 119.923C165.841 121.51 150.618 138.377 131.634 133.172Z" fill="#68E1FD"/>
<path opacity="0.25" d="M131.634 133.172C131.634 133.172 129.883 134.858 130.986 136.425C132.089 137.991 146.932 142.436 158.972 134.425C171.012 126.414 170.743 120.649 170.743 120.649C170.743 120.649 170.274 118.335 168.058 119.923C165.841 121.51 150.618 138.377 131.634 133.172Z" fill="url(#paint14_linear)"/>
<path d="M199.631 83.638C199.667 83.7588 199.671 83.8861 199.643 84.0058C199.591 84.1207 199.509 84.2165 199.406 84.282L197.489 85.8236L199.427 85.6967C199.583 85.676 199.744 85.6995 199.893 85.7649C200.039 85.8717 200.151 86.0234 200.212 86.1973L201.108 88.0721L201.56 85.4349L203.551 86.0455L201.379 83.7963C201.948 83.341 202.429 82.7773 202.798 82.1327L201.235 82.6434C200.27 82.9487 200.005 82.3238 199.332 81.7261C199.369 82.3691 199.469 83.0097 199.631 83.638Z" fill="white"/>
<path d="M261.927 166.22C261.964 166.339 261.967 166.465 261.936 166.582C261.886 166.699 261.805 166.797 261.702 166.864L259.785 168.406L261.723 168.279C261.879 168.255 262.041 168.279 262.189 168.347C262.336 168.454 262.448 168.606 262.509 168.78L263.404 170.654L263.856 168.017L265.847 168.628L263.675 166.379C264.243 165.921 264.723 165.358 265.094 164.715L263.528 165.219C262.566 165.531 262.301 164.906 261.628 164.308C261.665 164.951 261.766 165.592 261.927 166.22Z" fill="white"/>
<path d="M153.63 253.778C153.666 253.897 153.669 254.023 153.639 254.14C153.589 254.257 153.508 254.355 153.404 254.422L151.488 255.964L153.426 255.837C153.582 255.816 153.743 255.84 153.892 255.905C154.038 256.012 154.15 256.163 154.211 256.337L155.077 258.226L155.535 255.586L157.526 256.196L155.354 253.947C155.924 253.492 156.405 252.928 156.773 252.284L155.208 252.788C154.245 253.1 153.98 252.475 153.307 251.877C153.35 252.518 153.458 253.155 153.63 253.778Z" fill="white"/>
<path d="M233.993 158.972C234.015 159.04 234.018 159.112 234.003 159.18C233.973 159.249 233.926 159.307 233.866 159.349L232.75 160.242L233.883 160.179C233.974 160.168 234.068 160.183 234.153 160.223C234.237 160.286 234.302 160.373 234.339 160.473L234.841 161.569L235.105 160.03L236.256 160.379L234.996 159.075C235.325 158.808 235.604 158.479 235.819 158.104L234.907 158.4C234.348 158.58 234.195 158.216 233.802 157.871C233.832 158.241 233.896 158.61 233.993 158.972Z" fill="white"/>
<path d="M226.877 228.65C226.908 228.769 226.911 228.893 226.886 229.011C226.836 229.13 226.752 229.229 226.646 229.296L224.735 230.835L226.674 230.708C226.83 230.687 226.991 230.71 227.14 230.777C227.286 230.883 227.398 231.035 227.459 231.209L228.325 233.097L228.783 230.457L230.774 231.068L228.602 228.819C229.17 228.361 229.65 227.798 230.021 227.155L228.449 227.662C227.493 227.971 227.228 227.346 226.555 226.749C226.598 227.389 226.706 228.026 226.877 228.65Z" fill="white"/>
<path d="M177.111 75.9937C177.123 76.0351 177.125 76.078 177.119 76.1196C177.098 76.1576 177.069 76.1911 177.036 76.2186L176.39 76.736L177.05 76.6997C177.103 76.694 177.157 76.7036 177.206 76.7275C177.254 76.7624 177.292 76.8118 177.313 76.8687L177.602 77.4981L177.755 76.605L178.429 76.7989L177.689 76.0411C177.873 75.887 178.028 75.6999 178.149 75.4877L177.622 75.6607C177.292 75.7661 177.203 75.5557 176.973 75.3489C177.001 75.5668 177.047 75.7826 177.111 75.9937Z" fill="white"/>
<path d="M180.86 100.73C180.87 100.771 180.87 100.813 180.859 100.852C180.841 100.89 180.814 100.923 180.782 100.949L180.135 101.466L180.79 101.432C180.844 101.424 180.9 101.433 180.951 101.458C180.999 101.493 181.037 101.542 181.059 101.599L181.347 102.228L181.501 101.335L182.169 101.532L181.435 100.771C181.62 100.618 181.775 100.431 181.894 100.218L181.362 100.393C181.038 100.496 180.949 100.286 180.718 100.079C180.743 100.299 180.791 100.518 180.86 100.73Z" fill="white"/>
<path d="M104.601 131.825C104.61 131.866 104.61 131.907 104.6 131.947C104.584 131.987 104.558 132.02 104.523 132.043L103.871 132.564L104.561 132.514C104.615 132.505 104.671 132.514 104.722 132.539C104.769 132.578 104.807 132.629 104.832 132.686L105.121 133.316L105.272 132.432L105.942 132.635L105.206 131.868C105.39 131.715 105.546 131.528 105.665 131.314L105.132 131.49C104.809 131.593 104.719 131.382 104.492 131.182C104.506 131.399 104.543 131.614 104.601 131.825Z" fill="white"/>
<path d="M92.5643 153.355L92.4269 149.153C92.6703 150.113 93.1833 150.988 93.8983 151.662C94.2626 151.989 94.7053 152.201 95.1717 152.273C95.6381 152.345 96.1075 152.273 96.5219 152.066C95.5794 152.499 94.4579 153.287 94.7696 154.34C94.9699 155.01 95.774 155.769 95.3325 156.299L93.5761 154.583C93.1511 155.222 92.6149 155.77 91.9933 156.2C92.0114 155.687 92.1711 155.199 92.4533 154.793C91.6271 154.423 90.8667 153.898 90.2113 153.246C90.8792 153.33 91.5359 153.519 92.1587 153.808" fill="white"/>
<path d="M98.9641 112.921L98.924 111.667C98.9912 111.954 99.1435 112.215 99.3584 112.413C99.4654 112.508 99.595 112.571 99.7317 112.594C99.8684 112.616 100.006 112.597 100.129 112.539C99.8466 112.669 99.513 112.905 99.6074 113.22C99.6969 113.415 99.9094 113.645 99.7732 113.799L99.2489 113.278C99.1163 113.471 98.9511 113.637 98.7608 113.768C98.7631 113.615 98.8103 113.468 98.8962 113.348C98.6519 113.237 98.4264 113.083 98.2306 112.892C98.4282 112.92 98.6224 112.977 98.8074 113.061" fill="white"/>
<path d="M137.947 130.879C139.986 130.272 140.227 128.31 139.815 126.214C139.522 124.751 138.936 123.354 138.097 122.117C137.258 120.88 136.185 119.83 134.949 119.038C130.221 115.957 121.048 108.234 122.33 95.2304C124.047 77.8141 114.684 83.9506 113.12 89.139C104.136 119.256 133.187 132.3 137.947 130.879Z" fill="url(#paint15_linear)"/>
<path d="M128.345 80.7447C131.203 78.7938 132.526 75.6909 131.301 73.8141C130.075 71.9374 126.766 71.9975 123.908 73.9483C121.05 75.8992 119.727 79.0021 120.952 80.8789C122.178 82.7557 125.487 82.6956 128.345 80.7447Z" fill="url(#paint16_linear)"/>
</g>
<defs>
<linearGradient id="paint0_linear" x1="155.897" y1="74.9572" x2="137.172" y2="173.992" gradientUnits="userSpaceOnUse">
<stop stop-opacity="0"/>
<stop offset="0.91" stop-opacity="0.8"/>
<stop offset="1"/>
</linearGradient>
<linearGradient id="paint1_linear" x1="33946.7" y1="3722.55" x2="41352" y2="25400" gradientUnits="userSpaceOnUse">
<stop stop-opacity="0"/>
<stop offset="0.91" stop-opacity="0.8"/>
<stop offset="1"/>
</linearGradient>
<linearGradient id="paint2_linear" x1="6428.78" y1="-1439.01" x2="8360.28" y2="-2324.6" gradientUnits="userSpaceOnUse">
<stop stop-opacity="0"/>
<stop offset="0.91" stop-opacity="0.8"/>
<stop offset="1"/>
</linearGradient>
<linearGradient id="paint3_linear" x1="3552.29" y1="2024.34" x2="2907.57" y2="3695.7" gradientUnits="userSpaceOnUse">
<stop stop-opacity="0"/>
<stop offset="0.91" stop-opacity="0.8"/>
<stop offset="1"/>
</linearGradient>
<linearGradient id="paint4_linear" x1="15632.6" y1="21812.4" x2="17245.7" y2="21072.7" gradientUnits="userSpaceOnUse">
<stop stop-opacity="0"/>
<stop offset="0.91" stop-opacity="0.8"/>
<stop offset="1"/>
</linearGradient>
<linearGradient id="paint5_linear" x1="8477.34" y1="3509.77" x2="10159.9" y2="2738.31" gradientUnits="userSpaceOnUse">
<stop stop-opacity="0"/>
<stop offset="0.91" stop-opacity="0.8"/>
<stop offset="1"/>
</linearGradient>
<linearGradient id="paint6_linear" x1="3528.05" y1="959.573" x2="3660.12" y2="1408.62" gradientUnits="userSpaceOnUse">
<stop stop-opacity="0"/>
<stop offset="0.91" stop-opacity="0.8"/>
<stop offset="1"/>
</linearGradient>
<linearGradient id="paint7_linear" x1="7964.64" y1="-493.362" x2="8258.56" y2="400.986" gradientUnits="userSpaceOnUse">
<stop stop-opacity="0"/>
<stop offset="0.91" stop-opacity="0.8"/>
<stop offset="1"/>
</linearGradient>
<linearGradient id="paint8_linear" x1="3947.16" y1="3945.45" x2="4424.7" y2="3726.5" gradientUnits="userSpaceOnUse">
<stop stop-opacity="0"/>
<stop offset="0.91" stop-opacity="0.8"/>
<stop offset="1"/>
</linearGradient>
<linearGradient id="paint9_linear" x1="13987.5" y1="6912.89" x2="16579.4" y2="5724.53" gradientUnits="userSpaceOnUse">
<stop stop-opacity="0"/>
<stop offset="0.91" stop-opacity="0.8"/>
<stop offset="1"/>
</linearGradient>
<linearGradient id="paint10_linear" x1="14578.1" y1="-2393.41" x2="13489" y2="79.5039" gradientUnits="userSpaceOnUse">
<stop stop-opacity="0"/>
<stop offset="0.91" stop-opacity="0.8"/>
<stop offset="1"/>
</linearGradient>
<linearGradient id="paint11_linear" x1="150.467" y1="123.524" x2="151.841" y2="135.747" gradientUnits="userSpaceOnUse">
<stop stop-color="#ECC4D7"/>
<stop offset="0.42" stop-color="#EFD4D1"/>
<stop offset="1" stop-color="#F2EAC9"/>
</linearGradient>
<linearGradient id="paint12_linear" x1="5391.13" y1="447.066" x2="6152.28" y2="246.887" gradientUnits="userSpaceOnUse">
<stop stop-color="#ECC4D7"/>
<stop offset="0.42" stop-color="#EFD4D1"/>
<stop offset="1" stop-color="#F2EAC9"/>
</linearGradient>
<linearGradient id="paint13_linear" x1="1284.43" y1="195.633" x2="1327.5" y2="175.882" gradientUnits="userSpaceOnUse">
<stop stop-color="#ECC4D7"/>
<stop offset="0.42" stop-color="#EFD4D1"/>
<stop offset="1" stop-color="#F2EAC9"/>
</linearGradient>
<linearGradient id="paint14_linear" x1="8323.67" y1="-1881.13" x2="8215.25" y2="-2187.21" gradientUnits="userSpaceOnUse">
<stop stop-opacity="0"/>
<stop offset="0.91" stop-opacity="0.8"/>
<stop offset="1"/>
</linearGradient>
<linearGradient id="paint15_linear" x1="100.671" y1="123.41" x2="209.037" y2="61.5023" gradientUnits="userSpaceOnUse">
<stop stop-color="white" stop-opacity="0"/>
<stop offset="1" stop-color="white"/>
</linearGradient>
<linearGradient id="paint16_linear" x1="2377.38" y1="-884.194" x2="2524.82" y2="-615.346" gradientUnits="userSpaceOnUse">
<stop stop-color="white" stop-opacity="0"/>
<stop offset="1" stop-color="white"/>
</linearGradient>
<clipPath id="clip0">
<rect width="289.284" height="232.952" fill="white" transform="translate(0 120.567) rotate(-24.6313)"/>
</clipPath>
</defs>
</svg>
