<svg width="259" height="185" viewBox="0 0 259 185" fill="none" xmlns="http://www.w3.org/2000/svg">
<g clip-path="url(#clip0)">
<path d="M46.6657 121.897C46.438 121.896 46.2117 121.865 45.995 121.803C45.7207 121.726 45.4664 121.602 45.2466 121.437C45.0269 121.272 44.8462 121.071 44.715 120.843L42.5991 117.202C42.3336 116.744 42.2838 116.211 42.4605 115.721C42.6373 115.23 43.0262 114.822 43.542 114.585L77.747 98.9379C78.2634 98.7024 78.864 98.6582 79.417 98.815C79.97 98.9719 80.4303 99.3169 80.697 99.7746L82.8128 103.416C83.0783 103.874 83.1282 104.407 82.9514 104.897C82.7746 105.388 82.3856 105.797 81.8699 106.033L47.6649 121.68C47.3561 121.822 47.0135 121.896 46.6657 121.897Z" fill="#F9BB26"/>
<path d="M59.0733 107.71C59.165 107.822 59.2429 107.943 59.3058 108.069L62.9203 115.073C63.0368 115.306 63.1003 115.558 63.1071 115.813C63.114 116.068 63.0641 116.322 62.9603 116.56C62.8565 116.798 62.7008 117.016 62.5021 117.2C62.3034 117.385 62.0657 117.533 61.8024 117.636L49.6458 121.406C48.3814 121.798 46.9991 121.764 45.7608 121.312C44.5224 120.86 43.5142 120.02 42.9271 118.952L43.0677 118.891L42.9272 118.952C42.3127 117.834 42.2055 116.55 42.6278 115.365C43.0501 114.179 43.9696 113.183 45.1964 112.581L56.4057 107.082C56.8642 106.9 57.3792 106.863 57.8648 106.977C58.3503 107.091 58.7769 107.35 59.0733 107.71V107.71Z" fill="#2F2E41"/>
<path d="M202.22 89.3773H143.659C142.326 89.3738 141.04 88.9427 140.037 88.1635L115.916 69.2883C115.088 68.6393 114.021 68.2815 112.916 68.2821H92.1V4.5799C92.1015 3.36565 92.6459 2.20153 93.6136 1.34293C94.5813 0.484335 95.8933 0.00137234 97.2618 0H197.058C198.426 0.00137161 199.738 0.484335 200.706 1.34293C201.674 2.20153 202.218 3.36565 202.22 4.5799L202.22 89.3773Z" fill="#E6E6E6"/>
<path d="M116.032 29.5612C122.079 29.5612 126.982 25.2117 126.982 19.8463C126.982 14.4809 122.079 10.1313 116.032 10.1313C109.985 10.1313 105.083 14.4809 105.083 19.8463C105.083 25.2117 109.985 29.5612 116.032 29.5612Z" fill="white"/>
<path d="M158.578 14.6418H138.244C137.87 14.6418 137.512 14.7734 137.248 15.0077C136.984 15.2419 136.836 15.5596 136.836 15.8909C136.836 16.2222 136.984 16.5399 137.248 16.7741C137.512 17.0084 137.87 17.14 138.244 17.14H158.578C158.952 17.14 159.31 17.0084 159.574 16.7741C159.838 16.5399 159.986 16.2222 159.986 15.8909C159.986 15.5596 159.838 15.2419 159.574 15.0077C159.31 14.7734 158.952 14.6418 158.578 14.6418Z" fill="white"/>
<path d="M188.098 22.5525H137.975C137.346 22.5525 136.836 23.1132 136.836 23.8016C136.836 24.4899 137.346 25.0506 137.975 25.0506H188.098C188.727 25.0506 189.237 24.4899 189.237 23.8016C189.237 23.1132 188.727 22.5525 188.098 22.5525Z" fill="white"/>
<path d="M184.159 39.2761H110.16C109.56 39.2761 109.072 39.8368 109.072 40.5252C109.072 41.2136 109.56 41.7742 110.16 41.7742H184.159C184.76 41.7742 185.248 41.2136 185.248 40.5252C185.248 39.8368 184.76 39.2761 184.159 39.2761Z" fill="white"/>
<path d="M184.159 47.0481H110.16C109.56 47.0481 109.072 47.6088 109.072 48.2972C109.072 48.9855 109.56 49.5462 110.16 49.5462H184.159C184.76 49.5462 185.248 48.9855 185.248 48.2972C185.248 47.6088 184.76 47.0481 184.159 47.0481Z" fill="white"/>
<path d="M184.159 54.8198H110.16C109.56 54.8198 109.072 55.3805 109.072 56.0689C109.072 56.7573 109.56 57.3179 110.16 57.3179H184.159C184.76 57.3179 185.248 56.7573 185.248 56.0689C185.248 55.3805 184.76 54.8198 184.159 54.8198Z" fill="white"/>
<path d="M184.159 62.5918H110.16C109.56 62.5918 109.072 63.1525 109.072 63.8409C109.072 64.5292 109.56 65.0899 110.16 65.0899H184.159C184.76 65.0899 185.248 64.5292 185.248 63.8409C185.248 63.1525 184.76 62.5918 184.159 62.5918Z" fill="white"/>
<path d="M250.71 89.3774H143.659C142.593 89.3791 141.551 89.1027 140.661 88.5828L140.59 88.5417V23.7322C140.592 22.518 141.136 21.3539 142.104 20.4953C143.071 19.6367 144.383 19.1537 145.752 19.1523H245.548C246.916 19.1537 248.228 19.6367 249.196 20.4953C250.164 21.3539 250.708 22.518 250.71 23.7322L250.71 89.3774Z" fill="#F9BB26"/>
<path d="M164.522 48.7135C170.57 48.7135 175.472 44.364 175.472 38.9986C175.472 33.6332 170.57 29.2837 164.522 29.2837C158.475 29.2837 153.573 33.6332 153.573 38.9986C153.573 44.364 158.475 48.7135 164.522 48.7135Z" fill="white"/>
<path d="M207.069 33.7942H186.734C186.361 33.7942 186.003 33.9258 185.739 34.16C185.475 34.3943 185.326 34.712 185.326 35.0433C185.326 35.3745 185.475 35.6922 185.739 35.9265C186.003 36.1607 186.361 36.2923 186.734 36.2923H207.069C207.442 36.2923 207.8 36.1607 208.064 35.9265C208.328 35.6922 208.476 35.3745 208.476 35.0433C208.476 34.712 208.328 34.3943 208.064 34.16C207.8 33.9258 207.442 33.7942 207.069 33.7942Z" fill="white"/>
<path d="M236.588 41.7048H186.465C185.836 41.7048 185.326 42.2655 185.326 42.9539C185.326 43.6423 185.836 44.203 186.465 44.203H236.588C237.217 44.203 237.727 43.6423 237.727 42.9539C237.727 42.2655 237.217 41.7048 236.588 41.7048Z" fill="white"/>
<path d="M232.65 58.4285H158.65C158.05 58.4285 157.562 58.9892 157.562 59.6775C157.562 60.3659 158.05 60.9266 158.65 60.9266H232.65C233.25 60.9266 233.738 60.3659 233.738 59.6775C233.738 58.9892 233.25 58.4285 232.65 58.4285Z" fill="white"/>
<path d="M232.65 66.2002H158.65C158.05 66.2002 157.562 66.7609 157.562 67.4493C157.562 68.1376 158.05 68.6983 158.65 68.6983H232.65C233.25 68.6983 233.738 68.1376 233.738 67.4493C233.738 66.7609 233.25 66.2002 232.65 66.2002Z" fill="white"/>
<path d="M232.65 73.9722H158.65C158.05 73.9722 157.562 74.5329 157.562 75.2212C157.562 75.9096 158.05 76.4703 158.65 76.4703H232.65C233.25 76.4703 233.738 75.9096 233.738 75.2212C233.738 74.5329 233.25 73.9722 232.65 73.9722Z" fill="white"/>
<path d="M232.65 81.7441H158.65C158.05 81.7441 157.562 82.3048 157.562 82.9932C157.562 83.6816 158.05 84.2423 158.65 84.2423H232.65C233.25 84.2423 233.738 83.6816 233.738 82.9932C233.738 82.3048 233.25 81.7441 232.65 81.7441Z" fill="white"/>
<path d="M253.682 88.6834H143.659C142.602 88.6845 141.575 88.3675 140.747 87.7841C140.681 87.7397 140.618 87.6925 140.556 87.6425L131.243 80.3563L116.433 68.7678C115.462 68.0073 114.211 67.5877 112.916 67.5881H85.9997C84.5898 67.5899 83.2382 68.0876 82.2413 68.9722C81.2443 69.8567 80.6834 71.0559 80.6814 72.3068V180.281C80.6834 181.532 81.2443 182.731 82.2413 183.616C83.2382 184.501 84.5898 184.998 85.9997 185H253.682C255.092 184.998 256.443 184.501 257.44 183.616C258.437 182.731 258.998 181.532 259 180.281V93.4021C258.998 92.1512 258.437 90.952 257.44 90.0674C256.443 89.1829 255.092 88.6852 253.682 88.6834ZM258.374 180.281C258.373 181.385 257.878 182.443 256.998 183.224C256.119 184.004 254.926 184.444 253.682 184.445H85.9997C84.7556 184.444 83.5629 184.004 82.6832 183.224C81.8035 182.443 81.3086 181.385 81.3071 180.281V72.3068C81.3086 71.203 81.8035 70.1448 82.6832 69.3642C83.5629 68.5837 84.7556 68.1446 85.9997 68.1433H112.916C114.059 68.1425 115.163 68.5127 116.02 69.1842L130.298 80.3563L140.14 88.0589C141.114 88.8162 142.364 89.2352 143.659 89.2385H253.682C254.926 89.2399 256.119 89.679 256.998 90.4595C257.878 91.24 258.373 92.2983 258.374 93.4021V180.281Z" fill="#3F3D56"/>
<path d="M32.302 105.363C41.5489 105.363 49.0449 98.712 49.0449 90.5076C49.0449 82.3033 41.5489 75.6523 32.302 75.6523C23.0551 75.6523 15.5591 82.3033 15.5591 90.5076C15.5591 98.712 23.0551 105.363 32.302 105.363Z" fill="#F9BB26"/>
<path d="M32.1666 184.838H27.5493C26.9687 184.838 26.412 184.633 26.0015 184.269C25.591 183.904 25.36 183.411 25.3594 182.895V148.751C25.36 148.235 25.591 147.742 26.0015 147.377C26.412 147.013 26.9687 146.808 27.5493 146.808H32.1666C32.7471 146.808 33.3038 147.013 33.7143 147.377C34.1249 147.742 34.3558 148.235 34.3564 148.751V182.895C34.3558 183.411 34.1249 183.904 33.7143 184.269C33.3038 184.633 32.7471 184.838 32.1666 184.838Z" fill="#F9BB26"/>
<path d="M42.1773 184.838H37.56C36.9794 184.838 36.4228 184.633 36.0122 184.269C35.6017 183.904 35.3708 183.411 35.3701 182.895V148.751C35.3708 148.235 35.6017 147.742 36.0122 147.377C36.4228 147.013 36.9794 146.808 37.56 146.808H42.1773C42.7579 146.808 43.3145 147.013 43.7251 147.377C44.1356 147.742 44.3665 148.235 44.3672 148.751V182.895C44.3665 183.411 44.1356 183.904 43.7251 184.269C43.3145 184.633 42.7579 184.838 42.1773 184.838Z" fill="#F9BB26"/>
<path d="M58.9443 141.191C58.9443 153.301 46.105 157.208 32.4556 157.208C18.8063 157.208 9.51562 153.301 9.51562 141.191C9.51562 129.08 18.7036 108.438 32.3529 108.438C46.0023 108.438 58.9443 129.08 58.9443 141.191Z" fill="#2F2E41"/>
<path d="M31.95 96.0136L31.9326 95.4584C33.0966 95.4297 34.1228 95.3649 34.8939 94.8651C35.1125 94.7153 35.2922 94.5255 35.4207 94.3087C35.5493 94.0918 35.6237 93.8528 35.6389 93.6082C35.6524 93.4587 35.6269 93.3084 35.5644 93.1691C35.5018 93.0297 35.4039 92.905 35.2782 92.8047C34.7664 92.4212 33.9427 92.5453 33.3424 92.7896L32.8247 93.0002L33.8174 86.5632L34.4373 86.6386L33.5929 92.1141C34.4086 91.9013 35.1644 91.9929 35.6821 92.3808C35.8809 92.5348 36.0368 92.7274 36.1378 92.9437C36.2388 93.16 36.282 93.3941 36.2641 93.6277C36.2458 93.9564 36.1468 94.2777 35.9738 94.5689C35.8009 94.8601 35.5582 95.1142 35.2629 95.3134C34.2722 95.9558 32.9846 95.9878 31.95 96.0136Z" fill="#2F2E41"/>
<path d="M40.8727 87.1106H37.5029V87.6657H40.8727V87.1106Z" fill="#2F2E41"/>
<path d="M30.2362 87.1106H26.8665V87.6657H30.2362V87.1106Z" fill="#2F2E41"/>
<path d="M218.331 165.848H126.356C125.112 165.846 123.919 165.407 123.039 164.627C122.16 163.846 121.665 162.788 121.663 161.684V116.718C121.665 115.614 122.16 114.556 123.039 113.775C123.919 112.995 125.112 112.556 126.356 112.554H218.331C219.575 112.556 220.768 112.995 221.647 113.775C222.527 114.556 223.022 115.614 223.023 116.718V161.684C223.022 162.788 222.527 163.846 221.647 164.627C220.768 165.407 219.575 165.846 218.331 165.848ZM126.356 113.11C125.278 113.111 124.244 113.491 123.482 114.168C122.719 114.844 122.29 115.761 122.289 116.718V161.684C122.29 162.641 122.719 163.558 123.482 164.235C124.244 164.911 125.278 165.292 126.356 165.293H218.331C219.409 165.292 220.443 164.911 221.205 164.235C221.968 163.558 222.397 162.641 222.398 161.684V116.718C222.397 115.761 221.968 114.844 221.205 114.168C220.443 113.491 219.409 113.111 218.331 113.11H126.356Z" fill="#E6E6E6"/>
<path d="M141.216 138.924C147.263 138.924 152.165 134.574 152.165 129.209C152.165 123.843 147.263 119.494 141.216 119.494C135.169 119.494 130.266 123.843 130.266 129.209C130.266 134.574 135.169 138.924 141.216 138.924Z" fill="#E6E6E6"/>
<path d="M183.762 124.004H163.427C163.054 124.004 162.696 124.136 162.432 124.37C162.168 124.604 162.02 124.922 162.02 125.253C162.02 125.584 162.168 125.902 162.432 126.136C162.696 126.371 163.054 126.502 163.427 126.502H183.762C184.135 126.502 184.493 126.371 184.757 126.136C185.021 125.902 185.17 125.584 185.17 125.253C185.17 124.922 185.021 124.604 184.757 124.37C184.493 124.136 184.135 124.004 183.762 124.004Z" fill="#E6E6E6"/>
<path d="M213.282 131.915H163.158C162.53 131.915 162.02 132.475 162.02 133.164C162.02 133.852 162.53 134.413 163.158 134.413H213.282C213.91 134.413 214.42 133.852 214.42 133.164C214.42 132.475 213.91 131.915 213.282 131.915Z" fill="#E6E6E6"/>
<path d="M209.343 148.638H135.344C134.743 148.638 134.255 149.199 134.255 149.887C134.255 150.576 134.743 151.137 135.344 151.137H209.343C209.944 151.137 210.432 150.576 210.432 149.887C210.432 149.199 209.944 148.638 209.343 148.638Z" fill="#E6E6E6"/>
<path d="M209.343 156.41H135.344C134.743 156.41 134.255 156.971 134.255 157.659C134.255 158.348 134.743 158.909 135.344 158.909H209.343C209.944 158.909 210.432 158.348 210.432 157.659C210.432 156.971 209.944 156.41 209.343 156.41Z" fill="#E6E6E6"/>
<path d="M18.9396 86.426C20.2418 84.6869 22.533 83.9497 24.7924 83.7703C27.3355 83.5685 29.7928 84.0036 32.2758 84.4263C35.0084 84.8915 37.9004 85.3268 40.6539 84.7386C41.8719 84.4886 43.0101 83.9965 43.9827 83.2995C44.9552 82.6024 45.7367 81.7185 46.2682 80.7145C47.2763 78.7556 47.4935 76.5484 46.8833 74.4641C46.2381 72.2474 44.6365 70.2969 42.695 68.8236C38.7323 65.8167 33.3699 64.4654 28.2121 64.5927C23.0738 64.7103 18.1076 66.2597 14.0171 69.0212C9.91978 71.8823 7.03652 75.8913 5.83794 80.3936C4.58462 84.859 4.99291 89.5643 7.00182 93.8069C8.13049 96.13 9.76285 98.2243 11.0224 100.489C12.1952 102.597 13.0984 105.049 12.3687 107.401C11.7284 109.464 9.84852 111.298 7.48852 111.858C5.24073 112.392 3.02128 111.517 1.78964 109.794C0.609885 108.143 0.581658 105.981 2.35299 104.649C2.7996 104.307 3.31984 104.05 3.88208 103.892C4.44433 103.734 5.03682 103.68 5.62353 103.732C6.21025 103.784 6.77893 103.941 7.29499 104.194C7.81104 104.447 8.2637 104.791 8.62543 105.204C9.34406 106.032 9.66572 107.078 9.52068 108.115C9.43342 108.64 10.3376 108.866 10.4257 108.337C10.6371 107.24 10.4027 106.112 9.76426 105.154C9.12585 104.196 8.12489 103.471 6.93972 103.106C5.75455 102.742 4.46216 102.763 3.2928 103.166C2.12345 103.568 1.15309 104.326 0.554619 105.304C-0.513588 107.086 0.0627702 109.235 1.41876 110.758C2.11838 111.57 3.06664 112.185 4.15009 112.531C5.23355 112.876 6.4063 112.938 7.52805 112.707C9.99633 112.202 12.0155 110.461 12.9651 108.416C14.0222 106.138 13.5379 103.597 12.5073 101.388C11.3933 98.9991 9.73905 96.8569 8.43083 94.5552C7.24628 92.4751 6.4925 90.2232 6.2054 87.9066C5.63078 83.2547 6.82073 78.5657 9.587 74.5812C12.4065 70.6586 16.7102 67.7566 21.7247 66.3965C26.6692 65.0194 32.1226 65.0616 36.9639 66.754C41.7328 68.4212 46.3377 72.0544 46.2824 76.934C46.2588 79.0184 45.3867 81.1441 43.5872 82.5344C41.4367 84.1959 38.4424 84.3379 35.739 84.0786C33.0185 83.8177 30.3767 83.1127 27.6444 82.9329C25.268 82.7765 22.7041 82.9391 20.5822 83.9867C19.5941 84.4756 18.7528 85.168 18.1292 86.0057C17.7941 86.4533 18.6066 86.8708 18.9396 86.426L18.9396 86.426Z" fill="#2F2E41"/>
<path d="M14.1163 156.052C14.0056 156.052 13.895 156.044 13.7856 156.029L9.22086 155.413C8.64697 155.335 8.13144 155.058 7.78735 154.643C7.44326 154.228 7.29872 153.709 7.38544 153.2L13.1763 119.444C13.2643 118.934 13.5763 118.477 14.0439 118.172C14.5116 117.866 15.0966 117.738 15.6707 117.815L20.2354 118.432C20.8093 118.51 21.3249 118.786 21.669 119.201C22.0131 119.616 22.1576 120.135 22.0708 120.645L16.28 154.401C16.2005 154.86 15.9388 155.278 15.542 155.581C15.1453 155.884 14.6396 156.051 14.1163 156.052Z" fill="#F9BB26"/>
<path d="M19.5713 133.046C19.4152 133.046 19.2596 133.031 19.107 133.002L10.5962 131.483C10.3149 131.429 10.0482 131.327 9.81133 131.182C9.57451 131.037 9.37223 130.852 9.21606 130.637C9.05988 130.423 8.95287 130.183 8.90115 129.932C8.84942 129.681 8.85399 129.423 8.91461 129.174L12.6185 118.231C13.0042 117.093 13.8469 116.12 14.987 115.497C16.1271 114.873 17.4854 114.643 18.8043 114.849L18.7771 114.985L18.8043 114.849C20.1845 115.064 21.4188 115.742 22.252 116.741C23.0853 117.741 23.4538 118.987 23.2814 120.221L21.7112 131.5C21.608 131.936 21.3392 132.328 20.9497 132.609C20.5602 132.89 20.0737 133.045 19.5713 133.046H19.5713Z" fill="#2F2E41"/>
<path d="M60.0205 185H10.9046C10.8217 185 10.7421 184.971 10.6834 184.919C10.6248 184.867 10.5918 184.796 10.5918 184.722C10.5918 184.649 10.6248 184.578 10.6834 184.526C10.7421 184.474 10.8217 184.445 10.9046 184.445H60.0205C60.1034 184.445 60.183 184.474 60.2417 184.526C60.3004 184.578 60.3333 184.649 60.3333 184.722C60.3333 184.796 60.3004 184.867 60.2417 184.919C60.183 184.971 60.1034 185 60.0205 185Z" fill="#3F3D56"/>
</g>
<defs>
<clipPath id="clip0">
<rect width="259" height="185" fill="white"/>
</clipPath>
</defs>
</svg>
