<svg width="406" height="306" viewBox="0 0 406 306" fill="none" xmlns="http://www.w3.org/2000/svg">
<path d="M255.019 53.8749C256.988 51.9464 259.515 48.5664 257.313 45.7549C256.734 45.0241 255.881 44.5267 255.415 43.7249C255.051 42.7945 254.845 41.8099 254.806 40.8118C254.186 37.239 250.746 34.8538 247.264 33.7068C243.783 32.5599 238.393 31.5855 235.084 33.7068C231.948 35.7368 230.578 39.9288 227.076 41.6137C222.792 43.6437 216.926 40.5987 213.251 43.5726C212.023 44.5876 211.282 46.1203 209.943 46.983C208.762 47.6061 207.441 47.9171 206.106 47.8864C199.762 48.2315 192.606 48.0995 188.12 52.596C183.634 57.0924 183.776 64.3598 185.207 70.531C185.755 73.4098 186.881 76.1478 188.516 78.58C189.881 80.2843 191.57 81.7004 193.487 82.7459C195.404 83.7914 197.509 84.4454 199.681 84.67C206.146 85.4921 213.353 84.67 216.043 78.0522C216.652 76.55 217.058 74.8752 218.195 73.7384C220.742 71.2314 225.097 72.8452 228.497 71.7084C234.272 69.851 235.297 61.1524 240.961 58.9397C246.32 56.9199 250.532 58.2597 255.019 53.8749Z" fill="white"/>
<path d="M203.619 85.4619C202.285 85.4567 200.952 85.3652 199.63 85.1878C197.391 84.9595 195.221 84.2861 193.246 83.2072C191.271 82.1282 189.532 80.6655 188.13 78.905C186.456 76.4242 185.3 73.6315 184.73 70.6936C183.41 65.0096 182.862 57.2043 187.775 52.2917C191.967 48.0896 198.199 47.7952 204.238 47.5212C204.857 47.5212 205.477 47.5212 206.086 47.4298C207.335 47.4664 208.573 47.1797 209.679 46.5975C210.353 46.116 210.943 45.5261 211.424 44.8517C211.872 44.26 212.378 43.7158 212.937 43.2277C215.089 41.4718 217.89 41.6443 220.59 41.8169C222.772 41.9488 225.025 42.0909 226.873 41.1977C228.595 40.2013 230.057 38.8098 231.136 37.1377C232.144 35.673 233.389 34.3866 234.82 33.3315C238.667 30.8041 244.909 32.4281 247.406 33.2401C251.781 34.6611 254.735 37.4524 255.293 40.7105C255.343 41.0049 255.374 41.3094 255.404 41.6037C255.428 42.2465 255.579 42.8781 255.851 43.4612C256.115 43.8701 256.441 44.2363 256.815 44.5472C257.135 44.8192 257.43 45.118 257.698 45.4404C259.535 47.7749 258.713 50.9823 255.364 54.2303C252.39 57.1332 249.517 57.6204 246.483 58.1381C244.664 58.3922 242.878 58.8379 241.154 59.4677C238.535 60.4827 236.962 62.9796 235.307 65.6186C233.653 68.2576 231.785 71.2417 228.659 72.2364C227.201 72.6247 225.691 72.7856 224.183 72.7135C222.011 72.7135 219.95 72.7135 218.56 74.1142C217.792 74.9925 217.233 76.0336 216.926 77.1592C216.794 77.5144 216.662 77.8697 216.52 78.2249C214.601 82.965 210.166 85.4619 203.619 85.4619ZM218.164 42.7304C216.538 42.6037 214.92 43.0568 213.597 44.0093C213.088 44.456 212.626 44.9524 212.216 45.4912C211.655 46.2566 210.968 46.9222 210.186 47.4603C208.942 48.141 207.544 48.4905 206.126 48.4753L204.259 48.5666C198.422 48.8305 192.383 49.1147 188.475 53.0326C183.715 57.8437 184.73 66.0145 185.745 70.4703C186.283 73.2806 187.376 75.9551 188.962 78.3366C190.286 79.9826 191.924 81.3477 193.782 82.3516C195.641 83.3556 197.68 83.9782 199.782 84.183C205.537 84.9239 212.977 84.4266 215.606 77.8798C215.748 77.5449 215.87 77.1998 216.002 76.8648C216.359 75.5874 217.001 74.4075 217.88 73.4138C219.565 71.7594 221.94 71.7492 224.213 71.7289C225.614 71.7962 227.017 71.6525 228.375 71.3026C231.146 70.4196 232.77 67.8415 234.465 65.1111C236.16 62.3808 237.865 59.691 240.788 58.5542C242.577 57.8943 244.432 57.4314 246.32 57.1738C249.365 56.6562 251.913 56.2197 254.663 53.53C256.369 51.8654 258.937 48.6783 256.907 46.1002C256.674 45.8198 256.419 45.5585 256.145 45.3186C255.687 44.9454 255.293 44.4997 254.978 43.9991C254.634 43.2956 254.441 42.5282 254.41 41.7458C254.41 41.4616 254.349 41.1876 254.308 40.9135C253.811 38.0309 251.121 35.534 247.102 34.2348C245.265 33.636 238.982 31.8597 235.389 34.2348C234.051 35.2305 232.889 36.4412 231.948 37.8178C230.773 39.5889 229.202 41.0623 227.36 42.1214C225.279 43.1364 222.884 42.974 220.58 42.8319C219.727 42.7811 218.935 42.7304 218.164 42.7304Z" fill="#231F20"/>
<path d="M140.446 55.6614L140.324 47.3384H147.743L148.769 57.6L140.446 55.6614Z" fill="white"/>
<path d="M148.779 58.1074H148.657L140.334 56.1688C140.225 56.1426 140.128 56.082 140.057 55.9961C139.985 55.9101 139.944 55.8033 139.938 55.6917L139.816 47.3687C139.815 47.3012 139.827 47.2341 139.852 47.1714C139.877 47.1086 139.914 47.0515 139.961 47.0033C140.009 46.9551 140.065 46.9168 140.127 46.8907C140.189 46.8645 140.256 46.8511 140.324 46.8511H147.743C147.869 46.8507 147.989 46.8975 148.081 46.9821C148.174 47.0668 148.231 47.1831 148.241 47.3078L149.256 57.5695C149.266 57.6484 149.256 57.7285 149.228 57.8028C149.199 57.8771 149.153 57.9434 149.093 57.9958C149.003 58.0654 148.893 58.1045 148.779 58.1074ZM140.953 55.2553L148.19 56.9402L147.266 47.8052H140.831L140.953 55.2553Z" fill="#231F20"/>
<path d="M147.743 47.3383L148.758 42.0908C148.758 42.0908 132.062 36.7823 132.965 39.3198C133.868 41.8573 140.344 47.3891 140.344 47.3891L147.743 47.3383Z" fill="#231F20"/>
<path d="M147.743 47.8459H140.324C140.205 47.8423 140.091 47.7994 139.999 47.7241C139.725 47.4906 133.391 42.0198 132.468 39.4417C132.405 39.2858 132.387 39.1151 132.418 38.9496C132.448 38.7842 132.526 38.6309 132.64 38.5079C134.021 37.0768 144.485 40.203 148.88 41.5529C148.997 41.5924 149.095 41.6728 149.156 41.7792C149.218 41.8856 149.239 42.0108 149.215 42.1315L148.19 47.4399C148.17 47.5472 148.116 47.645 148.035 47.7184C147.955 47.7917 147.852 47.8366 147.743 47.8459ZM140.517 46.8309H147.327L148.19 42.436C141.816 40.406 134.63 38.6906 133.452 39.1676C134.224 41.1063 138.659 45.2272 140.517 46.8309Z" fill="#231F20"/>
<path d="M136.497 90.3747C136.497 89.5728 139.42 53.6418 139.42 53.6418C139.42 53.6418 150.332 53.114 150.068 53.6418C149.804 54.1696 152.727 90.3747 152.727 90.3747H136.497Z" fill="#231F20"/>
<path d="M152.727 90.8818H136.487C136.35 90.8793 136.22 90.8249 136.122 90.7296C136.03 90.6342 135.979 90.5067 135.98 90.3743C135.98 89.5623 138.791 55.0726 138.903 53.6009C138.915 53.4776 138.97 53.3628 139.06 53.2771C139.149 53.1914 139.266 53.1407 139.39 53.134C150.017 52.6163 150.291 53.0426 150.484 53.3268C150.555 53.4567 150.577 53.6083 150.545 53.7531C150.433 54.9305 152.088 76.2455 153.224 90.2931C153.233 90.434 153.185 90.5725 153.092 90.6788C153.049 90.7357 152.993 90.7831 152.931 90.818C152.868 90.8529 152.799 90.8746 152.727 90.8818ZM137.025 89.8668H152.179C149.946 62.1573 149.58 55.6004 149.57 53.9764C148.413 53.8343 144.018 53.9764 139.887 54.1287C138.943 65.7098 137.279 86.3346 137.025 89.8668Z" fill="#231F20"/>
<path d="M249.304 65.4257C249.304 65.4257 243.397 56.6155 244.473 54.0577C245.549 51.4999 247.163 49.7439 248.533 50.1905C249.903 50.6371 253.669 62.2386 253.669 62.2386L249.304 65.4257Z" fill="white"/>
<path d="M249.304 65.9331H249.213C249.078 65.9084 248.958 65.8319 248.878 65.72C248.259 64.7963 242.859 56.585 244.006 53.8749C245.285 50.8299 247.122 49.2059 248.675 49.7236C250.228 50.2412 252.968 58.5338 254.126 62.0863C254.161 62.188 254.162 62.2984 254.129 62.4009C254.096 62.5034 254.031 62.5925 253.943 62.6547L249.599 65.8418C249.514 65.9054 249.41 65.9377 249.304 65.9331ZM248.066 50.6269C247.132 50.6269 245.863 52.0682 244.94 54.2606C244.27 55.8643 247.224 61.3656 249.426 64.705L253.05 62.0457C251.294 56.7372 249.091 51.104 248.33 50.6675C248.245 50.6391 248.156 50.6254 248.066 50.6269Z" fill="#231F20"/>
<path d="M112.645 59.8332L108.169 52.9312L101.865 57.5494L105.621 64.9995L112.645 59.8332Z" fill="white"/>
<path d="M105.621 65.5069H105.499C105.427 65.4875 105.36 65.4531 105.302 65.4058C105.245 65.3586 105.197 65.2997 105.164 65.2329L101.409 57.7828C101.356 57.6751 101.343 57.5524 101.37 57.4358C101.398 57.3192 101.465 57.2158 101.561 57.1433L107.874 52.5149C107.986 52.4355 108.124 52.4028 108.26 52.4236C108.328 52.4348 108.394 52.4605 108.452 52.499C108.509 52.5375 108.558 52.588 108.595 52.6469L113.071 59.5387C113.143 59.6474 113.171 59.7797 113.148 59.9083C113.126 60.0368 113.054 60.1516 112.949 60.2289L105.915 65.3953C105.833 65.4662 105.729 65.5058 105.621 65.5069ZM102.515 57.7016L105.804 64.2382L111.965 59.7011L108.037 53.6619L102.515 57.7016Z" fill="#231F20"/>
<path d="M108.169 52.9312C108.169 52.9312 104.545 46.9326 104.433 47.3386C104.322 47.7446 91.0658 56.6563 91.2485 57.5901C91.4312 58.5239 101.865 57.5901 101.865 57.5901L108.169 52.9312Z" fill="#231F20"/>
<path d="M94.3949 58.4628C90.9439 58.4628 90.8425 57.9553 90.7816 57.6406C90.6496 56.9809 91.4007 56.179 100.363 49.7642C102.058 48.5462 103.804 47.2978 104.058 47.044C104.151 46.9189 104.289 46.8352 104.443 46.8106C104.799 46.8106 105.093 46.7497 108.635 52.6773C108.7 52.7838 108.722 52.9107 108.698 53.0328C108.673 53.155 108.604 53.2636 108.503 53.337L102.19 57.9553C102.114 58.0064 102.027 58.0378 101.936 58.0466C98.4549 58.3511 96.0088 58.4628 94.3949 58.4628ZM92.0097 57.3361C95.2466 57.4926 98.4909 57.3976 101.713 57.0519L107.529 52.7991C106.342 50.7691 105.032 48.7391 104.484 48.0184C104.017 48.3838 103.043 49.0334 100.962 50.5864C98.1403 52.5656 93.2074 56.0978 91.9793 57.3361H92.0097Z" fill="#231F20"/>
<path d="M238.393 61.0006C239.55 61.3965 249.416 81.8183 252.43 80.7525C255.445 79.6868 246.533 64.6952 246.533 64.6952L254.532 58.9604C254.532 58.9604 274.953 89.1465 267.138 95.7136C259.322 102.281 229.674 80.6307 229.674 80.6307L238.393 61.0006Z" fill="#68E1FD"/>
<path d="M235.247 56.4128C235.247 56.4128 228.314 48.3943 217.992 55.2252C207.669 62.0562 188.211 73.8302 188.211 73.8302L194.667 99.124C194.667 99.124 210.359 106.067 228.933 96.9823C245.234 89.0146 246.077 76.2154 243.955 70.8968C241.834 65.5782 235.247 56.4128 235.247 56.4128Z" fill="#68E1FD"/>
<path d="M227.939 94.607C227.831 94.6057 227.727 94.5703 227.641 94.5059C227.555 94.4415 227.491 94.3515 227.46 94.2488C227.428 94.1461 227.43 94.036 227.465 93.9344C227.5 93.8327 227.566 93.7448 227.654 93.6833C227.796 93.5818 242.108 83.8886 244.574 73.6574C244.61 73.5282 244.695 73.4178 244.81 73.3497C244.926 73.2815 245.063 73.2608 245.194 73.292C245.324 73.3233 245.437 73.405 245.507 73.5191C245.577 73.6332 245.6 73.7705 245.569 73.901C243.001 84.5077 228.822 94.1198 228.223 94.5258C228.138 94.5805 228.039 94.6087 227.939 94.607Z" fill="#231F20"/>
<path d="M250.786 52.0381C250.786 52.0381 251.365 57.7119 250.34 58.2905C249.314 58.869 247.69 57.2755 247.69 57.2755" fill="white"/>
<path d="M249.832 58.9197C248.881 58.7827 248.002 58.3327 247.335 57.6408C247.288 57.5936 247.25 57.5375 247.224 57.4756C247.198 57.4138 247.185 57.3474 247.185 57.2805C247.185 57.2135 247.198 57.1471 247.224 57.0853C247.25 57.0234 247.288 56.9673 247.335 56.9201C247.432 56.8265 247.561 56.7741 247.696 56.7741C247.83 56.7741 247.959 56.8265 248.056 56.9201C248.492 57.3464 249.568 58.1381 250.086 57.8438C250.603 57.5494 250.563 54.7988 250.279 52.0887C250.267 52.022 250.269 51.9536 250.284 51.8876C250.3 51.8216 250.328 51.7593 250.368 51.7045C250.407 51.6496 250.458 51.6033 250.516 51.5682C250.574 51.533 250.638 51.5099 250.705 51.5C250.838 51.4884 250.97 51.5283 251.074 51.6115C251.178 51.6947 251.245 51.8147 251.263 51.9466C251.497 54.1898 251.71 58.0366 250.553 58.6964C250.335 58.8289 250.087 58.9056 249.832 58.9197Z" fill="#231F20"/>
<path d="M235.277 71.7188C231.481 68.6738 228.852 59.3155 228.933 59.1328C230.48 56.2303 232.174 53.4083 234.008 50.6779C234.008 50.6779 237.053 52.2816 240.728 49.602C244.402 46.9224 247.833 49.2975 253.121 46.1611C254.136 48.5362 252.014 51.3275 250.959 53.2661C249.477 56.0608 247.927 58.8148 246.31 61.5282C245.295 63.2537 240.677 60.8888 240.139 59.9347C238.931 62.8477 238.931 62.8477 235.277 71.7188Z" fill="white"/>
<path d="M235.277 72.226C235.157 72.2276 235.041 72.1841 234.952 72.1042C231.197 69.0592 228.162 59.5791 228.477 58.9092C230.019 55.9808 231.713 53.135 233.552 50.3832C233.619 50.2758 233.725 50.1981 233.847 50.1661C233.97 50.134 234.1 50.15 234.211 50.2107C234.323 50.2716 237.023 51.6317 240.382 49.1957C242.064 48.0795 244.049 47.5089 246.066 47.5615C248.438 47.55 250.766 46.9165 252.816 45.7244C252.879 45.6885 252.948 45.6655 253.019 45.6568C253.091 45.6481 253.163 45.6538 253.232 45.6736C253.301 45.6977 253.364 45.7353 253.418 45.7841C253.472 45.8329 253.516 45.8919 253.547 45.9578C254.491 48.1705 253.09 50.5659 251.964 52.4944C251.75 52.87 251.547 53.2151 251.365 53.5094C249.883 56.2905 248.32 59.0818 246.706 61.7918C246.507 62.0889 246.231 62.3261 245.907 62.4781C245.583 62.6301 245.224 62.6911 244.869 62.6546C243.195 62.4875 241.603 61.8545 240.271 60.8276L235.713 71.8708C235.681 71.9424 235.634 72.006 235.574 72.0569C235.514 72.1078 235.444 72.1448 235.368 72.1651L235.277 72.226ZM229.461 59.2239C229.684 60.2389 231.887 67.689 235.074 70.8558C238.464 62.6444 238.495 62.5734 239.662 59.7821C239.697 59.6933 239.756 59.6165 239.834 59.5607C239.911 59.5049 240.003 59.4725 240.098 59.4675C240.195 59.4615 240.291 59.4832 240.375 59.5299C240.46 59.5767 240.529 59.6466 240.575 59.7314C241.779 60.822 243.303 61.4948 244.92 61.6497C245.437 61.6497 245.721 61.5279 245.863 61.2843C247.467 58.5844 249.03 55.8135 250.502 53.0425C250.685 52.6974 250.898 52.332 251.121 51.9565C252.025 50.4035 253.151 48.5055 252.806 46.8815C250.75 47.9461 248.473 48.5161 246.158 48.5461C244.335 48.4848 242.538 48.9882 241.012 49.9874C240.074 50.7558 238.957 51.2765 237.766 51.5017C236.574 51.7269 235.345 51.6494 234.191 51.2764C233.389 52.5147 230.689 56.6965 229.461 59.2239Z" fill="#231F20"/>
<path d="M247.325 59.4475C246.958 59.4887 246.586 59.4501 246.235 59.3344C245.884 59.2187 245.562 59.0286 245.291 58.7771C245.021 58.5256 244.807 58.2186 244.666 57.8771C244.525 57.5356 244.459 57.1676 244.473 56.7983" fill="white"/>
<path d="M247.203 59.9547C246.342 59.9695 245.505 59.67 244.848 59.1122C244.547 58.8099 244.313 58.4476 244.161 58.049C244.009 57.6503 243.942 57.2241 243.965 56.798C243.965 56.6634 244.019 56.5343 244.114 56.4392C244.209 56.344 244.338 56.2905 244.473 56.2905C244.606 56.2932 244.732 56.3478 244.825 56.4427C244.918 56.5376 244.97 56.6652 244.97 56.798C244.946 57.0849 244.984 57.3735 245.08 57.6447C245.176 57.9159 245.329 58.1636 245.529 58.3713C246.026 58.7659 246.65 58.9677 247.284 58.9397C247.352 58.9326 247.42 58.9397 247.484 58.9603C247.549 58.981 247.608 59.0148 247.659 59.0597C247.709 59.1046 247.75 59.1595 247.778 59.221C247.806 59.2824 247.821 59.3491 247.822 59.4167C247.831 59.5497 247.787 59.6807 247.699 59.7814C247.612 59.882 247.488 59.9443 247.356 59.9547H247.203Z" fill="#231F20"/>
<path d="M240.129 59.9752C239.48 59.5895 238.918 59.074 238.478 58.4609C238.038 57.8479 237.729 57.1505 237.571 56.4126C237.571 56.4126 235.48 60.7872 238.484 63.9337L240.129 59.9752Z" fill="#231F20"/>
<path d="M238.525 64.4411C238.457 64.4421 238.389 64.4291 238.327 64.4029C238.264 64.3767 238.207 64.3379 238.16 64.2888C234.942 60.9292 237.063 56.3921 237.145 56.1688C237.192 56.0697 237.269 55.9884 237.366 55.9372C237.463 55.886 237.574 55.8675 237.683 55.8846C237.792 55.9049 237.891 55.9589 237.968 56.0391C238.044 56.1193 238.094 56.2215 238.109 56.3312C238.26 56.9885 238.541 57.6086 238.937 58.1545C239.333 58.7004 239.835 59.1608 240.413 59.5082C240.52 59.5684 240.601 59.6659 240.64 59.782C240.679 59.8982 240.674 60.0248 240.626 60.1375L238.982 64.096C238.951 64.175 238.9 64.2447 238.834 64.2981C238.769 64.3515 238.69 64.3868 238.606 64.4005L238.525 64.4411ZM237.612 58.0263C237.38 58.8559 237.33 59.7254 237.463 60.5763C237.596 61.4272 237.91 62.2398 238.383 62.9592L239.54 60.1679C238.73 59.6124 238.057 58.8801 237.571 58.0263H237.612Z" fill="#231F20"/>
<path d="M250.926 50.4274C251.252 49.8975 251.346 49.3631 251.136 49.2338C250.926 49.1045 250.491 49.4292 250.165 49.9591C249.839 50.4889 249.745 51.0233 249.955 51.1526C250.165 51.2819 250.6 50.9572 250.926 50.4274Z" fill="#231F20"/>
<path d="M244.331 50.4852C244.62 49.7462 244.694 48.9402 244.544 48.1609C244.522 47.5445 244.406 46.9351 244.199 46.3542C244.092 46.0655 243.923 45.804 243.704 45.5882C243.485 45.3724 243.22 45.2076 242.93 45.1057C242.665 45.0423 242.39 45.0357 242.122 45.0865C241.854 45.1372 241.601 45.2441 241.377 45.4001C240.932 45.7162 240.564 46.1292 240.301 46.6079C239.708 47.6393 239.396 48.8082 239.396 49.998C239.396 51.1878 239.708 52.3567 240.301 53.3881L240.24 53.1344" fill="white"/>
<path d="M240.281 53.8952C240.193 53.8937 240.106 53.8696 240.03 53.8251C239.953 53.7807 239.889 53.7175 239.844 53.6414C239.209 52.5304 238.875 51.2725 238.875 49.9925C238.875 48.7125 239.209 47.4547 239.844 46.3436C240.144 45.7989 240.564 45.3301 241.073 44.9733C241.358 44.7755 241.682 44.6413 242.024 44.58C242.365 44.5187 242.716 44.5317 243.052 44.6181C243.417 44.7385 243.749 44.9398 244.025 45.207C244.301 45.4741 244.513 45.8002 244.645 46.1609C244.877 46.7858 245.007 47.4437 245.031 48.1097C245.189 48.9876 245.094 49.8922 244.757 50.7182C244.696 50.8378 244.591 50.9284 244.463 50.9702C244.336 51.012 244.197 51.0017 244.077 50.9415C243.957 50.8807 243.867 50.775 243.825 50.6476C243.783 50.5202 243.794 50.3813 243.854 50.2615C244.094 49.6129 244.153 48.9113 244.026 48.2315C243.995 47.6685 243.889 47.1122 243.712 46.577C243.633 46.3589 243.508 46.1606 243.345 45.9958C243.182 45.831 242.985 45.7037 242.768 45.6229C242.572 45.5809 242.37 45.58 242.175 45.6202C241.979 45.6604 241.794 45.7408 241.631 45.8564C241.253 46.1212 240.941 46.4683 240.717 46.8714C240.179 47.804 239.888 48.8593 239.874 49.9362C239.86 51.0132 240.122 52.0758 240.636 53.0223H240.687L240.758 53.276C240.787 53.3945 240.774 53.5196 240.72 53.6292C240.666 53.7388 240.575 53.8258 240.464 53.8749C240.405 53.8932 240.343 53.9001 240.281 53.8952Z" fill="#231F20"/>
<path d="M188.211 73.8298C183.248 71.7998 171.413 74.2764 163.953 76.7632C156.493 79.2499 131.95 85.9388 131.95 85.9388L113.954 57.5898C113.954 57.5898 101.185 62.1979 101.896 63.2637C102.606 64.3294 114.695 93.1148 126.733 98.9206C138.771 104.726 196.017 99.4078 196.017 99.4078L188.211 73.8298Z" fill="#231F20"/>
<path d="M152.027 102.159C140.862 102.159 130.884 101.479 126.52 99.3777C119.415 95.9572 111.295 84.4471 102.271 65.1621C101.886 64.3399 101.551 63.6193 101.47 63.5076C101.413 63.4178 101.377 63.3166 101.365 63.2112C101.353 63.1058 101.364 62.999 101.399 62.8986C101.855 61.5081 110.219 58.3616 113.792 57.0725C113.9 57.0336 114.018 57.0325 114.127 57.0693C114.235 57.1062 114.328 57.1789 114.391 57.2755L132.123 85.3504C135.168 84.508 156.929 78.5195 163.801 76.2154C169.891 74.1854 182.802 70.9882 188.404 73.3024C188.473 73.3333 188.535 73.3782 188.585 73.434C188.636 73.4899 188.675 73.5557 188.699 73.6272L196.504 99.2559C196.524 99.3273 196.53 99.4021 196.519 99.4755C196.509 99.549 196.483 99.6194 196.443 99.6822C196.4 99.7436 196.344 99.7952 196.279 99.8337C196.214 99.8722 196.142 99.8966 196.068 99.9055C194.576 100.048 171.596 102.159 152.027 102.159ZM102.424 63.1422C102.556 63.396 102.789 63.8832 103.185 64.7358C112.107 83.8076 120.105 95.1858 126.956 98.4642C138.121 103.844 189.135 99.4792 195.357 98.9616L187.775 74.1651C182.7 72.2772 170.896 74.9162 164.095 77.2101C156.716 79.6664 132.265 86.3451 132.011 86.4466C131.906 86.4754 131.795 86.4692 131.694 86.4289C131.593 86.3885 131.509 86.3164 131.453 86.2233L113.751 58.1586C108.605 60.016 103.246 62.2998 102.424 63.1422Z" fill="#231F20"/>
<path d="M236.911 99.2963V94.9014H265.869L277.765 65.4258H319.806L306.012 94.7593V99.2963H236.911Z" fill="white"/>
<path d="M306.012 99.804H236.911C236.777 99.804 236.647 99.7506 236.552 99.6554C236.457 99.5602 236.404 99.4311 236.404 99.2965V94.9016C236.404 94.767 236.457 94.6379 236.552 94.5427C236.647 94.4475 236.777 94.3941 236.911 94.3941H265.524L277.298 65.2331C277.335 65.1396 277.399 65.0595 277.483 65.0034C277.566 64.9472 277.664 64.9176 277.765 64.9185H319.806C319.891 64.9186 319.975 64.9401 320.049 64.9808C320.124 65.0216 320.187 65.0805 320.233 65.1519C320.274 65.2263 320.296 65.3102 320.296 65.3955C320.296 65.4808 320.274 65.5647 320.233 65.6391L306.53 94.8711V99.2965C306.53 99.364 306.517 99.4309 306.49 99.4931C306.464 99.5554 306.426 99.6118 306.378 99.659C306.33 99.7063 306.272 99.7434 306.21 99.7683C306.147 99.7932 306.08 99.8054 306.012 99.804ZM237.419 98.789H305.515V94.729C305.517 94.6553 305.535 94.5828 305.566 94.5159L319.015 65.903H278.11L266.336 95.1452C266.299 95.2387 266.235 95.3188 266.151 95.3749C266.068 95.4311 265.97 95.4607 265.869 95.4598H237.449L237.419 98.789Z" fill="#231F20"/>
<path d="M207.649 61.6499C207.649 61.6499 212.439 98.5553 215.769 99.4485C219.098 100.342 253.324 93.1758 253.324 93.1758L250.989 81.209C250.989 81.209 226.446 85.5836 226.842 81.209C227.238 76.8343 224.092 60.4116 224.092 60.4116L207.649 61.6499Z" fill="#68E1FD"/>
<path d="M215.982 99.2864C214.757 99.3144 213.533 99.2192 212.328 99.0022C209.953 98.4947 208.217 96.0587 207.151 91.7652C205.862 86.5583 205.893 79.9709 206.025 76.5402C206.025 76.459 206.349 68.0751 207.314 67.2631C207.418 67.1772 207.552 67.1355 207.686 67.1469C207.821 67.1582 207.946 67.2218 208.034 67.324C208.115 67.4192 208.159 67.5396 208.159 67.6641C208.159 67.7885 208.115 67.9089 208.034 68.0041C207.354 69.2018 205.598 86.1523 209.049 94.3941C209.963 96.5459 211.14 97.7842 212.551 98.0887C220.671 99.8142 252.948 92.7802 253.273 92.7092C253.34 92.6945 253.408 92.6931 253.476 92.7051C253.543 92.717 253.607 92.7421 253.665 92.7789C253.722 92.8156 253.772 92.8634 253.811 92.9193C253.85 92.9753 253.877 93.0384 253.892 93.105C253.907 93.1717 253.908 93.2406 253.896 93.3077C253.884 93.3749 253.859 93.4391 253.822 93.4966C253.786 93.5541 253.738 93.6038 253.682 93.6428C253.626 93.6819 253.563 93.7095 253.496 93.7242C252.299 93.8764 227.36 99.2864 215.982 99.2864Z" fill="#231F20"/>
<path d="M229.532 83.6857C228.769 83.6743 228.04 83.3646 227.502 82.823C223.249 78.834 223.625 61.102 223.635 60.3407C223.645 60.2079 223.705 60.0839 223.803 59.9935C223.901 59.9031 224.029 59.8531 224.163 59.8535C224.229 59.8548 224.294 59.8693 224.355 59.8962C224.415 59.923 224.47 59.9617 224.515 60.0099C224.561 60.0581 224.596 60.1149 224.619 60.1769C224.642 60.239 224.653 60.305 224.65 60.3712C224.65 60.5539 224.274 78.4077 228.202 82.082C228.393 82.283 228.625 82.4391 228.883 82.5392C229.141 82.6393 229.418 82.6807 229.694 82.6606C235.784 82.1125 250.847 80.6306 251.009 80.6306C251.141 80.6243 251.271 80.6677 251.372 80.7523C251.474 80.8369 251.54 80.9564 251.558 81.0873C251.565 81.154 251.558 81.2215 251.539 81.2857C251.52 81.35 251.488 81.4098 251.446 81.4617C251.403 81.5136 251.351 81.5566 251.292 81.5882C251.232 81.6197 251.168 81.6392 251.101 81.6456C250.949 81.6456 235.876 83.1072 229.786 83.6756L229.532 83.6857Z" fill="#231F20"/>
<path d="M252.431 83.158C252.431 83.158 259.698 78.2048 261.058 79.4532C262.418 80.7017 268.579 88.6897 266.925 89.2886C265.27 89.8874 262.56 87.0251 262.56 87.0251C262.56 87.0251 260.946 89.5931 254.532 88.6897L252.431 83.158Z" fill="white"/>
<path d="M266.437 89.8771C264.996 89.8771 263.332 88.4764 262.58 87.7659C261.738 88.5272 259.535 89.8974 254.46 89.1869C254.369 89.1755 254.283 89.1391 254.212 89.0818C254.14 89.0245 254.086 88.9484 254.054 88.8621L251.953 83.3405C251.912 83.2338 251.908 83.1158 251.943 83.0067C251.978 82.8976 252.05 82.8039 252.146 82.7417C254.43 81.1887 259.911 77.6667 261.403 79.0877C262.53 80.1027 268.092 87.0351 267.686 89.0651C267.66 89.2241 267.592 89.3731 267.488 89.4964C267.384 89.6197 267.249 89.7126 267.097 89.7654C266.885 89.8389 266.662 89.8766 266.437 89.8771ZM262.56 86.5276C262.628 86.526 262.696 86.5387 262.759 86.5649C262.822 86.5912 262.879 86.6303 262.926 86.6799C263.89 87.6949 265.778 89.1666 266.752 88.8114C266.915 88.2531 263.433 82.3357 260.713 79.8286C260.165 79.3313 256.653 80.9654 253.05 83.3608L254.897 88.2227C260.591 88.9433 262.124 86.7712 262.134 86.7509C262.179 86.6887 262.237 86.6368 262.303 86.5983C262.369 86.5598 262.443 86.5357 262.52 86.5276H262.56Z" fill="#231F20"/>
<path d="M136.497 83.6753C136.382 83.6758 136.269 83.6368 136.179 83.5648C136.088 83.4929 136.025 83.3922 136 83.2794C135.985 83.2147 135.983 83.1477 135.995 83.0823C136.006 83.0169 136.03 82.9545 136.066 82.8987C136.102 82.8428 136.149 82.7948 136.204 82.7573C136.259 82.7199 136.32 82.6938 136.386 82.6806L152.626 79.0976C152.756 79.0704 152.892 79.0956 153.004 79.1678C153.116 79.2399 153.195 79.3533 153.224 79.4833C153.239 79.5486 153.241 79.6163 153.23 79.6823C153.219 79.7484 153.194 79.8116 153.158 79.8682C153.123 79.9248 153.076 79.9738 153.021 80.0122C152.966 80.0507 152.904 80.0779 152.839 80.0923L136.599 83.6651L136.497 83.6753Z" fill="white"/>
<path d="M305.515 95.409H265.829C265.694 95.409 265.565 95.3556 265.47 95.2604C265.375 95.1652 265.321 95.0361 265.321 94.9015C265.321 94.7669 265.375 94.6379 265.47 94.5427C265.565 94.4475 265.694 94.394 265.829 94.394H305.515C305.649 94.3966 305.776 94.4509 305.871 94.5456C305.966 94.6402 306.02 94.7678 306.023 94.9015C306.023 95.0361 305.969 95.1652 305.874 95.2604C305.779 95.3556 305.65 95.409 305.515 95.409Z" fill="#231F20"/>
<path d="M324.8 108.472V257.788C324.8 263.31 318.598 267.796 310.925 267.796H103.865C96.2118 267.796 89.9797 263.31 89.9797 257.788V108.472C89.9797 102.95 96.2118 98.4639 103.865 98.4639H310.925C318.608 98.4639 324.8 102.95 324.8 108.472Z" fill="white"/>
<path d="M310.935 268.304H103.875C95.9378 268.304 89.4824 263.584 89.4824 257.789V108.462C89.4824 102.666 95.9378 97.9565 103.875 97.9565H310.935C318.862 97.9565 325.318 102.666 325.318 108.462V257.789C325.318 263.635 318.862 268.304 310.935 268.304ZM103.875 98.9715C96.4961 98.9715 90.4974 103.224 90.4974 108.462V257.789C90.4974 263.026 96.4961 267.289 103.875 267.289H310.935C318.304 267.289 324.303 263.026 324.303 257.789V108.462C324.303 103.224 318.304 98.9715 310.935 98.9715H103.875Z" fill="#231F20"/>
<path d="M324.8 108.472V116.328H90.0204V108.472C90.0204 102.95 96.2525 98.4639 103.906 98.4639H310.966C318.609 98.4639 324.8 102.95 324.8 108.472Z" fill="white"/>
<path d="M324.8 116.836H90.0203C89.8857 116.836 89.7566 116.782 89.6615 116.687C89.5663 116.592 89.5128 116.463 89.5128 116.328V108.462C89.5128 102.666 95.9682 97.9565 103.906 97.9565H310.965C318.893 97.9565 325.348 102.666 325.348 108.462V116.328C325.348 116.398 325.334 116.468 325.306 116.532C325.278 116.596 325.237 116.654 325.185 116.702C325.134 116.75 325.073 116.786 325.007 116.809C324.94 116.832 324.87 116.841 324.8 116.836ZM90.5177 115.821H324.303V108.462C324.303 103.224 318.304 98.9715 310.935 98.9715H103.875C96.496 98.9715 90.4974 103.224 90.4974 108.462L90.5177 115.821Z" fill="#231F20"/>
<path d="M287.925 127.331H129.209V143.124H287.925V127.331Z" fill="white"/>
<path d="M287.925 143.632H129.21C129.075 143.632 128.946 143.578 128.851 143.483C128.755 143.388 128.702 143.259 128.702 143.124V127.331C128.702 127.196 128.755 127.067 128.851 126.972C128.946 126.877 129.075 126.823 129.21 126.823H287.925C288.059 126.826 288.186 126.88 288.281 126.975C288.376 127.069 288.43 127.197 288.433 127.331V143.124C288.433 143.259 288.379 143.388 288.284 143.483C288.189 143.578 288.06 143.632 287.925 143.632ZM129.717 142.617H287.418V127.838H129.717V142.617Z" fill="#231F20"/>
<path d="M287.925 127.331H266.397V143.124H287.925V127.331Z" fill="#68E1FD"/>
<path d="M287.925 143.632H266.397C266.262 143.632 266.133 143.578 266.038 143.483C265.943 143.388 265.889 143.259 265.889 143.124V127.331C265.889 127.196 265.943 127.067 266.038 126.972C266.133 126.877 266.262 126.823 266.397 126.823H287.925C288.059 126.826 288.186 126.88 288.281 126.975C288.376 127.069 288.43 127.197 288.433 127.331V143.124C288.433 143.259 288.379 143.388 288.284 143.483C288.189 143.578 288.06 143.632 287.925 143.632ZM266.904 142.617H287.418V127.838H266.945L266.904 142.617Z" fill="#231F20"/>
<path d="M309.879 154.066H227.969V235.976H309.879V154.066Z" fill="#E6E7E8"/>
<path d="M202.939 156.106H111.823V158.136H202.939V156.106Z" fill="#68E1FD"/>
<path d="M172.428 162.176H111.823V164.206H172.428V162.176Z" fill="#68E1FD"/>
<path d="M209.537 168.235H111.823V170.265H209.537V168.235Z" fill="#D1D3D4"/>
<path d="M197.712 174.305H111.823V176.335H197.712V174.305Z" fill="#D1D3D4"/>
<path d="M125.434 180.78H112.513V181.795H125.434V180.78Z" fill="#D1D3D4"/>
<path d="M136.355 180.78H129.209V181.795H136.355V180.78Z" fill="#D1D3D4"/>
<path d="M146.556 180.78H139.654V181.795H146.556V180.78Z" fill="#D1D3D4"/>
<path d="M183.289 192.748H111.823V194.778H183.289V192.748Z" fill="#68E1FD"/>
<path d="M197.712 198.817H111.823V200.847H197.712V198.817Z" fill="#68E1FD"/>
<path d="M169.272 204.876H111.823V206.906H169.272V204.876Z" fill="#D1D3D4"/>
<path d="M187.136 210.946H111.823V212.976H187.136V210.946Z" fill="#D1D3D4"/>
<path d="M118.968 217.422H112.513V218.437H118.968V217.422Z" fill="#D1D3D4"/>
<path d="M136.355 217.422H122.267V218.437H136.355V217.422Z" fill="#D1D3D4"/>
<path d="M144.323 217.422H139.654V218.437H144.323V217.422Z" fill="#D1D3D4"/>
<path d="M191.733 229.389H111.823V231.419H191.733V229.389Z" fill="#68E1FD"/>
<path d="M202.939 235.458H111.823V237.488H202.939V235.458Z" fill="#68E1FD"/>
<path d="M174.215 241.518H111.823V243.548H174.215V241.518Z" fill="#D1D3D4"/>
<path d="M163.222 247.578H111.823V249.608H163.222V247.578Z" fill="#D1D3D4"/>
<path d="M129.311 254.063H112.513V255.078H129.311V254.063Z" fill="#D1D3D4"/>
<path d="M143.105 254.063H133.604V255.078H143.105V254.063Z" fill="#D1D3D4"/>
<path d="M105.672 110.735C107.522 110.735 109.021 109.236 109.021 107.386C109.021 105.536 107.522 104.036 105.672 104.036C103.822 104.036 102.322 105.536 102.322 107.386C102.322 109.236 103.822 110.735 105.672 110.735Z" fill="#68E1FD"/>
<path d="M115.74 110.735C117.59 110.735 119.09 109.236 119.09 107.386C119.09 105.536 117.59 104.036 115.74 104.036C113.891 104.036 112.391 105.536 112.391 107.386C112.391 109.236 113.891 110.735 115.74 110.735Z" fill="#E6E7E8"/>
<path d="M125.809 110.735C127.659 110.735 129.159 109.236 129.159 107.386C129.159 105.536 127.659 104.036 125.809 104.036C123.959 104.036 122.46 105.536 122.46 107.386C122.46 109.236 123.959 110.735 125.809 110.735Z" fill="#E6E7E8"/>
<path d="M274.598 138.516C273.605 138.514 272.644 138.168 271.877 137.537C271.111 136.906 270.586 136.029 270.394 135.055C270.202 134.081 270.353 133.07 270.822 132.195C271.291 131.32 272.048 130.634 272.966 130.255C273.884 129.876 274.904 129.826 275.854 130.115C276.804 130.403 277.625 131.012 278.176 131.838C278.728 132.664 278.976 133.655 278.879 134.643C278.782 135.631 278.345 136.555 277.643 137.257C277.244 137.658 276.769 137.976 276.247 138.192C275.724 138.408 275.164 138.518 274.598 138.516ZM274.598 130.954C274.168 130.952 273.743 131.036 273.345 131.199C272.948 131.363 272.587 131.604 272.284 131.908C271.824 132.366 271.511 132.951 271.383 133.587C271.256 134.223 271.32 134.883 271.568 135.483C271.816 136.082 272.236 136.595 272.776 136.956C273.315 137.317 273.949 137.509 274.598 137.509C275.247 137.509 275.881 137.317 276.421 136.956C276.96 136.595 277.38 136.082 277.628 135.483C277.876 134.883 277.94 134.223 277.813 133.587C277.685 132.951 277.372 132.366 276.912 131.908C276.609 131.604 276.248 131.363 275.851 131.199C275.454 131.036 275.028 130.952 274.598 130.954Z" fill="#231F20"/>
<path d="M280.394 140.525C280.257 140.525 280.125 140.47 280.028 140.373L276.912 137.257C276.819 137.162 276.767 137.035 276.767 136.902C276.767 136.769 276.819 136.641 276.912 136.547C276.959 136.499 277.016 136.461 277.077 136.436C277.139 136.41 277.206 136.396 277.273 136.396C277.34 136.396 277.406 136.41 277.468 136.436C277.53 136.461 277.586 136.499 277.633 136.547L280.749 139.663C280.819 139.734 280.866 139.823 280.885 139.921C280.904 140.018 280.894 140.119 280.856 140.211C280.818 140.303 280.754 140.382 280.672 140.438C280.59 140.493 280.493 140.524 280.394 140.525Z" fill="#231F20"/>
<path d="M339.335 182.364H255.993V244.187H339.335V182.364Z" fill="white"/>
<path d="M339.335 244.695H255.993C255.858 244.695 255.729 244.642 255.634 244.546C255.539 244.451 255.486 244.322 255.486 244.188V182.364C255.486 182.229 255.539 182.1 255.634 182.005C255.729 181.91 255.858 181.856 255.993 181.856H339.335C339.469 181.859 339.596 181.913 339.691 182.008C339.785 182.103 339.84 182.23 339.842 182.364V244.188C339.842 244.322 339.789 244.451 339.694 244.546C339.598 244.642 339.469 244.695 339.335 244.695ZM256.501 243.68H338.827V182.871H256.501V243.68Z" fill="#231F20"/>
<path d="M264.915 232.525H264.813C257.536 232.292 255.536 225.36 255.516 225.288C255.498 225.222 255.493 225.152 255.502 225.084C255.511 225.015 255.533 224.949 255.568 224.889C255.602 224.83 255.648 224.777 255.703 224.735C255.757 224.693 255.82 224.662 255.887 224.644C255.953 224.626 256.023 224.621 256.091 224.63C256.16 224.639 256.226 224.661 256.286 224.696C256.345 224.73 256.398 224.776 256.44 224.831C256.482 224.885 256.513 224.948 256.531 225.014C256.602 225.278 258.368 231.297 264.885 231.51H264.915C268.122 231.51 270.386 222.913 272.375 215.27C274.405 207.353 276.435 199.873 279.734 199.101C280.388 198.919 281.072 198.873 281.744 198.966C282.416 199.058 283.062 199.287 283.642 199.639C286.585 201.497 287.702 206.694 289.052 212.702C289.72 216.113 290.608 219.476 291.711 222.771C293.477 227.664 296.786 230.698 299.973 230.333C303.921 229.876 306.906 224.355 307.931 215.555C310.864 190.464 319.573 187.713 323.156 187.693H323.288C332.26 187.693 336.899 192.514 339.822 204.857C339.837 204.923 339.839 204.992 339.828 205.06C339.817 205.127 339.792 205.192 339.756 205.25C339.683 205.367 339.566 205.45 339.431 205.481C339.297 205.512 339.155 205.488 339.038 205.415C338.921 205.341 338.838 205.225 338.807 205.09C335.975 193.164 331.763 188.708 323.257 188.708H323.135C316.183 188.708 310.854 198.858 308.925 215.676C307.829 225.106 304.602 230.82 300.075 231.338C296.431 231.774 292.675 228.455 290.747 223.116C289.633 219.794 288.731 216.404 288.047 212.966C286.829 207.414 285.682 202.177 283.083 200.533C282.617 200.252 282.098 200.071 281.558 200.001C281.018 199.931 280.47 199.974 279.947 200.127C277.227 200.766 275.166 208.632 273.35 215.565C271.005 224.284 268.884 232.525 264.915 232.525Z" fill="#231F20"/>
<path d="M331.57 219.543H319.928C319.793 219.543 319.664 219.49 319.569 219.395C319.474 219.3 319.421 219.17 319.421 219.036C319.421 218.901 319.474 218.772 319.569 218.677C319.664 218.582 319.793 218.528 319.928 218.528H331.57C331.705 218.528 331.834 218.582 331.929 218.677C332.024 218.772 332.078 218.901 332.078 219.036C332.078 219.17 332.024 219.3 331.929 219.395C331.834 219.49 331.705 219.543 331.57 219.543Z" fill="#D1D3D4"/>
<path d="M331.57 224.344H319.928C319.793 224.344 319.664 224.291 319.569 224.195C319.474 224.1 319.421 223.971 319.421 223.837C319.421 223.702 319.474 223.573 319.569 223.478C319.664 223.383 319.793 223.329 319.928 223.329H331.57C331.705 223.329 331.834 223.383 331.929 223.478C332.024 223.573 332.078 223.702 332.078 223.837C332.078 223.971 332.024 224.1 331.929 224.195C331.834 224.291 331.705 224.344 331.57 224.344Z" fill="#D1D3D4"/>
<path d="M325.744 229.125H319.928C319.793 229.125 319.664 229.071 319.569 228.976C319.474 228.881 319.421 228.752 319.421 228.617C319.421 228.483 319.474 228.354 319.569 228.259C319.664 228.163 319.793 228.11 319.928 228.11H325.744C325.879 228.11 326.008 228.163 326.103 228.259C326.198 228.354 326.251 228.483 326.251 228.617C326.251 228.752 326.198 228.881 326.103 228.976C326.008 229.071 325.879 229.125 325.744 229.125Z" fill="#D1D3D4"/>
<path d="M276.08 188.748H264.438C264.303 188.748 264.174 188.695 264.079 188.6C263.984 188.505 263.93 188.375 263.93 188.241C263.93 188.106 263.984 187.977 264.079 187.882C264.174 187.787 264.303 187.733 264.438 187.733H276.08C276.215 187.733 276.344 187.787 276.439 187.882C276.534 187.977 276.587 188.106 276.587 188.241C276.585 188.375 276.531 188.502 276.436 188.597C276.341 188.691 276.214 188.746 276.08 188.748Z" fill="#D1D3D4"/>
<path d="M276.08 193.6H264.438C264.303 193.6 264.174 193.546 264.079 193.451C263.984 193.356 263.93 193.227 263.93 193.092C263.93 192.958 263.984 192.829 264.079 192.734C264.174 192.638 264.303 192.585 264.438 192.585H276.08C276.214 192.588 276.341 192.642 276.436 192.736C276.531 192.831 276.585 192.959 276.587 193.092C276.587 193.227 276.534 193.356 276.439 193.451C276.344 193.546 276.215 193.6 276.08 193.6Z" fill="#D1D3D4"/>
<path d="M270.254 198.36H264.438C264.303 198.36 264.174 198.307 264.079 198.212C263.984 198.116 263.93 197.987 263.93 197.853C263.93 197.718 263.984 197.589 264.079 197.494C264.174 197.399 264.303 197.345 264.438 197.345H270.254C270.388 197.345 270.518 197.399 270.613 197.494C270.708 197.589 270.761 197.718 270.761 197.853C270.761 197.987 270.708 198.116 270.613 198.212C270.518 198.307 270.388 198.36 270.254 198.36Z" fill="#D1D3D4"/>
<path d="M116.354 194.779L106.25 189.615L93.9722 213.638L104.077 218.802L116.354 194.779Z" fill="#231F20"/>
<path d="M104.068 219.31C103.99 219.308 103.913 219.288 103.845 219.249L93.6947 214.093C93.6345 214.064 93.5809 214.023 93.5369 213.972C93.4929 213.922 93.4595 213.863 93.4386 213.8C93.4178 213.737 93.41 213.67 93.4156 213.603C93.4212 213.536 93.4402 213.472 93.4714 213.413L105.753 189.388C105.782 189.327 105.823 189.274 105.874 189.23C105.924 189.186 105.983 189.154 106.047 189.134C106.171 189.083 106.309 189.083 106.433 189.134L116.583 194.3C116.642 194.33 116.695 194.372 116.738 194.422C116.781 194.473 116.813 194.532 116.833 194.595C116.853 194.659 116.86 194.725 116.854 194.791C116.847 194.858 116.828 194.922 116.796 194.98L104.545 219.036C104.48 219.15 104.375 219.237 104.251 219.279C104.193 219.303 104.13 219.313 104.068 219.31ZM94.6488 213.423L103.855 218.122L115.71 195L106.514 190.291L94.6488 213.423Z" fill="#231F20"/>
<path d="M107.036 211.708L97.9801 207.08C96.7372 206.445 95.2147 206.937 94.5795 208.18L73.4843 249.457C72.8491 250.7 73.3417 252.223 74.5846 252.858L83.6408 257.486C84.8837 258.121 86.4062 257.629 87.0414 256.386L108.137 215.109C108.772 213.866 108.279 212.343 107.036 211.708Z" fill="white"/>
<path d="M84.7931 258.276C84.3159 258.277 83.8457 258.162 83.4228 257.941L74.3487 253.313C73.6404 252.944 73.1051 252.312 72.8583 251.552C72.6115 250.793 72.6729 249.967 73.0292 249.253L94.1311 207.972C94.4996 207.264 95.1317 206.729 95.8911 206.482C96.6505 206.235 97.4765 206.297 98.1911 206.653L107.255 211.281C107.963 211.65 108.499 212.282 108.745 213.041C108.992 213.801 108.931 214.627 108.575 215.341L87.493 256.621C87.2379 257.118 86.8512 257.535 86.375 257.827C85.8988 258.119 85.3515 258.274 84.7931 258.276ZM96.831 207.313C96.6203 207.311 96.4109 207.345 96.2118 207.414C95.9585 207.498 95.7241 207.63 95.5221 207.805C95.3201 207.979 95.1544 208.191 95.0344 208.429L73.9326 249.699C73.6942 250.176 73.6532 250.728 73.8185 251.235C73.9837 251.742 74.3419 252.164 74.8156 252.409L83.8796 257.038C84.3555 257.277 84.9063 257.319 85.4133 257.156C85.9202 256.993 86.3427 256.637 86.5896 256.165L107.691 214.915C107.93 214.438 107.971 213.886 107.806 213.379C107.64 212.872 107.282 212.45 106.808 212.205L97.7445 207.577C97.4668 207.414 97.1527 207.323 96.831 207.313Z" fill="#231F20"/>
<path d="M134.548 145.276C129.412 142.647 123.611 141.6 117.88 142.269C112.149 142.938 106.745 145.292 102.352 149.033C97.959 152.775 94.7749 157.735 93.2025 163.287C91.6302 168.839 91.7403 174.732 93.5188 180.222C95.2974 185.711 98.6645 190.549 103.194 194.124C107.723 197.699 113.212 199.849 118.964 200.304C124.716 200.758 130.474 199.496 135.508 196.676C140.543 193.857 144.628 189.607 147.246 184.465C150.75 177.583 151.382 169.592 149.001 162.245C146.621 154.898 141.423 148.795 134.548 145.276ZM111.396 190.555C107.573 188.601 104.414 185.557 102.321 181.807C100.227 178.058 99.2927 173.772 99.635 169.492C99.9774 165.212 101.581 161.129 104.244 157.76C106.907 154.391 110.509 151.888 114.594 150.566C118.68 149.244 123.066 149.164 127.197 150.335C131.329 151.506 135.02 153.876 137.804 157.145C140.589 160.414 142.341 164.435 142.841 168.7C143.34 172.965 142.563 177.282 140.608 181.106C137.987 186.232 133.437 190.108 127.959 191.88C122.481 193.652 116.523 193.175 111.396 190.555Z" fill="white"/>
<path d="M121.252 200.918C113.758 200.938 106.532 198.131 101.017 193.057C95.5024 187.983 92.1038 181.016 91.5 173.547C90.8963 166.077 93.1319 158.655 97.7604 152.761C102.389 146.868 109.07 142.936 116.47 141.752C123.87 140.568 131.444 142.219 137.68 146.374C143.916 150.529 148.356 156.884 150.113 164.169C151.87 171.454 150.815 179.133 147.159 185.675C143.502 192.216 137.513 197.137 130.387 199.457C127.438 200.421 124.355 200.915 121.252 200.918ZM121.313 142.576C118.308 142.58 115.322 143.053 112.462 143.977C105.636 146.198 99.8988 150.911 96.3936 157.175C92.8883 163.439 91.8729 170.794 93.5498 177.773C95.2268 184.753 99.4728 190.844 105.441 194.831C111.41 198.819 118.662 200.411 125.752 199.289C132.842 198.167 139.248 194.414 143.693 188.778C148.139 183.142 150.297 176.038 149.737 168.881C149.176 161.725 145.94 155.043 140.671 150.168C135.403 145.292 128.491 142.581 121.313 142.576ZM121.242 193.448C117.741 193.448 114.29 192.616 111.173 191.022C106.321 188.548 102.545 184.38 100.561 179.307C98.5779 174.235 98.5251 168.611 100.413 163.502C102.301 158.393 105.998 154.154 110.803 151.59C115.608 149.025 121.187 148.314 126.482 149.589C131.777 150.865 136.42 154.04 139.53 158.511C142.64 162.982 144.001 168.439 143.355 173.848C142.709 179.256 140.1 184.239 136.024 187.851C131.948 191.464 126.688 193.456 121.242 193.448ZM111.65 190.119C115.381 192.022 119.593 192.777 123.753 192.29C127.913 191.802 131.835 190.093 135.025 187.379C138.215 184.664 140.529 181.066 141.677 177.038C142.824 173.009 142.752 168.731 141.471 164.744C140.179 160.756 137.734 157.24 134.445 154.641C131.156 152.042 127.17 150.476 122.991 150.141C118.812 149.807 114.628 150.718 110.967 152.761C107.307 154.804 104.333 157.886 102.424 161.618C99.8788 166.622 99.4208 172.432 101.15 177.774C102.879 183.116 106.655 187.555 111.65 190.119Z" fill="#231F20"/>
</svg>
