<svg width="380" height="306" viewBox="0 0 380 306" fill="none" xmlns="http://www.w3.org/2000/svg">
<path d="M228.41 71.0557H125.639C119.889 71.0557 115.227 76.0362 115.227 82.1801V215.876C115.227 222.02 119.889 227 125.639 227H228.41C234.161 227 238.822 222.02 238.822 215.876V82.1801C238.822 76.0362 234.161 71.0557 228.41 71.0557Z" fill="#F20F0F"/>
<path d="M228.41 228.015H125.63C122.623 228.002 119.742 226.72 117.616 224.448C115.49 222.176 114.29 219.099 114.277 215.886V82.18C114.277 78.9584 115.472 75.8681 117.599 73.5853C119.727 71.3026 122.614 70.0134 125.63 70H228.41C231.434 70 234.333 71.2832 236.471 73.5674C238.609 75.8516 239.81 78.9497 239.81 82.18V215.886C239.798 219.107 238.591 222.193 236.454 224.466C234.318 226.739 231.425 228.015 228.41 228.015ZM125.63 72.0706C123.118 72.084 120.714 73.1593 118.943 75.0613C117.171 76.9634 116.177 79.5374 116.177 82.2206V215.886C116.19 218.56 117.189 221.121 118.959 223.012C120.729 224.904 123.126 225.972 125.63 225.985H228.41C230.921 225.985 233.331 224.923 235.111 223.03C236.891 221.138 237.898 218.569 237.91 215.886V82.18C237.91 79.4881 236.909 76.9064 235.128 75.0029C233.346 73.0994 230.93 72.03 228.41 72.03L125.63 72.0706Z" fill="#093F68"/>
<path d="M222.71 234.978H112.577C110.793 234.978 109.082 234.221 107.821 232.873C106.559 231.526 105.851 229.698 105.851 227.792V86.7883C105.851 84.8824 106.559 83.0545 107.821 81.7068C109.082 80.3592 110.793 79.6021 112.577 79.6021H201.696L229.436 107.2V227.792C229.436 229.698 228.727 231.526 227.466 232.873C226.205 234.221 224.494 234.978 222.71 234.978Z" fill="white"/>
<path d="M222.71 235.993H112.577C110.542 235.99 108.591 235.126 107.152 233.588C105.713 232.051 104.903 229.966 104.901 227.792V86.7881C104.903 84.6138 105.713 82.5294 107.152 80.992C108.591 79.4545 110.542 78.5896 112.577 78.5869H201.696C201.936 78.5878 202.167 78.6857 202.342 78.861L230.092 106.459C230.185 106.554 230.26 106.669 230.311 106.797C230.361 106.924 230.387 107.061 230.386 107.2V227.792C230.384 229.966 229.574 232.051 228.135 233.588C226.696 235.126 224.745 235.99 222.71 235.993ZM112.577 80.6169C111.046 80.6196 109.578 81.2706 108.495 82.4274C107.412 83.5841 106.803 85.1522 106.801 86.7881V227.792C106.803 229.428 107.412 230.996 108.495 232.153C109.578 233.309 111.046 233.96 112.577 233.963H222.71C224.242 233.963 225.711 233.313 226.794 232.156C227.878 230.998 228.486 229.429 228.486 227.792V107.646L201.316 80.6169H112.577Z" fill="#093F68"/>
<path d="M201.696 79.6021V101.313C201.694 102.772 202.23 104.174 203.188 105.213C204.147 106.253 205.451 106.846 206.817 106.865L229.436 107.2L201.696 79.6021Z" fill="#F20F0F"/>
<path d="M229.436 108.215L206.817 107.88C205.203 107.851 203.664 107.147 202.531 105.919C201.398 104.691 200.76 103.037 200.756 101.313V79.6021C200.756 79.4049 200.811 79.2121 200.912 79.0474C201.014 78.8826 201.158 78.753 201.327 78.6744C201.496 78.5958 201.683 78.5716 201.865 78.6048C202.047 78.6379 202.216 78.727 202.352 78.8611L230.101 106.459C230.24 106.599 230.335 106.781 230.376 106.98C230.417 107.179 230.4 107.386 230.329 107.575C230.258 107.766 230.135 107.929 229.975 108.043C229.816 108.157 229.628 108.217 229.436 108.215ZM202.646 81.967V101.313C202.646 102.504 203.084 103.647 203.866 104.496C204.648 105.345 205.711 105.831 206.826 105.85L226.985 106.144L202.646 81.967Z" fill="#093F68"/>
<path d="M151.365 167.308L133.543 175.997V176.139L151.384 184.827V194.358L122.884 180.483V171.652L151.384 157.767L151.365 167.308Z" fill="#093F68"/>
<path d="M151.365 195.373C151.23 195.377 151.096 195.346 150.976 195.281L122.476 181.406C122.311 181.325 122.171 181.194 122.074 181.031C121.976 180.867 121.924 180.677 121.925 180.482V171.652C121.924 171.458 121.976 171.268 122.074 171.104C122.171 170.94 122.311 170.81 122.476 170.728L150.976 156.843C151.12 156.774 151.279 156.744 151.437 156.757C151.595 156.77 151.747 156.824 151.88 156.916C152.013 157.008 152.123 157.134 152.199 157.282C152.275 157.431 152.315 157.597 152.315 157.767V167.308C152.316 167.502 152.264 167.692 152.166 167.856C152.069 168.02 151.929 168.15 151.764 168.231L135.614 176.067L151.764 183.903C151.929 183.985 152.069 184.115 152.166 184.279C152.264 184.442 152.316 184.633 152.315 184.827V194.358C152.316 194.529 152.277 194.698 152.201 194.849C152.124 195 152.013 195.128 151.878 195.22C151.724 195.322 151.546 195.375 151.365 195.373ZM123.815 179.833L150.415 192.784V185.497L133.125 177.082C132.96 177.001 132.821 176.87 132.723 176.707C132.625 176.543 132.574 176.353 132.574 176.159V176.016C132.574 175.822 132.625 175.632 132.723 175.468C132.821 175.305 132.96 175.174 133.125 175.093L150.415 166.668V159.37L123.815 172.322V179.833Z" fill="#093F68"/>
<path d="M172.493 143.963L178.915 146.409L162.043 201.026L155.678 198.57L172.493 143.963Z" fill="#093F68"/>
<path d="M162.043 202.041C161.933 202.041 161.824 202.021 161.72 201.981L155.355 199.524C155.123 199.434 154.933 199.252 154.825 199.015C154.717 198.778 154.699 198.506 154.776 198.255L171.61 143.638C171.65 143.511 171.713 143.393 171.797 143.292C171.88 143.191 171.981 143.109 172.094 143.05C172.211 142.997 172.337 142.969 172.465 142.969C172.592 142.969 172.718 142.997 172.835 143.05L179.248 145.496C179.483 145.583 179.677 145.767 179.788 146.006C179.898 146.245 179.915 146.522 179.837 146.775L162.993 201.341C162.954 201.47 162.891 201.59 162.808 201.693C162.725 201.796 162.623 201.88 162.509 201.94C162.363 202.01 162.203 202.045 162.043 202.041ZM156.875 197.981L161.445 199.748L177.737 147.069L173.111 145.293L156.875 197.981Z" fill="#093F68"/>
<path d="M183.285 184.827L201.126 176.139V175.997L183.285 167.308V157.767L211.785 171.652V180.483L183.285 194.358V184.827Z" fill="#093F68"/>
<path d="M183.285 195.373C183.104 195.375 182.926 195.322 182.772 195.22C182.637 195.128 182.526 195 182.45 194.849C182.373 194.698 182.334 194.529 182.335 194.358V184.827C182.335 184.633 182.386 184.442 182.484 184.279C182.582 184.115 182.721 183.985 182.886 183.903L198.979 176.067L182.886 168.242C182.721 168.16 182.582 168.03 182.484 167.866C182.386 167.702 182.335 167.512 182.335 167.318V157.777C182.335 157.608 182.375 157.441 182.451 157.293C182.527 157.144 182.637 157.018 182.77 156.926C182.903 156.835 183.056 156.78 183.214 156.767C183.372 156.754 183.53 156.784 183.675 156.853L212.175 170.739C212.34 170.82 212.479 170.95 212.577 171.114C212.674 171.278 212.726 171.468 212.726 171.662V180.493C212.726 180.687 212.674 180.877 212.577 181.041C212.479 181.205 212.34 181.335 212.175 181.416L183.675 195.291C183.553 195.353 183.419 195.381 183.285 195.373ZM184.235 185.476V192.784L210.835 179.833V172.302L184.235 159.35V166.648L201.525 175.073C201.69 175.154 201.83 175.285 201.927 175.448C202.025 175.612 202.077 175.802 202.076 175.996V176.138C202.077 176.333 202.025 176.523 201.927 176.686C201.83 176.85 201.69 176.981 201.525 177.062L184.235 185.476Z" fill="#093F68"/>
<path d="M222.539 216.901H115.189C114.937 216.901 114.696 216.794 114.517 216.604C114.339 216.413 114.239 216.155 114.239 215.886C114.239 215.617 114.339 215.359 114.517 215.168C114.696 214.978 114.937 214.871 115.189 214.871H222.539C222.791 214.871 223.033 214.978 223.211 215.168C223.389 215.359 223.489 215.617 223.489 215.886C223.489 216.155 223.389 216.413 223.211 216.604C223.033 216.794 222.791 216.901 222.539 216.901Z" fill="#DFEAEF"/>
<path d="M101.017 245H93.9861V230.375H80.2751V245H73.2439V210.875H80.2751V224.703H93.9861V210.875H101.017V245Z" fill="#ED0F0F" fill-opacity="0.94"/>
<path d="M101.017 245V246H102.017V245H101.017ZM93.9861 245H92.9861V246H93.9861V245ZM93.9861 230.375H94.9861V229.375H93.9861V230.375ZM80.2751 230.375V229.375H79.2751V230.375H80.2751ZM80.2751 245V246H81.2751V245H80.2751ZM73.2439 245H72.2439V246H73.2439V245ZM73.2439 210.875V209.875H72.2439V210.875H73.2439ZM80.2751 210.875H81.2751V209.875H80.2751V210.875ZM80.2751 224.703H79.2751V225.703H80.2751V224.703ZM93.9861 224.703V225.703H94.9861V224.703H93.9861ZM93.9861 210.875V209.875H92.9861V210.875H93.9861ZM101.017 210.875H102.017V209.875H101.017V210.875ZM101.017 244H93.9861V246H101.017V244ZM94.9861 245V230.375H92.9861V245H94.9861ZM93.9861 229.375H80.2751V231.375H93.9861V229.375ZM79.2751 230.375V245H81.2751V230.375H79.2751ZM80.2751 244H73.2439V246H80.2751V244ZM74.2439 245V210.875H72.2439V245H74.2439ZM73.2439 211.875H80.2751V209.875H73.2439V211.875ZM79.2751 210.875V224.703H81.2751V210.875H79.2751ZM80.2751 225.703H93.9861V223.703H80.2751V225.703ZM94.9861 224.703V210.875H92.9861V224.703H94.9861ZM93.9861 211.875H101.017V209.875H93.9861V211.875ZM100.017 210.875V245H102.017V210.875H100.017Z" fill="black"/>
</svg>
