<svg width="263" height="275" viewBox="0 0 263 275" fill="none" xmlns="http://www.w3.org/2000/svg">
<g clip-path="url(#clip0)">
<path d="M3.54797 32.0355L1.96997 33.8103L2.12777 64.3491C2.28557 93.4191 2.33817 95.0103 3.28497 96.2343L4.28437 97.5195H47.8372H91.39L92.442 95.9283C93.5466 94.3371 93.5466 93.7251 93.5466 64.4103C93.5466 43.8471 93.3888 34.0551 92.968 33.0759C92.6524 32.2191 91.8108 31.2399 91.0744 30.8727C90.1802 30.3831 77.3984 30.1995 47.469 30.1995H5.07337L3.54797 32.0355ZM65.4056 48.2535V51.9255L47.8372 52.1091C35.3184 52.2315 30.0584 52.0479 29.585 51.5583C29.1642 51.1911 28.8486 49.7835 28.8486 48.5595C28.8486 43.9083 27.481 44.2143 47.469 44.3979L65.4056 44.5815V48.2535ZM78.3452 45.9891C79.9232 47.6415 80.0284 48.0087 80.344 53.5779C80.6596 59.3307 81.2908 61.4115 82.8162 61.4115C83.237 61.4115 83.8682 62.1459 84.1838 63.0027C84.8676 64.6551 84.4468 65.3283 81.659 67.2867C80.9226 67.7763 80.6596 69.0615 80.3966 73.7127C79.9758 81.4851 78.8712 83.3211 74.4002 83.6271C72.98 83.6883 72.2436 83.4435 71.7702 82.6479C70.9812 81.2403 71.928 79.5267 73.6112 79.2819C75.61 78.9147 76.1886 77.9967 76.1886 75.1815C76.1886 71.3259 77.1354 66.2463 78.0822 65.0223C78.8186 64.0431 78.8186 63.7983 77.8192 62.2071C76.925 60.8607 76.6094 59.1471 76.3464 55.1079C76.1886 52.1703 75.7678 49.5999 75.5048 49.3551C75.1892 49.1715 74.2424 48.8043 73.4008 48.6207C69.6662 47.7027 70.4552 44.2755 74.4002 44.2755C76.1886 44.2755 77.0828 44.6427 78.3452 45.9891ZM16.6454 45.8667C19.0124 47.7639 17.5922 52.8435 14.6992 52.8435C13.016 52.8435 12.3848 52.3539 11.5432 50.5791C10.7016 48.6819 10.8068 48.0699 12.2796 46.4175C13.7524 44.6427 14.9622 44.5203 16.6454 45.8667ZM16.8558 61.2279C17.3818 61.7787 17.8026 63.0639 17.8026 64.2267C17.8026 68.1435 13.5946 69.3675 11.701 66.0015C9.64957 62.3295 14.0154 58.2291 16.8558 61.2279ZM65.4056 64.1655V67.8375L47.8372 68.0211C35.3184 68.1435 30.0584 67.9599 29.585 67.4703C29.1642 67.1031 28.8486 65.6955 28.8486 64.4715C28.8486 59.8203 27.481 60.1263 47.469 60.3099L65.4056 60.4935V64.1655ZM16.6454 75.8547C19.0124 77.7519 17.5922 82.8315 14.6992 82.8315C13.016 82.8315 12.3848 82.3419 11.5432 80.5671C10.7016 78.6699 10.8068 78.0579 12.2796 76.4055C13.7524 74.6307 14.9622 74.5083 16.6454 75.8547ZM65.4056 80.0775V83.7495L47.8372 83.9331C35.3184 84.0555 30.0584 83.8719 29.585 83.3823C29.1642 83.0151 28.8486 81.6075 28.8486 80.3835C28.8486 75.7323 27.481 76.0383 47.469 76.2219L65.4056 76.4055V80.0775Z" fill="#40B0C9"/>
<path d="M16.9083 116.981C12.5951 120.959 9.43914 125.61 7.01954 131.424C4.12654 138.524 3.39014 142.257 3.39014 149.846C3.44274 157.251 4.44214 162.086 7.44034 168.756C13.2789 181.853 24.4827 190.115 37.6327 190.972L43.0505 191.339L42.7349 194.766C42.5771 196.664 42.3667 198.561 42.2089 198.928C42.1037 199.356 42.1563 199.724 42.2615 199.724C42.7349 199.724 59.7773 179.222 59.4617 179.099C59.2513 178.977 53.5705 179.16 46.7851 179.405L34.4767 179.834L37.2119 181.976C38.6847 183.138 39.8945 184.362 39.8945 184.668C39.8945 185.342 34.0559 184.607 30.4265 183.444C22.7995 180.935 15.3829 173.714 11.9113 165.39C9.49174 159.576 8.70274 155.476 8.75534 148.928C8.80794 138.279 14.2257 126.039 21.0637 120.959C23.2729 119.368 23.6937 117.348 22.2209 115.635C20.9585 114.105 19.6961 114.472 16.9083 116.981ZM19.9065 120.408C19.9065 120.837 19.2753 121.816 18.4863 122.673L17.0135 124.142L18.2759 122.489C19.0123 121.51 19.3805 120.47 19.1701 119.858C19.0123 119.307 19.0649 119.062 19.3805 119.246C19.6961 119.429 19.9065 119.98 19.9065 120.408Z" fill="black"/>
<path d="M76.0309 127.018C75.5575 127.447 74.9789 128.548 74.6633 129.405C73.9269 131.731 73.8743 187.851 74.6107 190.299C74.9263 191.339 75.7153 192.502 76.3465 192.931C77.1355 193.359 82.2903 193.665 91.7057 193.787L105.908 193.91L106.065 198.622L106.223 203.396H103.12C101.437 203.396 99.8061 203.702 99.4379 204.13C98.5963 205.109 98.5963 212.086 99.4379 213.065C100.332 214.106 133.575 214.106 134.469 213.065C135.311 212.086 135.311 205.109 134.469 204.13C134.101 203.702 132.576 203.396 131.05 203.396H128.263V198.5V193.604H142.622C156.351 193.604 157.035 193.543 158.139 192.38C158.771 191.707 159.402 190.483 159.56 189.748C159.77 188.953 159.823 174.938 159.717 158.475L159.56 128.609L158.297 127.447C157.14 126.345 155.667 126.284 117.006 126.284C85.7619 126.284 76.7147 126.467 76.0309 127.018ZM85.1307 127.814C85.1307 128.303 84.9203 128.732 84.7099 128.732C84.4469 128.732 84.2365 128.303 84.2365 127.814C84.2365 127.324 84.4469 126.896 84.7099 126.896C84.9203 126.896 85.1307 127.324 85.1307 127.814ZM96.1767 127.141C96.1767 127.324 95.9663 127.63 95.6507 127.814C95.3877 127.997 95.1247 127.875 95.1247 127.569C95.1247 127.202 95.3877 126.896 95.6507 126.896C95.9663 126.896 96.1767 127.018 96.1767 127.141ZM152.985 127.141C152.985 127.324 152.774 127.63 152.459 127.814C152.196 127.997 151.933 127.875 151.933 127.569C151.933 127.202 152.196 126.896 152.459 126.896C152.774 126.896 152.985 127.018 152.985 127.141ZM156.404 127.569C156.982 128.548 156.456 128.732 155.72 127.753C155.352 127.263 155.299 126.896 155.562 126.896C155.825 126.896 156.246 127.202 156.404 127.569ZM92.0213 129.221C91.7583 129.833 91.0745 130.751 90.6011 131.241C90.0225 131.792 90.1277 131.363 90.9167 130.078C92.2843 127.936 92.8103 127.508 92.0213 129.221ZM96.7553 130.078C97.3339 131.363 97.3339 131.425 96.5449 130.629C96.0189 130.201 95.6507 129.589 95.6507 129.283C95.6507 128.365 96.1241 128.671 96.7553 130.078ZM130.893 129.65C131.261 130.201 131.313 130.568 130.998 130.568C130.735 130.568 130.367 130.139 130.156 129.65C129.998 129.16 129.946 128.732 130.051 128.732C130.156 128.732 130.524 129.16 130.893 129.65ZM142.885 130.262C142.728 130.445 142.412 130.139 142.254 129.527C141.939 128.671 141.991 128.609 142.517 129.16C142.885 129.589 143.043 130.078 142.885 130.262ZM152.774 129.65C152.722 130.139 152.511 130.69 152.353 130.935C152.09 131.18 152.143 129.956 152.406 128.854C152.564 128.303 152.879 128.915 152.774 129.65ZM84.9203 130.384C84.8151 130.996 85.0255 131.731 85.3411 131.975C85.7093 132.343 85.6567 132.404 85.1833 132.281C84.3417 132.037 83.8157 129.344 84.5521 129.344C84.8151 129.344 84.9729 129.833 84.9203 130.384ZM124.581 129.956C124.581 130.262 124.475 130.568 124.37 130.568C124.212 130.568 123.949 130.262 123.792 129.956C123.634 129.589 123.739 129.344 124.002 129.344C124.318 129.344 124.581 129.589 124.581 129.956ZM158.771 130.568C158.771 130.874 158.665 131.18 158.56 131.18C158.402 131.18 158.139 130.874 157.982 130.568C157.824 130.201 157.929 129.956 158.192 129.956C158.508 129.956 158.771 130.201 158.771 130.568ZM132.734 132.281C132.576 132.465 132.155 132.281 131.787 131.853C131.313 131.241 131.366 131.18 132.102 131.547C132.628 131.731 132.891 132.098 132.734 132.281ZM76.8725 132.22C76.5043 132.343 75.8731 132.343 75.5575 132.22C75.1893 132.037 75.4523 131.914 76.1887 131.914C76.9251 131.914 77.1881 132.037 76.8725 132.22ZM101.594 132.22C101.226 132.343 100.49 132.343 100.016 132.22C99.4905 132.037 99.8061 131.914 100.648 131.914C101.542 131.914 101.91 132.037 101.594 132.22ZM91.3375 151.131C93.2311 152.661 94.1253 155.415 94.1779 159.638C94.1779 165.941 91.8635 169.736 88.0237 169.736C84.1839 169.736 81.5013 162.086 83.0267 155.599C84.1839 150.886 88.2867 148.622 91.3375 151.131ZM106.118 151.009C106.539 151.559 106.697 154.619 106.591 160.311L106.434 168.818H105.119C103.804 168.818 103.804 168.757 103.646 163.249C103.541 158.23 103.383 157.618 102.489 157.312C100.963 156.884 101.174 155.048 103.067 152.416C104.856 149.907 105.224 149.723 106.118 151.009ZM118.742 151.009C119.163 151.559 119.321 154.619 119.215 160.311L119.058 168.818H117.743C116.428 168.818 116.428 168.757 116.27 163.126C116.165 158.108 116.007 157.496 115.165 157.496C113.587 157.496 113.535 155.966 115.007 153.457C116.954 150.029 117.69 149.54 118.742 151.009ZM131.839 160.127L131.682 168.818H130.367C129.052 168.818 129.052 168.757 128.894 163.126C128.789 158.108 128.631 157.496 127.789 157.496C126.211 157.496 126.106 155.905 127.579 153.395C129.262 150.458 129.788 150.091 130.998 150.825C131.892 151.376 131.945 152.233 131.839 160.127ZM148.724 151.437C153.458 156.578 151.354 169.736 145.831 169.736C142.096 169.736 139.835 166.064 139.835 160.005C139.835 155.66 140.781 152.6 142.517 151.131C144.253 149.723 147.251 149.846 148.724 151.437Z" fill="#40B0C9"/>
<path d="M86.4981 155.17C85.2883 157.128 85.3935 163.065 86.6033 164.84C87.3397 165.941 87.9183 166.125 88.9177 165.88C91.2847 165.146 92.1788 160.066 90.7061 155.966C89.7593 153.395 87.7605 153.028 86.4981 155.17Z" fill="#40B0C9"/>
<path d="M143.148 156.088C141.676 160.25 143.148 166.064 145.673 166.064C147.251 166.064 148.251 163.677 148.251 159.944C148.251 155.966 147.199 153.824 145.305 153.824C144.306 153.824 143.78 154.314 143.148 156.088Z" fill="#40B0C9"/>
<path d="M173.446 266.126C173.446 266.432 173.288 267.839 173.183 269.186C172.92 271.45 172.973 271.573 173.709 270.41L174.498 269.186L174.551 270.41L174.603 271.634L175.024 270.41C175.287 269.737 175.392 269.002 175.287 268.757C175.129 268.513 175.287 268.207 175.55 267.962C175.866 267.778 175.918 267.166 175.76 266.677C175.497 265.881 175.392 265.881 175.024 266.554C174.656 267.227 174.445 267.166 174.025 266.432C173.762 265.942 173.499 265.759 173.446 266.126Z" fill="black"/>
<path d="M176.918 266.371C176.76 266.799 176.918 266.86 177.391 266.677C178.496 266.187 178.548 268.452 177.444 269.492C176.181 270.716 176.497 271.328 178.39 271.267C179.653 271.206 179.811 271.083 178.864 270.9C177.707 270.655 177.654 270.532 178.496 269.492C178.969 268.88 179.285 267.84 179.179 267.228C178.969 266.004 177.444 265.392 176.918 266.371Z" fill="black"/>
<path d="M180.863 267.778C179.863 269.675 179.863 269.798 180.757 270.042C181.231 270.165 181.809 270.532 182.072 270.96C182.704 272.123 183.282 270.348 183.072 267.962C182.809 265.269 182.178 265.269 180.863 267.778ZM181.915 268.574C181.915 269.063 181.704 269.492 181.389 269.492C181.126 269.492 181.02 269.063 181.178 268.574C181.389 268.084 181.599 267.656 181.704 267.656C181.809 267.656 181.915 268.084 181.915 268.574Z" fill="black"/>
<path d="M184.019 266.983C184.019 267.656 184.492 268.268 185.123 268.451C186.386 268.88 186.175 270.471 184.86 270.349C184.387 270.287 184.019 270.532 184.019 270.838C184.019 271.144 184.545 271.328 185.228 271.205C186.649 270.961 187.175 268.451 185.912 267.901C184.808 267.411 184.86 266.615 186.017 266.248C186.543 266.065 186.333 265.942 185.491 265.881C184.387 265.82 184.019 266.126 184.019 266.983Z" fill="black"/>
<path d="M188.227 267.778C187.227 269.675 187.227 269.798 188.121 270.042C188.595 270.165 189.173 270.532 189.436 270.96C190.068 272.123 190.646 270.348 190.436 267.962C190.173 265.269 189.542 265.269 188.227 267.778ZM189.279 268.574C189.279 269.063 189.068 269.492 188.753 269.492C188.49 269.492 188.384 269.063 188.542 268.574C188.753 268.084 188.963 267.656 189.068 267.656C189.173 267.656 189.279 268.084 189.279 268.574Z" fill="black"/>
<path d="M192.066 266.248C193.118 266.554 193.118 266.676 192.487 269.369C192.172 270.593 192.172 271.328 192.487 271.328C192.75 271.328 192.961 270.838 192.961 270.226C192.961 269.675 193.329 268.451 193.697 267.472C194.486 265.82 194.486 265.82 192.803 265.881C191.856 265.942 191.54 266.064 192.066 266.248Z" fill="black"/>
<path d="M195.696 266.554C194.802 267.595 194.907 270.655 195.906 271.144C196.327 271.328 197.063 271.083 197.484 270.593C198.536 269.431 197.852 267.472 196.59 267.839C196.011 268.023 195.591 267.901 195.591 267.595C195.591 267.105 196.38 266.799 197.326 266.983C197.537 266.983 197.695 266.738 197.695 266.432C197.695 265.575 196.485 265.636 195.696 266.554ZM197.169 269.125C197.169 269.614 196.958 270.165 196.695 270.41C196.064 270.838 195.433 269.675 195.854 268.88C196.327 267.962 197.169 268.145 197.169 269.125Z" fill="black"/>
<path d="M199.43 266.248C200.377 266.554 200.43 267.533 199.483 270.348C199.325 270.899 199.43 271.328 199.746 271.328C200.062 271.328 200.325 270.899 200.325 270.41C200.325 269.859 200.693 268.635 201.114 267.656L201.955 265.82L200.219 265.881C199.22 265.942 198.904 266.064 199.43 266.248Z" fill="black"/>
<path d="M202.639 266.677C202.113 268.329 202.691 271.022 203.586 271.205C204.901 271.511 205.848 269.063 205.111 267.289C204.48 265.697 203.06 265.33 202.639 266.677ZM204.427 268.941C204.375 269.737 204.059 270.349 203.744 270.287C203.06 270.104 202.797 268.451 203.165 267.227C203.691 265.759 204.69 267.166 204.427 268.941Z" fill="black"/>
<path d="M206.479 267.962C205.637 270.043 205.637 270.104 206.584 270.104C207.163 270.104 207.741 270.471 207.846 270.838C208.372 272.307 209.056 270.226 208.846 267.962C208.583 265.208 207.583 265.208 206.479 267.962ZM207.689 268.574C207.689 269.064 207.478 269.492 207.163 269.492C206.9 269.492 206.794 269.064 206.952 268.574C207.163 268.084 207.373 267.656 207.478 267.656C207.583 267.656 207.689 268.084 207.689 268.574Z" fill="black"/>
<path d="M50.932 237.656H36.9945V275.562H27.6195V237.656H13.8695V230.062H50.932V237.656ZM91.1507 260.406C90.7966 265.302 88.9841 269.156 85.7132 271.969C82.4632 274.781 78.1716 276.188 72.8382 276.188C67.0049 276.188 62.4111 274.229 59.057 270.312C55.7236 266.375 54.057 260.979 54.057 254.125V251.344C54.057 246.969 54.8278 243.115 56.3695 239.781C57.9111 236.448 60.1091 233.896 62.9632 232.125C65.8382 230.333 69.1716 229.438 72.9632 229.438C78.2132 229.438 82.4424 230.844 85.6507 233.656C88.8591 236.469 90.7132 240.417 91.2132 245.5H81.8382C81.6091 242.562 80.7861 240.438 79.3695 239.125C77.9736 237.792 75.8382 237.125 72.9632 237.125C69.8382 237.125 67.4945 238.25 65.932 240.5C64.3903 242.729 63.5986 246.198 63.557 250.906V254.344C63.557 259.26 64.2966 262.854 65.7757 265.125C67.2757 267.396 69.6299 268.531 72.8382 268.531C75.7341 268.531 77.8903 267.875 79.307 266.562C80.7445 265.229 81.5674 263.177 81.7757 260.406H91.1507ZM127.526 275.562H96.3382V269.375L111.057 253.688C113.078 251.479 114.567 249.552 115.526 247.906C116.505 246.26 116.994 244.698 116.994 243.219C116.994 241.198 116.484 239.615 115.463 238.469C114.442 237.302 112.984 236.719 111.088 236.719C109.047 236.719 107.432 237.427 106.244 238.844C105.078 240.24 104.494 242.083 104.494 244.375H95.432C95.432 241.604 96.0882 239.073 97.4007 236.781C98.7341 234.49 100.609 232.698 103.026 231.406C105.442 230.094 108.182 229.438 111.244 229.438C115.932 229.438 119.567 230.562 122.151 232.812C124.755 235.062 126.057 238.24 126.057 242.344C126.057 244.594 125.474 246.885 124.307 249.219C123.14 251.552 121.14 254.271 118.307 257.375L107.963 268.281H127.526V275.562ZM133.932 271.125C133.932 269.688 134.411 268.521 135.369 267.625C136.349 266.729 137.567 266.281 139.026 266.281C140.505 266.281 141.724 266.729 142.682 267.625C143.661 268.521 144.151 269.688 144.151 271.125C144.151 272.542 143.672 273.698 142.713 274.594C141.755 275.469 140.526 275.906 139.026 275.906C137.547 275.906 136.328 275.469 135.369 274.594C134.411 273.698 133.932 272.542 133.932 271.125ZM182.338 256.75C182.338 263.042 181.036 267.854 178.432 271.188C175.828 274.521 172.015 276.188 166.994 276.188C162.036 276.188 158.244 274.552 155.619 271.281C152.994 268.01 151.651 263.323 151.588 257.219V248.844C151.588 242.49 152.901 237.667 155.526 234.375C158.172 231.083 161.974 229.438 166.932 229.438C171.89 229.438 175.682 231.073 178.307 234.344C180.932 237.594 182.276 242.271 182.338 248.375V256.75ZM173.307 247.562C173.307 243.792 172.786 241.052 171.744 239.344C170.724 237.615 169.119 236.75 166.932 236.75C164.807 236.75 163.234 237.573 162.213 239.219C161.213 240.844 160.682 243.396 160.619 246.875V257.938C160.619 261.646 161.119 264.406 162.119 266.219C163.14 268.01 164.765 268.906 166.994 268.906C169.203 268.906 170.797 268.042 171.776 266.312C172.755 264.583 173.265 261.938 173.307 258.375V247.562Z" fill="#40B0C9"/>
</g>
<defs>
<clipPath id="clip0">
<rect width="263" height="306" fill="white" transform="translate(0 -31)"/>
</clipPath>
</defs>
</svg>
