<svg width="158" height="218" viewBox="0 0 158 218" fill="none" xmlns="http://www.w3.org/2000/svg">
<path d="M1.61757 1.88602L0 3.70909L0.161757 35.0784C0.323513 64.939 0.377432 66.5734 1.34797 67.8307L2.37243 69.1509H47.0173H91.6621L92.7405 67.5164C93.8728 65.8819 93.8728 65.2533 93.8728 35.1413C93.8728 14.0188 93.711 3.96055 93.2797 2.95472C92.9562 2.07462 92.0935 1.06879 91.3386 0.691605C90.422 0.18869 77.3197 9.91821e-05 46.6398 9.91821e-05H3.18121L1.61757 1.88602ZM65.0262 18.5451V22.3169L47.0173 22.5055C34.1846 22.6313 28.7927 22.4427 28.3074 21.9398C27.8761 21.5626 27.5526 20.1167 27.5526 18.8594C27.5526 14.0817 26.1507 14.396 46.6398 14.5846L65.0262 14.7732V18.5451ZM78.2902 16.2191C79.9078 17.9164 80.0156 18.2936 80.3391 24.0143C80.6627 29.9235 81.3097 32.0609 82.8733 32.0609C83.3047 32.0609 83.9517 32.8153 84.2752 33.6954C84.9762 35.3927 84.5448 36.0842 81.6871 38.0959C80.9323 38.5988 80.6627 39.919 80.3931 44.6966C79.9617 52.6804 78.8294 54.5663 74.2463 54.8807C72.7905 54.9435 72.0356 54.6921 71.5504 53.8748C70.7416 52.429 71.7121 50.6688 73.4375 50.4173C75.4865 50.0401 76.0796 49.0972 76.0796 46.2054C76.0796 42.2449 77.0501 37.0272 78.0206 35.7699C78.7755 34.7641 78.7755 34.5126 77.751 32.8782C76.8344 31.4951 76.5109 29.7349 76.2413 25.5859C76.0796 22.5684 75.6482 19.9281 75.3786 19.6766C75.0551 19.488 74.0846 19.1109 73.2219 18.9223C69.3936 17.9793 70.2024 14.4589 74.2463 14.4589C76.0796 14.4589 76.9962 14.8361 78.2902 16.2191ZM15.0434 16.0934C17.4697 18.0422 16.0139 23.2599 13.0484 23.2599C11.323 23.2599 10.6759 22.757 9.81324 20.9339C8.95054 18.9851 9.05837 18.3565 10.5681 16.6591C12.0778 14.8361 13.318 14.7104 15.0434 16.0934ZM15.259 31.8723C15.7982 32.4381 16.2296 33.7583 16.2296 34.9527C16.2296 38.976 11.9161 40.2333 9.97499 36.7757C7.87216 33.0039 12.3474 28.792 15.259 31.8723ZM65.0262 34.8898V38.6617L47.0173 38.8503C34.1846 38.976 28.7927 38.7874 28.3074 38.2845C27.8761 37.9073 27.5526 36.4614 27.5526 35.2041C27.5526 30.4264 26.1507 30.7408 46.6398 30.9294L65.0262 31.1179V34.8898ZM15.0434 46.8969C17.4697 48.8457 16.0139 54.0634 13.0484 54.0634C11.323 54.0634 10.6759 53.5605 9.81324 51.7375C8.95054 49.7887 9.05837 49.16 10.5681 47.4627C12.0778 45.6396 13.318 45.5139 15.0434 46.8969ZM65.0262 51.2345V55.0064L47.0173 55.195C34.1846 55.3207 28.7927 55.1321 28.3074 54.6292C27.8761 54.252 27.5526 52.8061 27.5526 51.5489C27.5526 46.7712 26.1507 47.0855 46.6398 47.2741L65.0262 47.4627V51.2345Z" fill="#40B0C9"/>
<path d="M15.3131 89.1423C10.8917 93.2285 7.65659 98.0062 5.17633 103.978C2.2108 111.271 1.45593 115.105 1.45593 122.9C1.50985 130.507 2.53431 135.473 5.60768 142.325C11.5927 155.778 23.0774 164.265 36.5571 165.145L42.1107 165.522L41.7872 169.043C41.6254 170.992 41.4098 172.94 41.248 173.318C41.1402 173.758 41.1941 174.135 41.3019 174.135C41.7872 174.135 59.2569 153.075 58.9334 152.95C58.7177 152.824 52.8945 153.012 45.9389 153.264L33.3219 153.704L36.1257 155.904C37.6354 157.099 38.8756 158.356 38.8756 158.67C38.8756 159.362 32.8906 158.607 29.1702 157.413C21.352 154.835 13.7494 147.417 10.1908 138.868C7.71051 132.896 6.90173 128.684 6.95565 121.957C7.00957 111.019 12.5632 98.4462 19.5726 93.2285C21.8372 91.594 22.2686 89.5195 20.7589 87.7593C19.4648 86.1877 18.1708 86.5649 15.3131 89.1423ZM18.3864 92.6627C18.3864 93.1027 17.7394 94.1086 16.9306 94.9887L15.4209 96.4974L16.715 94.8001C17.4698 93.7943 17.8472 92.7256 17.6316 92.0969C17.4698 91.5311 17.5237 91.2797 17.8472 91.4683C18.1708 91.6569 18.3864 92.2226 18.3864 92.6627Z" fill="black"/>
<path d="M71.2316 128.106C70.7463 128.546 70.1532 129.678 69.8297 130.558C69.0748 132.947 69.0209 190.593 69.7758 193.108C70.0993 194.177 70.908 195.371 71.5551 195.811C72.3639 196.251 77.6479 196.565 87.2994 196.691L101.858 196.817L102.019 201.657L102.181 206.561H98.9998C97.2744 206.561 95.6029 206.875 95.2255 207.315C94.3628 208.321 94.3628 215.488 95.2255 216.493C96.1421 217.562 130.219 217.562 131.136 216.493C131.998 215.488 131.998 208.321 131.136 207.315C130.758 206.875 129.194 206.561 127.631 206.561H124.773V201.532V196.503H139.493C153.566 196.503 154.267 196.44 155.399 195.245C156.046 194.554 156.693 193.296 156.855 192.542C157.071 191.725 157.124 177.329 157.017 160.418L156.855 129.741L155.561 128.546C154.375 127.415 152.865 127.352 113.234 127.352C81.2066 127.352 71.9325 127.54 71.2316 128.106ZM80.5595 128.923C80.5595 129.426 80.3439 129.866 80.1282 129.866C79.8586 129.866 79.6429 129.426 79.6429 128.923C79.6429 128.42 79.8586 127.98 80.1282 127.98C80.3439 127.98 80.5595 128.42 80.5595 128.923ZM91.8825 128.232C91.8825 128.42 91.6668 128.735 91.3433 128.923C91.0737 129.112 90.8041 128.986 90.8041 128.672C90.8041 128.295 91.0737 127.98 91.3433 127.98C91.6668 127.98 91.8825 128.106 91.8825 128.232ZM150.115 128.232C150.115 128.42 149.899 128.735 149.576 128.923C149.306 129.112 149.037 128.986 149.037 128.672C149.037 128.295 149.306 127.98 149.576 127.98C149.899 127.98 150.115 128.106 150.115 128.232ZM153.62 128.672C154.213 129.678 153.674 129.866 152.919 128.86C152.541 128.358 152.487 127.98 152.757 127.98C153.027 127.98 153.458 128.295 153.62 128.672ZM87.6229 130.369C87.3533 130.998 86.6524 131.941 86.1671 132.444C85.574 133.01 85.6818 132.569 86.4906 131.249C87.8925 129.049 88.4317 128.609 87.6229 130.369ZM92.4756 131.249C93.0687 132.569 93.0687 132.632 92.26 131.815C91.7208 131.375 91.3433 130.746 91.3433 130.432C91.3433 129.489 91.8286 129.803 92.4756 131.249ZM127.469 130.809C127.846 131.375 127.9 131.752 127.577 131.752C127.307 131.752 126.93 131.312 126.714 130.809C126.552 130.306 126.499 129.866 126.606 129.866C126.714 129.866 127.092 130.306 127.469 130.809ZM139.763 131.438C139.601 131.627 139.277 131.312 139.116 130.684C138.792 129.803 138.846 129.741 139.385 130.306C139.763 130.746 139.924 131.249 139.763 131.438ZM149.899 130.809C149.845 131.312 149.63 131.878 149.468 132.129C149.198 132.381 149.252 131.124 149.522 129.992C149.684 129.426 150.007 130.055 149.899 130.809ZM80.3439 131.564C80.236 132.192 80.4517 132.947 80.7752 133.198C81.1527 133.575 81.0987 133.638 80.6135 133.512C79.7508 133.261 79.2116 130.495 79.9664 130.495C80.236 130.495 80.3978 130.998 80.3439 131.564ZM120.999 131.124C120.999 131.438 120.891 131.752 120.783 131.752C120.621 131.752 120.352 131.438 120.19 131.124C120.028 130.746 120.136 130.495 120.406 130.495C120.729 130.495 120.999 130.746 120.999 131.124ZM156.046 131.752C156.046 132.067 155.938 132.381 155.83 132.381C155.669 132.381 155.399 132.067 155.237 131.752C155.076 131.375 155.183 131.124 155.453 131.124C155.777 131.124 156.046 131.375 156.046 131.752ZM129.356 133.512C129.194 133.701 128.763 133.512 128.386 133.072C127.9 132.444 127.954 132.381 128.709 132.758C129.248 132.947 129.518 133.324 129.356 133.512ZM72.0943 133.45C71.7168 133.575 71.0698 133.575 70.7463 133.45C70.3689 133.261 70.6385 133.135 71.3933 133.135C72.1482 133.135 72.4178 133.261 72.0943 133.45ZM97.4362 133.45C97.0587 133.575 96.3039 133.575 95.8186 133.45C95.2794 133.261 95.6029 133.135 96.4656 133.135C97.3823 133.135 97.7597 133.261 97.4362 133.45ZM86.922 152.875C88.8631 154.446 89.7797 157.275 89.8336 161.613C89.8336 168.088 87.4612 171.985 83.5251 171.985C79.589 171.985 76.8391 164.127 78.4028 157.464C79.589 152.623 83.7947 150.297 86.922 152.875ZM102.073 152.749C102.505 153.315 102.666 156.458 102.558 162.304L102.397 171.042H101.049C99.7008 171.042 99.7008 170.98 99.539 165.322C99.4312 160.167 99.2694 159.538 98.3528 159.224C96.7892 158.784 97.0048 156.898 98.9459 154.195C100.779 151.617 101.157 151.429 102.073 152.749ZM115.014 152.749C115.445 153.315 115.607 156.458 115.499 162.304L115.337 171.042H113.989C112.641 171.042 112.641 170.98 112.48 165.196C112.372 160.041 112.21 159.413 111.347 159.413C109.73 159.413 109.676 157.841 111.186 155.264C113.181 151.743 113.935 151.24 115.014 152.749ZM128.44 162.116L128.278 171.042H126.93C125.582 171.042 125.582 170.98 125.42 165.196C125.312 160.041 125.151 159.413 124.288 159.413C122.67 159.413 122.562 157.778 124.072 155.201C125.798 152.183 126.337 151.806 127.577 152.56C128.494 153.126 128.547 154.006 128.44 162.116ZM145.748 153.189C150.6 158.47 148.444 171.985 142.782 171.985C138.954 171.985 136.635 168.214 136.635 161.99C136.635 157.527 137.606 154.383 139.385 152.875C141.164 151.429 144.238 151.555 145.748 153.189Z" fill="#40B0C9"/>
<path d="M86.6478 128.37C85.4077 130.381 85.5155 136.479 86.7557 138.302C87.5105 139.434 88.1036 139.622 89.128 139.371C91.5544 138.617 92.471 133.399 90.9613 129.187C89.9907 126.547 87.9419 126.17 86.6478 128.37Z" fill="#40B0C9"/>
<path d="M144.718 129.312C143.208 133.587 144.718 139.559 147.306 139.559C148.924 139.559 149.949 137.107 149.949 133.273C149.949 129.186 148.87 126.986 146.929 126.986C145.904 126.986 145.365 127.489 144.718 129.312Z" fill="#40B0C9"/>
</svg>
