<svg width="406" height="306" viewBox="0 0 406 306" fill="none" xmlns="http://www.w3.org/2000/svg">
<path d="M301.607 99.053V206.947C301.607 208.66 300.927 210.301 299.717 211.512C298.506 212.723 296.864 213.403 295.152 213.403H109.722C108.009 213.403 106.367 212.723 105.157 211.512C103.946 210.301 103.266 208.66 103.266 206.947V89.512C103.266 87.0892 104.229 84.7657 105.942 83.0525C107.655 81.3394 109.978 80.377 112.401 80.377H184.892C187.15 80.3892 189.322 81.2433 190.982 82.7724L201.66 92.557H295.142C295.994 92.5556 296.838 92.7229 297.625 93.0493C298.412 93.3756 299.126 93.8545 299.727 94.4584C300.328 95.0623 300.804 95.7792 301.127 96.5678C301.449 97.3563 301.613 98.201 301.607 99.053Z" fill="#F7F7F7"/>
<path d="M295.152 214.418H109.721C107.741 214.415 105.842 213.627 104.442 212.227C103.042 210.826 102.254 208.928 102.251 206.947V89.5118C102.251 86.8199 103.32 84.2382 105.224 82.3347C107.127 80.4312 109.709 79.3618 112.401 79.3618H184.892C187.423 79.3585 189.861 80.3079 191.723 82.0211L202.107 91.5418H295.192C297.173 91.5445 299.071 92.3324 300.472 93.7328C301.872 95.1332 302.66 97.0318 302.663 99.0122V206.907C302.667 207.894 302.475 208.873 302.099 209.786C301.723 210.699 301.17 211.529 300.472 212.227C299.774 212.925 298.944 213.478 298.031 213.854C297.118 214.23 296.139 214.422 295.152 214.418ZM112.36 81.4324C110.207 81.4324 108.142 82.2879 106.619 83.8107C105.096 85.3335 104.24 87.3989 104.24 89.5524V206.988C104.24 207.702 104.381 208.41 104.655 209.07C104.928 209.73 105.329 210.33 105.834 210.835C106.339 211.34 106.939 211.741 107.599 212.014C108.259 212.288 108.966 212.428 109.681 212.428H295.152C295.866 212.428 296.574 212.288 297.234 212.014C297.894 211.741 298.494 211.34 298.999 210.835C299.504 210.33 299.905 209.73 300.178 209.07C300.452 208.41 300.592 207.702 300.592 206.988V99.0528C300.592 98.3384 300.452 97.6309 300.178 96.9709C299.905 96.3108 299.504 95.7111 298.999 95.2059C298.494 94.7007 297.894 94.3 297.234 94.0266C296.574 93.7531 295.866 93.6124 295.152 93.6124H201.67C201.415 93.6143 201.169 93.5201 200.98 93.3485L190.302 83.5639C188.822 82.1877 186.873 81.4258 184.852 81.4324H112.36Z" fill="#093F68"/>
<path d="M166.947 184.8H128.377C127.839 184.8 127.322 184.586 126.942 184.205C126.561 183.825 126.347 183.308 126.347 182.77V147.214L135.777 137.064H166.937C167.475 137.064 167.992 137.278 168.372 137.659C168.753 138.04 168.967 138.556 168.967 139.094V182.841C168.949 183.365 168.728 183.862 168.352 184.227C167.975 184.592 167.472 184.798 166.947 184.8Z" fill="#68E1FD"/>
<path d="M166.947 185.815H128.377C127.57 185.815 126.795 185.494 126.224 184.923C125.653 184.352 125.332 183.577 125.332 182.77V147.214C125.333 146.958 125.431 146.711 125.606 146.524L135.036 136.374C135.13 136.272 135.245 136.191 135.372 136.135C135.5 136.079 135.637 136.05 135.777 136.049H166.937C167.745 136.049 168.519 136.37 169.09 136.941C169.661 137.512 169.982 138.287 169.982 139.094V182.841C169.963 183.634 169.636 184.389 169.069 184.945C168.502 185.5 167.741 185.812 166.947 185.815ZM127.362 147.62V182.81C127.362 183.08 127.469 183.338 127.659 183.528C127.85 183.718 128.108 183.825 128.377 183.825H166.947C167.216 183.825 167.475 183.718 167.665 183.528C167.855 183.338 167.962 183.08 167.962 182.81V139.064C167.962 138.795 167.855 138.537 167.665 138.346C167.475 138.156 167.216 138.049 166.947 138.049H136.233L127.362 147.62Z" fill="#093F68"/>
<path d="M126.357 147.215H135.645V137.075L126.357 147.215Z" fill="#F7F7F7"/>
<path d="M135.645 148.229H126.357C126.162 148.229 125.971 148.172 125.807 148.066C125.644 147.96 125.514 147.809 125.434 147.63C125.353 147.451 125.326 147.251 125.357 147.057C125.388 146.862 125.474 146.681 125.606 146.534L134.904 136.384C135.043 136.236 135.223 136.133 135.421 136.088C135.62 136.043 135.827 136.059 136.016 136.133C136.205 136.208 136.368 136.337 136.482 136.505C136.597 136.673 136.659 136.871 136.66 137.074V147.224C136.657 147.492 136.549 147.747 136.359 147.936C136.169 148.124 135.912 148.229 135.645 148.229ZM128.661 146.199H134.63V139.683L128.661 146.199Z" fill="#093F68"/>
<path d="M161.223 155.801H134.366C134.097 155.801 133.838 155.695 133.648 155.504C133.458 155.314 133.351 155.056 133.351 154.786C133.351 154.517 133.458 154.259 133.648 154.069C133.838 153.878 134.097 153.771 134.366 153.771H161.223C161.492 153.771 161.75 153.878 161.94 154.069C162.131 154.259 162.238 154.517 162.238 154.786C162.238 155.056 162.131 155.314 161.94 155.504C161.75 155.695 161.492 155.801 161.223 155.801Z" fill="white"/>
<path d="M161.223 162.409H134.366C134.097 162.409 133.838 162.302 133.648 162.112C133.458 161.921 133.351 161.663 133.351 161.394C133.351 161.125 133.458 160.867 133.648 160.676C133.838 160.486 134.097 160.379 134.366 160.379H161.223C161.492 160.379 161.75 160.486 161.94 160.676C162.131 160.867 162.238 161.125 162.238 161.394C162.238 161.663 162.131 161.921 161.94 162.112C161.75 162.302 161.492 162.409 161.223 162.409Z" fill="white"/>
<path d="M161.223 169.017H134.366C134.097 169.017 133.838 168.91 133.648 168.72C133.458 168.529 133.351 168.271 133.351 168.002C133.351 167.733 133.458 167.474 133.648 167.284C133.838 167.094 134.097 166.987 134.366 166.987H161.223C161.492 166.987 161.75 167.094 161.94 167.284C162.131 167.474 162.238 167.733 162.238 168.002C162.238 168.271 162.131 168.529 161.94 168.72C161.75 168.91 161.492 169.017 161.223 169.017Z" fill="white"/>
<path d="M153.509 175.624H134.366C134.097 175.624 133.838 175.517 133.648 175.327C133.458 175.137 133.351 174.878 133.351 174.609C133.351 174.34 133.458 174.082 133.648 173.892C133.838 173.701 134.097 173.594 134.366 173.594H153.509C153.778 173.594 154.036 173.701 154.226 173.892C154.417 174.082 154.524 174.34 154.524 174.609C154.524 174.878 154.417 175.137 154.226 175.327C154.036 175.517 153.778 175.624 153.509 175.624Z" fill="white"/>
<path d="M161.801 177.878H123.231C122.693 177.878 122.176 177.664 121.796 177.283C121.415 176.902 121.201 176.386 121.201 175.848V140.292L130.641 130.142H161.791C162.329 130.142 162.846 130.356 163.226 130.737C163.607 131.117 163.821 131.634 163.821 132.172V175.919C163.803 176.443 163.582 176.94 163.206 177.305C162.829 177.67 162.326 177.875 161.801 177.878Z" fill="#68E1FD"/>
<path d="M161.801 178.892H123.231C122.424 178.892 121.649 178.572 121.078 178.001C120.507 177.43 120.186 176.655 120.186 175.847V140.292C120.187 140.036 120.285 139.789 120.46 139.602L129.89 129.452C129.985 129.348 130.102 129.266 130.231 129.21C130.36 129.154 130.5 129.126 130.641 129.127H161.791C162.599 129.127 163.373 129.448 163.944 130.019C164.515 130.59 164.836 131.364 164.836 132.172V175.918C164.817 176.712 164.49 177.467 163.923 178.022C163.356 178.578 162.595 178.89 161.801 178.892ZM122.216 140.698V175.888C122.216 176.157 122.323 176.415 122.513 176.606C122.704 176.796 122.962 176.903 123.231 176.903H161.801C162.07 176.903 162.329 176.796 162.519 176.606C162.709 176.415 162.816 176.157 162.816 175.888V132.142C162.816 131.872 162.709 131.614 162.519 131.424C162.329 131.233 162.07 131.127 161.801 131.127H131.087L122.216 140.698Z" fill="#093F68"/>
<path d="M121.211 140.292H130.499V130.152L121.211 140.292Z" fill="#F7F7F7"/>
<path d="M130.509 141.307H121.211C121.016 141.305 120.826 141.246 120.663 141.138C120.5 141.03 120.372 140.878 120.294 140.699C120.215 140.52 120.191 140.322 120.222 140.13C120.253 139.937 120.339 139.757 120.47 139.612L129.758 129.462C129.896 129.31 130.077 129.204 130.277 129.157C130.477 129.11 130.687 129.125 130.878 129.2C131.07 129.274 131.234 129.405 131.349 129.576C131.464 129.746 131.525 129.947 131.524 130.152V140.302C131.521 140.57 131.413 140.825 131.223 141.014C131.033 141.202 130.776 141.307 130.509 141.307ZM123.525 139.277H129.494V132.761L123.525 139.277Z" fill="#093F68"/>
<path d="M156.076 148.879H129.22C128.95 148.879 128.692 148.772 128.502 148.582C128.312 148.391 128.205 148.133 128.205 147.864C128.205 147.595 128.312 147.337 128.502 147.146C128.692 146.956 128.95 146.849 129.22 146.849H156.076C156.346 146.849 156.604 146.956 156.794 147.146C156.985 147.337 157.091 147.595 157.091 147.864C157.091 148.133 156.985 148.391 156.794 148.582C156.604 148.772 156.346 148.879 156.076 148.879Z" fill="white"/>
<path d="M156.076 155.487H129.22C128.95 155.487 128.692 155.38 128.502 155.189C128.312 154.999 128.205 154.741 128.205 154.472C128.205 154.202 128.312 153.944 128.502 153.754C128.692 153.563 128.95 153.457 129.22 153.457H156.076C156.346 153.457 156.604 153.563 156.794 153.754C156.985 153.944 157.091 154.202 157.091 154.472C157.091 154.741 156.985 154.999 156.794 155.189C156.604 155.38 156.346 155.487 156.076 155.487Z" fill="white"/>
<path d="M156.076 162.135H129.22C128.95 162.135 128.692 162.028 128.502 161.838C128.312 161.647 128.205 161.389 128.205 161.12C128.205 160.851 128.312 160.593 128.502 160.402C128.692 160.212 128.95 160.105 129.22 160.105H156.076C156.346 160.105 156.604 160.212 156.794 160.402C156.985 160.593 157.091 160.851 157.091 161.12C157.091 161.389 156.985 161.647 156.794 161.838C156.604 162.028 156.346 162.135 156.076 162.135Z" fill="white"/>
<path d="M148.362 168.702H129.22C128.95 168.702 128.692 168.595 128.502 168.405C128.312 168.214 128.205 167.956 128.205 167.687C128.205 167.418 128.312 167.16 128.502 166.969C128.692 166.779 128.95 166.672 129.22 166.672H148.362C148.632 166.672 148.89 166.779 149.08 166.969C149.271 167.16 149.377 167.418 149.377 167.687C149.377 167.956 149.271 168.214 149.08 168.405C148.89 168.595 148.632 168.702 148.362 168.702Z" fill="white"/>
<path d="M156.665 170.955H118.095C117.557 170.955 117.04 170.741 116.66 170.361C116.279 169.98 116.065 169.464 116.065 168.925V133.37L125.495 123.22H156.655C157.193 123.22 157.71 123.434 158.09 123.814C158.471 124.195 158.685 124.711 158.685 125.25V168.996C158.667 169.52 158.446 170.017 158.07 170.382C157.693 170.748 157.19 170.953 156.665 170.955Z" fill="white"/>
<path d="M156.665 171.971H118.095C117.288 171.971 116.513 171.65 115.942 171.079C115.371 170.508 115.05 169.733 115.05 168.926V133.37C115.048 133.115 115.143 132.869 115.314 132.68L124.754 122.53C124.848 122.428 124.963 122.346 125.09 122.29C125.218 122.235 125.355 122.206 125.495 122.205H156.655C157.463 122.205 158.237 122.526 158.808 123.097C159.379 123.668 159.7 124.442 159.7 125.25V168.997C159.682 169.79 159.354 170.545 158.787 171.1C158.22 171.656 157.459 171.968 156.665 171.971ZM117.08 133.776V168.966C117.08 169.235 117.187 169.493 117.377 169.684C117.568 169.874 117.826 169.981 118.095 169.981H156.665C156.934 169.981 157.193 169.874 157.383 169.684C157.573 169.493 157.68 169.235 157.68 168.966V125.22C157.68 124.95 157.573 124.692 157.383 124.502C157.193 124.312 156.934 124.205 156.665 124.205H125.941L117.08 133.776Z" fill="#093F68"/>
<path d="M116.075 133.37H125.363V123.23L116.075 133.37Z" fill="#68E1FD"/>
<path d="M125.363 134.385H116.075C115.879 134.384 115.687 134.327 115.523 134.22C115.359 134.113 115.229 133.96 115.15 133.781C115.07 133.602 115.045 133.403 115.075 133.21C115.106 133.016 115.193 132.836 115.324 132.69L124.611 122.54C124.75 122.39 124.931 122.286 125.131 122.241C125.33 122.195 125.538 122.211 125.728 122.286C125.919 122.36 126.083 122.489 126.199 122.658C126.315 122.826 126.377 123.026 126.378 123.23V133.38C126.375 133.648 126.267 133.903 126.077 134.091C125.887 134.279 125.63 134.385 125.363 134.385ZM118.379 132.355H124.348V125.839L118.379 132.355Z" fill="#093F68"/>
<path d="M150.941 141.957H124.074C123.804 141.957 123.546 141.85 123.356 141.659C123.166 141.469 123.059 141.211 123.059 140.942C123.059 140.673 123.166 140.414 123.356 140.224C123.546 140.034 123.804 139.927 124.074 139.927H150.941C151.21 139.927 151.468 140.034 151.658 140.224C151.849 140.414 151.956 140.673 151.956 140.942C151.956 141.211 151.849 141.469 151.658 141.659C151.468 141.85 151.21 141.957 150.941 141.957Z" fill="#DFEAEF"/>
<path d="M150.941 148.565H124.074C123.804 148.565 123.546 148.458 123.356 148.267C123.166 148.077 123.059 147.819 123.059 147.55C123.059 147.28 123.166 147.022 123.356 146.832C123.546 146.642 123.804 146.535 124.074 146.535H150.941C151.21 146.535 151.468 146.642 151.658 146.832C151.849 147.022 151.956 147.28 151.956 147.55C151.956 147.819 151.849 148.077 151.658 148.267C151.468 148.458 151.21 148.565 150.941 148.565Z" fill="#DFEAEF"/>
<path d="M150.941 155.172H124.074C123.804 155.172 123.546 155.065 123.356 154.875C123.166 154.684 123.059 154.426 123.059 154.157C123.059 153.888 123.166 153.63 123.356 153.439C123.546 153.249 123.804 153.142 124.074 153.142H150.941C151.21 153.142 151.468 153.249 151.658 153.439C151.849 153.63 151.956 153.888 151.956 154.157C151.956 154.426 151.849 154.684 151.658 154.875C151.468 155.065 151.21 155.172 150.941 155.172Z" fill="#DFEAEF"/>
<path d="M143.217 161.78H124.074C123.804 161.78 123.546 161.673 123.356 161.482C123.166 161.292 123.059 161.034 123.059 160.765C123.059 160.495 123.166 160.237 123.356 160.047C123.546 159.856 123.804 159.75 124.074 159.75H143.217C143.486 159.75 143.744 159.856 143.934 160.047C144.125 160.237 144.232 160.495 144.232 160.765C144.232 161.034 144.125 161.292 143.934 161.482C143.744 161.673 143.486 161.78 143.217 161.78Z" fill="#DFEAEF"/>
<path d="M227.198 184.8H188.628C188.089 184.8 187.573 184.586 187.192 184.205C186.812 183.825 186.598 183.308 186.598 182.77V147.214L196.027 137.064H227.188C227.726 137.064 228.242 137.278 228.623 137.659C229.004 138.04 229.218 138.556 229.218 139.094V182.841C229.199 183.365 228.979 183.862 228.602 184.227C228.226 184.592 227.722 184.798 227.198 184.8Z" fill="#FFBC0E"/>
<path d="M227.198 185.815H188.628C187.82 185.815 187.046 185.494 186.474 184.923C185.903 184.352 185.583 183.577 185.583 182.77V147.214C185.584 146.958 185.681 146.711 185.857 146.524L195.286 136.374C195.381 136.272 195.495 136.191 195.623 136.135C195.75 136.079 195.888 136.05 196.027 136.049H227.187C227.995 136.049 228.77 136.37 229.341 136.941C229.912 137.512 230.232 138.287 230.232 139.094V182.841C230.214 183.634 229.886 184.389 229.32 184.945C228.753 185.5 227.991 185.812 227.198 185.815ZM187.613 147.62V182.81C187.613 183.08 187.72 183.338 187.91 183.528C188.1 183.718 188.358 183.825 188.628 183.825H227.198C227.467 183.825 227.725 183.718 227.915 183.528C228.106 183.338 228.213 183.08 228.213 182.81V139.064C228.213 138.795 228.106 138.537 227.915 138.346C227.725 138.156 227.467 138.049 227.198 138.049H196.484L187.613 147.62Z" fill="#093F68"/>
<path d="M186.608 147.215H195.895V137.075L186.608 147.215Z" fill="#F7F7F7"/>
<path d="M195.895 148.229H186.608C186.412 148.227 186.222 148.168 186.059 148.06C185.897 147.952 185.768 147.8 185.69 147.621C185.612 147.442 185.587 147.244 185.618 147.052C185.65 146.859 185.736 146.679 185.867 146.534L195.154 136.384C195.293 136.236 195.473 136.133 195.672 136.088C195.87 136.043 196.077 136.059 196.266 136.133C196.456 136.208 196.618 136.337 196.733 136.505C196.848 136.673 196.909 136.871 196.91 137.074V147.224C196.907 147.492 196.799 147.747 196.609 147.936C196.419 148.124 196.162 148.229 195.895 148.229ZM188.912 146.199H194.88V139.683L188.912 146.199Z" fill="#093F68"/>
<path d="M221.473 155.801H194.616C194.347 155.801 194.089 155.695 193.898 155.504C193.708 155.314 193.601 155.056 193.601 154.786C193.601 154.517 193.708 154.259 193.898 154.069C194.089 153.878 194.347 153.771 194.616 153.771H221.473C221.742 153.771 222 153.878 222.191 154.069C222.381 154.259 222.488 154.517 222.488 154.786C222.488 155.056 222.381 155.314 222.191 155.504C222 155.695 221.742 155.801 221.473 155.801Z" fill="white"/>
<path d="M221.473 162.409H194.616C194.347 162.409 194.089 162.302 193.898 162.112C193.708 161.921 193.601 161.663 193.601 161.394C193.601 161.125 193.708 160.867 193.898 160.676C194.089 160.486 194.347 160.379 194.616 160.379H221.473C221.742 160.379 222 160.486 222.191 160.676C222.381 160.867 222.488 161.125 222.488 161.394C222.488 161.663 222.381 161.921 222.191 162.112C222 162.302 221.742 162.409 221.473 162.409Z" fill="white"/>
<path d="M221.473 169.017H194.616C194.347 169.017 194.089 168.91 193.898 168.72C193.708 168.529 193.601 168.271 193.601 168.002C193.601 167.733 193.708 167.474 193.898 167.284C194.089 167.094 194.347 166.987 194.616 166.987H221.473C221.742 166.987 222 167.094 222.191 167.284C222.381 167.474 222.488 167.733 222.488 168.002C222.488 168.271 222.381 168.529 222.191 168.72C222 168.91 221.742 169.017 221.473 169.017Z" fill="white"/>
<path d="M213.759 175.624H194.616C194.347 175.624 194.089 175.517 193.898 175.327C193.708 175.137 193.601 174.878 193.601 174.609C193.601 174.34 193.708 174.082 193.898 173.892C194.089 173.701 194.347 173.594 194.616 173.594H213.759C214.028 173.594 214.286 173.701 214.477 173.892C214.667 174.082 214.774 174.34 214.774 174.609C214.774 174.878 214.667 175.137 214.477 175.327C214.286 175.517 214.028 175.624 213.759 175.624Z" fill="white"/>
<path d="M222.052 177.878H183.482C182.943 177.878 182.427 177.664 182.046 177.283C181.665 176.902 181.452 176.386 181.452 175.848V140.292L190.891 130.142H222.041C222.58 130.142 223.096 130.356 223.477 130.737C223.858 131.117 224.071 131.634 224.071 132.172V175.919C224.053 176.443 223.832 176.94 223.456 177.305C223.079 177.67 222.576 177.875 222.052 177.878Z" fill="#FFBC0E"/>
<path d="M222.052 178.892H183.482C182.674 178.892 181.899 178.572 181.328 178.001C180.757 177.43 180.437 176.655 180.437 175.847V140.292C180.435 140.037 180.529 139.791 180.7 139.602L190.13 129.452C190.226 129.348 190.342 129.266 190.471 129.21C190.6 129.154 190.74 129.126 190.881 129.127H222.031C222.839 129.127 223.613 129.448 224.184 130.019C224.755 130.59 225.076 131.364 225.076 132.172V175.918C225.058 176.71 224.732 177.464 224.167 178.019C223.602 178.574 222.843 178.887 222.052 178.892ZM182.467 140.698V175.888C182.467 176.157 182.573 176.415 182.764 176.606C182.954 176.796 183.212 176.903 183.482 176.903H222.052C222.321 176.903 222.579 176.796 222.769 176.606C222.96 176.415 223.067 176.157 223.067 175.888V132.142C223.067 131.872 222.96 131.614 222.769 131.424C222.579 131.233 222.321 131.127 222.052 131.127H191.338L182.467 140.698Z" fill="#093F68"/>
<path d="M181.462 140.292H190.759V130.152L181.462 140.292Z" fill="#F7F7F7"/>
<path d="M190.759 141.307H181.472C181.276 141.307 181.084 141.25 180.92 141.142C180.755 141.035 180.626 140.883 180.546 140.703C180.467 140.524 180.441 140.326 180.472 140.132C180.503 139.938 180.589 139.758 180.721 139.612L190.008 129.462C190.146 129.31 190.327 129.204 190.527 129.157C190.728 129.11 190.937 129.125 191.129 129.2C191.32 129.274 191.484 129.405 191.599 129.576C191.715 129.746 191.776 129.947 191.774 130.152V140.302C191.771 140.57 191.663 140.825 191.473 141.014C191.283 141.202 191.027 141.307 190.759 141.307ZM183.776 139.277H189.744V132.761L183.776 139.277Z" fill="#093F68"/>
<path d="M216.327 148.879H189.47C189.201 148.879 188.943 148.772 188.752 148.582C188.562 148.391 188.455 148.133 188.455 147.864C188.455 147.595 188.562 147.337 188.752 147.146C188.943 146.956 189.201 146.849 189.47 146.849H216.327C216.596 146.849 216.854 146.956 217.045 147.146C217.235 147.337 217.342 147.595 217.342 147.864C217.342 148.133 217.235 148.391 217.045 148.582C216.854 148.772 216.596 148.879 216.327 148.879Z" fill="white"/>
<path d="M216.327 155.487H189.47C189.201 155.487 188.943 155.38 188.752 155.189C188.562 154.999 188.455 154.741 188.455 154.472C188.455 154.202 188.562 153.944 188.752 153.754C188.943 153.563 189.201 153.457 189.47 153.457H216.327C216.596 153.457 216.854 153.563 217.045 153.754C217.235 153.944 217.342 154.202 217.342 154.472C217.342 154.741 217.235 154.999 217.045 155.189C216.854 155.38 216.596 155.487 216.327 155.487Z" fill="white"/>
<path d="M216.327 162.135H189.47C189.201 162.135 188.943 162.028 188.752 161.838C188.562 161.647 188.455 161.389 188.455 161.12C188.455 160.851 188.562 160.593 188.752 160.402C188.943 160.212 189.201 160.105 189.47 160.105H216.327C216.596 160.105 216.854 160.212 217.045 160.402C217.235 160.593 217.342 160.851 217.342 161.12C217.342 161.389 217.235 161.647 217.045 161.838C216.854 162.028 216.596 162.135 216.327 162.135Z" fill="white"/>
<path d="M208.613 168.702H189.47C189.201 168.702 188.943 168.595 188.752 168.405C188.562 168.214 188.455 167.956 188.455 167.687C188.455 167.418 188.562 167.16 188.752 166.969C188.943 166.779 189.201 166.672 189.47 166.672H208.613C208.882 166.672 209.14 166.779 209.331 166.969C209.521 167.16 209.628 167.418 209.628 167.687C209.628 167.956 209.521 168.214 209.331 168.405C209.14 168.595 208.882 168.702 208.613 168.702Z" fill="white"/>
<path d="M216.916 170.955H178.346C177.807 170.955 177.291 170.741 176.91 170.361C176.53 169.98 176.316 169.464 176.316 168.925V133.37L185.745 123.22H216.906C217.444 123.22 217.96 123.434 218.341 123.814C218.722 124.195 218.936 124.711 218.936 125.25V168.996C218.917 169.52 218.697 170.017 218.32 170.382C217.944 170.748 217.44 170.953 216.916 170.955Z" fill="white"/>
<path d="M216.916 171.97H178.346C177.538 171.97 176.764 171.649 176.193 171.078C175.621 170.507 175.301 169.733 175.301 168.925V133.37C175.312 133.118 175.417 132.879 175.595 132.7L185.035 122.55C185.129 122.448 185.244 122.366 185.371 122.31C185.499 122.255 185.636 122.226 185.775 122.225H216.936C217.744 122.225 218.518 122.546 219.089 123.117C219.66 123.688 219.981 124.463 219.981 125.27V169.017C219.957 169.812 219.623 170.566 219.05 171.118C218.477 171.67 217.711 171.976 216.916 171.97ZM177.331 133.776V168.966C177.331 169.235 177.438 169.493 177.628 169.684C177.818 169.874 178.076 169.981 178.346 169.981H216.916C217.185 169.981 217.443 169.874 217.633 169.684C217.824 169.493 217.931 169.235 217.931 168.966V125.219C217.931 124.95 217.824 124.692 217.633 124.502C217.443 124.311 217.185 124.204 216.916 124.204H186.192L177.331 133.776Z" fill="#093F68"/>
<path d="M176.326 133.37H185.613V123.23L176.326 133.37Z" fill="#FFBC0E"/>
<path d="M185.613 134.385H176.326C176.133 134.379 175.946 134.319 175.787 134.21C175.628 134.102 175.502 133.951 175.426 133.774C175.349 133.598 175.324 133.403 175.354 133.213C175.384 133.023 175.468 132.845 175.595 132.7L184.882 122.55C185.021 122.4 185.202 122.296 185.401 122.251C185.6 122.206 185.809 122.221 185.999 122.296C186.189 122.37 186.354 122.5 186.469 122.668C186.585 122.836 186.648 123.036 186.648 123.24V133.39C186.646 133.524 186.617 133.655 186.563 133.777C186.51 133.899 186.433 134.01 186.337 134.102C186.241 134.195 186.127 134.267 186.003 134.316C185.879 134.364 185.746 134.388 185.613 134.385ZM178.63 132.355H184.598V125.839L178.63 132.355Z" fill="#093F68"/>
<path d="M211.191 141.957H184.324C184.055 141.957 183.797 141.85 183.606 141.659C183.416 141.469 183.309 141.211 183.309 140.942C183.309 140.673 183.416 140.414 183.606 140.224C183.797 140.034 184.055 139.927 184.324 139.927H211.191C211.46 139.927 211.718 140.034 211.909 140.224C212.099 140.414 212.206 140.673 212.206 140.942C212.206 141.211 212.099 141.469 211.909 141.659C211.718 141.85 211.46 141.957 211.191 141.957Z" fill="#DFEAEF"/>
<path d="M211.191 148.565H184.324C184.055 148.565 183.797 148.458 183.606 148.267C183.416 148.077 183.309 147.819 183.309 147.55C183.309 147.28 183.416 147.022 183.606 146.832C183.797 146.642 184.055 146.535 184.324 146.535H211.191C211.46 146.535 211.718 146.642 211.909 146.832C212.099 147.022 212.206 147.28 212.206 147.55C212.206 147.819 212.099 148.077 211.909 148.267C211.718 148.458 211.46 148.565 211.191 148.565Z" fill="#DFEAEF"/>
<path d="M211.191 155.172H184.324C184.055 155.172 183.797 155.065 183.606 154.875C183.416 154.684 183.309 154.426 183.309 154.157C183.309 153.888 183.416 153.63 183.606 153.439C183.797 153.249 184.055 153.142 184.324 153.142H211.191C211.46 153.142 211.718 153.249 211.909 153.439C212.099 153.63 212.206 153.888 212.206 154.157C212.206 154.426 212.099 154.684 211.909 154.875C211.718 155.065 211.46 155.172 211.191 155.172Z" fill="#DFEAEF"/>
<path d="M203.467 161.78H184.324C184.055 161.78 183.797 161.673 183.606 161.482C183.416 161.292 183.309 161.034 183.309 160.765C183.309 160.495 183.416 160.237 183.606 160.047C183.797 159.856 184.055 159.75 184.324 159.75H203.467C203.736 159.75 203.994 159.856 204.185 160.047C204.375 160.237 204.482 160.495 204.482 160.765C204.482 161.034 204.375 161.292 204.185 161.482C203.994 161.673 203.736 161.78 203.467 161.78Z" fill="#DFEAEF"/>
<path d="M287.448 184.8H248.878C248.34 184.8 247.823 184.586 247.443 184.205C247.062 183.825 246.848 183.308 246.848 182.77V147.214L256.288 137.064H287.448C287.986 137.064 288.503 137.278 288.883 137.659C289.264 138.04 289.478 138.556 289.478 139.094V182.841C289.46 183.367 289.238 183.865 288.859 184.231C288.48 184.596 287.974 184.8 287.448 184.8Z" fill="#F56132"/>
<path d="M287.448 185.815H248.878C248.07 185.815 247.296 185.494 246.725 184.923C246.154 184.352 245.833 183.577 245.833 182.77V147.214C245.834 146.958 245.932 146.711 246.107 146.524L255.536 136.374C255.631 136.272 255.746 136.191 255.873 136.135C256.001 136.079 256.138 136.05 256.277 136.049H287.438C288.245 136.049 289.02 136.37 289.591 136.941C290.162 137.512 290.483 138.287 290.483 139.094V182.841C290.464 183.634 290.137 184.389 289.57 184.945C289.003 185.5 288.242 185.812 287.448 185.815ZM247.863 147.62V182.81C247.863 183.08 247.97 183.338 248.16 183.528C248.351 183.718 248.609 183.825 248.878 183.825H287.448C287.717 183.825 287.975 183.718 288.166 183.528C288.356 183.338 288.463 183.08 288.463 182.81V139.064C288.463 138.795 288.356 138.537 288.166 138.346C287.975 138.156 287.717 138.049 287.448 138.049H256.734L247.863 147.62Z" fill="#093F68"/>
<path d="M246.858 147.215H256.145V137.075L246.858 147.215Z" fill="#F7F7F7"/>
<path d="M256.145 148.229H246.858C246.663 148.227 246.472 148.168 246.31 148.06C246.147 147.952 246.019 147.8 245.941 147.621C245.862 147.442 245.837 147.244 245.869 147.052C245.9 146.859 245.986 146.679 246.117 146.534L255.404 136.384C255.543 136.236 255.724 136.133 255.922 136.088C256.12 136.043 256.327 136.059 256.517 136.133C256.706 136.208 256.868 136.337 256.983 136.505C257.098 136.673 257.16 136.871 257.16 137.074V147.224C257.158 147.492 257.05 147.747 256.86 147.936C256.669 148.124 256.413 148.229 256.145 148.229ZM249.172 146.199H255.13V139.683L249.172 146.199Z" fill="#093F68"/>
<path d="M281.723 155.801H254.867C254.597 155.801 254.339 155.695 254.149 155.504C253.958 155.314 253.852 155.056 253.852 154.786C253.852 154.517 253.958 154.259 254.149 154.069C254.339 153.878 254.597 153.771 254.867 153.771H281.723C281.993 153.771 282.251 153.878 282.441 154.069C282.632 154.259 282.738 154.517 282.738 154.786C282.738 155.056 282.632 155.314 282.441 155.504C282.251 155.695 281.993 155.801 281.723 155.801Z" fill="white"/>
<path d="M281.723 162.409H254.867C254.597 162.409 254.339 162.302 254.149 162.112C253.958 161.921 253.852 161.663 253.852 161.394C253.852 161.125 253.958 160.867 254.149 160.676C254.339 160.486 254.597 160.379 254.867 160.379H281.723C281.993 160.379 282.251 160.486 282.441 160.676C282.632 160.867 282.738 161.125 282.738 161.394C282.738 161.663 282.632 161.921 282.441 162.112C282.251 162.302 281.993 162.409 281.723 162.409Z" fill="white"/>
<path d="M281.723 169.017H254.867C254.597 169.017 254.339 168.91 254.149 168.72C253.958 168.529 253.852 168.271 253.852 168.002C253.852 167.733 253.958 167.474 254.149 167.284C254.339 167.094 254.597 166.987 254.867 166.987H281.723C281.993 166.987 282.251 167.094 282.441 167.284C282.632 167.474 282.738 167.733 282.738 168.002C282.738 168.271 282.632 168.529 282.441 168.72C282.251 168.91 281.993 169.017 281.723 169.017Z" fill="white"/>
<path d="M274.05 175.624H254.867C254.597 175.624 254.339 175.517 254.149 175.327C253.958 175.137 253.852 174.878 253.852 174.609C253.852 174.34 253.958 174.082 254.149 173.892C254.339 173.701 254.597 173.594 254.867 173.594H274.05C274.319 173.594 274.577 173.701 274.768 173.892C274.958 174.082 275.065 174.34 275.065 174.609C275.065 174.878 274.958 175.137 274.768 175.327C274.577 175.517 274.319 175.624 274.05 175.624Z" fill="white"/>
<path d="M282.312 177.878H243.742C243.204 177.878 242.687 177.664 242.307 177.283C241.926 176.902 241.712 176.386 241.712 175.848V140.292L251.142 130.142H282.302C282.84 130.142 283.357 130.356 283.737 130.737C284.118 131.117 284.332 131.634 284.332 132.172V175.919C284.314 176.443 284.093 176.94 283.717 177.305C283.34 177.67 282.837 177.875 282.312 177.878Z" fill="#F56132"/>
<path d="M282.312 178.892H243.742C242.934 178.892 242.16 178.572 241.589 178.001C241.018 177.429 240.697 176.655 240.697 175.847V140.292C240.695 140.037 240.789 139.79 240.961 139.602L250.4 129.452C250.495 129.35 250.61 129.268 250.737 129.212C250.865 129.156 251.002 129.127 251.141 129.127H282.302C283.109 129.127 283.884 129.448 284.455 130.019C285.026 130.59 285.347 131.364 285.347 132.172V175.918C285.328 176.712 285.001 177.467 284.434 178.022C283.867 178.578 283.106 178.89 282.312 178.892ZM242.727 140.698V175.888C242.727 176.157 242.834 176.415 243.024 176.606C243.215 176.796 243.473 176.903 243.742 176.903H282.312C282.581 176.903 282.839 176.796 283.03 176.606C283.22 176.415 283.327 176.157 283.327 175.888V132.141C283.327 131.872 283.22 131.614 283.03 131.424C282.839 131.233 282.581 131.126 282.312 131.126H251.588L242.727 140.698Z" fill="#093F68"/>
<path d="M241.722 140.292H251.01V130.152L241.722 140.292Z" fill="#F7F7F7"/>
<path d="M251.009 141.307H241.722C241.526 141.307 241.334 141.25 241.17 141.142C241.006 141.035 240.876 140.883 240.797 140.703C240.717 140.524 240.691 140.326 240.722 140.132C240.753 139.938 240.84 139.758 240.971 139.612L250.258 129.462C250.397 129.31 250.578 129.204 250.778 129.157C250.978 129.11 251.188 129.125 251.379 129.2C251.57 129.274 251.735 129.405 251.85 129.576C251.965 129.746 252.026 129.947 252.024 130.152V140.302C252.022 140.57 251.914 140.825 251.724 141.014C251.534 141.202 251.277 141.307 251.009 141.307ZM244.026 139.277H249.994V132.761L244.026 139.277Z" fill="#093F68"/>
<path d="M276.588 148.879H249.69C249.421 148.879 249.163 148.772 248.972 148.582C248.782 148.391 248.675 148.133 248.675 147.864C248.675 147.595 248.782 147.337 248.972 147.146C249.163 146.956 249.421 146.849 249.69 146.849H276.588C276.857 146.849 277.115 146.956 277.305 147.146C277.496 147.337 277.603 147.595 277.603 147.864C277.603 148.133 277.496 148.391 277.305 148.582C277.115 148.772 276.857 148.879 276.588 148.879Z" fill="white"/>
<path d="M276.588 155.487H249.69C249.421 155.487 249.163 155.38 248.972 155.189C248.782 154.999 248.675 154.741 248.675 154.472C248.675 154.202 248.782 153.944 248.972 153.754C249.163 153.563 249.421 153.457 249.69 153.457H276.588C276.857 153.457 277.115 153.563 277.305 153.754C277.496 153.944 277.603 154.202 277.603 154.472C277.603 154.741 277.496 154.999 277.305 155.189C277.115 155.38 276.857 155.487 276.588 155.487Z" fill="white"/>
<path d="M276.588 162.135H249.69C249.421 162.135 249.163 162.028 248.972 161.838C248.782 161.647 248.675 161.389 248.675 161.12C248.675 160.851 248.782 160.593 248.972 160.402C249.163 160.212 249.421 160.105 249.69 160.105H276.588C276.857 160.105 277.115 160.212 277.305 160.402C277.496 160.593 277.603 160.851 277.603 161.12C277.603 161.389 277.496 161.647 277.305 161.838C277.115 162.028 276.857 162.135 276.588 162.135Z" fill="white"/>
<path d="M268.863 168.702H249.69C249.421 168.702 249.163 168.595 248.972 168.405C248.782 168.214 248.675 167.956 248.675 167.687C248.675 167.418 248.782 167.16 248.972 166.969C249.163 166.779 249.421 166.672 249.69 166.672H268.833C269.102 166.672 269.36 166.779 269.551 166.969C269.741 167.16 269.848 167.418 269.848 167.687C269.848 167.956 269.741 168.214 269.551 168.405C269.36 168.595 269.102 168.702 268.833 168.702H268.863Z" fill="white"/>
<path d="M277.166 170.955H238.525C237.987 170.955 237.47 170.741 237.09 170.361C236.709 169.98 236.495 169.464 236.495 168.925V133.37L245.924 123.22H277.085C277.623 123.22 278.14 123.434 278.52 123.814C278.901 124.195 279.115 124.711 279.115 125.25V168.996C279.097 169.508 278.887 169.995 278.525 170.358C278.164 170.722 277.678 170.935 277.166 170.955Z" fill="white"/>
<path d="M277.166 171.971H238.525C237.717 171.971 236.943 171.65 236.372 171.079C235.801 170.508 235.48 169.733 235.48 168.926V133.37C235.478 133.115 235.572 132.869 235.744 132.68L245.183 122.53C245.278 122.428 245.393 122.346 245.52 122.29C245.648 122.235 245.785 122.206 245.924 122.205H277.085C277.892 122.205 278.667 122.526 279.238 123.097C279.809 123.668 280.13 124.442 280.13 125.25V168.997C280.112 169.778 279.794 170.522 279.242 171.076C278.691 171.63 277.947 171.95 277.166 171.971ZM237.581 133.776V168.966C237.581 169.235 237.688 169.493 237.878 169.684C238.069 169.874 238.327 169.981 238.596 169.981H277.166C277.435 169.981 277.693 169.874 277.884 169.684C278.074 169.493 278.181 169.235 278.181 168.966V125.22C278.181 124.95 278.074 124.692 277.884 124.502C277.693 124.312 277.435 124.205 277.166 124.205H246.442L237.581 133.776Z" fill="#093F68"/>
<path d="M236.576 133.37H245.863V123.23L236.576 133.37Z" fill="#F56132"/>
<path d="M245.863 134.385H236.576C236.38 134.384 236.188 134.327 236.024 134.22C235.86 134.113 235.73 133.96 235.651 133.781C235.571 133.602 235.545 133.403 235.576 133.21C235.607 133.016 235.694 132.836 235.825 132.69L245.112 122.54C245.251 122.39 245.432 122.286 245.631 122.241C245.831 122.195 246.039 122.211 246.229 122.286C246.42 122.36 246.584 122.489 246.7 122.658C246.816 122.826 246.878 123.026 246.878 123.23V133.38C246.876 133.648 246.768 133.903 246.578 134.091C246.388 134.279 246.131 134.385 245.863 134.385ZM238.88 132.355H244.848V125.839L238.88 132.355Z" fill="#093F68"/>
<path d="M271.441 141.957H244.615C244.346 141.957 244.088 141.85 243.897 141.659C243.707 141.469 243.6 141.211 243.6 140.942C243.6 140.673 243.707 140.414 243.897 140.224C244.088 140.034 244.346 139.927 244.615 139.927H271.482C271.751 139.927 272.009 140.034 272.2 140.224C272.39 140.414 272.497 140.673 272.497 140.942C272.497 141.211 272.39 141.469 272.2 141.659C272.009 141.85 271.751 141.957 271.482 141.957H271.441Z" fill="#DFEAEF"/>
<path d="M271.441 148.565H244.615C244.346 148.565 244.088 148.458 243.897 148.267C243.707 148.077 243.6 147.819 243.6 147.55C243.6 147.28 243.707 147.022 243.897 146.832C244.088 146.642 244.346 146.535 244.615 146.535H271.482C271.751 146.535 272.009 146.642 272.2 146.832C272.39 147.022 272.497 147.28 272.497 147.55C272.497 147.819 272.39 148.077 272.2 148.267C272.009 148.458 271.751 148.565 271.482 148.565H271.441Z" fill="#DFEAEF"/>
<path d="M271.441 155.172H244.615C244.346 155.172 244.088 155.065 243.897 154.875C243.707 154.684 243.6 154.426 243.6 154.157C243.6 153.888 243.707 153.63 243.897 153.439C244.088 153.249 244.346 153.142 244.615 153.142H271.482C271.751 153.142 272.009 153.249 272.2 153.439C272.39 153.63 272.497 153.888 272.497 154.157C272.497 154.426 272.39 154.684 272.2 154.875C272.009 155.065 271.751 155.172 271.482 155.172H271.441Z" fill="#DFEAEF"/>
<path d="M263.727 161.78H244.615C244.346 161.78 244.088 161.673 243.897 161.482C243.707 161.292 243.6 161.034 243.6 160.765C243.6 160.495 243.707 160.237 243.897 160.047C244.088 159.856 244.346 159.75 244.615 159.75H263.768C264.037 159.75 264.295 159.856 264.486 160.047C264.676 160.237 264.783 160.495 264.783 160.765C264.783 161.034 264.676 161.292 264.486 161.482C264.295 161.673 264.037 161.78 263.768 161.78H263.727Z" fill="#DFEAEF"/>
<path d="M301.607 99.053V103.265H103.266V89.512C103.266 87.0892 104.229 84.7657 105.942 83.0525C107.655 81.3394 109.978 80.377 112.401 80.377H184.892C187.15 80.3892 189.322 81.2433 190.982 82.7724L201.66 92.557H295.142C295.994 92.5556 296.838 92.7229 297.625 93.0493C298.412 93.3756 299.126 93.8545 299.727 94.4584C300.328 95.0623 300.804 95.7792 301.127 96.5678C301.449 97.3563 301.613 98.201 301.607 99.053Z" fill="#68E1FD"/>
<path d="M301.607 104.28H103.266C102.997 104.28 102.739 104.173 102.548 103.983C102.358 103.792 102.251 103.534 102.251 103.265V89.5118C102.251 86.8199 103.32 84.2382 105.224 82.3347C107.127 80.4312 109.709 79.3618 112.401 79.3618H184.892C187.423 79.3585 189.861 80.3079 191.723 82.0211L202.107 91.5418H295.192C297.173 91.5445 299.071 92.3324 300.472 93.7328C301.872 95.1332 302.66 97.0318 302.663 99.0122V103.265C302.663 103.402 302.635 103.537 302.582 103.663C302.528 103.789 302.45 103.903 302.351 103.998C302.253 104.092 302.136 104.166 302.008 104.215C301.88 104.263 301.744 104.286 301.607 104.28ZM104.281 102.25H300.592V99.0528C300.592 97.6099 300.019 96.2262 298.999 95.2059C297.979 94.1856 296.595 93.6124 295.152 93.6124H201.67C201.415 93.6143 201.169 93.5201 200.98 93.3485L190.302 83.5639C188.822 82.1877 186.873 81.4258 184.852 81.4324H112.36C110.207 81.4324 108.142 82.2879 106.619 83.8107C105.096 85.3335 104.24 87.3989 104.24 89.5524L104.281 102.25Z" fill="#093F68"/>
<path d="M163.08 200.197H132.366C132.097 200.197 131.839 200.091 131.648 199.9C131.458 199.71 131.351 199.452 131.351 199.182C131.351 198.913 131.458 198.655 131.648 198.465C131.839 198.274 132.097 198.167 132.366 198.167H163.08C163.349 198.167 163.607 198.274 163.798 198.465C163.988 198.655 164.095 198.913 164.095 199.182C164.095 199.452 163.988 199.71 163.798 199.9C163.607 200.091 163.349 200.197 163.08 200.197Z" fill="#DFEAEF"/>
<path d="M221.402 200.197H190.688C190.419 200.197 190.161 200.091 189.97 199.9C189.78 199.71 189.673 199.452 189.673 199.182C189.673 198.913 189.78 198.655 189.97 198.465C190.161 198.274 190.419 198.167 190.688 198.167H221.402C221.671 198.167 221.929 198.274 222.12 198.465C222.31 198.655 222.417 198.913 222.417 199.182C222.417 199.452 222.31 199.71 222.12 199.9C221.929 200.091 221.671 200.197 221.402 200.197Z" fill="#DFEAEF"/>
<path d="M279.724 200.197H249.01C248.741 200.197 248.483 200.091 248.292 199.9C248.102 199.71 247.995 199.452 247.995 199.182C247.995 198.913 248.102 198.655 248.292 198.465C248.483 198.274 248.741 198.167 249.01 198.167H279.724C279.993 198.167 280.251 198.274 280.442 198.465C280.632 198.655 280.739 198.913 280.739 199.182C280.739 199.452 280.632 199.71 280.442 199.9C280.251 200.091 279.993 200.197 279.724 200.197Z" fill="#DFEAEF"/>
</svg>
