<svg width="409" height="301" viewBox="0 0 409 301" fill="none" xmlns="http://www.w3.org/2000/svg">
<g filter="url(#filter0_b)">
<path opacity="0.18" d="M148.243 24.4546C137.495 34.1791 129.529 46.6792 118.108 55.6233C98.7968 70.7756 72.5866 73.7882 49.8764 83.4337C34.8543 89.8146 20.6112 99.9244 13.9651 114.548C8.59859 126.401 9.27635 140.373 14.8553 152.083C17.5208 157.697 18.7053 163.873 18.3006 170.049C17.896 176.225 15.9152 182.203 12.5387 187.44C4.269 200.231 -0.718131 214.845 0.0860816 229.854C1.33033 252.938 19.281 275.711 42.856 277.835C50.9487 278.566 59.0819 276.96 67.0936 275.528C115.483 266.885 166.7 264.663 212.727 281.588C225.341 286.231 237.485 292.281 250.601 295.333C265.921 298.899 281.894 298.222 297.639 297.526C322.211 296.439 350.879 293.081 363.428 272.417C380.822 243.772 353.115 208.01 357.055 174.94C359.235 156.666 371.035 140.595 373.524 122.376C376.225 102.572 366.61 81.636 349.665 70.4348C326.136 54.8825 293.598 58.6558 269.305 44.2592C250.085 32.8654 236.873 10.6013 214.214 4.54135C191.989 -1.39508 164.418 9.83574 148.243 24.4546Z" fill="#6881FC"/>
<path opacity="0.11" d="M45.9868 223.394C43.6095 207.457 37.9396 192.112 35.6433 176.159C33.347 160.207 34.9453 142.664 45.4102 130.229C52.2384 122.114 62.0508 117.052 71.6457 112.306C80.1784 108.083 88.964 103.875 98.4527 102.729C106.819 101.742 115.26 103.149 123.626 104.127C139.366 105.964 155.395 106.206 171.019 103.589C191.418 100.132 210.704 92.2295 230.642 86.8808C250.171 81.616 269.502 78.9342 291.337 88.8563C306.43 95.7212 317.568 110.054 321.179 125.897C327.016 151.495 313.835 179.864 324.917 203.748C328.043 210.474 332.898 216.272 336.864 222.564C341.738 230.322 345.256 238.817 347.273 247.703C347.966 250.76 348.477 253.985 347.592 256.993C345.315 264.697 335.564 267.261 327.36 267.893C300.082 269.997 272.83 265.028 245.624 262.139C201.458 257.457 156.892 258.282 112.65 261.507C101.823 262.297 91.0024 263.219 80.1885 264.273C71.4636 265.107 54.8988 270.199 46.6746 267.774C37.5046 265.063 43.5235 259.191 45.4658 250.76C47.5446 241.811 47.3322 232.402 45.9868 223.394Z" fill="#6881FC"/>
<path d="M194.225 70.6716C194.225 70.6716 190.042 87.2759 183.79 91.9085C177.336 96.6892 170.64 87.5031 170.64 87.5031L166.912 94.0815C166.912 94.0815 173.806 104.947 180.756 105.199C187.705 105.451 193.805 99.3759 193.805 99.3759L194.225 70.6716Z" fill="#6881FC"/>
<path d="M158.501 59.2681L159.446 58.8582L178.727 63.6438L184.519 101.771H183.795L158.501 59.2681Z" fill="#3F3D56"/>
<path opacity="0.05" d="M67.2958 264.998C67.2958 264.998 25.2391 267.749 19.1898 271.686C13.1405 275.622 60.5132 276.486 136.104 274.269C211.695 272.051 269.897 274.269 311.109 278.328C352.321 282.388 408.221 281.603 408.995 271.661C409.769 261.719 306.951 261.601 306.951 261.601L67.2958 264.998Z" fill="#000405"/>
<path d="M328.766 185.859C328.766 185.859 327.355 197.327 318.281 198.453H278.424L272.754 134.787H314.735C318.124 134.787 325.069 138.353 326.455 143.4C326.641 144.335 326.764 145.28 326.824 146.23C327.754 156.024 328.766 185.859 328.766 185.859Z" fill="#6881FC"/>
<path d="M382.977 64.5871H344.537L333.126 53.6477L332.62 53.1538H370.909C374.298 53.1538 381.242 56.7196 382.628 61.7671C382.805 62.699 382.921 63.6409 382.977 64.5871Z" fill="url(#paint0_linear)"/>
<path d="M72.4397 140.714L68.6867 139.118C68.1983 138.911 67.798 138.546 67.5532 138.084C67.3084 137.622 67.2341 137.092 67.3428 136.583C67.4515 136.074 67.7365 135.617 68.1499 135.289C68.5633 134.961 69.0797 134.782 69.6123 134.782H272.754C275.264 134.759 277.746 135.289 280.017 136.332C282.287 137.375 284.288 138.905 285.869 140.808C287.188 142.369 288.061 144.243 288.398 146.24C289.314 152.201 288.753 178.165 288.5 187.914C288.363 193.208 284.367 197.791 278.986 198.424L278.409 198.478H81.6553L72.4397 140.714Z" fill="#6881FC"/>
<path d="M72.4397 140.714L68.6867 139.118C68.1983 138.911 67.798 138.546 67.5532 138.084C67.3084 137.622 67.2341 137.092 67.3428 136.583C67.4515 136.074 67.7365 135.617 68.1499 135.289C68.5633 134.961 69.0797 134.782 69.6123 134.782H272.754C275.264 134.759 277.746 135.289 280.017 136.332C282.287 137.375 284.288 138.905 285.869 140.808C287.188 142.369 288.061 144.243 288.398 146.24C289.314 152.201 288.753 178.165 288.5 187.914C288.363 193.208 284.367 197.791 278.986 198.424L278.409 198.478H81.6553L72.4397 140.714Z" fill="#6881FC"/>
<path d="M288.515 187.889C288.378 193.183 284.382 197.767 279.001 198.399L278.424 198.453H81.6705L72.4397 140.714L68.6867 139.118C68.1983 138.911 67.798 138.546 67.5532 138.084C67.3084 137.622 67.2341 137.092 67.3428 136.583C67.4515 136.074 67.7365 135.617 68.1499 135.289C68.5633 134.961 69.0797 134.782 69.6123 134.782H272.754C275.264 134.759 277.746 135.289 280.017 136.332C282.287 137.375 284.288 138.905 285.87 140.808C287.188 142.369 288.061 144.243 288.399 146.24C289.314 152.177 288.768 178.14 288.515 187.889Z" fill="url(#paint1_linear)"/>
<path opacity="0.61" d="M62.2531 198.498H279.137C279.888 198.498 280.607 198.207 281.139 197.689C281.67 197.172 281.969 196.47 281.97 195.737C281.97 195.374 281.897 195.014 281.754 194.679C281.612 194.343 281.403 194.038 281.14 193.781C280.877 193.524 280.565 193.321 280.221 193.182C279.878 193.043 279.509 192.971 279.137 192.971H62.2531C61.5019 192.971 60.7814 193.263 60.2503 193.781C59.7191 194.3 59.4207 195.003 59.4207 195.737C59.422 196.47 59.721 197.172 60.252 197.689C60.7831 198.207 61.5028 198.498 62.2531 198.498Z" fill="url(#paint2_linear)"/>
<path d="M62.2531 198.498H279.137C279.888 198.498 280.607 198.207 281.139 197.689C281.67 197.172 281.969 196.47 281.97 195.737C281.97 195.374 281.897 195.014 281.754 194.679C281.612 194.343 281.403 194.038 281.14 193.781C280.877 193.524 280.565 193.321 280.221 193.182C279.878 193.043 279.509 192.971 279.137 192.971H62.2531C61.5019 192.971 60.7814 193.263 60.2503 193.781C59.7191 194.3 59.4207 195.003 59.4207 195.737C59.422 196.47 59.721 197.172 60.252 197.689C60.7831 198.207 61.5028 198.498 62.2531 198.498Z" fill="#6881FC"/>
<path d="M323.642 216.618V251.165C323.642 255.672 321.81 259.994 318.547 263.182C315.284 266.37 310.859 268.162 306.243 268.164H77.4168C75.1346 268.168 72.874 267.732 70.7642 266.882C68.6544 266.032 66.7367 264.785 65.1206 263.211C63.5044 261.638 62.2215 259.769 61.345 257.711C60.4686 255.654 60.0158 253.448 60.0125 251.219V216.618C60.0083 213.478 60.9017 210.399 62.592 207.728C62.9611 207.136 63.37 206.569 63.816 206.029C65.4439 204.032 67.5124 202.42 69.8674 201.313C72.2224 200.205 74.803 199.631 77.4168 199.634H306.238C310.853 199.636 315.278 201.427 318.542 204.614C321.805 207.8 323.64 212.122 323.642 216.628V216.618Z" fill="#6881FC"/>
<path d="M234.537 268.164H77.4167C74.0825 268.168 70.8174 267.236 68.01 265.479C65.2025 263.723 62.9708 261.216 61.5803 258.257H224.542C224.542 258.257 226.889 266.653 234.537 268.164Z" fill="url(#paint3_linear)"/>
<path d="M234.537 199.614C227.314 200.779 225.296 207.708 225.296 207.708H62.5919L63.8159 206.01C65.4438 204.013 67.5123 202.4 69.8673 201.293C72.2223 200.186 74.8029 199.612 77.4167 199.614H234.537Z" fill="url(#paint4_linear)"/>
<path d="M323.642 216.618V251.165C323.645 254.206 322.811 257.191 321.228 259.809C319.645 262.428 317.372 264.583 314.644 266.051H242.781C241.346 266.051 239.926 265.776 238.6 265.24C237.274 264.705 236.069 263.92 235.054 262.93C234.039 261.939 233.234 260.764 232.684 259.47C232.135 258.176 231.851 256.789 231.851 255.388V213.467C231.85 212.065 232.132 210.677 232.681 209.382C233.231 208.087 234.036 206.91 235.051 205.919C236.066 204.928 237.271 204.142 238.597 203.606C239.924 203.069 241.345 202.794 242.781 202.794H316.374C318.625 204.367 320.459 206.442 321.723 208.847C322.987 211.251 323.645 213.915 323.642 216.618Z" fill="url(#paint5_linear)"/>
<path d="M323.642 216.618V251.165C323.642 251.802 323.607 252.438 323.536 253.071C323.506 253.348 323.465 253.62 323.42 253.891C323.232 255.075 322.909 256.234 322.459 257.348C322.352 257.63 322.236 257.901 322.105 258.173C321.538 259.403 320.825 260.563 319.98 261.63C319.758 261.907 319.525 262.183 319.277 262.45C317.957 263.91 316.39 265.138 314.644 266.08H253.104C251.55 266.083 250.013 265.76 248.597 265.134C247.181 264.508 245.919 263.593 244.895 262.45C244.657 262.189 244.434 261.915 244.228 261.63C243.455 260.589 242.887 259.417 242.553 258.173C242.478 257.906 242.417 257.63 242.366 257.348C242.241 256.705 242.178 256.052 242.179 255.398V213.467C242.179 212.72 242.26 211.975 242.422 211.245C242.473 210.967 242.542 210.694 242.629 210.425C243.005 209.173 243.615 208.001 244.43 206.968C244.652 206.682 244.89 206.408 245.143 206.148C246.162 205.082 247.395 204.234 248.764 203.654C250.134 203.074 251.611 202.777 253.104 202.78H316.374C317.729 203.728 318.937 204.862 319.96 206.148C320.172 206.415 320.38 206.686 320.577 206.968C321.34 208.043 321.968 209.204 322.449 210.425C322.56 210.696 322.666 210.973 322.752 211.245C323.142 212.365 323.403 213.525 323.531 214.702C323.566 214.973 323.592 215.25 323.607 215.527C323.622 215.803 323.642 216.277 323.642 216.618Z" fill="#6881FC"/>
<path d="M323.642 216.618V251.165C323.642 251.802 323.607 252.438 323.536 253.071C323.506 253.348 323.465 253.62 323.42 253.891C323.232 255.075 322.909 256.234 322.459 257.348C322.352 257.63 322.236 257.901 322.105 258.173C321.538 259.403 320.825 260.563 319.98 261.63C319.758 261.907 319.525 262.183 319.277 262.45C317.957 263.91 316.39 265.138 314.644 266.08H253.104C251.55 266.083 250.013 265.76 248.597 265.134C247.181 264.508 245.919 263.593 244.895 262.45C244.657 262.189 244.434 261.915 244.228 261.63C243.455 260.589 242.887 259.417 242.553 258.173C242.478 257.906 242.417 257.63 242.366 257.348C242.241 256.705 242.178 256.052 242.179 255.398V213.467C242.179 212.72 242.26 211.975 242.422 211.245C242.473 210.967 242.542 210.694 242.629 210.425C243.005 209.173 243.615 208.001 244.43 206.968C244.652 206.682 244.89 206.408 245.143 206.148C246.162 205.082 247.395 204.234 248.764 203.654C250.134 203.074 251.611 202.777 253.104 202.78H316.374C317.729 203.728 318.937 204.862 319.96 206.148C320.172 206.415 320.38 206.686 320.577 206.968C321.34 208.043 321.968 209.204 322.449 210.425C322.56 210.696 322.666 210.973 322.752 211.245C323.142 212.365 323.403 213.525 323.531 214.702C323.566 214.973 323.592 215.25 323.607 215.527C323.622 215.803 323.642 216.277 323.642 216.618Z" fill="url(#paint6_linear)"/>
<path d="M320.577 206.982H244.43C244.652 206.697 244.89 206.423 245.143 206.163H319.955C320.167 206.429 320.38 206.701 320.577 206.982Z" fill="white"/>
<path d="M322.752 211.245H242.422C242.473 210.967 242.542 210.694 242.629 210.425H322.449C322.56 210.696 322.666 210.973 322.752 211.245Z" fill="white"/>
<path d="M323.607 215.512H242.174V214.687H323.531C323.566 214.959 323.592 215.235 323.607 215.512Z" fill="white"/>
<path d="M323.647 218.954H242.179V219.774H323.647V218.954Z" fill="white"/>
<path d="M323.647 223.216H242.179V224.036H323.647V223.216Z" fill="white"/>
<path d="M323.647 227.483H242.179V228.303H323.647V227.483Z" fill="white"/>
<path d="M323.647 231.751H242.179V232.566H323.647V231.751Z" fill="white"/>
<path d="M323.647 236.013H242.179V236.828H323.647V236.013Z" fill="white"/>
<path d="M323.647 240.28H242.179V241.095H323.647V240.28Z" fill="white"/>
<path d="M323.647 244.542H242.179V245.357H323.647V244.542Z" fill="white"/>
<path d="M323.647 248.809H242.179V249.629H323.647V248.809Z" fill="white"/>
<path d="M323.536 253.072C323.506 253.348 323.465 253.62 323.42 253.891H242.179V253.072H323.536Z" fill="white"/>
<path d="M322.484 257.333C322.378 257.615 322.261 257.887 322.13 258.158H242.568C242.493 257.892 242.432 257.615 242.381 257.333H322.484Z" fill="white"/>
<path d="M319.98 261.601C319.758 261.877 319.525 262.154 319.277 262.42H244.895C244.657 262.159 244.434 261.886 244.228 261.601H319.98Z" fill="white"/>
<path d="M222.681 191.648H274.525C272.326 192.719 269.901 193.273 267.443 193.268H74.6753C71.4905 193.295 68.3745 192.362 65.7531 190.596C65.0107 190.096 64.321 189.525 63.6946 188.892C63.4922 188.689 63.295 188.477 63.1078 188.265C62.4021 187.459 61.8008 186.572 61.3173 185.622C61.2111 185.415 61.11 185.203 61.0189 184.995C60.6436 184.149 60.3719 183.262 60.2096 182.353C60.1742 182.145 60.1388 181.938 60.1135 181.721C60.053 181.229 60.0226 180.734 60.0225 180.239V153.737C60.0175 153.456 60.0276 153.174 60.0528 152.893C60.0832 152.616 60.0883 152.473 60.1135 152.266C60.2266 151.363 60.4455 150.477 60.766 149.623C60.8469 149.411 60.9329 149.204 61.024 148.991C61.4344 148.051 61.9646 147.165 62.602 146.354L63.1078 145.722C63.4814 145.296 63.8817 144.894 64.3066 144.517C67.1582 142.034 70.855 140.678 74.6753 140.714H267.443C270.473 140.71 273.438 141.568 275.976 143.183H222.681C221.869 143.182 221.061 143.278 220.273 143.47C218.656 143.844 217.171 144.636 215.974 145.761C215.76 145.96 215.559 146.171 215.372 146.393C214.694 147.167 214.179 148.063 213.855 149.031C213.783 149.238 213.724 149.449 213.678 149.663C213.542 150.221 213.474 150.793 213.475 151.367V183.504C213.477 184.001 213.529 184.498 213.632 184.985C213.673 185.197 213.728 185.407 213.794 185.612C214.08 186.575 214.558 187.473 215.2 188.255C215.376 188.473 215.564 188.682 215.761 188.882C216.63 189.76 217.675 190.453 218.832 190.917C220.051 191.412 221.36 191.661 222.681 191.648Z" fill="#6881FC"/>
<path d="M282.101 153.93V180.743C282.107 180.895 282.096 181.047 282.071 181.197C282.041 181.345 282.071 181.498 282.031 181.647C282.001 181.782 281.982 181.919 281.975 182.057C281.975 182.19 281.94 182.269 281.919 182.373C281.915 182.426 281.904 182.479 281.889 182.531C281.864 182.674 281.833 182.822 281.798 182.965C281.763 183.108 281.752 183.153 281.722 183.247C281.692 183.341 281.677 183.43 281.646 183.523C281.616 183.617 281.591 183.721 281.56 183.82L281.454 184.121C281.443 184.206 281.415 184.288 281.373 184.363C281.343 184.442 281.292 184.575 281.247 184.679L281.11 185C281.088 185.06 281.061 185.118 281.029 185.173C280.997 185.256 280.96 185.337 280.918 185.415C280.888 185.484 280.847 185.553 280.812 185.622C280.776 185.691 280.705 185.835 280.645 185.933C280.584 186.032 280.473 186.255 280.377 186.427L280.22 186.674C280.078 186.901 279.932 187.119 279.775 187.331C279.694 187.445 279.613 187.548 279.532 187.652C279.37 187.865 279.198 188.067 279.026 188.27C278.854 188.472 278.642 188.694 278.434 188.897C278.02 189.311 277.579 189.698 277.114 190.057C277.107 190.071 277.094 190.082 277.079 190.087C276.927 190.206 276.775 190.314 276.619 190.428L276.113 190.769L275.607 191.085C275.445 191.183 275.283 191.272 275.101 191.366L274.52 191.667H222.681C221.36 191.673 220.051 191.42 218.832 190.922C217.677 190.459 216.632 189.77 215.762 188.897C215.564 188.697 215.376 188.488 215.2 188.27C214.559 187.493 214.081 186.6 213.794 185.642C213.727 185.438 213.673 185.23 213.632 185.02C213.529 184.532 213.477 184.036 213.475 183.538V151.525C213.474 150.954 213.542 150.386 213.678 149.831C213.724 149.619 213.783 149.409 213.855 149.204C214.179 148.241 214.695 147.349 215.372 146.581C215.559 146.359 215.76 146.148 215.974 145.949C217.176 144.832 218.659 144.045 220.273 143.667C221.061 143.48 221.87 143.386 222.681 143.386H275.976C276.209 143.534 276.442 143.687 276.664 143.85L276.922 144.038C277.274 144.293 277.612 144.567 277.934 144.858L278.212 145.114L278.414 145.312L278.687 145.588L278.96 145.885L279.016 145.949L279.057 145.998C279.218 146.186 279.38 146.384 279.532 146.581C279.613 146.68 279.689 146.784 279.765 146.882C279.77 146.898 279.781 146.912 279.795 146.922C279.933 147.113 280.065 147.305 280.19 147.5L280.407 147.845C280.539 148.063 280.665 148.29 280.781 148.512C280.837 148.631 280.898 148.739 280.953 148.853C281.009 148.967 281.065 149.09 281.11 149.204C281.156 149.317 281.206 149.411 281.247 149.52C281.287 149.628 281.333 149.727 281.368 149.831L281.479 150.142C281.632 150.57 281.756 151.007 281.849 151.451C281.866 151.507 281.877 151.565 281.884 151.624C281.894 151.729 281.915 151.833 281.945 151.935C281.945 152.039 282 152.285 282.026 152.458C282.051 152.631 282.076 152.873 282.086 153.086V153.421C282.086 153.555 282.101 153.757 282.101 153.93Z" fill="url(#paint7_linear)"/>
<path d="M218.832 190.897C217.688 191.169 216.51 191.416 215.291 191.648H77.8517C73.7935 191.68 69.7416 191.328 65.7531 190.596C65.0107 190.096 64.321 189.525 63.6946 188.892C63.4922 188.689 63.295 188.477 63.1078 188.265C62.4021 187.459 61.8008 186.572 61.3173 185.622C61.2111 185.415 61.11 185.203 61.0189 184.995C60.6436 184.149 60.3719 183.262 60.2096 182.353C60.1742 182.145 60.1388 181.938 60.1135 181.721C60.053 181.229 60.0226 180.734 60.0225 180.239V153.738C60.0175 153.456 60.0276 153.174 60.0528 152.893C60.0832 152.616 60.0883 152.473 60.1135 152.266C60.2266 151.363 60.4455 150.477 60.766 149.624C60.8469 149.411 60.9329 149.204 61.024 148.991C61.4344 148.051 61.9646 147.165 62.602 146.354L63.1078 145.722C63.4814 145.296 63.8817 144.894 64.3066 144.517C68.7601 143.579 73.306 143.124 77.8618 143.159H219.14L220.273 143.445C218.656 143.82 217.171 144.611 215.974 145.737C215.76 145.935 215.559 146.146 215.372 146.369C214.694 147.143 214.179 148.039 213.855 149.006C213.783 149.213 213.724 149.424 213.678 149.638C213.542 150.197 213.474 150.768 213.475 151.342V183.479C213.477 183.977 213.529 184.473 213.632 184.961C213.673 185.173 213.727 185.382 213.794 185.588C214.08 186.55 214.558 187.448 215.2 188.23C215.376 188.448 215.564 188.658 215.761 188.857C216.629 189.737 217.675 190.432 218.832 190.897Z" fill="#6881FC"/>
<path d="M218.832 190.897C217.688 191.169 216.51 191.416 215.291 191.648H77.8517C73.7935 191.68 69.7416 191.328 65.7531 190.596C65.0107 190.096 64.321 189.525 63.6946 188.892C63.4922 188.689 63.295 188.477 63.1078 188.265C62.4021 187.459 61.8008 186.572 61.3173 185.622C61.2111 185.415 61.11 185.203 61.0189 184.995C60.6436 184.149 60.3719 183.262 60.2096 182.353C60.1742 182.145 60.1388 181.938 60.1135 181.721C60.053 181.229 60.0226 180.734 60.0225 180.239V153.738C60.0175 153.456 60.0276 153.174 60.0528 152.893C60.0832 152.616 60.0883 152.473 60.1135 152.266C60.2266 151.363 60.4455 150.477 60.766 149.624C60.8469 149.411 60.9329 149.204 61.024 148.991C61.4344 148.051 61.9646 147.165 62.602 146.354L63.1078 145.722C63.4814 145.296 63.8817 144.894 64.3066 144.517C68.7601 143.579 73.306 143.124 77.8618 143.159H219.14L220.273 143.445C218.656 143.82 217.171 144.611 215.974 145.737C215.76 145.935 215.559 146.146 215.372 146.369C214.694 147.143 214.179 148.039 213.855 149.006C213.783 149.213 213.724 149.424 213.678 149.638C213.542 150.197 213.474 150.768 213.475 151.342V183.479C213.477 183.977 213.529 184.473 213.632 184.961C213.673 185.173 213.727 185.382 213.794 185.588C214.08 186.55 214.558 187.448 215.2 188.23C215.376 188.448 215.564 188.658 215.761 188.857C216.629 189.737 217.675 190.432 218.832 190.897Z" fill="url(#paint8_linear)"/>
<path d="M278.424 193.613C278.018 194.073 277.576 194.502 277.104 194.897C277.573 194.498 278.014 194.069 278.424 193.613Z" fill="url(#paint9_linear)"/>
<path d="M279.75 147.248C279.674 147.134 279.598 147.021 279.517 146.912C279.365 146.695 279.203 146.477 279.041 146.27C279.294 146.586 279.532 146.912 279.75 147.248Z" fill="url(#paint10_linear)"/>
<path d="M281.353 150.502C281.393 150.616 281.429 150.73 281.464 150.843C281.398 150.611 281.317 150.384 281.231 150.157C281.277 150.27 281.317 150.384 281.353 150.502Z" fill="url(#paint11_linear)"/>
<path d="M282.101 153.93V181.039C282.1 181.231 282.083 181.423 282.051 181.612C281.961 182.425 281.782 183.227 281.515 184.002C281.454 184.195 281.388 184.383 281.312 184.565C280.037 187.664 277.626 190.189 274.55 191.648H213.976C209.302 191.648 205.443 188.566 204.872 184.575C204.836 184.386 204.816 184.195 204.811 184.002C204.792 183.838 204.784 183.674 204.786 183.509V151.525C204.786 147.026 208.903 143.386 213.991 143.386H275.976C279.704 145.737 282.101 149.604 282.101 153.93Z" fill="#6881FC"/>
<path d="M279.517 146.354H215.372C215.559 146.131 215.76 145.92 215.974 145.722H278.986C279.178 145.92 279.355 146.131 279.517 146.354Z" fill="white"/>
<path d="M281.353 149.604H213.678C213.724 149.39 213.783 149.179 213.855 148.971H281.125C281.191 149.199 281.277 149.411 281.353 149.604Z" fill="white"/>
<path d="M282.076 152.893H213.475V152.261H282.021C282.021 152.468 282.061 152.681 282.076 152.893Z" fill="white"/>
<path d="M282.106 155.53H213.475V156.162H282.106V155.53Z" fill="white"/>
<path d="M282.106 158.8H213.475V159.432H282.106V158.8Z" fill="white"/>
<path d="M282.106 162.069H213.475V162.701H282.106V162.069Z" fill="white"/>
<path d="M282.106 165.344H213.475V165.971H282.106V165.344Z" fill="white"/>
<path d="M282.106 168.613H213.475V169.24H282.106V168.613Z" fill="white"/>
<path d="M282.106 171.883H213.475V172.51H282.106V171.883Z" fill="white"/>
<path d="M282.106 175.152H213.475V175.779H282.106V175.152Z" fill="white"/>
<path d="M282.106 178.421H213.475V179.054H282.106V178.421Z" fill="white"/>
<path d="M282.112 181.706V182.338H213.475V181.706H282.112Z" fill="white"/>
<path d="M281.105 184.96C281.105 185.173 280.827 185.38 280.807 185.593H213.794C213.728 185.385 213.673 185.174 213.632 184.96H281.105Z" fill="white"/>
<path d="M217.835 146.354H62.5919L63.0977 145.722H216.601C217.026 145.929 217.436 146.146 217.835 146.354Z" fill="white"/>
<path d="M216.439 149.604H60.756C60.8369 149.391 60.9229 149.184 61.0139 148.971H215.827C216.044 149.17 216.248 149.381 216.439 149.604Z" fill="white"/>
<path d="M218.159 152.893H60.0427C60.0477 152.683 60.068 152.473 60.1034 152.266H217.997C218.066 152.471 218.12 152.68 218.159 152.893Z" fill="white"/>
<path d="M218.23 155.53H60.0073V156.158H218.23V155.53Z" fill="white"/>
<path d="M218.23 158.8H60.0073V159.427H218.23V158.8Z" fill="white"/>
<path d="M218.23 162.069H60.0073V162.701H218.23V162.069Z" fill="white"/>
<path d="M218.23 165.344H60.0073V165.971H218.23V165.344Z" fill="white"/>
<path d="M218.23 168.618H60.0073V169.24H218.23V168.618Z" fill="white"/>
<path d="M218.23 171.883H60.0073V172.505H218.23V171.883Z" fill="white"/>
<path d="M218.23 175.152H60.0073V175.779H218.23V175.152Z" fill="white"/>
<path d="M218.23 178.421H60.0073V179.054H218.23V178.421Z" fill="white"/>
<path d="M217.997 181.706C217.931 181.921 217.851 182.132 217.759 182.338H60.1895C60.1541 182.131 60.1187 181.923 60.0934 181.706H217.997Z" fill="white"/>
<path d="M215.847 184.965C215.621 185.186 215.383 185.395 215.134 185.593H61.3072C61.201 185.385 61.0998 185.173 61.0088 184.965H215.847Z" fill="white"/>
<path opacity="0.2" d="M223.748 134.787C221.467 137.464 218.518 140.156 217.35 140.753C210.704 144.171 203.005 146.788 199.106 153.061C194.169 160.963 197.361 171.3 195.095 180.298C194.68 181.938 194.038 183.612 192.738 184.743C191.438 185.874 189.349 186.259 187.968 185.237C186.754 184.343 186.451 182.723 186.223 181.256C184.23 167.41 184.155 153.365 186.001 139.499C178.414 142.808 173.28 149.791 169.228 156.854C165.177 163.916 161.778 171.487 156.133 177.419C154.53 179.098 152.421 180.743 150.094 180.417C147.297 176.96 148.764 171.907 150.352 167.768C153.534 159.432 156.725 151.085 160.842 143.183C162.168 140.615 163.639 138.037 165.865 136.15C166.474 135.635 167.131 135.177 167.827 134.782L223.748 134.787Z" fill="#3F3D56"/>
<path d="M279.016 188.235C278.844 188.457 278.652 188.63 278.46 188.862H63.6845C63.4822 188.66 63.2849 188.447 63.0978 188.235H279.016Z" fill="white"/>
<path d="M110.152 268.164H84.1995C75.8792 266.12 71.848 257.334 71.848 257.334C71.848 257.334 71.0944 214.366 71.848 208.933C72.6016 203.501 85.206 199.599 85.206 199.599H110.152C101.831 200.765 95.7872 208.687 95.7872 208.687C95.7872 208.687 95.2814 256.173 95.7872 259.368C96.293 262.564 110.152 268.164 110.152 268.164Z" fill="url(#paint12_linear)"/>
<path d="M110.152 268.164H101.831C93.5212 266.12 89.49 257.334 89.49 257.334C89.49 257.334 88.7313 214.366 89.49 208.933C90.2487 203.501 102.843 199.599 102.843 199.599H110.152C101.831 200.765 95.7872 208.687 95.7872 208.687C95.7872 208.687 95.2814 256.173 95.7872 259.368C96.293 262.564 110.152 268.164 110.152 268.164Z" fill="#6881FC"/>
<path d="M110.152 268.164H101.831C93.5212 266.12 89.49 257.334 89.49 257.334C89.49 257.334 88.7313 214.366 89.49 208.933C90.2487 203.501 102.843 199.599 102.843 199.599H110.152C101.831 200.765 95.7872 208.687 95.7872 208.687C95.7872 208.687 95.2814 256.173 95.7872 259.368C96.293 262.564 110.152 268.164 110.152 268.164Z" fill="url(#paint13_linear)"/>
<path d="M146.296 165.803L143.878 169.902L149.492 172.288L151.814 168.386L146.296 165.803Z" fill="url(#paint14_linear)"/>
<path d="M184.043 176.812L183.78 181.38L189.9 181.034L190.158 176.812H184.043Z" fill="url(#paint15_linear)"/>
<path d="M144.981 168.993C144.859 168.744 144.687 168.52 144.475 168.336C144.227 168.174 143.942 168.073 143.645 168.04L133.929 166.134C133.578 166.049 133.218 166.011 132.857 166.02C131.926 166.079 131.162 166.746 130.55 167.433C130.2 167.757 129.975 168.19 129.913 168.657C129.949 168.951 130.046 169.234 130.199 169.489C130.352 169.744 130.558 169.966 130.803 170.139C131.486 170.757 132.204 171.338 132.953 171.878C134.393 172.863 135.891 173.765 137.439 174.579C138.481 175.152 139.523 175.725 140.59 176.248C142.345 177.108 144.166 177.829 145.997 178.53C146.118 178.603 146.264 178.627 146.402 178.595C146.541 178.564 146.661 178.48 146.736 178.362C148.06 177.014 149.105 175.427 149.811 173.69C149.988 173.26 150.317 172.317 149.811 171.961C149.634 171.838 149.133 171.858 148.911 171.808C148.097 171.618 147.33 171.271 146.655 170.789C145.979 170.306 145.408 169.698 144.976 168.998L144.981 168.993Z" fill="#3F3D56"/>
<path d="M184.402 179.305C184.167 179.152 183.905 179.043 183.628 178.984C183.331 178.969 183.033 179.02 182.758 179.133L173.381 182.259C173.026 182.355 172.685 182.498 172.369 182.684C171.596 183.178 171.277 184.165 171.1 185.039C170.963 185.491 170.994 185.975 171.186 186.407C171.366 186.641 171.594 186.836 171.855 186.98C172.116 187.124 172.405 187.213 172.703 187.242C173.61 187.445 174.529 187.593 175.455 187.687C177.206 187.835 178.964 187.879 180.72 187.82C181.919 187.82 183.113 187.79 184.306 187.716C186.269 187.598 188.216 187.326 190.153 187.035C190.294 187.04 190.431 186.991 190.535 186.899C190.639 186.807 190.702 186.678 190.71 186.541C191.159 184.724 191.246 182.839 190.968 180.99C190.897 180.53 190.679 179.562 190.067 179.508C189.85 179.483 189.43 179.75 189.212 179.814C188.882 179.913 188.544 179.982 188.201 180.022C186.889 180.179 185.56 179.928 184.402 179.305Z" fill="#3F3D56"/>
<path d="M222.367 117.699C222.367 117.699 220.779 132.214 207.077 134.787C197.801 136.521 186.456 135.903 180.103 135.326C178.601 135.19 177.089 135.463 175.736 136.114C174.383 136.765 173.24 137.769 172.435 139.015L152.709 169.695L146.994 166.998H146.948L144.925 166.05L161.348 128.609C162.313 126.284 163.794 124.197 165.685 122.499C167.577 120.801 169.83 119.535 172.283 118.79L191.155 113.086L195.565 111.753C195.565 111.753 213.233 110.014 222.367 117.699Z" fill="#3F3D56"/>
<path opacity="0.24" d="M191.19 113.057L192.429 115.62C192.429 115.62 170.68 121.843 168.01 124.87C164.444 128.92 147.014 166.973 147.014 166.973H146.968L144.945 166.025L161.348 128.609C162.313 126.284 163.794 124.197 165.685 122.499C167.577 120.802 169.83 119.535 172.283 118.791L191.19 113.057Z" fill="white"/>
<path d="M198.898 115.18C198.898 115.18 181.428 131.824 180.862 140.714C180.295 149.604 182.738 177.478 182.738 177.478H191.215C191.215 177.478 190.796 143.638 194.25 143.4C197.705 143.163 213.364 133.306 215.878 130.49C218.392 127.675 222.403 117.689 222.403 117.689L198.898 115.18Z" fill="#3F3D56"/>
<path d="M222.367 117.699C222.367 117.699 208.387 124.677 193.82 116.514C192.551 115.802 191.333 115.009 190.173 114.138C190.173 114.138 196.304 103.446 191.423 87.9131C189.334 81.2704 189.288 68.5875 199.632 66.7799H199.682C209.97 64.997 209.388 67.4763 209.388 67.4763L214.042 71.8916C222.989 78.9788 223.971 89.8441 222.367 117.699Z" fill="#6881FC"/>
<path opacity="0.24" d="M199.682 66.77C199.252 67.6845 198.584 68.473 197.745 69.0567C197.745 69.0567 191.595 71.7187 192.824 80.5246C194.053 89.3304 196.304 106.266 196.304 106.266L193.82 116.514C192.551 115.802 191.333 115.009 190.173 114.138C190.173 114.138 196.304 103.446 191.423 87.913C189.334 81.2703 189.288 68.5875 199.632 66.7799L199.682 66.77Z" fill="white"/>
<path d="M208.933 66.207C208.391 66.8398 207.726 67.362 206.977 67.7439C206.228 68.1258 205.41 68.3599 204.568 68.4329C203.726 68.5058 202.878 68.4161 202.072 68.1689C201.266 67.9217 200.517 67.5219 199.869 66.9923L199.647 66.8046C199.647 66.8046 192.06 74.2128 199.728 75.1068C203.774 75.6006 208.756 70.8199 210.198 68.1183L208.933 66.207Z" fill="#3F3D56"/>
<path d="M211.209 59.2681C211.179 59.3668 209.753 63.629 208.68 66.6763C207.885 69.0515 206.197 71.044 203.956 72.2522C202.642 73.0274 201.179 73.5317 199.657 73.7338C199.398 73.7569 199.136 73.7299 198.887 73.6543C198.639 73.5786 198.408 73.4559 198.208 73.2931C198.008 73.1303 197.842 72.9305 197.721 72.7053C197.6 72.4801 197.526 72.2338 197.502 71.9805C197.463 71.5757 197.557 71.1691 197.77 70.8199C198.124 70.2124 198.509 69.5111 198.863 68.7654C199.601 67.2146 200.218 65.491 200.117 64.1278V63.9797C200.026 63.2685 200.502 62.6413 201.301 62.0931C202.429 61.3275 204.204 60.725 205.939 60.2706C207.675 59.8402 209.435 59.5055 211.209 59.2681Z" fill="url(#paint16_linear)"/>
<path d="M199.966 68.7062C199.618 68.7752 199.263 68.8001 198.908 68.7802C199.647 67.2295 200.264 65.5058 200.163 64.1427L201.336 62.1079L202.211 60.5967L205.974 60.2855L209.778 59.9744C207.269 65.7676 203.056 68.1678 199.966 68.7062Z" fill="url(#paint17_linear)"/>
<path d="M207.031 39.7795C204.384 39.2387 201.625 39.7465 199.361 41.1913C197.097 42.636 195.514 44.8994 194.958 47.484C194.908 47.7359 194.862 47.9779 194.827 48.2495C194.049 52.241 194.016 56.3369 194.731 60.3397C196.465 66.5379 205.787 64.2907 207.679 62.409C209.571 60.5274 217.173 51.8548 215.928 48.4816C215.134 46.19 212.352 40.95 207.031 39.7795Z" fill="url(#paint18_linear)"/>
<path d="M199.52 33.7344L200.957 35.0234C199.97 34.7389 198.928 34.6876 197.916 34.874C196.905 35.0603 195.953 35.4789 195.14 36.0952C193.214 37.1747 191.796 38.9473 191.19 41.034L194.382 40.4759C194.382 40.4759 193.218 43.8293 198.509 45.5036C203.799 47.1778 209.399 48.9015 209.399 48.9015L208.266 45.9382C208.266 45.9382 211.235 48.1211 211.483 49.4842C211.473 51.5516 211.304 53.6153 210.977 55.6577C210.977 55.6577 213.243 52.6451 213.587 53.5242C213.931 54.4033 211.958 57.1542 211.058 57.6431C210.157 58.1321 209.732 60.1619 209.621 60.3101C209.51 60.4582 213.668 58.6111 214.077 57.7024C214.487 56.7937 220.526 48.1458 218.867 45.5579L220.228 45.8098C219.58 45.0829 218.775 44.5059 217.871 44.1207C217.871 44.1207 212.221 30.5785 199.52 33.7344Z" fill="#3F3D56"/>
<path d="M197.517 106.661C196.754 105.915 196 105.026 194.933 104.848C194.559 105.717 195.322 106.611 195.646 107.495C195.696 107.594 195.722 107.702 195.722 107.811C195.722 107.921 195.696 108.029 195.646 108.128C195.494 108.365 195.14 108.379 194.862 108.36C193.513 108.266 192.188 107.955 190.942 107.441C189.789 106.947 188.681 106.31 187.432 106.187C187.298 106.161 187.16 106.178 187.037 106.236C186.734 106.424 186.911 106.878 187.128 107.155C187.593 107.752 188.12 108.3 188.701 108.789C187.82 108.408 186.88 108.173 185.92 108.093C185.652 108.093 185.287 108.147 185.292 108.409C185.31 108.517 185.363 108.616 185.444 108.691C186.155 109.485 187.013 110.142 187.973 110.627C187.275 110.483 186.562 110.425 185.849 110.454C185.54 110.454 185.131 110.612 185.176 110.908C185.196 111.006 185.245 111.095 185.318 111.165C186.173 112.174 187.33 112.897 188.626 113.234L186.602 113.279C186.475 113.274 186.348 113.299 186.233 113.353C185.869 113.58 186.188 114.138 186.542 114.38C188.1 115.442 190.082 115.63 191.989 115.763C195.636 116.02 199.475 116.158 202.763 114.587C203 114.469 203.268 114.311 203.314 114.054C203.324 113.92 203.303 113.785 203.253 113.659C202.854 112.36 202.651 110.004 201.442 109.214C200.856 108.834 200.132 108.616 199.531 108.226C198.929 107.836 198.205 106.997 197.517 106.661Z" fill="url(#paint19_linear)"/>
<path d="M225.336 103.905C224.193 114.874 203.835 116.217 203.835 116.217L201.736 109.17L201.367 107.93C201.367 107.93 212.271 106.587 214.355 103.253C216.439 99.9194 207.861 88.7429 213.045 82.5101C218.23 76.2773 219.408 78.1936 219.408 78.1936C219.408 78.1936 226.469 92.9359 225.336 103.905Z" fill="#6881FC"/>
<path d="M170.65 87.5081C170.644 87.8519 170.615 88.1951 170.564 88.5353C170.392 90.0713 169.901 92.8815 168.596 93.9038C166.76 95.341 166.507 93.2469 166.548 92.4222C166.588 91.9693 166.664 91.5201 166.775 91.0788C167.2 89.291 169.451 88.0661 170.316 87.6612L170.65 87.5081Z" fill="url(#paint20_linear)"/>
<path d="M170.564 88.5353C170.392 90.0713 169.901 92.8815 168.596 93.9038C168.03 93.5038 167.301 92.9704 166.548 92.4222C165.536 91.6813 164.459 90.901 163.695 90.3577C163.015 89.9129 162.397 89.3851 161.854 88.7872C161.378 88.1803 160.984 87.5164 160.681 86.8117L159.113 83.4829C158.607 82.3915 158.101 80.9493 159.001 80.1048C159.229 79.8875 161.303 79.4924 161.439 79.2059C161.819 78.3861 159.416 76.6526 159.568 75.7488C159.643 75.5026 159.804 75.2899 160.023 75.1474C160.242 75.0049 160.505 74.9416 160.767 74.9684C161.272 74.9931 162.709 76.2822 163.159 76.5439C164.049 77.0378 163.301 77.7391 164.17 78.2527C165.299 78.8191 166.325 79.5633 167.205 80.4554C168.186 81.5766 168.682 83.0137 169.153 84.4065C169.496 85.4288 169.957 86.5351 170.311 87.6365C170.407 87.9525 170.493 88.2439 170.564 88.5353Z" fill="url(#paint21_linear)"/>
<path d="M163.124 80.6629L159.75 65.0415L158.501 59.2681L178.105 64.3995L183.795 101.771L165.577 96.3486L163.124 80.6629Z" fill="#6881FC"/>
<path d="M167.205 80.4752L159.446 63.6438L165.577 96.3485L183.795 101.771L181.843 88.9551L167.205 80.4752Z" fill="url(#paint22_linear)"/>
<path d="M164.241 87.3993C164.858 87.098 166.123 86.5498 166.442 85.9522C166.517 85.809 166.629 85.6213 166.533 85.4929C166.093 84.9003 164.282 85.6559 163.766 85.4929C164.12 84.925 167.276 83.2013 165.789 82.8112C165.47 82.7272 163.493 83.7051 163.174 83.6162C163.422 83.4186 165.455 82.0061 165.804 81.6407C165.905 81.5318 165.965 81.3927 165.974 81.2463C165.983 81.0998 165.941 80.9547 165.855 80.8346C165.768 80.7146 165.642 80.6269 165.498 80.5858C165.354 80.5447 165.2 80.5527 165.061 80.6085C163.984 81.0915 162.879 81.5136 161.753 81.8728C161.97 81.5221 164.909 79.8973 165.025 79.4824C165.091 79.3255 165.101 79.152 165.056 78.9885C165.015 78.9006 164.956 78.8221 164.881 78.7582C164.807 78.6944 164.72 78.6466 164.626 78.6181C163.806 78.307 162.886 78.6181 162.066 78.9392L160.124 79.6899C159.502 79.9269 158.814 80.2331 158.607 80.8455C158.516 81.1555 158.5 81.4819 158.561 81.7987C158.798 83.7983 159.529 85.7118 160.691 87.3746C161.267 88.1945 163.088 90.1749 164.135 90.3675C165.066 90.5404 163.371 87.8685 164.241 87.3993Z" fill="url(#paint23_linear)"/>
<path opacity="0.24" d="M184.524 138.027C184.524 138.027 191.21 123.067 198.939 118.81L196.304 117.768C196.304 117.768 182.733 131.858 181.13 139.109C179.526 146.359 182.743 177.468 182.743 177.468H184.969C184.969 177.468 181.292 141.079 184.524 138.027Z" fill="white"/>
<path opacity="0.24" d="M214.922 105.648C210.618 107.377 203.289 108.883 201.711 109.199L201.407 109.258L201.341 107.96C201.341 107.96 212.246 106.616 214.33 103.283C216.414 99.9488 207.836 88.7723 213.02 82.5396C213.02 82.5396 212.363 88.0512 214.067 92.1258C215.772 96.2003 219.757 103.673 214.922 105.648Z" fill="white"/>
</g>
<defs>
<filter id="filter0_b" x="-4" y="-4" width="417" height="309" filterUnits="userSpaceOnUse" color-interpolation-filters="sRGB">
<feFlood flood-opacity="0" result="BackgroundImageFix"/>
<feGaussianBlur in="BackgroundImage" stdDeviation="2"/>
<feComposite in2="SourceAlpha" operator="in" result="effect1_backgroundBlur"/>
<feBlend mode="normal" in="SourceGraphic" in2="effect1_backgroundBlur" result="shape"/>
</filter>
<linearGradient id="paint0_linear" x1="353.661" y1="51.1931" x2="384.039" y2="98.6032" gradientUnits="userSpaceOnUse">
<stop stop-color="white" stop-opacity="0"/>
<stop offset="0.99" stop-color="white"/>
</linearGradient>
<linearGradient id="paint1_linear" x1="78317.1" y1="32677.4" x2="78349.5" y2="22473.5" gradientUnits="userSpaceOnUse">
<stop stop-color="white" stop-opacity="0"/>
<stop offset="0.99" stop-color="white"/>
</linearGradient>
<linearGradient id="paint2_linear" x1="208.529" y1="106.868" x2="168.109" y2="206.441" gradientUnits="userSpaceOnUse">
<stop offset="0.17" stop-color="#00272E"/>
<stop offset="1" stop-color="#69B9EB" stop-opacity="0"/>
</linearGradient>
<linearGradient id="paint3_linear" x1="147.54" y1="245.535" x2="149.165" y2="303.523" gradientUnits="userSpaceOnUse">
<stop stop-opacity="0"/>
<stop offset="0.91" stop-opacity="0.8"/>
<stop offset="1"/>
</linearGradient>
<linearGradient id="paint4_linear" x1="51102.6" y1="4694.36" x2="51100.6" y2="5235.27" gradientUnits="userSpaceOnUse">
<stop stop-color="white" stop-opacity="0"/>
<stop offset="0.99" stop-color="white"/>
</linearGradient>
<linearGradient id="paint5_linear" x1="47128.1" y1="8605.74" x2="28782.5" y2="9616.45" gradientUnits="userSpaceOnUse">
<stop stop-opacity="0"/>
<stop offset="0.91" stop-opacity="0.8"/>
<stop offset="1"/>
</linearGradient>
<linearGradient id="paint6_linear" x1="44966.2" y1="36515.2" x2="46662.3" y2="13513.3" gradientUnits="userSpaceOnUse">
<stop stop-color="white" stop-opacity="0"/>
<stop offset="0.99" stop-color="white"/>
</linearGradient>
<linearGradient id="paint7_linear" x1="283.002" y1="170.253" x2="212.371" y2="164.293" gradientUnits="userSpaceOnUse">
<stop stop-color="#68E1FD"/>
<stop offset="1" stop-color="white"/>
</linearGradient>
<linearGradient id="paint8_linear" x1="68692.7" y1="24539.5" x2="9197.58" y2="24539.5" gradientUnits="userSpaceOnUse">
<stop stop-color="white" stop-opacity="0"/>
<stop offset="0.99" stop-color="white"/>
</linearGradient>
<linearGradient id="paint9_linear" x1="277.104" y1="194.255" x2="278.424" y2="194.255" gradientUnits="userSpaceOnUse">
<stop stop-color="#68E1FD"/>
<stop offset="1" stop-color="#69B9EB"/>
</linearGradient>
<linearGradient id="paint10_linear" x1="670.732" y1="597.368" x2="671.723" y2="597.368" gradientUnits="userSpaceOnUse">
<stop stop-color="#68E1FD"/>
<stop offset="1" stop-color="#69B9EB"/>
</linearGradient>
<linearGradient id="paint11_linear" x1="410.929" y1="472.026" x2="411.036" y2="472.026" gradientUnits="userSpaceOnUse">
<stop stop-color="#68E1FD"/>
<stop offset="1" stop-color="#69B9EB"/>
</linearGradient>
<linearGradient id="paint12_linear" x1="6514.52" y1="50674.6" x2="10473.8" y2="37060.3" gradientUnits="userSpaceOnUse">
<stop stop-color="white" stop-opacity="0"/>
<stop offset="0.99" stop-color="white"/>
</linearGradient>
<linearGradient id="paint13_linear" x1="4197.79" y1="43105.7" x2="5584.52" y2="327.411" gradientUnits="userSpaceOnUse">
<stop stop-color="white" stop-opacity="0"/>
<stop offset="0.99" stop-color="white"/>
</linearGradient>
<linearGradient id="paint14_linear" x1="152.689" y1="169.433" x2="141.019" y2="168.444" gradientUnits="userSpaceOnUse">
<stop stop-color="#ECC4D7"/>
<stop offset="0.42" stop-color="#EFD4D1"/>
<stop offset="1" stop-color="#F2EAC9"/>
</linearGradient>
<linearGradient id="paint15_linear" x1="4943.95" y1="-4138.31" x2="4808.76" y2="-4086.76" gradientUnits="userSpaceOnUse">
<stop stop-color="#ECC4D7"/>
<stop offset="0.42" stop-color="#EFD4D1"/>
<stop offset="1" stop-color="#F2EAC9"/>
</linearGradient>
<linearGradient id="paint16_linear" x1="5892.55" y1="-6576.4" x2="5668.57" y2="-6578.87" gradientUnits="userSpaceOnUse">
<stop stop-color="#ECC4D7"/>
<stop offset="0.42" stop-color="#EFD4D1"/>
<stop offset="1" stop-color="#F2EAC9"/>
</linearGradient>
<linearGradient id="paint17_linear" x1="4604.97" y1="-3970.52" x2="4156.69" y2="-3737.69" gradientUnits="userSpaceOnUse">
<stop stop-color="#ECC4D7"/>
<stop offset="0.42" stop-color="#EFD4D1"/>
<stop offset="1" stop-color="#F2EAC9"/>
</linearGradient>
<linearGradient id="paint18_linear" x1="9485.37" y1="-12244.2" x2="8676.96" y2="-12157.3" gradientUnits="userSpaceOnUse">
<stop stop-color="#ECC4D7"/>
<stop offset="0.42" stop-color="#EFD4D1"/>
<stop offset="1" stop-color="#F2EAC9"/>
</linearGradient>
<linearGradient id="paint19_linear" x1="6851.96" y1="4313.26" x2="7502.78" y2="4313.26" gradientUnits="userSpaceOnUse">
<stop stop-color="#ECC4D7"/>
<stop offset="0.42" stop-color="#EFD4D1"/>
<stop offset="1" stop-color="#F2EAC9"/>
</linearGradient>
<linearGradient id="paint20_linear" x1="166.543" y1="90.9504" x2="170.65" y2="90.9504" gradientUnits="userSpaceOnUse">
<stop stop-color="#183866"/>
<stop offset="1" stop-color="#1A7FC1"/>
</linearGradient>
<linearGradient id="paint21_linear" x1="3953.6" y1="6338.05" x2="4241.06" y2="6338.05" gradientUnits="userSpaceOnUse">
<stop stop-color="#ECC4D7"/>
<stop offset="0.42" stop-color="#EFD4D1"/>
<stop offset="1" stop-color="#F2EAC9"/>
</linearGradient>
<linearGradient id="paint22_linear" x1="8123.74" y1="11880.8" x2="10499.9" y2="15550.3" gradientUnits="userSpaceOnUse">
<stop stop-color="white" stop-opacity="0"/>
<stop offset="0.99" stop-color="white"/>
</linearGradient>
<linearGradient id="paint23_linear" x1="2690.31" y1="3977.4" x2="2818.71" y2="3977.4" gradientUnits="userSpaceOnUse">
<stop stop-color="#ECC4D7"/>
<stop offset="0.42" stop-color="#EFD4D1"/>
<stop offset="1" stop-color="#F2EAC9"/>
</linearGradient>
</defs>
</svg>
