<svg width="406" height="306" viewBox="0 0 406 306" fill="none" xmlns="http://www.w3.org/2000/svg">
<path opacity="0.3" d="M114.908 64.431C80.8956 75.4945 50.9633 104.635 49.3088 144.789C48.3852 167.118 53.247 224.405 124.013 239.285C237.601 263.178 339.761 255.099 361.208 197.589C380.31 146.372 350.043 78.2451 293.315 64.1874C253.334 54.2911 181.35 42.8115 114.908 64.431Z" fill="#E6E6E6"/>
<path d="M303.049 48.79H103.916V226.131H303.049V48.79Z" fill="#E6E6E6"/>
<path d="M119.679 69.1916C122.308 69.1916 124.439 67.0603 124.439 64.4313C124.439 61.8022 122.308 59.6709 119.679 59.6709C117.049 59.6709 114.918 61.8022 114.918 64.4313C114.918 67.0603 117.049 69.1916 119.679 69.1916Z" fill="#FFD200"/>
<path d="M133.087 69.1916C135.716 69.1916 137.847 67.0603 137.847 64.4313C137.847 61.8022 135.716 59.6709 133.087 59.6709C130.458 59.6709 128.326 61.8022 128.326 64.4313C128.326 67.0603 130.458 69.1916 133.087 69.1916Z" fill="#68E1FD"/>
<path d="M145.937 69.1916C148.566 69.1916 150.697 67.0603 150.697 64.4313C150.697 61.8022 148.566 59.6709 145.937 59.6709C143.308 59.6709 141.176 61.8022 141.176 64.4313C141.176 67.0603 143.308 69.1916 145.937 69.1916Z" fill="#24285B"/>
<path d="M240.788 58.9297H167.028V69.9323H240.788V58.9297Z" fill="white"/>
<path opacity="0.09" d="M202.087 97.3477C202.087 97.3477 223.087 117.648 212.348 136.659C212.003 137.268 211.648 137.846 211.272 138.425C206.197 146.22 198.27 151.681 189.957 155.477C186.686 156.967 183.314 158.229 179.868 159.253C177.128 160.075 173.646 160.369 171.748 162.744C171.056 163.681 170.489 164.705 170.063 165.789C168.743 168.543 167.869 171.49 167.475 174.518C167.231 177.37 168.064 180.172 168.206 183.034C168.632 191.773 165.394 200.411 160.472 207.658C157.422 212.041 153.91 216.084 149.997 219.716C148.068 221.543 146.089 223.39 144.008 225.055C142.496 226.253 141.704 226.141 139.857 226.07C134.569 226.07 129.281 226.07 123.992 226.07L142.567 177.228L158.594 145.763C158.594 145.763 187.257 144.657 196.21 133.015C205.162 121.373 202.087 97.3477 202.087 97.3477Z" fill="black"/>
<path d="M329.571 83.0869H238.271V208.48H329.571V83.0869Z" fill="#24285B"/>
<path d="M113.538 191.479C113.538 191.479 127.941 153.507 148.931 156.745C169.921 159.983 171.576 223.431 119.496 222.263L113.538 191.479Z" fill="#F4A28C"/>
<path opacity="0.1" d="M162.319 186.972C160.989 198.015 155.539 209.434 144.577 216.194C139.417 219.298 133.643 221.241 127.657 221.888C124.939 222.208 122.201 222.333 119.466 222.263L113.528 191.479C113.528 191.479 127.941 153.507 148.931 156.745C155.021 157.689 159.517 163.749 161.507 171.828C162.672 176.788 162.947 181.916 162.319 186.972Z" fill="black"/>
<path opacity="0.1" d="M162.319 186.972C157.102 193.062 147.814 196.594 146.221 206.003C145.652 209.363 145.084 212.905 144.577 216.153C139.417 219.257 133.643 221.2 127.656 221.848L130.702 202.055L160.37 170.752C160.76 171.089 161.129 171.448 161.476 171.828C162.651 176.787 162.936 181.914 162.319 186.972Z" fill="black"/>
<path d="M165.935 146.396L153.895 142.493L145.836 167.355L157.876 171.258L165.935 146.396Z" fill="#68E1FD"/>
<path d="M181.421 78.9049C174.329 76.6061 166.713 76.4621 159.539 78.4912C152.365 80.5203 145.953 84.6313 141.115 90.3044C136.277 95.9775 133.23 102.958 132.359 110.363C131.488 117.767 132.833 125.264 136.223 131.905C139.613 138.546 144.896 144.032 151.404 147.67C157.912 151.308 165.352 152.935 172.785 152.344C180.217 151.753 187.307 148.972 193.159 144.352C199.011 139.731 203.361 133.479 205.659 126.387C208.741 116.876 207.919 106.531 203.374 97.626C198.828 88.7216 190.932 81.9874 181.421 78.9049ZM161.05 141.733C155.714 140.007 151.01 136.737 147.532 132.338C144.055 127.938 141.959 122.606 141.512 117.016C141.064 111.426 142.283 105.829 145.016 100.931C147.749 96.0344 151.873 92.0575 156.866 89.5036C161.858 86.9497 167.496 85.9335 173.067 86.5835C178.637 87.2334 183.89 89.5203 188.16 93.155C192.431 96.7897 195.528 101.609 197.06 107.004C198.593 112.399 198.491 118.127 196.768 123.463C194.45 130.619 189.385 136.56 182.686 139.98C175.988 143.401 168.205 144.021 161.05 141.703V141.733Z" fill="#24285B"/>
<path d="M159.627 163.922L148.697 160.379C146.18 159.563 143.478 160.942 142.662 163.459L131.893 196.683C131.077 199.2 132.456 201.902 134.973 202.718L145.903 206.261C148.42 207.076 151.122 205.697 151.937 203.18L162.707 169.956C163.523 167.439 162.144 164.737 159.627 163.922Z" fill="#24285B"/>
<path d="M132.234 179.441C132.234 179.441 151.001 165.363 157.772 167.91C163.354 170.022 161.588 181.522 147.53 189.144C144.677 190.672 142.186 192.795 140.225 195.369C138.263 197.943 136.878 200.909 136.162 204.065C134.985 209.363 132.234 215.453 126.012 219.422C113.03 227.775 105.915 217.656 109.133 204.197C112.35 190.738 113.751 186.769 132.234 179.441Z" fill="#F4A28C"/>
<path d="M123.769 257.21L132.701 218.214L103.205 204.064L77.9622 257.21H123.769Z" fill="#68E1FD"/>
<path opacity="0.1" d="M123.769 257.21L132.701 218.214L118.623 211.454L105.479 257.21H123.769Z" fill="black"/>
<path opacity="0.43" d="M289.955 111.02H270.203V116.683H289.955V111.02Z" fill="#C1C1C1"/>
<path opacity="0.36" d="M257.039 122.601C261.198 122.601 264.57 119.229 264.57 115.069C264.57 110.91 261.198 107.538 257.039 107.538C252.879 107.538 249.507 110.91 249.507 115.069C249.507 119.229 252.879 122.601 257.039 122.601Z" fill="#C1C1C1"/>
<path d="M296.167 180.232H254.948V192.27H296.167V180.232Z" fill="#68E1FD"/>
<path d="M295.507 131.695H254.948V136.699H295.507V131.695Z" fill="#C1C1C1"/>
<path opacity="0.44" d="M318.335 144.789H254.948V149.793H318.335V144.789Z" fill="#C1C1C1"/>
<path opacity="0.44" d="M318.335 155.75H254.948V160.754H318.335V155.75Z" fill="#C1C1C1"/>
<path opacity="0.44" d="M304.703 167.139H254.948V172.143H304.703V167.139Z" fill="#C1C1C1"/>
<path d="M247.122 96.4949C249.011 96.4949 250.543 94.9635 250.543 93.0744C250.543 91.1852 249.011 89.6538 247.122 89.6538C245.233 89.6538 243.702 91.1852 243.702 93.0744C243.702 94.9635 245.233 96.4949 247.122 96.4949Z" fill="#FFD200"/>
<path d="M256.765 96.4949C258.654 96.4949 260.185 94.9635 260.185 93.0744C260.185 91.1852 258.654 89.6538 256.765 89.6538C254.875 89.6538 253.344 91.1852 253.344 93.0744C253.344 94.9635 254.875 96.4949 256.765 96.4949Z" fill="#68E1FD"/>
<path d="M266.001 96.4949C267.89 96.4949 269.422 94.9635 269.422 93.0744C269.422 91.1852 267.89 89.6538 266.001 89.6538C264.112 89.6538 262.581 91.1852 262.581 93.0744C262.581 94.9635 264.112 96.4949 266.001 96.4949Z" fill="white"/>
<path d="M170.104 138.526C165.394 138.534 160.788 137.145 156.868 134.534C152.948 131.923 149.891 128.208 148.084 123.859C146.277 119.51 145.8 114.722 146.715 110.102C147.629 105.482 149.894 101.237 153.222 97.905C156.55 94.5726 160.792 92.3025 165.411 91.3819C170.03 90.4614 174.818 90.9318 179.169 92.7337C183.521 94.5355 187.24 97.5878 189.856 101.504C192.472 105.421 193.867 110.025 193.865 114.735C193.857 121.037 191.352 127.079 186.898 131.538C182.445 135.997 176.406 138.51 170.104 138.526ZM170.104 97.3478C166.665 97.3478 163.303 98.3675 160.444 100.278C157.585 102.189 155.356 104.904 154.04 108.081C152.724 111.258 152.38 114.754 153.051 118.127C153.722 121.499 155.378 124.598 157.809 127.029C160.241 129.461 163.339 131.117 166.712 131.788C170.085 132.458 173.58 132.114 176.758 130.798C179.935 129.482 182.65 127.254 184.561 124.394C186.471 121.535 187.491 118.174 187.491 114.735C187.488 110.124 185.655 105.703 182.395 102.443C179.135 99.1832 174.714 97.3505 170.104 97.3478Z" fill="#C9C9C9"/>
<path d="M170.104 138.526C164.287 138.529 158.671 136.398 154.321 132.537L158.573 127.747C161.751 130.569 165.854 132.126 170.104 132.121V138.526Z" fill="#24285B"/>
<path d="M193.865 114.734H187.46C187.455 110.125 185.621 105.705 182.362 102.446C179.102 99.1864 174.683 97.3528 170.073 97.3474V90.9326C176.383 90.9407 182.431 93.4513 186.891 97.9135C191.352 102.376 193.86 108.425 193.865 114.734Z" fill="#68E1FD"/>
<path d="M170.104 138.526V132.121C174.713 132.113 179.13 130.279 182.389 127.02C185.648 123.761 187.483 119.343 187.491 114.734H193.865C193.857 121.037 191.352 127.079 186.898 131.538C182.445 135.997 176.406 138.51 170.104 138.526Z" fill="#FFD200"/>
<path opacity="0.08" d="M186.445 189.652H176.64V205.557H186.445V189.652Z" fill="black"/>
<path opacity="0.08" d="M202.98 172.569H193.175V205.567H202.98V172.569Z" fill="black"/>
<path opacity="0.08" d="M220.417 161.08H210.613V205.567H220.417V161.08Z" fill="black"/>
<path d="M279.125 54.8595C281.044 54.8312 282.95 55.1759 284.738 55.8745C286.259 56.4541 287.664 57.2995 288.889 58.3714C289.376 58.7876 289.823 59.2342 290.27 59.6808C290.523 59.9642 290.661 60.3329 290.655 60.7133C290.649 61.0936 290.5 61.4578 290.237 61.7331C289.975 62.0084 289.618 62.1747 289.239 62.1988C288.859 62.2229 288.484 62.103 288.189 61.863C287.732 61.457 287.326 61.0104 286.869 60.6146C284.916 58.9587 282.461 58.0091 279.901 57.9189C277.342 57.8286 274.827 58.603 272.761 60.1172C272.037 60.6563 271.358 61.2538 270.731 61.9036C270.461 62.2379 270.079 62.4618 269.655 62.5329C269.365 62.5743 269.069 62.5301 268.804 62.4057C268.539 62.2812 268.316 62.082 268.163 61.8326C267.988 61.5733 267.903 61.2631 267.923 60.9507C267.944 60.6383 268.067 60.3415 268.275 60.1071C269.138 59.1219 270.112 58.2398 271.178 57.4782C272.463 56.5726 273.89 55.8866 275.4 55.4482C276.608 55.0783 277.862 54.8801 279.125 54.8595Z" fill="#68E1FD"/>
<path d="M279.866 60.3408C281.066 60.3984 282.243 60.6952 283.327 61.2137C284.539 61.8082 285.611 62.6522 286.474 63.6903C286.727 63.9836 286.867 64.3583 286.867 64.7459C286.867 65.1336 286.727 65.5083 286.474 65.8015C286.245 66.0834 285.925 66.2763 285.569 66.3468C285.213 66.4172 284.843 66.3608 284.525 66.1872C284.132 65.9331 283.771 65.6332 283.449 65.294C282.796 64.6254 281.978 64.141 281.078 63.8897C280.178 63.6384 279.228 63.6292 278.323 63.8629C277.246 64.1472 276.276 64.7398 275.532 65.5681C275.23 65.9024 274.89 66.1989 274.517 66.4511C274.201 66.6293 273.833 66.6942 273.475 66.6351C273.117 66.5761 272.79 66.3966 272.548 66.1263C272.298 65.8539 272.148 65.5048 272.122 65.1361C272.096 64.7674 272.196 64.4009 272.406 64.0963C272.744 63.6863 273.111 63.2997 273.502 62.9392C274.001 62.4503 274.552 62.018 275.146 61.6502C276.127 61.0573 277.218 60.6705 278.354 60.5134C278.851 60.3916 279.358 60.3814 279.866 60.3408Z" fill="#68E1FD"/>
<path d="M282.028 69.2421C282.038 69.7639 281.893 70.2769 281.611 70.7163C281.33 71.1557 280.924 71.5017 280.446 71.7106C279.967 71.9196 279.438 71.982 278.924 71.89C278.411 71.798 277.936 71.5558 277.56 71.1939C277.183 70.832 276.923 70.3668 276.811 69.8569C276.7 69.3471 276.742 68.8156 276.932 68.3297C277.123 67.8437 277.453 67.4252 277.881 67.1269C278.309 66.8286 278.816 66.6639 279.338 66.6538C279.685 66.6444 280.031 66.7041 280.355 66.8296C280.679 66.955 280.975 67.1437 281.225 67.3846C281.475 67.6255 281.675 67.9137 281.813 68.2326C281.951 68.5515 282.024 68.8947 282.028 69.2421Z" fill="#68E1FD"/>
<g opacity="0.08">
<path opacity="0.08" d="M170.784 60.4829L171.799 64.4008C172.022 65.2636 172.235 66.0654 172.377 66.8571C172.56 66.0756 172.814 65.2534 173.068 64.4211L174.326 60.4829H175.595L176.793 64.3399C177.077 65.2636 177.3 66.0756 177.473 66.8571C177.62 66.014 177.816 65.1802 178.061 64.3602L179.158 60.4829H180.548L178.061 68.1969H176.783L175.595 64.5125C175.331 63.6599 175.108 62.8885 174.915 61.9851C174.726 62.846 174.493 63.6964 174.215 64.5328L172.966 68.1969H171.697L169.373 60.4829H170.784Z" fill="black"/>
<path opacity="0.08" d="M182.7 60.4829L183.715 64.4008C183.938 65.2636 184.141 66.0654 184.283 66.8571H184.334C184.507 66.0756 184.76 65.2534 185.014 64.4211L186.273 60.4829H187.45L188.648 64.3399C188.932 65.2636 189.155 66.0756 189.338 66.8571C189.49 66.015 189.687 65.1815 189.927 64.3602L191.033 60.4829H192.414L189.927 68.1969H188.658L187.481 64.5125C187.206 63.6827 186.976 62.8391 186.79 61.9851C186.607 62.8472 186.373 63.6979 186.09 64.5328L184.852 68.1969H183.573L181.249 60.4829H182.7Z" fill="black"/>
<path opacity="0.08" d="M194.626 60.4829L195.641 64.4008C195.864 65.2636 196.078 66.0654 196.22 66.8571C196.402 66.0756 196.656 65.2534 196.91 64.4211L198.169 60.4829H199.346L200.544 64.3399C200.828 65.2636 201.051 66.0756 201.224 66.8571H201.274C201.422 66.014 201.618 65.1802 201.863 64.3602L203 60.4829H204.39L201.904 68.1969H200.625L199.447 64.5125C199.184 63.6599 198.96 62.8885 198.767 61.9851C198.579 62.846 198.345 63.6964 198.067 64.5328L196.819 68.1969H195.55L193.215 60.4829H194.626Z" fill="black"/>
<path opacity="0.08" d="M204.837 67.3644C204.823 67.2315 204.838 67.0972 204.879 66.9702C204.92 66.8432 204.988 66.7264 205.078 66.6271C205.167 66.5279 205.276 66.4486 205.398 66.3943C205.52 66.3401 205.653 66.312 205.786 66.312C205.92 66.312 206.052 66.3401 206.174 66.3943C206.296 66.4486 206.405 66.5279 206.495 66.6271C206.584 66.7264 206.652 66.8432 206.693 66.9702C206.735 67.0972 206.749 67.2315 206.735 67.3644C206.749 67.4973 206.735 67.6315 206.693 67.7585C206.652 67.8855 206.584 68.0024 206.495 68.1016C206.405 68.2008 206.296 68.2801 206.174 68.3344C206.052 68.3887 205.92 68.4168 205.786 68.4168C205.653 68.4168 205.52 68.3887 205.398 68.3344C205.276 68.2801 205.167 68.2008 205.078 68.1016C204.988 68.0024 204.92 67.8855 204.879 67.7585C204.838 67.6315 204.823 67.4973 204.837 67.3644Z" fill="black"/>
</g>
</svg>
