<svg width="590" height="552" viewBox="0 0 590 552" fill="none" xmlns="http://www.w3.org/2000/svg">
<path fill-rule="evenodd" clip-rule="evenodd" d="M416.631 17.0052C441.113 20.3359 465.075 18.005 488.594 24.7982C522.048 34.4608 563.697 37.8295 581.114 64.5139C598.812 91.6269 586.704 126.429 573.955 155.573C561.679 183.636 543.453 213.809 511.181 224.388C480.289 234.515 449.272 211.418 416.631 207.146C390.897 203.778 365.185 209.739 340.695 202.077C308.542 192.016 270.462 183.379 255.367 156.688C239.948 129.423 251.964 96.3461 264.949 68.1363C277.275 41.3559 295.343 13.1247 326.24 2.70981C355.514 -7.15855 385.616 12.7855 416.631 17.0052Z" fill="#FDE17E"/>
<path fill-rule="evenodd" clip-rule="evenodd" d="M231.976 236.366C256.458 239.697 280.421 237.366 303.94 244.159C337.393 253.822 379.042 257.19 396.46 283.875C414.158 310.988 402.049 345.79 389.301 374.934C377.025 402.997 358.799 433.169 326.526 443.749C295.634 453.876 264.618 430.779 231.976 426.507C206.242 423.139 180.531 429.1 156.04 421.437C123.888 411.377 85.8074 402.74 70.7128 376.049C55.2942 348.784 67.3102 315.707 80.2945 287.497C92.6209 260.717 110.689 232.486 141.585 222.071C170.86 212.202 200.961 232.146 231.976 236.366Z" fill="#FF9B6F"/>
<path fill-rule="evenodd" clip-rule="evenodd" d="M322.816 157.371C347.298 160.702 371.26 158.371 394.779 165.164C428.233 174.827 469.882 178.196 487.3 204.88C504.997 231.993 492.889 266.795 480.14 295.939C467.864 324.003 449.639 354.175 417.366 364.754C386.474 374.881 355.457 351.784 322.816 347.512C297.082 344.145 271.37 350.106 246.88 342.443C214.727 332.382 176.647 323.745 161.552 297.054C146.134 269.789 158.15 236.712 171.134 208.503C183.46 181.722 201.529 153.491 232.425 143.076C261.7 133.208 291.801 153.152 322.816 157.371Z" fill="#593DCC"/>
<rect x="4" y="48.4443" width="392.768" height="218.314" fill="#060B18"/>
<rect x="150.995" y="229.415" width="156.905" height="10.0539" rx="5.02696" fill="#EA4A5A"/>
<rect x="150.995" y="213.616" width="51.2005" height="10.0539" rx="5.02696" fill="#34D058"/>
<rect x="150.995" y="184.891" width="24.7744" height="10.0539" rx="5.02696" fill="#959DA7"/>
<rect x="150.995" y="169.091" width="56.1554" height="10.0539" rx="5.02696" fill="#8A63D2"/>
<rect x="256.699" y="153.292" width="40.3464" height="10.0539" rx="5.02696" fill="#8A63D2"/>
<rect x="150.995" y="153.292" width="97.4461" height="10.0539" rx="5.02696" fill="#34D058"/>
<path d="M13.9098 82.915H127.872V255.268H13.9098V82.915Z" fill="#0F1527"/>
<rect x="33.7292" y="123.131" width="71.02" height="7.18137" rx="3.59069" fill="#006484"/>
<path d="M38.0149 125.789L38.4836 125.018H38.9055L38.2141 126.062L38.927 127.131H38.509L38.0208 126.34L37.5325 127.131H37.1125L37.8254 126.062L37.134 125.018H37.552L38.0149 125.789Z" fill="white"/>
<rect x="33.7292" y="113.077" width="71.02" height="7.18137" rx="3.59069" fill="#064097"/>
<path d="M38.0149 115.735L38.4836 114.963H38.9055L38.2141 116.008L38.927 117.077H38.509L38.0208 116.286L37.5325 117.077H37.1125L37.8254 116.008L37.134 114.963H37.552L38.0149 115.735Z" fill="white"/>
<rect x="33.7292" y="103.023" width="71.02" height="7.18137" rx="3.59069" fill="#006484"/>
<path d="M38.0149 105.681L38.4836 104.91H38.9055L38.2141 105.955L38.927 107.023H38.509L38.0208 106.232L37.5325 107.023H37.1125L37.8254 105.955L37.134 104.91H37.552L38.0149 105.681Z" fill="white"/>
<rect x="22.1678" y="87.2236" width="94.1428" height="10.0539" rx="5.02696" fill="#064097"/>
<path d="M45.012 91.5098H44.344V92.6602H43.967V89.8164H44.9084C45.2288 89.8164 45.4749 89.8893 45.6467 90.0352C45.8199 90.181 45.9065 90.3932 45.9065 90.6719C45.9065 90.849 45.8583 91.0033 45.762 91.1348C45.6669 91.2663 45.5341 91.3646 45.3635 91.4297L46.0315 92.6367V92.6602H45.6292L45.012 91.5098ZM44.344 91.2031H44.9202C45.1064 91.2031 45.2542 91.1549 45.3635 91.0586C45.4742 90.9622 45.5295 90.8333 45.5295 90.6719C45.5295 90.4961 45.4768 90.3613 45.3713 90.2676C45.2672 90.1738 45.1161 90.1263 44.9182 90.125H44.344V91.2031ZM47.2542 92.6992C46.9677 92.6992 46.7346 92.6055 46.5549 92.418C46.3752 92.2292 46.2854 91.9772 46.2854 91.6621V91.5957C46.2854 91.3861 46.3251 91.1992 46.4045 91.0352C46.4853 90.8698 46.5972 90.7409 46.7405 90.6484C46.885 90.5547 47.0413 90.5078 47.2092 90.5078C47.484 90.5078 47.6975 90.5983 47.8499 90.7793C48.0022 90.9603 48.0784 91.2194 48.0784 91.5566V91.707H46.6467C46.6519 91.9154 46.7125 92.084 46.8284 92.2129C46.9456 92.3405 47.094 92.4043 47.2737 92.4043C47.4013 92.4043 47.5094 92.3783 47.5979 92.3262C47.6864 92.2741 47.7639 92.2051 47.8303 92.1191L48.051 92.291C47.8739 92.5632 47.6083 92.6992 47.2542 92.6992ZM47.2092 90.8047C47.0634 90.8047 46.941 90.8581 46.842 90.9648C46.7431 91.0703 46.6819 91.2188 46.6584 91.4102H47.717V91.3828C47.7066 91.1992 47.6571 91.0573 47.5686 90.957C47.4801 90.8555 47.3603 90.8047 47.2092 90.8047ZM49.803 92.6602C49.7821 92.6185 49.7652 92.5443 49.7522 92.4375C49.5842 92.612 49.3837 92.6992 49.1506 92.6992C48.9423 92.6992 48.7711 92.6406 48.637 92.5234C48.5042 92.4049 48.4377 92.2552 48.4377 92.0742C48.4377 91.8542 48.5211 91.6836 48.6877 91.5625C48.8557 91.4401 49.0914 91.3789 49.3948 91.3789H49.7463V91.2129C49.7463 91.0866 49.7086 90.9863 49.6331 90.9121C49.5575 90.8366 49.4462 90.7988 49.2991 90.7988C49.1702 90.7988 49.0621 90.8314 48.9749 90.8965C48.8876 90.9616 48.844 91.0404 48.844 91.1328H48.4807C48.4807 91.0273 48.5178 90.9258 48.592 90.8281C48.6676 90.7292 48.7691 90.651 48.8967 90.5938C49.0256 90.5365 49.1669 90.5078 49.3206 90.5078C49.564 90.5078 49.7548 90.569 49.8928 90.6914C50.0308 90.8125 50.1025 90.9798 50.1077 91.1934V92.166C50.1077 92.36 50.1324 92.5143 50.1819 92.6289V92.6602H49.803ZM49.2034 92.3848C49.3167 92.3848 49.4241 92.3555 49.5256 92.2969C49.6272 92.2383 49.7008 92.1621 49.7463 92.0684V91.6348H49.4631C49.0204 91.6348 48.7991 91.7643 48.7991 92.0234C48.7991 92.1367 48.8368 92.2253 48.9124 92.2891C48.9879 92.3529 49.0849 92.3848 49.2034 92.3848ZM51.5217 92.4043C51.6506 92.4043 51.7633 92.3652 51.8596 92.2871C51.956 92.209 52.0094 92.1113 52.0198 91.9941H52.3616C52.3551 92.1152 52.3134 92.2305 52.2366 92.3398C52.1597 92.4492 52.0569 92.5365 51.928 92.6016C51.8004 92.6667 51.665 92.6992 51.5217 92.6992C51.234 92.6992 51.0048 92.6035 50.8342 92.4121C50.665 92.2194 50.5803 91.9564 50.5803 91.623V91.5625C50.5803 91.3568 50.6181 91.1738 50.6936 91.0137C50.7691 90.8535 50.8772 90.7292 51.0178 90.6406C51.1597 90.5521 51.3271 90.5078 51.5198 90.5078C51.7568 90.5078 51.9534 90.5788 52.1096 90.7207C52.2672 90.8626 52.3512 91.0469 52.3616 91.2734H52.0198C52.0094 91.1367 51.9573 91.0247 51.8635 90.9375C51.7711 90.849 51.6565 90.8047 51.5198 90.8047C51.3362 90.8047 51.1936 90.8711 51.092 91.0039C50.9918 91.1354 50.9417 91.3262 50.9417 91.5762V91.6445C50.9417 91.888 50.9918 92.0755 51.092 92.207C51.1923 92.3385 51.3355 92.4043 51.5217 92.4043ZM53.2581 90.0352V90.5469H53.6526V90.8262H53.2581V92.1367C53.2581 92.2214 53.2756 92.2852 53.3108 92.3281C53.3459 92.3698 53.4058 92.3906 53.4905 92.3906C53.5321 92.3906 53.5894 92.3828 53.6624 92.3672V92.6602C53.5673 92.6862 53.4749 92.6992 53.385 92.6992C53.2236 92.6992 53.1018 92.6504 53.0198 92.5527C52.9377 92.4551 52.8967 92.3164 52.8967 92.1367V90.8262H52.512V90.5469H52.8967V90.0352H53.2581ZM57.3108 92.6602H56.9338L55.5022 90.4688V92.6602H55.1252V89.8164H55.5022L56.9377 92.0176V89.8164H57.3108V92.6602ZM59.2249 92.6602C59.204 92.6185 59.1871 92.5443 59.1741 92.4375C59.0061 92.612 58.8056 92.6992 58.5725 92.6992C58.3642 92.6992 58.193 92.6406 58.0588 92.5234C57.926 92.4049 57.8596 92.2552 57.8596 92.0742C57.8596 91.8542 57.943 91.6836 58.1096 91.5625C58.2776 91.4401 58.5133 91.3789 58.8167 91.3789H59.1682V91.2129C59.1682 91.0866 59.1305 90.9863 59.0549 90.9121C58.9794 90.8366 58.8681 90.7988 58.7209 90.7988C58.592 90.7988 58.484 90.8314 58.3967 90.8965C58.3095 90.9616 58.2659 91.0404 58.2659 91.1328H57.9026C57.9026 91.0273 57.9397 90.9258 58.0139 90.8281C58.0894 90.7292 58.191 90.651 58.3186 90.5938C58.4475 90.5365 58.5888 90.5078 58.7424 90.5078C58.9859 90.5078 59.1767 90.569 59.3147 90.6914C59.4527 90.8125 59.5243 90.9798 59.5295 91.1934V92.166C59.5295 92.36 59.5543 92.5143 59.6038 92.6289V92.6602H59.2249ZM58.6252 92.3848C58.7385 92.3848 58.8459 92.3555 58.9475 92.2969C59.0491 92.2383 59.1226 92.1621 59.1682 92.0684V91.6348H58.885C58.4423 91.6348 58.2209 91.7643 58.2209 92.0234C58.2209 92.1367 58.2587 92.2253 58.3342 92.2891C58.4097 92.3529 58.5068 92.3848 58.6252 92.3848ZM60.5862 90.0352V90.5469H60.9807V90.8262H60.5862V92.1367C60.5862 92.2214 60.6038 92.2852 60.6389 92.3281C60.6741 92.3698 60.734 92.3906 60.8186 92.3906C60.8603 92.3906 60.9176 92.3828 60.9905 92.3672V92.6602C60.8954 92.6862 60.803 92.6992 60.7131 92.6992C60.5517 92.6992 60.4299 92.6504 60.3479 92.5527C60.2659 92.4551 60.2249 92.3164 60.2249 92.1367V90.8262H59.8401V90.5469H60.2249V90.0352H60.5862ZM61.7971 92.6602H61.4358V90.5469H61.7971V92.6602ZM61.4065 89.9863C61.4065 89.9277 61.4241 89.8783 61.4592 89.8379C61.4957 89.7975 61.5491 89.7773 61.6194 89.7773C61.6897 89.7773 61.7431 89.7975 61.7795 89.8379C61.816 89.8783 61.8342 89.9277 61.8342 89.9863C61.8342 90.0449 61.816 90.0938 61.7795 90.1328C61.7431 90.1719 61.6897 90.1914 61.6194 90.1914C61.5491 90.1914 61.4957 90.1719 61.4592 90.1328C61.4241 90.0938 61.4065 90.0449 61.4065 89.9863ZM63.0745 92.1699L63.5979 90.5469H63.967L63.2092 92.6602H62.9338L62.1682 90.5469H62.5374L63.0745 92.1699ZM65.1643 92.6992C64.8778 92.6992 64.6448 92.6055 64.4651 92.418C64.2854 92.2292 64.1956 91.9772 64.1956 91.6621V91.5957C64.1956 91.3861 64.2353 91.1992 64.3147 91.0352C64.3954 90.8698 64.5074 90.7409 64.6506 90.6484C64.7952 90.5547 64.9514 90.5078 65.1194 90.5078C65.3941 90.5078 65.6077 90.5983 65.76 90.7793C65.9124 90.9603 65.9885 91.2194 65.9885 91.5566V91.707H64.5569C64.5621 91.9154 64.6226 92.084 64.7385 92.2129C64.8557 92.3405 65.0042 92.4043 65.1838 92.4043C65.3114 92.4043 65.4195 92.3783 65.5081 92.3262C65.5966 92.2741 65.6741 92.2051 65.7405 92.1191L65.9612 92.291C65.7841 92.5632 65.5185 92.6992 65.1643 92.6992ZM65.1194 90.8047C64.9736 90.8047 64.8512 90.8581 64.7522 90.9648C64.6532 91.0703 64.592 91.2188 64.5686 91.4102H65.6272V91.3828C65.6168 91.1992 65.5673 91.0573 65.4788 90.957C65.3902 90.8555 65.2704 90.8047 65.1194 90.8047ZM69.0276 91.918H67.8362L67.5686 92.6602H67.1819L68.2678 89.8164H68.5959L69.6838 92.6602H69.2991L69.0276 91.918ZM67.9495 91.6094H68.9163L68.4319 90.2793L67.9495 91.6094ZM70.4417 91.5469V92.6602H70.0667V89.8164H71.1155C71.4267 89.8164 71.6702 89.8958 71.8459 90.0547C72.023 90.2135 72.1116 90.4238 72.1116 90.6855C72.1116 90.9616 72.025 91.1745 71.8518 91.3242C71.6799 91.4727 71.4332 91.5469 71.1116 91.5469H70.4417ZM70.4417 91.2402H71.1155C71.316 91.2402 71.4696 91.1934 71.5764 91.0996C71.6832 91.0046 71.7366 90.8678 71.7366 90.6895C71.7366 90.5202 71.6832 90.3848 71.5764 90.2832C71.4696 90.1816 71.3232 90.1289 71.137 90.125H70.4417V91.2402ZM72.9651 91.5469V92.6602H72.5901V89.8164H73.6389C73.9501 89.8164 74.1936 89.8958 74.3694 90.0547C74.5465 90.2135 74.635 90.4238 74.635 90.6855C74.635 90.9616 74.5484 91.1745 74.3752 91.3242C74.2034 91.4727 73.9566 91.5469 73.635 91.5469H72.9651ZM72.9651 91.2402H73.6389C73.8394 91.2402 73.9931 91.1934 74.0999 91.0996C74.2066 91.0046 74.26 90.8678 74.26 90.6895C74.26 90.5202 74.2066 90.3848 74.0999 90.2832C73.9931 90.1816 73.8466 90.1289 73.6604 90.125H72.9651V91.2402Z" fill="white"/>
<rect x="150.995" y="137.493" width="40.3464" height="10.0539" rx="5.02696" fill="#EA4A5A"/>
<rect x="212.105" y="105.896" width="40.3464" height="10.0539" rx="5.02696" fill="#EA4A5A"/>
<rect x="256.699" y="105.896" width="40.3464" height="10.0539" rx="5.02696" fill="#8A63D2"/>
<rect x="150.995" y="90.0962" width="143.692" height="10.0539" rx="5.02696" fill="#959DA7"/>
<rect x="150.995" y="121.694" width="85.8847" height="10.0539" rx="5.02696" fill="#8A63D2"/>
<rect x="150.995" y="105.896" width="56.1554" height="10.0539" rx="5.02696" fill="#34D058"/>
<g filter="url(#filter0_d)">
<rect width="393.088" height="30.1618" transform="translate(4 48.4443)" fill="#060B18"/>
<ellipse cx="12.8262" cy="63.5256" rx="3.82622" ry="3.91577" fill="#EA4A5A"/>
<ellipse cx="24.4787" cy="63.5256" rx="3.82622" ry="3.91577" fill="#FFEA7F"/>
<ellipse cx="36.131" cy="63.5256" rx="3.82622" ry="3.91577" fill="#34D058"/>
<path d="M51.2463 63.3809L54.303 64.6162V65.5732L50.3088 63.7227V63.0098L54.303 61.1641V62.1211L51.2463 63.3809Z" fill="white"/>
<path d="M61.8391 63.3516L58.6116 62.0869V61.1592L62.7815 63.0049V63.7178L58.6116 65.5684V64.6309L61.8391 63.3516Z" fill="white"/>
<g filter="url(#filter1_i)">
<rect x="92.8851" y="58.0254" width="123" height="11" rx="3" fill="#060B18"/>
<path d="M96.6786 62.7036C96.8788 62.4578 97.1392 62.335 97.4598 62.335C98.0181 62.335 98.2997 62.6499 98.3046 63.2798V65.0254H97.8529V63.2773C97.8513 63.0869 97.8073 62.9461 97.7211 62.855C97.6364 62.7638 97.5038 62.7183 97.3231 62.7183C97.1766 62.7183 97.0481 62.7573 96.9374 62.8354C96.8267 62.9136 96.7404 63.0161 96.6786 63.1431V65.0254H96.2269V61.2754H96.6786V62.7036ZM99.5936 61.7441V62.3838H100.087V62.7329H99.5936V64.3711C99.5936 64.4769 99.6156 64.5566 99.6595 64.6104C99.7035 64.6624 99.7784 64.6885 99.8842 64.6885C99.9362 64.6885 100.008 64.6787 100.099 64.6592V65.0254C99.9802 65.0579 99.8646 65.0742 99.7523 65.0742C99.5505 65.0742 99.3983 65.0132 99.2958 64.8911C99.1932 64.769 99.142 64.5957 99.142 64.3711V62.7329H98.661V62.3838H99.142V61.7441H99.5936ZM101.229 61.7441V62.3838H101.723V62.7329H101.229V64.3711C101.229 64.4769 101.251 64.5566 101.295 64.6104C101.339 64.6624 101.414 64.6885 101.52 64.6885C101.572 64.6885 101.644 64.6787 101.735 64.6592V65.0254C101.616 65.0579 101.5 65.0742 101.388 65.0742C101.186 65.0742 101.034 65.0132 100.932 64.8911C100.829 64.769 100.778 64.5957 100.778 64.3711V62.7329H100.297V62.3838H100.778V61.7441H101.229ZM104.484 63.7339C104.484 64.1359 104.392 64.4598 104.208 64.7056C104.024 64.9513 103.775 65.0742 103.461 65.0742C103.14 65.0742 102.888 64.9725 102.704 64.769V66.041H102.252V62.3838H102.665L102.687 62.6768C102.871 62.4489 103.126 62.335 103.453 62.335C103.771 62.335 104.022 62.4546 104.205 62.6938C104.391 62.9331 104.484 63.266 104.484 63.6924V63.7339ZM104.032 63.6826C104.032 63.3848 103.969 63.1496 103.842 62.9771C103.715 62.8045 103.541 62.7183 103.319 62.7183C103.046 62.7183 102.841 62.8395 102.704 63.082V64.3442C102.839 64.5851 103.046 64.7056 103.324 64.7056C103.541 64.7056 103.712 64.6201 103.839 64.4492C103.968 64.2767 104.032 64.0212 104.032 63.6826ZM106.598 64.3247C106.598 64.2026 106.552 64.1082 106.459 64.0415C106.368 63.9731 106.207 63.9146 105.978 63.8657C105.75 63.8169 105.569 63.7583 105.433 63.6899C105.3 63.6216 105.201 63.5402 105.136 63.4458C105.072 63.3514 105.04 63.2391 105.04 63.1089C105.04 62.8924 105.132 62.7093 105.314 62.5596C105.498 62.4098 105.732 62.335 106.017 62.335C106.316 62.335 106.559 62.4123 106.745 62.5669C106.932 62.7215 107.025 62.9193 107.025 63.1602H106.571C106.571 63.0365 106.518 62.9299 106.412 62.8403C106.308 62.7508 106.176 62.7061 106.017 62.7061C105.853 62.7061 105.724 62.7419 105.631 62.8135C105.538 62.8851 105.492 62.9787 105.492 63.0942C105.492 63.2033 105.535 63.2855 105.621 63.3408C105.708 63.3962 105.863 63.4491 106.088 63.4995C106.314 63.55 106.497 63.6102 106.637 63.6802C106.777 63.7502 106.88 63.8348 106.947 63.9341C107.016 64.0317 107.05 64.1514 107.05 64.293C107.05 64.529 106.955 64.7186 106.766 64.8618C106.578 65.0034 106.333 65.0742 106.032 65.0742C105.82 65.0742 105.633 65.0368 105.47 64.9619C105.307 64.887 105.18 64.7829 105.087 64.6494C104.996 64.5143 104.95 64.3687 104.95 64.2124H105.402C105.41 64.3638 105.47 64.4842 105.582 64.5737C105.696 64.6616 105.846 64.7056 106.032 64.7056C106.203 64.7056 106.339 64.6714 106.442 64.603C106.546 64.533 106.598 64.4403 106.598 64.3247ZM107.623 64.7886C107.623 64.7104 107.646 64.6453 107.692 64.5933C107.739 64.5412 107.809 64.5151 107.902 64.5151C107.995 64.5151 108.064 64.5412 108.112 64.5933C108.161 64.6453 108.185 64.7104 108.185 64.7886C108.185 64.8634 108.161 64.9261 108.112 64.9766C108.064 65.027 107.995 65.0522 107.902 65.0522C107.809 65.0522 107.739 65.027 107.692 64.9766C107.646 64.9261 107.623 64.8634 107.623 64.7886ZM107.626 62.6328C107.626 62.5547 107.649 62.4896 107.694 62.4375C107.741 62.3854 107.811 62.3594 107.904 62.3594C107.997 62.3594 108.067 62.3854 108.114 62.4375C108.163 62.4896 108.187 62.5547 108.187 62.6328C108.187 62.7077 108.163 62.7703 108.114 62.8208C108.067 62.8713 107.997 62.8965 107.904 62.8965C107.811 62.8965 107.741 62.8713 107.694 62.8208C107.649 62.7703 107.626 62.7077 107.626 62.6328ZM108.939 65.3306H108.551L110.036 61.4707H110.421L108.939 65.3306ZM110.453 65.3306H110.065L111.549 61.4707H111.935L110.453 65.3306ZM112.316 63.6826C112.316 63.2708 112.411 62.9437 112.601 62.7012C112.792 62.457 113.044 62.335 113.358 62.335C113.681 62.335 113.932 62.4489 114.113 62.6768L114.135 62.3838H114.547V64.9619C114.547 65.3037 114.446 65.5731 114.242 65.77C114.04 65.967 113.768 66.0654 113.427 66.0654C113.236 66.0654 113.05 66.0247 112.868 65.9434C112.685 65.862 112.546 65.7505 112.45 65.6089L112.684 65.3379C112.878 65.5771 113.115 65.6968 113.395 65.6968C113.615 65.6968 113.786 65.6349 113.908 65.5112C114.031 65.3875 114.093 65.2134 114.093 64.9888V64.7617C113.912 64.9701 113.666 65.0742 113.353 65.0742C113.044 65.0742 112.793 64.9497 112.601 64.7007C112.411 64.4517 112.316 64.1123 112.316 63.6826ZM112.77 63.7339C112.77 64.0317 112.831 64.2661 112.953 64.437C113.075 64.6063 113.246 64.6909 113.466 64.6909C113.751 64.6909 113.96 64.5615 114.093 64.3027V63.0967C113.955 62.8444 113.747 62.7183 113.471 62.7183C113.251 62.7183 113.079 62.8037 112.955 62.9746C112.832 63.1455 112.77 63.3986 112.77 63.7339ZM116.327 65.0742C115.969 65.0742 115.678 64.957 115.453 64.7227C115.228 64.4867 115.116 64.1717 115.116 63.7778V63.6948C115.116 63.4328 115.166 63.1992 115.265 62.9941C115.366 62.7874 115.506 62.6263 115.685 62.5107C115.866 62.3936 116.061 62.335 116.271 62.335C116.614 62.335 116.881 62.4481 117.072 62.6743C117.262 62.9006 117.357 63.2244 117.357 63.646V63.834H115.568C115.574 64.0944 115.65 64.3052 115.795 64.4663C115.941 64.6258 116.127 64.7056 116.351 64.7056C116.511 64.7056 116.646 64.673 116.757 64.6079C116.867 64.5428 116.964 64.4565 117.047 64.3491L117.323 64.564C117.102 64.9041 116.77 65.0742 116.327 65.0742ZM116.271 62.7061C116.089 62.7061 115.936 62.7728 115.812 62.9062C115.688 63.0381 115.612 63.2236 115.582 63.4629H116.906V63.4287C116.893 63.1992 116.831 63.0218 116.72 62.8965C116.609 62.7695 116.46 62.7061 116.271 62.7061ZM118.495 61.7441V62.3838H118.988V62.7329H118.495V64.3711C118.495 64.4769 118.517 64.5566 118.561 64.6104C118.605 64.6624 118.68 64.6885 118.786 64.6885C118.838 64.6885 118.909 64.6787 119 64.6592V65.0254C118.882 65.0579 118.766 65.0742 118.654 65.0742C118.452 65.0742 118.3 65.0132 118.197 64.8911C118.095 64.769 118.043 64.5957 118.043 64.3711V62.7329H117.562V62.3838H118.043V61.7441H118.495ZM120.578 64.7056C120.739 64.7056 120.879 64.6567 121 64.5591C121.12 64.4614 121.187 64.3394 121.2 64.1929H121.627C121.619 64.3442 121.567 64.4883 121.471 64.625C121.375 64.7617 121.246 64.8708 121.085 64.9521C120.926 65.0335 120.757 65.0742 120.578 65.0742C120.218 65.0742 119.931 64.9546 119.718 64.7153C119.507 64.4744 119.401 64.1457 119.401 63.729V63.6533C119.401 63.3962 119.448 63.1675 119.542 62.9673C119.637 62.7671 119.772 62.6117 119.948 62.501C120.125 62.3903 120.334 62.335 120.575 62.335C120.871 62.335 121.117 62.4237 121.312 62.6011C121.509 62.7785 121.614 63.0088 121.627 63.292H121.2C121.187 63.1211 121.122 62.9811 121.005 62.8721C120.889 62.7614 120.746 62.7061 120.575 62.7061C120.346 62.7061 120.167 62.7891 120.04 62.9551C119.915 63.1195 119.852 63.3579 119.852 63.6704V63.7559C119.852 64.0602 119.915 64.2946 120.04 64.459C120.166 64.6234 120.345 64.7056 120.578 64.7056ZM122.016 63.6802C122.016 63.4214 122.066 63.1886 122.167 62.9819C122.269 62.7752 122.411 62.6157 122.592 62.5034C122.774 62.3911 122.981 62.335 123.214 62.335C123.574 62.335 123.864 62.4595 124.086 62.7085C124.309 62.9575 124.42 63.2887 124.42 63.7021V63.7339C124.42 63.991 124.371 64.2222 124.271 64.4272C124.174 64.6307 124.033 64.7894 123.849 64.9033C123.667 65.0173 123.457 65.0742 123.219 65.0742C122.861 65.0742 122.571 64.9497 122.348 64.7007C122.126 64.4517 122.016 64.1221 122.016 63.7119V63.6802ZM122.47 63.7339C122.47 64.0269 122.537 64.262 122.672 64.4395C122.809 64.6169 122.991 64.7056 123.219 64.7056C123.449 64.7056 123.631 64.616 123.766 64.437C123.901 64.2563 123.969 64.0041 123.969 63.6802C123.969 63.3905 123.899 63.1561 123.761 62.9771C123.624 62.7964 123.442 62.7061 123.214 62.7061C122.991 62.7061 122.811 62.7948 122.675 62.9722C122.538 63.1496 122.47 63.4035 122.47 63.7339ZM124.877 63.6826C124.877 63.2773 124.973 62.9518 125.165 62.7061C125.357 62.4587 125.608 62.335 125.919 62.335C126.229 62.335 126.474 62.4408 126.654 62.6523V61.2754H127.106V65.0254H126.691L126.669 64.7422C126.488 64.9635 126.237 65.0742 125.914 65.0742C125.608 65.0742 125.359 64.9489 125.165 64.6982C124.973 64.4476 124.877 64.1204 124.877 63.7168V63.6826ZM125.328 63.7339C125.328 64.0334 125.39 64.2677 125.514 64.437C125.638 64.6063 125.809 64.6909 126.027 64.6909C126.313 64.6909 126.522 64.5623 126.654 64.3052V63.0918C126.519 62.8428 126.312 62.7183 126.032 62.7183C125.81 62.7183 125.638 62.8037 125.514 62.9746C125.39 63.1455 125.328 63.3986 125.328 63.7339ZM128.905 65.0742C128.547 65.0742 128.256 64.957 128.031 64.7227C127.807 64.4867 127.694 64.1717 127.694 63.7778V63.6948C127.694 63.4328 127.744 63.1992 127.843 62.9941C127.944 62.7874 128.084 62.6263 128.263 62.5107C128.444 62.3936 128.639 62.335 128.849 62.335C129.192 62.335 129.459 62.4481 129.65 62.6743C129.84 62.9006 129.935 63.2244 129.935 63.646V63.834H128.146C128.152 64.0944 128.228 64.3052 128.373 64.4663C128.519 64.6258 128.705 64.7056 128.93 64.7056C129.089 64.7056 129.224 64.673 129.335 64.6079C129.446 64.5428 129.542 64.4565 129.625 64.3491L129.901 64.564C129.68 64.9041 129.348 65.0742 128.905 65.0742ZM128.849 62.7061C128.667 62.7061 128.514 62.7728 128.39 62.9062C128.266 63.0381 128.19 63.2236 128.161 63.4629H129.484V63.4287C129.471 63.1992 129.409 63.0218 129.298 62.8965C129.188 62.7695 129.038 62.7061 128.849 62.7061ZM130.47 64.7886C130.47 64.7104 130.493 64.6453 130.538 64.5933C130.586 64.5412 130.656 64.5151 130.748 64.5151C130.841 64.5151 130.911 64.5412 130.958 64.5933C131.007 64.6453 131.032 64.7104 131.032 64.7886C131.032 64.8634 131.007 64.9261 130.958 64.9766C130.911 65.027 130.841 65.0522 130.748 65.0522C130.656 65.0522 130.586 65.027 130.538 64.9766C130.493 64.9261 130.47 64.8634 130.47 64.7886ZM132.838 64.7056C132.999 64.7056 133.14 64.6567 133.261 64.5591C133.381 64.4614 133.448 64.3394 133.461 64.1929H133.888C133.88 64.3442 133.828 64.4883 133.732 64.625C133.636 64.7617 133.507 64.8708 133.346 64.9521C133.187 65.0335 133.017 65.0742 132.838 65.0742C132.479 65.0742 132.192 64.9546 131.979 64.7153C131.767 64.4744 131.661 64.1457 131.661 63.729V63.6533C131.661 63.3962 131.709 63.1675 131.803 62.9673C131.898 62.7671 132.033 62.6117 132.208 62.501C132.386 62.3903 132.595 62.335 132.836 62.335C133.132 62.335 133.378 62.4237 133.573 62.6011C133.77 62.7785 133.875 63.0088 133.888 63.292H133.461C133.448 63.1211 133.383 62.9811 133.266 62.8721C133.15 62.7614 133.007 62.7061 132.836 62.7061C132.606 62.7061 132.428 62.7891 132.301 62.9551C132.176 63.1195 132.113 63.3579 132.113 63.6704V63.7559C132.113 64.0602 132.176 64.2946 132.301 64.459C132.426 64.6234 132.606 64.7056 132.838 64.7056ZM134.276 63.6802C134.276 63.4214 134.327 63.1886 134.428 62.9819C134.53 62.7752 134.672 62.6157 134.852 62.5034C135.035 62.3911 135.242 62.335 135.475 62.335C135.835 62.335 136.125 62.4595 136.347 62.7085C136.57 62.9575 136.681 63.2887 136.681 63.7021V63.7339C136.681 63.991 136.631 64.2222 136.532 64.4272C136.434 64.6307 136.294 64.7894 136.11 64.9033C135.927 65.0173 135.717 65.0742 135.48 65.0742C135.122 65.0742 134.831 64.9497 134.608 64.7007C134.387 64.4517 134.276 64.1221 134.276 63.7119V63.6802ZM134.73 63.7339C134.73 64.0269 134.798 64.262 134.933 64.4395C135.07 64.6169 135.252 64.7056 135.48 64.7056C135.709 64.7056 135.892 64.616 136.027 64.437C136.162 64.2563 136.229 64.0041 136.229 63.6802C136.229 63.3905 136.16 63.1561 136.022 62.9771C135.885 62.7964 135.703 62.7061 135.475 62.7061C135.252 62.7061 135.072 62.7948 134.935 62.9722C134.799 63.1496 134.73 63.4035 134.73 63.7339ZM137.672 62.3838L137.684 62.6768C137.878 62.4489 138.139 62.335 138.468 62.335C138.838 62.335 139.089 62.4766 139.223 62.7598C139.31 62.6328 139.424 62.5303 139.564 62.4521C139.706 62.374 139.873 62.335 140.065 62.335C140.644 62.335 140.939 62.6418 140.949 63.2554V65.0254H140.497V63.2822C140.497 63.0934 140.454 62.9526 140.368 62.8599C140.281 62.7655 140.136 62.7183 139.933 62.7183C139.765 62.7183 139.626 62.7687 139.516 62.8696C139.405 62.9689 139.341 63.1032 139.323 63.2725V65.0254H138.869V63.2944C138.869 62.9103 138.681 62.7183 138.305 62.7183C138.008 62.7183 137.806 62.8444 137.697 63.0967V65.0254H137.245V62.3838H137.672Z" fill="#EBEBEB"/>
</g>
</g>
<path d="M451.401 345.854L441 332.927H461.329L451.401 345.854Z" fill="#0099FF" stroke="#0099FF"/>
<rect x="111" y="332.879" width="392.768" height="218.314" fill="#060B18"/>
<rect x="257.995" y="513.85" width="156.905" height="10.0539" rx="5.02696" fill="#EA4A5A"/>
<rect x="257.995" y="498.05" width="51.2005" height="10.0539" rx="5.02696" fill="#34D058"/>
<rect x="257.995" y="469.325" width="24.7744" height="10.0539" rx="5.02696" fill="#959DA7"/>
<rect x="257.995" y="453.526" width="56.1554" height="10.0539" rx="5.02696" fill="#8A63D2"/>
<rect x="363.699" y="437.727" width="40.3464" height="10.0539" rx="5.02696" fill="#8A63D2"/>
<rect x="257.995" y="437.727" width="97.4461" height="10.0539" rx="5.02696" fill="#34D058"/>
<path d="M120.91 367.35H234.872V539.703H120.91V367.35Z" fill="#0F1527"/>
<rect x="142.381" y="404.693" width="71.02" height="7.18137" rx="3.59069" fill="#006484"/>
<path d="M146.667 407.351L147.135 406.58H147.557L146.866 407.625L147.579 408.693H147.161L146.672 407.902L146.184 408.693H145.764L146.477 407.625L145.786 406.58H146.204L146.667 407.351Z" fill="white"/>
<rect x="142.381" y="394.639" width="71.02" height="7.18137" rx="3.59069" fill="#064097"/>
<path d="M146.667 397.297L147.135 396.525H147.557L146.866 397.57L147.579 398.639H147.161L146.672 397.848L146.184 398.639H145.764L146.477 397.57L145.786 396.525H146.204L146.667 397.297Z" fill="white"/>
<rect x="142.381" y="384.585" width="71.02" height="7.18137" rx="3.59069" fill="#006484"/>
<path d="M146.667 387.243L147.135 386.472H147.557L146.866 387.517L147.579 388.585H147.161L146.672 387.794L146.184 388.585H145.764L146.477 387.517L145.786 386.472H146.204L146.667 387.243Z" fill="white"/>
<rect x="130.82" y="371.658" width="94.1428" height="10.0539" rx="5.02696" fill="#064097"/>
<path d="M153.664 375.944H152.996V377.094H152.619V374.25H153.56C153.881 374.25 154.127 374.323 154.299 374.469C154.472 374.615 154.558 374.827 154.558 375.106C154.558 375.283 154.51 375.437 154.414 375.569C154.319 375.7 154.186 375.799 154.015 375.864L154.683 377.071V377.094H154.281L153.664 375.944ZM152.996 375.637H153.572C153.758 375.637 153.906 375.589 154.015 375.493C154.126 375.396 154.181 375.267 154.181 375.106C154.181 374.93 154.129 374.795 154.023 374.702C153.919 374.608 153.768 374.56 153.57 374.559H152.996V375.637ZM155.906 377.133C155.62 377.133 155.386 377.04 155.207 376.852C155.027 376.663 154.937 376.411 154.937 376.096V376.03C154.937 375.82 154.977 375.633 155.056 375.469C155.137 375.304 155.249 375.175 155.392 375.083C155.537 374.989 155.693 374.942 155.861 374.942C156.136 374.942 156.349 375.032 156.502 375.213C156.654 375.394 156.73 375.653 156.73 375.991V376.141H155.299C155.304 376.349 155.364 376.518 155.48 376.647C155.597 376.775 155.746 376.838 155.926 376.838C156.053 376.838 156.161 376.812 156.25 376.76C156.338 376.708 156.416 376.639 156.482 376.553L156.703 376.725C156.526 376.997 156.26 377.133 155.906 377.133ZM155.861 375.239C155.715 375.239 155.593 375.292 155.494 375.399C155.395 375.504 155.334 375.653 155.31 375.844H156.369V375.817C156.358 375.633 156.309 375.491 156.22 375.391C156.132 375.29 156.012 375.239 155.861 375.239ZM158.455 377.094C158.434 377.053 158.417 376.978 158.404 376.872C158.236 377.046 158.036 377.133 157.802 377.133C157.594 377.133 157.423 377.075 157.289 376.958C157.156 376.839 157.09 376.689 157.09 376.508C157.09 376.288 157.173 376.118 157.34 375.997C157.508 375.874 157.743 375.813 158.047 375.813H158.398V375.647C158.398 375.521 158.36 375.42 158.285 375.346C158.209 375.271 158.098 375.233 157.951 375.233C157.822 375.233 157.714 375.265 157.627 375.331C157.539 375.396 157.496 375.474 157.496 375.567H157.133C157.133 375.461 157.17 375.36 157.244 375.262C157.319 375.163 157.421 375.085 157.549 375.028C157.677 374.971 157.819 374.942 157.972 374.942C158.216 374.942 158.407 375.003 158.545 375.125C158.683 375.247 158.754 375.414 158.76 375.627V376.6C158.76 376.794 158.784 376.948 158.834 377.063V377.094H158.455ZM157.855 376.819C157.969 376.819 158.076 376.79 158.177 376.731C158.279 376.672 158.353 376.596 158.398 376.502V376.069H158.115C157.672 376.069 157.451 376.198 157.451 376.458C157.451 376.571 157.489 376.659 157.564 376.723C157.64 376.787 157.737 376.819 157.855 376.819ZM160.174 376.838C160.302 376.838 160.415 376.799 160.511 376.721C160.608 376.643 160.661 376.545 160.672 376.428H161.013C161.007 376.549 160.965 376.665 160.888 376.774C160.812 376.883 160.709 376.971 160.58 377.036C160.452 377.101 160.317 377.133 160.174 377.133C159.886 377.133 159.657 377.038 159.486 376.846C159.317 376.653 159.232 376.39 159.232 376.057V375.997C159.232 375.791 159.27 375.608 159.345 375.448C159.421 375.288 159.529 375.163 159.67 375.075C159.812 374.986 159.979 374.942 160.172 374.942C160.409 374.942 160.605 375.013 160.761 375.155C160.919 375.297 161.003 375.481 161.013 375.708H160.672C160.661 375.571 160.609 375.459 160.515 375.372C160.423 375.283 160.308 375.239 160.172 375.239C159.988 375.239 159.845 375.305 159.744 375.438C159.644 375.569 159.594 375.76 159.594 376.01V376.079C159.594 376.322 159.644 376.51 159.744 376.641C159.844 376.773 159.987 376.838 160.174 376.838ZM161.91 374.469V374.981H162.304V375.26H161.91V376.571C161.91 376.655 161.927 376.719 161.963 376.762C161.998 376.804 162.058 376.825 162.142 376.825C162.184 376.825 162.241 376.817 162.314 376.801V377.094C162.219 377.12 162.127 377.133 162.037 377.133C161.875 377.133 161.754 377.084 161.672 376.987C161.59 376.889 161.549 376.75 161.549 376.571V375.26H161.164V374.981H161.549V374.469H161.91ZM165.963 377.094H165.586L164.154 374.903V377.094H163.777V374.25H164.154L165.59 376.452V374.25H165.963V377.094ZM167.877 377.094C167.856 377.053 167.839 376.978 167.826 376.872C167.658 377.046 167.457 377.133 167.224 377.133C167.016 377.133 166.845 377.075 166.711 376.958C166.578 376.839 166.511 376.689 166.511 376.508C166.511 376.288 166.595 376.118 166.761 375.997C166.929 375.874 167.165 375.813 167.469 375.813H167.82V375.647C167.82 375.521 167.782 375.42 167.707 375.346C167.631 375.271 167.52 375.233 167.373 375.233C167.244 375.233 167.136 375.265 167.049 375.331C166.961 375.396 166.918 375.474 166.918 375.567H166.554C166.554 375.461 166.592 375.36 166.666 375.262C166.741 375.163 166.843 375.085 166.97 375.028C167.099 374.971 167.241 374.942 167.394 374.942C167.638 374.942 167.829 375.003 167.967 375.125C168.105 375.247 168.176 375.414 168.181 375.627V376.6C168.181 376.794 168.206 376.948 168.256 377.063V377.094H167.877ZM167.277 376.819C167.39 376.819 167.498 376.79 167.599 376.731C167.701 376.672 167.774 376.596 167.82 376.502V376.069H167.537C167.094 376.069 166.873 376.198 166.873 376.458C166.873 376.571 166.911 376.659 166.986 376.723C167.062 376.787 167.159 376.819 167.277 376.819ZM169.238 374.469V374.981H169.633V375.26H169.238V376.571C169.238 376.655 169.256 376.719 169.291 376.762C169.326 376.804 169.386 376.825 169.47 376.825C169.512 376.825 169.569 376.817 169.642 376.801V377.094C169.547 377.12 169.455 377.133 169.365 377.133C169.204 377.133 169.082 377.084 169 376.987C168.918 376.889 168.877 376.75 168.877 376.571V375.26H168.492V374.981H168.877V374.469H169.238ZM170.449 377.094H170.088V374.981H170.449V377.094ZM170.058 374.42C170.058 374.362 170.076 374.312 170.111 374.272C170.148 374.232 170.201 374.211 170.271 374.211C170.342 374.211 170.395 374.232 170.431 374.272C170.468 374.312 170.486 374.362 170.486 374.42C170.486 374.479 170.468 374.528 170.431 374.567C170.395 374.606 170.342 374.625 170.271 374.625C170.201 374.625 170.148 374.606 170.111 374.567C170.076 374.528 170.058 374.479 170.058 374.42ZM171.726 376.604L172.25 374.981H172.619L171.861 377.094H171.586L170.82 374.981H171.189L171.726 376.604ZM173.816 377.133C173.53 377.133 173.297 377.04 173.117 376.852C172.937 376.663 172.847 376.411 172.847 376.096V376.03C172.847 375.82 172.887 375.633 172.967 375.469C173.047 375.304 173.159 375.175 173.302 375.083C173.447 374.989 173.603 374.942 173.771 374.942C174.046 374.942 174.26 375.032 174.412 375.213C174.564 375.394 174.64 375.653 174.64 375.991V376.141H173.209C173.214 376.349 173.274 376.518 173.39 376.647C173.508 376.775 173.656 376.838 173.836 376.838C173.963 376.838 174.071 376.812 174.16 376.76C174.248 376.708 174.326 376.639 174.392 376.553L174.613 376.725C174.436 376.997 174.17 377.133 173.816 377.133ZM173.771 375.239C173.625 375.239 173.503 375.292 173.404 375.399C173.305 375.504 173.244 375.653 173.22 375.844H174.279V375.817C174.269 375.633 174.219 375.491 174.131 375.391C174.042 375.29 173.922 375.239 173.771 375.239ZM177.679 376.352H176.488L176.22 377.094H175.834L176.92 374.25H177.248L178.336 377.094H177.951L177.679 376.352ZM176.601 376.043H177.568L177.084 374.713L176.601 376.043ZM179.094 375.981V377.094H178.719V374.25H179.767C180.079 374.25 180.322 374.33 180.498 374.489C180.675 374.648 180.763 374.858 180.763 375.12C180.763 375.396 180.677 375.609 180.504 375.758C180.332 375.907 180.085 375.981 179.763 375.981H179.094ZM179.094 375.674H179.767C179.968 375.674 180.122 375.627 180.228 375.534C180.335 375.439 180.388 375.302 180.388 375.124C180.388 374.954 180.335 374.819 180.228 374.717C180.122 374.616 179.975 374.563 179.789 374.559H179.094V375.674ZM181.617 375.981V377.094H181.242V374.25H182.291C182.602 374.25 182.845 374.33 183.021 374.489C183.198 374.648 183.287 374.858 183.287 375.12C183.287 375.396 183.2 375.609 183.027 375.758C182.855 375.907 182.608 375.981 182.287 375.981H181.617ZM181.617 375.674H182.291C182.491 375.674 182.645 375.627 182.752 375.534C182.858 375.439 182.912 375.302 182.912 375.124C182.912 374.954 182.858 374.819 182.752 374.717C182.645 374.616 182.498 374.563 182.312 374.559H181.617V375.674Z" fill="white"/>
<rect x="257.995" y="421.928" width="40.3464" height="10.0539" rx="5.02696" fill="#EA4A5A"/>
<rect x="319.105" y="390.33" width="40.3464" height="10.0539" rx="5.02696" fill="#EA4A5A"/>
<rect x="363.699" y="390.33" width="40.3464" height="10.0539" rx="5.02696" fill="#8A63D2"/>
<rect x="257.995" y="374.531" width="143.692" height="10.0539" rx="5.02696" fill="#959DA7"/>
<rect x="257.995" y="406.129" width="85.8847" height="10.0539" rx="5.02696" fill="#8A63D2"/>
<rect x="257.995" y="390.33" width="56.1554" height="10.0539" rx="5.02696" fill="#34D058"/>
<g filter="url(#filter2_d)">
<rect width="393.088" height="30.1618" transform="translate(111 332.879)" fill="#060B18"/>
<ellipse cx="119.826" cy="347.96" rx="3.82622" ry="3.91577" fill="#EA4A5A"/>
<ellipse cx="131.479" cy="347.96" rx="3.82622" ry="3.91577" fill="#FFEA7F"/>
<ellipse cx="143.131" cy="347.96" rx="3.82622" ry="3.91577" fill="#34D058"/>
<path d="M158.246 347.815L161.303 349.051V350.008L157.309 348.157V347.444L161.303 345.599V346.556L158.246 347.815Z" fill="white"/>
<path d="M168.839 347.786L165.612 346.521V345.594L169.781 347.439V348.152L165.612 350.003V349.065L168.839 347.786Z" fill="white"/>
<g filter="url(#filter3_i)">
<rect x="199.885" y="342.46" width="123" height="11" rx="3" fill="#060B18"/>
<path d="M203.679 347.138C203.879 346.892 204.139 346.77 204.46 346.77C205.018 346.77 205.3 347.084 205.305 347.714V349.46H204.853V347.712C204.851 347.521 204.807 347.381 204.721 347.29C204.636 347.198 204.504 347.153 204.323 347.153C204.177 347.153 204.048 347.192 203.937 347.27C203.827 347.348 203.74 347.451 203.679 347.578V349.46H203.227V345.71H203.679V347.138ZM206.594 346.179V346.818H207.087V347.167H206.594V348.806C206.594 348.911 206.616 348.991 206.66 349.045C206.703 349.097 206.778 349.123 206.884 349.123C206.936 349.123 207.008 349.113 207.099 349.094V349.46C206.98 349.493 206.865 349.509 206.752 349.509C206.55 349.509 206.398 349.448 206.296 349.326C206.193 349.204 206.142 349.03 206.142 348.806V347.167H205.661V346.818H206.142V346.179H206.594ZM208.229 346.179V346.818H208.723V347.167H208.229V348.806C208.229 348.911 208.251 348.991 208.295 349.045C208.339 349.097 208.414 349.123 208.52 349.123C208.572 349.123 208.644 349.113 208.735 349.094V349.46C208.616 349.493 208.5 349.509 208.388 349.509C208.186 349.509 208.034 349.448 207.932 349.326C207.829 349.204 207.778 349.03 207.778 348.806V347.167H207.297V346.818H207.778V346.179H208.229ZM211.484 348.168C211.484 348.57 211.392 348.894 211.208 349.14C211.024 349.386 210.775 349.509 210.461 349.509C210.14 349.509 209.888 349.407 209.704 349.204V350.476H209.252V346.818H209.665L209.687 347.111C209.871 346.883 210.126 346.77 210.453 346.77C210.771 346.77 211.022 346.889 211.205 347.128C211.391 347.368 211.484 347.701 211.484 348.127V348.168ZM211.032 348.117C211.032 347.819 210.969 347.584 210.842 347.412C210.715 347.239 210.541 347.153 210.319 347.153C210.046 347.153 209.841 347.274 209.704 347.517V348.779C209.839 349.02 210.046 349.14 210.324 349.14C210.541 349.14 210.712 349.055 210.839 348.884C210.968 348.711 211.032 348.456 211.032 348.117ZM213.598 348.759C213.598 348.637 213.552 348.543 213.459 348.476C213.368 348.408 213.207 348.349 212.978 348.3C212.75 348.251 212.569 348.193 212.433 348.125C212.3 348.056 212.201 347.975 212.136 347.88C212.072 347.786 212.04 347.674 212.04 347.543C212.04 347.327 212.132 347.144 212.314 346.994C212.498 346.844 212.732 346.77 213.017 346.77C213.316 346.77 213.559 346.847 213.745 347.001C213.932 347.156 214.025 347.354 214.025 347.595H213.571C213.571 347.471 213.518 347.364 213.412 347.275C213.308 347.185 213.176 347.141 213.017 347.141C212.853 347.141 212.724 347.176 212.631 347.248C212.538 347.32 212.492 347.413 212.492 347.529C212.492 347.638 212.535 347.72 212.621 347.775C212.708 347.831 212.863 347.884 213.088 347.934C213.314 347.985 213.497 348.045 213.637 348.115C213.777 348.185 213.88 348.269 213.947 348.369C214.016 348.466 214.05 348.586 214.05 348.728C214.05 348.964 213.955 349.153 213.766 349.296C213.578 349.438 213.333 349.509 213.032 349.509C212.82 349.509 212.633 349.471 212.47 349.396C212.307 349.322 212.18 349.217 212.087 349.084C211.996 348.949 211.95 348.803 211.95 348.647H212.402C212.41 348.798 212.47 348.919 212.582 349.008C212.696 349.096 212.846 349.14 213.032 349.14C213.203 349.14 213.339 349.106 213.442 349.038C213.546 348.968 213.598 348.875 213.598 348.759ZM214.623 349.223C214.623 349.145 214.646 349.08 214.692 349.028C214.739 348.976 214.809 348.95 214.902 348.95C214.995 348.95 215.064 348.976 215.112 349.028C215.161 349.08 215.185 349.145 215.185 349.223C215.185 349.298 215.161 349.361 215.112 349.411C215.064 349.462 214.995 349.487 214.902 349.487C214.809 349.487 214.739 349.462 214.692 349.411C214.646 349.361 214.623 349.298 214.623 349.223ZM214.626 347.067C214.626 346.989 214.649 346.924 214.694 346.872C214.741 346.82 214.811 346.794 214.904 346.794C214.997 346.794 215.067 346.82 215.114 346.872C215.163 346.924 215.187 346.989 215.187 347.067C215.187 347.142 215.163 347.205 215.114 347.255C215.067 347.306 214.997 347.331 214.904 347.331C214.811 347.331 214.741 347.306 214.694 347.255C214.649 347.205 214.626 347.142 214.626 347.067ZM215.939 349.765H215.551L217.036 345.905H217.421L215.939 349.765ZM217.453 349.765H217.065L218.549 345.905H218.935L217.453 349.765ZM219.316 348.117C219.316 347.705 219.411 347.378 219.601 347.136C219.792 346.892 220.044 346.77 220.358 346.77C220.681 346.77 220.932 346.883 221.113 347.111L221.135 346.818H221.547V349.396C221.547 349.738 221.446 350.008 221.242 350.205C221.04 350.402 220.768 350.5 220.427 350.5C220.236 350.5 220.05 350.459 219.868 350.378C219.685 350.297 219.546 350.185 219.45 350.043L219.684 349.772C219.878 350.012 220.115 350.131 220.395 350.131C220.615 350.131 220.786 350.069 220.908 349.946C221.031 349.822 221.093 349.648 221.093 349.423V349.196C220.912 349.405 220.666 349.509 220.353 349.509C220.044 349.509 219.793 349.384 219.601 349.135C219.411 348.886 219.316 348.547 219.316 348.117ZM219.77 348.168C219.77 348.466 219.831 348.701 219.953 348.872C220.075 349.041 220.246 349.125 220.466 349.125C220.751 349.125 220.96 348.996 221.093 348.737V347.531C220.955 347.279 220.747 347.153 220.471 347.153C220.251 347.153 220.079 347.238 219.955 347.409C219.832 347.58 219.77 347.833 219.77 348.168ZM223.327 349.509C222.969 349.509 222.678 349.392 222.453 349.157C222.228 348.921 222.116 348.606 222.116 348.212V348.129C222.116 347.867 222.166 347.634 222.265 347.429C222.366 347.222 222.506 347.061 222.685 346.945C222.866 346.828 223.061 346.77 223.271 346.77C223.614 346.77 223.881 346.883 224.072 347.109C224.262 347.335 224.357 347.659 224.357 348.081V348.269H222.568C222.574 348.529 222.65 348.74 222.795 348.901C222.941 349.06 223.127 349.14 223.351 349.14C223.511 349.14 223.646 349.108 223.757 349.042C223.867 348.977 223.964 348.891 224.047 348.784L224.323 348.999C224.102 349.339 223.77 349.509 223.327 349.509ZM223.271 347.141C223.089 347.141 222.936 347.207 222.812 347.341C222.688 347.473 222.612 347.658 222.582 347.897H223.906V347.863C223.893 347.634 223.831 347.456 223.72 347.331C223.609 347.204 223.46 347.141 223.271 347.141ZM225.495 346.179V346.818H225.988V347.167H225.495V348.806C225.495 348.911 225.517 348.991 225.561 349.045C225.605 349.097 225.68 349.123 225.786 349.123C225.838 349.123 225.909 349.113 226 349.094V349.46C225.882 349.493 225.766 349.509 225.654 349.509C225.452 349.509 225.3 349.448 225.197 349.326C225.095 349.204 225.043 349.03 225.043 348.806V347.167H224.562V346.818H225.043V346.179H225.495ZM227.578 349.14C227.739 349.14 227.879 349.091 228 348.994C228.12 348.896 228.187 348.774 228.2 348.627H228.627C228.619 348.779 228.567 348.923 228.471 349.06C228.375 349.196 228.246 349.305 228.085 349.387C227.926 349.468 227.757 349.509 227.578 349.509C227.218 349.509 226.931 349.389 226.718 349.15C226.507 348.909 226.401 348.58 226.401 348.164V348.088C226.401 347.831 226.448 347.602 226.542 347.402C226.637 347.202 226.772 347.046 226.948 346.936C227.125 346.825 227.334 346.77 227.575 346.77C227.871 346.77 228.117 346.858 228.312 347.036C228.509 347.213 228.614 347.443 228.627 347.727H228.2C228.187 347.556 228.122 347.416 228.005 347.307C227.889 347.196 227.746 347.141 227.575 347.141C227.346 347.141 227.167 347.224 227.04 347.39C226.915 347.554 226.852 347.792 226.852 348.105V348.19C226.852 348.495 226.915 348.729 227.04 348.894C227.166 349.058 227.345 349.14 227.578 349.14ZM229.016 348.115C229.016 347.856 229.066 347.623 229.167 347.417C229.269 347.21 229.411 347.05 229.592 346.938C229.774 346.826 229.981 346.77 230.214 346.77C230.574 346.77 230.864 346.894 231.086 347.143C231.309 347.392 231.42 347.723 231.42 348.137V348.168C231.42 348.426 231.371 348.657 231.271 348.862C231.174 349.065 231.033 349.224 230.849 349.338C230.667 349.452 230.457 349.509 230.219 349.509C229.861 349.509 229.571 349.384 229.348 349.135C229.126 348.886 229.016 348.557 229.016 348.146V348.115ZM229.47 348.168C229.47 348.461 229.537 348.697 229.672 348.874C229.809 349.051 229.991 349.14 230.219 349.14C230.449 349.14 230.631 349.051 230.766 348.872C230.901 348.691 230.969 348.439 230.969 348.115C230.969 347.825 230.899 347.591 230.761 347.412C230.624 347.231 230.442 347.141 230.214 347.141C229.991 347.141 229.811 347.229 229.675 347.407C229.538 347.584 229.47 347.838 229.47 348.168ZM231.877 348.117C231.877 347.712 231.973 347.386 232.165 347.141C232.357 346.893 232.608 346.77 232.919 346.77C233.229 346.77 233.474 346.875 233.654 347.087V345.71H234.106V349.46H233.691L233.669 349.177C233.488 349.398 233.237 349.509 232.914 349.509C232.608 349.509 232.359 349.383 232.165 349.133C231.973 348.882 231.877 348.555 231.877 348.151V348.117ZM232.328 348.168C232.328 348.468 232.39 348.702 232.514 348.872C232.638 349.041 232.809 349.125 233.027 349.125C233.313 349.125 233.522 348.997 233.654 348.74V347.526C233.519 347.277 233.312 347.153 233.032 347.153C232.81 347.153 232.638 347.238 232.514 347.409C232.39 347.58 232.328 347.833 232.328 348.168ZM235.905 349.509C235.547 349.509 235.256 349.392 235.031 349.157C234.807 348.921 234.694 348.606 234.694 348.212V348.129C234.694 347.867 234.744 347.634 234.843 347.429C234.944 347.222 235.084 347.061 235.263 346.945C235.444 346.828 235.639 346.77 235.849 346.77C236.192 346.77 236.459 346.883 236.65 347.109C236.84 347.335 236.935 347.659 236.935 348.081V348.269H235.146C235.152 348.529 235.228 348.74 235.373 348.901C235.519 349.06 235.705 349.14 235.93 349.14C236.089 349.14 236.224 349.108 236.335 349.042C236.446 348.977 236.542 348.891 236.625 348.784L236.901 348.999C236.68 349.339 236.348 349.509 235.905 349.509ZM235.849 347.141C235.667 347.141 235.514 347.207 235.39 347.341C235.266 347.473 235.19 347.658 235.161 347.897H236.484V347.863C236.471 347.634 236.409 347.456 236.298 347.331C236.188 347.204 236.038 347.141 235.849 347.141ZM237.47 349.223C237.47 349.145 237.493 349.08 237.538 349.028C237.586 348.976 237.656 348.95 237.748 348.95C237.841 348.95 237.911 348.976 237.958 349.028C238.007 349.08 238.032 349.145 238.032 349.223C238.032 349.298 238.007 349.361 237.958 349.411C237.911 349.462 237.841 349.487 237.748 349.487C237.656 349.487 237.586 349.462 237.538 349.411C237.493 349.361 237.47 349.298 237.47 349.223ZM239.838 349.14C239.999 349.14 240.14 349.091 240.261 348.994C240.381 348.896 240.448 348.774 240.461 348.627H240.888C240.88 348.779 240.828 348.923 240.732 349.06C240.636 349.196 240.507 349.305 240.346 349.387C240.187 349.468 240.017 349.509 239.838 349.509C239.479 349.509 239.192 349.389 238.979 349.15C238.767 348.909 238.661 348.58 238.661 348.164V348.088C238.661 347.831 238.709 347.602 238.803 347.402C238.898 347.202 239.033 347.046 239.208 346.936C239.386 346.825 239.595 346.77 239.836 346.77C240.132 346.77 240.378 346.858 240.573 347.036C240.77 347.213 240.875 347.443 240.888 347.727H240.461C240.448 347.556 240.383 347.416 240.266 347.307C240.15 347.196 240.007 347.141 239.836 347.141C239.606 347.141 239.428 347.224 239.301 347.39C239.176 347.554 239.113 347.792 239.113 348.105V348.19C239.113 348.495 239.176 348.729 239.301 348.894C239.426 349.058 239.606 349.14 239.838 349.14ZM241.276 348.115C241.276 347.856 241.327 347.623 241.428 347.417C241.53 347.21 241.672 347.05 241.852 346.938C242.035 346.826 242.242 346.77 242.475 346.77C242.835 346.77 243.125 346.894 243.347 347.143C243.57 347.392 243.681 347.723 243.681 348.137V348.168C243.681 348.426 243.631 348.657 243.532 348.862C243.434 349.065 243.294 349.224 243.11 349.338C242.927 349.452 242.717 349.509 242.48 349.509C242.122 349.509 241.831 349.384 241.608 349.135C241.387 348.886 241.276 348.557 241.276 348.146V348.115ZM241.73 348.168C241.73 348.461 241.798 348.697 241.933 348.874C242.07 349.051 242.252 349.14 242.48 349.14C242.709 349.14 242.892 349.051 243.027 348.872C243.162 348.691 243.229 348.439 243.229 348.115C243.229 347.825 243.16 347.591 243.022 347.412C242.885 347.231 242.703 347.141 242.475 347.141C242.252 347.141 242.072 347.229 241.935 347.407C241.799 347.584 241.73 347.838 241.73 348.168ZM244.672 346.818L244.684 347.111C244.878 346.883 245.139 346.77 245.468 346.77C245.838 346.77 246.089 346.911 246.223 347.194C246.31 347.067 246.424 346.965 246.564 346.887C246.706 346.809 246.873 346.77 247.065 346.77C247.644 346.77 247.939 347.076 247.949 347.69V349.46H247.497V347.717C247.497 347.528 247.454 347.387 247.368 347.294C247.281 347.2 247.136 347.153 246.933 347.153C246.765 347.153 246.626 347.203 246.516 347.304C246.405 347.403 246.341 347.538 246.323 347.707V349.46H245.869V347.729C245.869 347.345 245.681 347.153 245.305 347.153C245.008 347.153 244.806 347.279 244.697 347.531V349.46H244.245V346.818H244.672Z" fill="#EBEBEB"/>
</g>
</g>
<defs>
<filter id="filter0_d" x="0" y="44.4443" width="401.088" height="38.1618" filterUnits="userSpaceOnUse" color-interpolation-filters="sRGB">
<feFlood flood-opacity="0" result="BackgroundImageFix"/>
<feColorMatrix in="SourceAlpha" type="matrix" values="0 0 0 0 0 0 0 0 0 0 0 0 0 0 0 0 0 0 127 0"/>
<feOffset/>
<feGaussianBlur stdDeviation="2"/>
<feColorMatrix type="matrix" values="0 0 0 0 0.362583 0 0 0 0 0 0 0 0 0 0.954167 0 0 0 0.25 0"/>
<feBlend mode="normal" in2="BackgroundImageFix" result="effect1_dropShadow"/>
<feBlend mode="normal" in="SourceGraphic" in2="effect1_dropShadow" result="shape"/>
</filter>
<filter id="filter1_i" x="92.8851" y="58.0254" width="123" height="11" filterUnits="userSpaceOnUse" color-interpolation-filters="sRGB">
<feFlood flood-opacity="0" result="BackgroundImageFix"/>
<feBlend mode="normal" in="SourceGraphic" in2="BackgroundImageFix" result="shape"/>
<feColorMatrix in="SourceAlpha" type="matrix" values="0 0 0 0 0 0 0 0 0 0 0 0 0 0 0 0 0 0 127 0" result="hardAlpha"/>
<feOffset/>
<feGaussianBlur stdDeviation="2"/>
<feComposite in2="hardAlpha" operator="arithmetic" k2="-1" k3="1"/>
<feColorMatrix type="matrix" values="0 0 0 0 1 0 0 0 0 1 0 0 0 0 1 0 0 0 0.37 0"/>
<feBlend mode="normal" in2="shape" result="effect1_innerShadow"/>
</filter>
<filter id="filter2_d" x="107" y="328.879" width="401.088" height="38.1618" filterUnits="userSpaceOnUse" color-interpolation-filters="sRGB">
<feFlood flood-opacity="0" result="BackgroundImageFix"/>
<feColorMatrix in="SourceAlpha" type="matrix" values="0 0 0 0 0 0 0 0 0 0 0 0 0 0 0 0 0 0 127 0"/>
<feOffset/>
<feGaussianBlur stdDeviation="2"/>
<feColorMatrix type="matrix" values="0 0 0 0 0.362583 0 0 0 0 0 0 0 0 0 0.954167 0 0 0 0.25 0"/>
<feBlend mode="normal" in2="BackgroundImageFix" result="effect1_dropShadow"/>
<feBlend mode="normal" in="SourceGraphic" in2="effect1_dropShadow" result="shape"/>
</filter>
<filter id="filter3_i" x="199.885" y="342.46" width="123" height="11" filterUnits="userSpaceOnUse" color-interpolation-filters="sRGB">
<feFlood flood-opacity="0" result="BackgroundImageFix"/>
<feBlend mode="normal" in="SourceGraphic" in2="BackgroundImageFix" result="shape"/>
<feColorMatrix in="SourceAlpha" type="matrix" values="0 0 0 0 0 0 0 0 0 0 0 0 0 0 0 0 0 0 127 0" result="hardAlpha"/>
<feOffset/>
<feGaussianBlur stdDeviation="2"/>
<feComposite in2="hardAlpha" operator="arithmetic" k2="-1" k3="1"/>
<feColorMatrix type="matrix" values="0 0 0 0 1 0 0 0 0 1 0 0 0 0 1 0 0 0 0.37 0"/>
<feBlend mode="normal" in2="shape" result="effect1_innerShadow"/>
</filter>
</defs>
</svg>
