<svg width="303" height="243" viewBox="0 0 303 243" fill="none" xmlns="http://www.w3.org/2000/svg">
<g clip-path="url(#clip0)">
<path d="M174.077 40.8715V148.299C174.077 149.079 173.786 149.828 173.268 150.379C172.749 150.931 172.046 151.241 171.312 151.241H54.0363C53.303 151.241 52.5997 150.931 52.0812 150.379C51.5627 149.828 51.2714 149.079 51.2714 148.299V40.8715C51.2704 40.4844 51.3412 40.101 51.4797 39.7431C51.6182 39.3853 51.8217 39.06 52.0785 38.7859C52.3353 38.5119 52.6405 38.2945 52.9764 38.1461C53.3124 37.9977 53.6725 37.9214 54.0363 37.9214H171.312C171.676 37.9214 172.036 37.9977 172.372 38.1461C172.708 38.2945 173.013 38.5119 173.27 38.7859C173.527 39.06 173.731 39.3853 173.869 39.7431C174.008 40.101 174.078 40.4844 174.077 40.8715Z" fill="#8B68FC"/>
<path d="M171.312 152.047H54.0363C53.1027 152.045 52.2079 151.649 51.5478 150.947C50.8877 150.244 50.5159 149.292 50.5139 148.299V40.8713C50.5139 39.8766 50.8848 38.9224 51.5451 38.2182C52.2055 37.514 53.1014 37.1174 54.0363 37.1152H171.312C172.247 37.1174 173.143 37.514 173.804 38.2182C174.464 38.9224 174.835 39.8766 174.835 40.8713V148.299C174.835 149.293 174.464 150.246 173.803 150.949C173.143 151.652 172.247 152.047 171.312 152.047ZM54.0363 38.7273C53.5032 38.7294 52.9926 38.9563 52.6164 39.3581C52.2402 39.76 52.0289 40.3041 52.0289 40.8713V148.299C52.0289 148.865 52.2404 149.409 52.6169 149.809C52.9933 150.21 53.5039 150.435 54.0363 150.435H171.312C171.845 150.435 172.355 150.21 172.732 149.809C173.108 149.409 173.32 148.865 173.32 148.299V40.8713C173.32 40.3041 173.109 39.76 172.732 39.3581C172.356 38.9563 171.846 38.7294 171.312 38.7273H54.0363Z" fill="#093F68"/>
<path d="M161.563 29.7562V137.184C161.563 137.57 161.492 137.953 161.353 138.31C161.214 138.667 161.01 138.991 160.754 139.264C160.497 139.537 160.192 139.754 159.857 139.902C159.521 140.05 159.162 140.126 158.798 140.126H41.5223C41.1592 140.126 40.7997 140.05 40.4643 139.902C40.1288 139.754 39.824 139.537 39.5673 139.264C39.3105 138.991 39.1069 138.667 38.9679 138.31C38.829 137.953 38.7575 137.57 38.7575 137.184V29.7562C38.7565 29.3692 38.8272 28.9858 38.9657 28.6279C39.1042 28.27 39.3077 27.9447 39.5646 27.6707C39.8214 27.3966 40.1266 27.1792 40.4625 27.0309C40.7985 26.8825 41.1586 26.8062 41.5223 26.8062H158.798C159.162 26.8062 159.522 26.8825 159.858 27.0309C160.194 27.1792 160.499 27.3966 160.756 27.6707C161.013 27.9447 161.217 28.27 161.355 28.6279C161.494 28.9858 161.564 29.3692 161.563 29.7562Z" fill="white"/>
<path d="M158.799 140.932H41.5224C40.5882 140.932 39.6923 140.537 39.0317 139.834C38.3711 139.131 38 138.178 38 137.184V29.7561C38 28.7613 38.3709 27.8072 39.0312 27.103C39.6916 26.3988 40.5875 26.0021 41.5224 26H158.799C159.733 26.0021 160.629 26.3988 161.29 27.103C161.95 27.8072 162.321 28.7613 162.321 29.7561V137.184C162.321 138.178 161.95 139.131 161.289 139.834C160.629 140.537 159.733 140.932 158.799 140.932ZM41.5224 27.6121C40.9893 27.6142 40.4787 27.841 40.1025 28.2429C39.7262 28.6447 39.515 29.1889 39.515 29.7561V137.184C39.515 137.464 39.5669 137.742 39.6678 138.001C39.7687 138.26 39.9165 138.496 40.1029 138.694C40.2894 138.892 40.5106 139.05 40.7542 139.157C40.9977 139.264 41.2588 139.32 41.5224 139.32H158.799C159.331 139.32 159.842 139.095 160.218 138.694C160.594 138.294 160.806 137.75 160.806 137.184V29.7561C160.806 29.1889 160.595 28.6447 160.218 28.2429C159.842 27.841 159.332 27.6142 158.799 27.6121H41.5224Z" fill="#093F68"/>
<path d="M161.563 29.7562V137.184C161.563 137.57 161.492 137.953 161.353 138.31C161.214 138.667 161.01 138.991 160.754 139.264C160.497 139.537 160.192 139.754 159.857 139.902C159.521 140.05 159.162 140.126 158.799 140.126H80.7761V26.8062H158.799C159.162 26.8062 159.522 26.8825 159.858 27.0309C160.194 27.1792 160.5 27.3966 160.756 27.6707C161.013 27.9447 161.217 28.27 161.355 28.6279C161.494 28.9858 161.564 29.3692 161.563 29.7562Z" fill="#093F68"/>
<path d="M158.799 140.932H80.7761C80.5752 140.932 80.3825 140.847 80.2404 140.696C80.0984 140.545 80.0186 140.339 80.0186 140.126V26.806C80.0186 26.5923 80.0984 26.3872 80.2404 26.2361C80.3825 26.0849 80.5752 26 80.7761 26H158.799C159.733 26.0021 160.629 26.3988 161.29 27.103C161.95 27.8072 162.321 28.7613 162.321 29.7561V137.184C162.321 138.178 161.95 139.131 161.289 139.834C160.629 140.537 159.733 140.932 158.799 140.932ZM81.5336 139.32H158.799C159.331 139.32 159.842 139.095 160.218 138.694C160.594 138.294 160.806 137.75 160.806 137.184V29.7561C160.806 29.1889 160.595 28.6447 160.218 28.2429C159.842 27.841 159.332 27.6142 158.799 27.6121H81.5336V139.32Z" fill="#093F68"/>
<path d="M161.563 29.7562V41.8467H38.7575V29.7562C38.7565 29.3692 38.8272 28.9858 38.9657 28.6279C39.1042 28.27 39.3077 27.9447 39.5646 27.6707C39.8214 27.3966 40.1266 27.1792 40.4625 27.0309C40.7985 26.8825 41.1586 26.8062 41.5223 26.8062H158.798C159.162 26.8062 159.522 26.8825 159.858 27.0309C160.194 27.1792 160.499 27.3966 160.756 27.6707C161.013 27.9447 161.217 28.27 161.355 28.6279C161.494 28.9858 161.564 29.3692 161.563 29.7562Z" fill="white"/>
<path d="M161.563 42.6613H38.7575C38.5566 42.6613 38.3639 42.5764 38.2219 42.4253C38.0798 42.2741 38 42.0691 38 41.8553V29.7649C38 28.7701 38.3709 27.8159 39.0312 27.1118C39.6916 26.4076 40.5875 26.0109 41.5224 26.0088H158.799C159.733 26.0109 160.629 26.4076 161.29 27.1118C161.95 27.8159 162.321 28.7701 162.321 29.7649V41.8553C162.321 42.0691 162.241 42.2741 162.099 42.4253C161.957 42.5764 161.764 42.6613 161.563 42.6613ZM39.515 41.0493H160.806V29.7649C160.806 29.1976 160.595 28.6535 160.218 28.2517C159.842 27.8498 159.332 27.623 158.799 27.6208H41.5224C40.9893 27.623 40.4787 27.8498 40.1025 28.2517C39.7262 28.6535 39.515 29.1976 39.515 29.7649V41.0493Z" fill="#093F68"/>
<path d="M48.2338 36.6397C49.6479 36.6397 50.7942 35.4199 50.7942 33.9153C50.7942 32.4107 49.6479 31.1909 48.2338 31.1909C46.8198 31.1909 45.6735 32.4107 45.6735 33.9153C45.6735 35.4199 46.8198 36.6397 48.2338 36.6397Z" fill="#F56132"/>
<path d="M48.2339 37.4378C47.5777 37.4378 46.9362 37.2307 46.3906 36.8428C45.8449 36.4549 45.4197 35.9035 45.1686 35.2584C44.9175 34.6133 44.8517 33.9034 44.9798 33.2186C45.1078 32.5338 45.4238 31.9047 45.8878 31.411C46.3518 30.9173 46.943 30.581 47.5866 30.4448C48.2302 30.3086 48.8973 30.3785 49.5035 30.6457C50.1098 30.9129 50.628 31.3654 50.9926 31.946C51.3571 32.5265 51.5517 33.2091 51.5517 33.9074C51.5497 34.843 51.1995 35.7398 50.5777 36.4014C49.9559 37.063 49.1132 37.4356 48.2339 37.4378ZM48.2339 31.989C47.8773 31.989 47.5287 32.1015 47.2323 32.3123C46.9358 32.5231 46.7047 32.8227 46.5682 33.1732C46.4318 33.5238 46.3961 33.9095 46.4657 34.2816C46.5352 34.6537 46.7069 34.9956 46.9591 35.2638C47.2112 35.5321 47.5324 35.7148 47.8821 35.7888C48.2319 35.8629 48.5944 35.8249 48.9238 35.6797C49.2532 35.5345 49.5348 35.2886 49.7329 34.9731C49.931 34.6577 50.0367 34.2868 50.0367 33.9074C50.0327 33.4006 49.8413 32.916 49.5038 32.5584C49.1664 32.2009 48.7101 31.9992 48.2339 31.9971V31.989Z" fill="#093F68"/>
<path d="M58.5737 36.6397C59.9877 36.6397 61.134 35.4199 61.134 33.9153C61.134 32.4107 59.9877 31.1909 58.5737 31.1909C57.1596 31.1909 56.0133 32.4107 56.0133 33.9153C56.0133 35.4199 57.1596 36.6397 58.5737 36.6397Z" fill="#FFBC0E"/>
<path d="M58.5737 37.4378C57.9172 37.4393 57.275 37.2336 56.7284 36.8467C56.1817 36.4597 55.7553 35.9089 55.503 35.264C55.2507 34.619 55.184 33.9089 55.3111 33.2236C55.4383 32.5382 55.7537 31.9084 56.2174 31.4138C56.6811 30.9193 57.2723 30.5823 57.9161 30.4454C58.5599 30.3085 59.2274 30.3779 59.8341 30.6449C60.4407 30.9119 60.9594 31.3644 61.3243 31.9451C61.6892 32.5259 61.884 33.2088 61.884 33.9074C61.882 34.8416 61.5328 35.7371 60.9127 36.3985C60.2925 37.0599 59.4517 37.4335 58.5737 37.4378ZM58.5737 31.989C58.2168 31.9874 57.8675 32.0986 57.57 32.3084C57.2726 32.5182 57.0403 32.8172 56.9027 33.1676C56.7651 33.518 56.7283 33.904 56.797 34.2766C56.8657 34.6493 57.0368 34.9919 57.2886 35.2609C57.5405 35.53 57.8617 35.7136 58.2116 35.7882C58.5615 35.8629 58.9244 35.8254 59.2543 35.6804C59.5842 35.5355 59.8662 35.2896 60.0646 34.974C60.263 34.6583 60.369 34.2871 60.369 33.9074C60.367 33.4014 60.1772 32.9167 59.841 32.5589C59.5047 32.2011 59.0492 31.9992 58.5737 31.9971V31.989Z" fill="#093F68"/>
<path d="M68.9059 36.6397C70.32 36.6397 71.4663 35.4199 71.4663 33.9153C71.4663 32.4107 70.32 31.1909 68.9059 31.1909C67.4919 31.1909 66.3456 32.4107 66.3456 33.9153C66.3456 35.4199 67.4919 36.6397 68.9059 36.6397Z" fill="#70CC40"/>
<path d="M68.906 37.4378C68.2498 37.4378 67.6083 37.2307 67.0627 36.8428C66.5171 36.4549 66.0918 35.9035 65.8407 35.2584C65.5896 34.6133 65.5239 33.9034 65.6519 33.2186C65.7799 32.5338 66.0959 31.9047 66.5599 31.411C67.0239 30.9173 67.6151 30.581 68.2587 30.4448C68.9023 30.3086 69.5694 30.3785 70.1757 30.6457C70.7819 30.9129 71.3001 31.3654 71.6647 31.946C72.0292 32.5265 72.2238 33.2091 72.2238 33.9074C72.2218 34.843 71.8716 35.7398 71.2498 36.4014C70.6281 37.063 69.7853 37.4356 68.906 37.4378ZM68.906 31.989C68.5494 31.989 68.2009 32.1015 67.9044 32.3123C67.6079 32.5231 67.3768 32.8227 67.2404 33.1732C67.1039 33.5238 67.0682 33.9095 67.1378 34.2816C67.2073 34.6537 67.379 34.9956 67.6312 35.2638C67.8833 35.5321 68.2045 35.7148 68.5543 35.7888C68.904 35.8629 69.2665 35.8249 69.5959 35.6797C69.9253 35.5345 70.2069 35.2886 70.405 34.9731C70.6031 34.6577 70.7088 34.2868 70.7088 33.9074C70.7049 33.4006 70.5134 32.916 70.1759 32.5584C69.8385 32.2009 69.3822 31.9992 68.906 31.9971V31.989Z" fill="#093F68"/>
<path d="M67.2546 52.0989H46.3703C46.1694 52.0989 45.9767 52.0139 45.8347 51.8628C45.6926 51.7116 45.6128 51.5066 45.6128 51.2928C45.6128 51.0791 45.6926 50.8741 45.8347 50.7229C45.9767 50.5717 46.1694 50.4868 46.3703 50.4868H67.2546C67.4555 50.4868 67.6482 50.5717 67.7902 50.7229C67.9323 50.8741 68.0121 51.0791 68.0121 51.2928C68.0121 51.5066 67.9323 51.7116 67.7902 51.8628C67.6482 52.0139 67.4555 52.0989 67.2546 52.0989Z" fill="#DFEAEF"/>
<path d="M70.8149 62.094H53.2333C53.0324 62.094 52.8398 62.0091 52.6977 61.8579C52.5556 61.7067 52.4758 61.5017 52.4758 61.288C52.4758 61.0742 52.5556 60.8692 52.6977 60.718C52.8398 60.5669 53.0324 60.4819 53.2333 60.4819H70.8149C71.0158 60.4819 71.2085 60.5669 71.3505 60.718C71.4926 60.8692 71.5724 61.0742 71.5724 61.288C71.5724 61.5017 71.4926 61.7067 71.3505 61.8579C71.2085 62.0091 71.0158 62.094 70.8149 62.094Z" fill="#DFEAEF"/>
<path d="M73.2237 72.0964H58.6039C58.403 72.0964 58.2104 72.0115 58.0683 71.8603C57.9262 71.7092 57.8464 71.5042 57.8464 71.2904C57.8464 71.0766 57.9262 70.8716 58.0683 70.7205C58.2104 70.5693 58.403 70.4844 58.6039 70.4844H73.2237C73.4246 70.4844 73.6172 70.5693 73.7593 70.7205C73.9014 70.8716 73.9812 71.0766 73.9812 71.2904C73.9812 71.5042 73.9014 71.7092 73.7593 71.8603C73.6172 72.0115 73.4246 72.0964 73.2237 72.0964Z" fill="#DFEAEF"/>
<path d="M68.4516 82.0998H49.9534C49.7525 82.0998 49.5598 82.0149 49.4178 81.8638C49.2757 81.7126 49.1959 81.5076 49.1959 81.2938C49.1959 81.08 49.2757 80.875 49.4178 80.7239C49.5598 80.5727 49.7525 80.4878 49.9534 80.4878H68.4516C68.6525 80.4878 68.8451 80.5727 68.9872 80.7239C69.1293 80.875 69.2091 81.08 69.2091 81.2938C69.2091 81.5076 69.1293 81.7126 68.9872 81.8638C68.8451 82.0149 68.6525 82.0998 68.4516 82.0998Z" fill="#DFEAEF"/>
<path d="M63.4746 92.0945H46.3703C46.1694 92.0945 45.9767 92.0096 45.8347 91.8584C45.6926 91.7072 45.6128 91.5022 45.6128 91.2885C45.6128 91.0747 45.6926 90.8697 45.8347 90.7185C45.9767 90.5673 46.1694 90.4824 46.3703 90.4824H63.4746C63.6755 90.4824 63.8682 90.5673 64.0103 90.7185C64.1523 90.8697 64.2321 91.0747 64.2321 91.2885C64.2321 91.5022 64.1523 91.7072 64.0103 91.8584C63.8682 92.0096 63.6755 92.0945 63.4746 92.0945Z" fill="#DFEAEF"/>
<path d="M67.2547 102.097H52.1047C51.9038 102.097 51.7111 102.012 51.569 101.861C51.427 101.71 51.3472 101.505 51.3472 101.291C51.3472 101.077 51.427 100.872 51.569 100.721C51.7111 100.57 51.9038 100.485 52.1047 100.485H67.2547C67.4556 100.485 67.6483 100.57 67.7903 100.721C67.9324 100.872 68.0122 101.077 68.0122 101.291C68.0122 101.505 67.9324 101.71 67.7903 101.861C67.6483 102.012 67.4556 102.097 67.2547 102.097Z" fill="#DFEAEF"/>
<path d="M62.0354 112.092H46.3703C46.1694 112.092 45.9767 112.007 45.8347 111.856C45.6926 111.705 45.6128 111.5 45.6128 111.286C45.6128 111.072 45.6926 110.867 45.8347 110.716C45.9767 110.565 46.1694 110.48 46.3703 110.48H62.0354C62.2363 110.48 62.429 110.565 62.571 110.716C62.7131 110.867 62.7929 111.072 62.7929 111.286C62.7929 111.5 62.7131 111.705 62.571 111.856C62.429 112.007 62.2363 112.092 62.0354 112.092Z" fill="#DFEAEF"/>
<path d="M67.2547 122.071H52.1047C51.9038 122.071 51.7111 121.986 51.569 121.834C51.427 121.683 51.3472 121.478 51.3472 121.265C51.3472 121.051 51.427 120.846 51.569 120.695C51.7111 120.543 51.9038 120.458 52.1047 120.458H67.2547C67.4556 120.458 67.6483 120.543 67.7903 120.695C67.9324 120.846 68.0122 121.051 68.0122 121.265C68.0122 121.478 67.9324 121.683 67.7903 121.834C67.6483 121.986 67.4556 122.071 67.2547 122.071Z" fill="#DFEAEF"/>
<path d="M101.585 52.0989H88.8586C88.6577 52.0989 88.465 52.0139 88.3229 51.8628C88.1809 51.7116 88.1011 51.5066 88.1011 51.2928C88.1011 51.0791 88.1809 50.8741 88.3229 50.7229C88.465 50.5717 88.6577 50.4868 88.8586 50.4868H101.585C101.785 50.4868 101.978 50.5717 102.12 50.7229C102.262 50.8741 102.342 51.0791 102.342 51.2928C102.342 51.5066 102.262 51.7116 102.12 51.8628C101.978 52.0139 101.785 52.0989 101.585 52.0989Z" fill="white"/>
<path d="M119.159 62.094H93.04C92.8391 62.094 92.6464 62.0091 92.5043 61.8579C92.3623 61.7067 92.2825 61.5017 92.2825 61.288C92.2825 61.0742 92.3623 60.8692 92.5043 60.718C92.6464 60.5669 92.8391 60.4819 93.04 60.4819H119.159C119.359 60.4819 119.552 60.5669 119.694 60.718C119.836 60.8692 119.916 61.0742 119.916 61.288C119.916 61.5017 119.836 61.7067 119.694 61.8579C119.552 62.0091 119.359 62.094 119.159 62.094Z" fill="#FFBC0E"/>
<path d="M112.674 72.0964H93.04C92.8391 72.0964 92.6464 72.0115 92.5043 71.8603C92.3623 71.7092 92.2825 71.5042 92.2825 71.2904C92.2825 71.0766 92.3623 70.8716 92.5043 70.7205C92.6464 70.5693 92.8391 70.4844 93.04 70.4844H112.674C112.875 70.4844 113.068 70.5693 113.21 70.7205C113.352 70.8716 113.432 71.0766 113.432 71.2904C113.432 71.5042 113.352 71.7092 113.21 71.8603C113.068 72.0115 112.875 72.0964 112.674 72.0964Z" fill="#FFBC0E"/>
<path d="M102.312 82.0998H91.0402C90.8393 82.0998 90.6466 82.0149 90.5046 81.8638C90.3625 81.7126 90.2827 81.5076 90.2827 81.2938C90.2827 81.08 90.3625 80.875 90.5046 80.7239C90.6466 80.5727 90.8393 80.4878 91.0402 80.4878H102.312C102.513 80.4878 102.705 80.5727 102.847 80.7239C102.989 80.875 103.069 81.08 103.069 81.2938C103.069 81.5076 102.989 81.7126 102.847 81.8638C102.705 82.0149 102.513 82.0998 102.312 82.0998Z" fill="white"/>
<path d="M106.796 92.0945H94.0702C93.8693 92.0945 93.6767 92.0096 93.5346 91.8584C93.3926 91.7072 93.3127 91.5022 93.3127 91.2885C93.3127 91.0747 93.3926 90.8697 93.5346 90.7185C93.6767 90.5673 93.8693 90.4824 94.0702 90.4824H106.796C106.997 90.4824 107.19 90.5673 107.332 90.7185C107.474 90.8697 107.554 91.0747 107.554 91.2885C107.554 91.5022 107.474 91.7072 107.332 91.8584C107.19 92.0096 106.997 92.0945 106.796 92.0945Z" fill="#F56132"/>
<path d="M113.28 102.097H93.6308C93.4299 102.097 93.2372 102.012 93.0952 101.861C92.9531 101.71 92.8733 101.505 92.8733 101.291C92.8733 101.077 92.9531 100.872 93.0952 100.721C93.2372 100.57 93.4299 100.485 93.6308 100.485H113.28C113.481 100.485 113.674 100.57 113.816 100.721C113.958 100.872 114.038 101.077 114.038 101.291C114.038 101.505 113.958 101.71 113.816 101.861C113.674 102.012 113.481 102.097 113.28 102.097Z" fill="white"/>
<path d="M98.4031 112.092H88.8586C88.6577 112.092 88.465 112.007 88.3229 111.856C88.1809 111.705 88.1011 111.5 88.1011 111.286C88.1011 111.072 88.1809 110.867 88.3229 110.716C88.465 110.565 88.6577 110.48 88.8586 110.48H98.4031C98.604 110.48 98.7966 110.565 98.9387 110.716C99.0807 110.867 99.1606 111.072 99.1606 111.286C99.1606 111.5 99.0807 111.705 98.9387 111.856C98.7966 112.007 98.604 112.092 98.4031 112.092Z" fill="white"/>
<path d="M113.28 122.071H92.3733C92.1724 122.071 91.9798 121.986 91.8377 121.834C91.6957 121.683 91.6158 121.478 91.6158 121.265C91.6158 121.051 91.6957 120.846 91.8377 120.695C91.9798 120.543 92.1724 120.458 92.3733 120.458H113.28C113.481 120.458 113.674 120.543 113.816 120.695C113.958 120.846 114.038 121.051 114.038 121.265C114.038 121.478 113.958 121.683 113.816 121.834C113.674 121.986 113.481 122.071 113.28 122.071Z" fill="#70CC40"/>
<path d="M133.309 122.071H119.583C119.382 122.071 119.189 121.986 119.047 121.834C118.905 121.683 118.825 121.478 118.825 121.265C118.825 121.051 118.905 120.846 119.047 120.695C119.189 120.543 119.382 120.458 119.583 120.458H133.309C133.509 120.458 133.702 120.543 133.844 120.695C133.986 120.846 134.066 121.051 134.066 121.265C134.066 121.478 133.986 121.683 133.844 121.834C133.702 121.986 133.509 122.071 133.309 122.071Z" fill="#FFBC0E"/>
<path d="M128.855 72.0964H119.159C118.958 72.0964 118.765 72.0115 118.623 71.8603C118.481 71.7092 118.401 71.5042 118.401 71.2904C118.401 71.0766 118.481 70.8716 118.623 70.7205C118.765 70.5693 118.958 70.4844 119.159 70.4844H128.855C129.056 70.4844 129.248 70.5693 129.39 70.7205C129.532 70.8716 129.612 71.0766 129.612 71.2904C129.612 71.5042 129.532 71.7092 129.39 71.8603C129.248 72.0115 129.056 72.0964 128.855 72.0964Z" fill="white"/>
<path d="M142.679 62.094H124.007C123.806 62.094 123.613 62.0091 123.471 61.8579C123.329 61.7067 123.249 61.5017 123.249 61.288C123.249 61.0742 123.329 60.8692 123.471 60.718C123.613 60.5669 123.806 60.4819 124.007 60.4819H142.679C142.88 60.4819 143.072 60.5669 143.215 60.718C143.357 60.8692 143.436 61.0742 143.436 61.288C143.436 61.5017 143.357 61.7067 143.215 61.8579C143.072 62.0091 142.88 62.094 142.679 62.094Z" fill="#8B68FC"/>
<path d="M139.588 72.0964H134.127C133.926 72.0964 133.733 72.0115 133.591 71.8603C133.449 71.7092 133.369 71.5042 133.369 71.2904C133.369 71.0766 133.449 70.8716 133.591 70.7205C133.733 70.5693 133.926 70.4844 134.127 70.4844H139.588C139.789 70.4844 139.982 70.5693 140.124 70.7205C140.266 70.8716 140.346 71.0766 140.346 71.2904C140.346 71.5042 140.266 71.7092 140.124 71.8603C139.982 72.0115 139.789 72.0964 139.588 72.0964Z" fill="#F56132"/>
<path d="M116.007 92.0945H110.553C110.352 92.0945 110.16 92.0096 110.018 91.8584C109.876 91.7072 109.796 91.5022 109.796 91.2885C109.796 91.0747 109.876 90.8697 110.018 90.7185C110.16 90.5673 110.352 90.4824 110.553 90.4824H116.007C116.208 90.4824 116.401 90.5673 116.543 90.7185C116.685 90.8697 116.765 91.0747 116.765 91.2885C116.765 91.5022 116.685 91.7072 116.543 91.8584C116.401 92.0096 116.208 92.0945 116.007 92.0945Z" fill="#F56132"/>
<path d="M142.679 92.0945H120.492C120.291 92.0945 120.098 92.0096 119.956 91.8584C119.814 91.7072 119.734 91.5022 119.734 91.2885C119.734 91.0747 119.814 90.8697 119.956 90.7185C120.098 90.5673 120.291 90.4824 120.492 90.4824H142.679C142.88 90.4824 143.072 90.5673 143.214 90.7185C143.357 90.8697 143.436 91.0747 143.436 91.2885C143.436 91.5022 143.357 91.7072 143.214 91.8584C143.072 92.0096 142.88 92.0945 142.679 92.0945Z" fill="#FFBC0E"/>
<path d="M124.007 102.097H119.159C118.958 102.097 118.765 102.012 118.623 101.861C118.481 101.71 118.401 101.505 118.401 101.291C118.401 101.077 118.481 100.872 118.623 100.721C118.765 100.57 118.958 100.485 119.159 100.485H124.007C124.208 100.485 124.4 100.57 124.542 100.721C124.684 100.872 124.764 101.077 124.764 101.291C124.764 101.505 124.684 101.71 124.542 101.861C124.4 102.012 124.208 102.097 124.007 102.097Z" fill="#8B68FC"/>
<path d="M142.679 122.071H139.588C139.387 122.071 139.195 121.986 139.053 121.834C138.911 121.683 138.831 121.478 138.831 121.265C138.831 121.051 138.911 120.846 139.053 120.695C139.195 120.543 139.387 120.458 139.588 120.458H142.679C142.88 120.458 143.073 120.543 143.215 120.695C143.357 120.846 143.436 121.051 143.436 121.265C143.436 121.478 143.357 121.683 143.215 121.834C143.073 121.986 142.88 122.071 142.679 122.071Z" fill="white"/>
<path d="M217.699 205.879C224.991 205.879 230.915 203.874 235.473 199.863C240.03 195.853 242.4 190.521 242.582 183.867H279.633C279.542 193.893 276.807 203.099 271.43 211.484C266.052 219.779 258.669 226.25 249.281 230.898C239.984 235.456 229.685 237.734 218.383 237.734C197.237 237.734 180.557 231.035 168.344 217.637C156.13 204.147 150.023 185.553 150.023 161.855V159.258C150.023 136.471 156.085 118.288 168.207 104.707C180.329 91.1263 196.964 84.3359 218.109 84.3359C236.612 84.3359 251.423 89.6224 262.543 100.195C273.754 110.677 279.451 124.668 279.633 142.168H242.582C242.4 134.512 240.03 128.314 235.473 123.574C230.915 118.743 224.9 116.328 217.426 116.328C208.22 116.328 201.247 119.701 196.508 126.445C191.859 133.099 189.535 143.945 189.535 158.984V163.086C189.535 178.307 191.859 189.245 196.508 195.898C201.156 202.552 208.22 205.879 217.699 205.879Z" fill="#8B68FC"/>
</g>
<defs>
<clipPath id="clip0">
<rect width="303" height="243" fill="white"/>
</clipPath>
</defs>
</svg>
